<svg width="100.0mm" height="100.0mm" viewBox="0 0 100.0 100.0" xmlns="http://www.w3.org/2000/svg"><polyline points="63.63,-0.01 64.15,-0.00 64.68,0.01 65.21,0.01 65.74,0.01 66.27,-0.00 66.80,-0.01 67.33,-0.03 67.85,-0.02 68.37,0.03 68.87,0.13 69.37,0.26 69.85,0.43 70.33,0.62 70.80,0.82 71.26,1.03 71.72,1.24 72.17,1.46 72.62,1.67 73.06,1.88 73.51,2.10 73.95,2.31 74.39,2.52 74.83,2.73 75.28,2.94 75.73,3.13 76.17,3.29 76.62,3.41 77.05,3.48 77.46,3.52 77.83,3.52 78.12,3.50" fill="none" stroke="black" stroke-width="0.5"/><polyline points="36.60,2.86 36.36,3.30 36.23,3.84 36.23,4.35 36.37,4.75 36.52,5.28 36.22,5.56 35.82,5.50 36.32,5.51 36.85,5.49 37.30,5.58 37.66,5.66 37.72,5.29 37.85,4.93 37.85,4.69 37.85,4.46 37.86,4.23 37.84,3.99" fill="none" stroke="black" stroke-width="0.5"/><polyline points="39.08,4.12 38.88,4.56 39.05,4.97 38.80,5.00 38.55,5.36 38.53,5.77 38.97,5.83 39.43,5.83 39.47,5.87 39.93,5.99 40.21,6.03 40.08,5.68 40.54,5.57 40.92,5.67 41.30,6.12 41.65,6.22 41.77,6.51 41.78,6.90 42.21,6.92 42.61,6.94 42.11,6.97 41.97,7.42 42.26,7.79 42.57,7.84 42.89,7.81 42.99,8.25 43.35,8.50 43.30,8.53 43.83,8.56 44.19,8.70 43.97,8.31 44.31,8.09 43.85,8.09 43.41,7.95 43.14,7.62 43.45,7.12 43.92,7.12 44.37,7.15 44.82,7.25 45.34,7.25 45.19,7.29 44.87,6.81 45.27,6.68 45.41,6.69 44.80,6.60 44.41,6.50 43.91,6.49 43.40,6.52 43.08,6.43 42.67,6.27" fill="none" stroke="black" stroke-width="0.5"/><polyline points="22.58,4.25 23.05,4.29 23.21,4.33 23.56,4.40 23.80,4.46 24.07,4.49 24.43,4.53 24.83,4.59 24.61,4.63 25.17,4.64 25.61,4.76 25.84,4.79 26.09,4.84 26.36,4.92 26.78,4.91 26.66,4.95 27.11,4.99 27.39,5.08 27.88,5.08 27.84,5.11 28.32,5.21 28.66,5.25 28.51,5.29 29.04,5.30 29.02,5.33 29.44,5.42 29.73,5.45 29.84,5.50 30.49,5.56 30.91,5.64 30.99,5.71 31.64,5.76 32.08,5.81 32.30,5.83 32.33,5.86 32.81,6.01 32.99,6.10 33.54,6.16 33.91,6.21 33.93,6.25 34.23,6.25 34.63,6.31 34.96,6.34 34.75,6.38 35.22,6.46 35.48,6.50 35.59,6.54 35.99,6.54 36.01,6.59 36.45,6.63 36.81,6.72 36.90,6.76 37.32,6.79 37.30,6.83 37.72,6.83 38.01,7.03 38.42,7.02 38.83,7.15 39.20,7.20 39.44,7.25 39.80,7.40 40.21,7.46 40.62,7.48 40.97,7.52 41.45,7.62 41.82,7.66 41.74,8.12 41.25,8.08" fill="none" stroke="black" stroke-width="0.5"/><polyline points="49.37,5.96 49.48,6.29 49.56,6.71 49.19,6.90 48.55,6.86 48.22,6.85" fill="none" stroke="black" stroke-width="0.5"/><polyline points="39.19,6.41 39.41,6.49 39.84,6.58 40.28,6.65 40.78,6.71 41.36,6.77 40.90,6.79" fill="none" stroke="black" stroke-width="0.5"/><polyline points="64.43,7.75 64.79,7.76 65.27,7.76 64.86,7.79 65.19,7.78 65.71,7.82 66.15,7.78 66.68,7.75 67.07,7.77 66.53,7.79 66.43,7.79 67.00,7.79 67.37,7.82 67.67,7.85 68.05,7.91 68.26,7.95 68.79,7.99 69.28,8.01 68.99,8.09 69.29,8.04 69.79,8.14 70.11,8.16 70.55,8.26 71.00,8.14 71.47,8.10 71.98,8.17 72.49,8.26 72.72,8.33 72.96,8.33 73.16,8.38 73.62,8.35 73.53,8.37 74.18,8.46 74.28,8.51 74.73,8.51 75.26,8.64 75.65,8.74 75.97,8.84" fill="none" stroke="black" stroke-width="0.5"/><polyline points="44.35,8.12 44.66,8.24 45.00,8.26 45.30,8.34 45.84,8.44 46.28,8.48 46.76,8.56 46.86,8.58 47.44,8.71 47.21,8.76" fill="none" stroke="black" stroke-width="0.5"/><polyline points="48.77,8.96 49.07,9.03 49.48,9.09 49.85,9.16 50.28,9.24 50.83,9.34 51.28,9.42 51.41,9.45" fill="none" stroke="black" stroke-width="0.5"/><polyline points="55.66,10.31 55.96,10.33 56.53,10.46 57.16,10.58" fill="none" stroke="black" stroke-width="0.5"/><polyline points="22.26,13.36 22.72,13.43 23.19,13.51 23.70,13.58 24.23,13.66 24.71,13.72 24.79,13.77 25.41,13.82 25.61,13.87 26.02,13.89 26.13,13.91 26.32,13.97 26.75,14.02 27.16,14.07 27.38,14.12 27.43,14.17 28.15,14.20 28.28,14.25" fill="none" stroke="black" stroke-width="0.5"/><polyline points="30.64,14.54 30.95,14.57 31.12,14.63 31.58,14.69 31.34,14.71 31.87,14.73 31.90,14.75 32.45,14.83 32.95,14.89 32.63,14.92 33.20,14.96 33.62,15.02 33.89,15.04 34.18,15.09 34.58,15.16 35.02,15.27 35.50,15.37 36.04,15.41 36.36,15.45 36.62,15.49 36.59,15.55" fill="none" stroke="black" stroke-width="0.5"/><polyline points="37.75,15.71 38.25,15.75 38.02,15.79 38.52,15.81 38.99,15.84 39.17,15.93 39.48,15.95 39.68,15.98 40.01,16.05 40.13,16.10 40.61,16.22 41.12,16.21 40.89,16.28 41.40,16.35 42.12,16.38 42.05,16.41 42.58,16.49 42.79,16.54 43.13,16.57 43.14,16.60 43.49,16.62 43.59,17.06 43.40,17.53 43.11,17.76" fill="none" stroke="black" stroke-width="0.5"/><polyline points="47.19,16.50 46.65,16.64 46.17,16.82 45.74,17.02 45.33,17.25 44.94,17.50" fill="none" stroke="black" stroke-width="0.5"/><polyline points="37.72,18.74 37.71,19.12 37.65,19.63 37.66,20.23" fill="none" stroke="black" stroke-width="0.5"/><polyline points="63.05,19.44 63.00,19.59 63.56,19.55 63.70,19.52 64.20,19.65 64.50,19.72 64.53,19.77" fill="none" stroke="black" stroke-width="0.5"/><polyline points="22.29,22.44 22.81,22.53 23.36,22.62 23.80,22.67 23.81,22.71" fill="none" stroke="black" stroke-width="0.5"/><polyline points="25.50,22.87 26.02,22.88 26.00,22.95 26.46,23.02 27.06,23.02 27.05,23.05 27.22,23.10 27.67,23.13 28.31,23.16 28.65,23.21 29.14,23.23 29.44,23.32 29.69,23.38 30.08,23.38 30.41,23.42 30.66,23.44 31.04,23.45 31.31,23.51 31.74,23.55 32.07,23.63 32.15,23.66 32.66,23.66 32.43,23.71" fill="none" stroke="black" stroke-width="0.5"/><polyline points="49.78,23.32 50.39,23.32 50.83,23.45 51.32,23.44" fill="none" stroke="black" stroke-width="0.5"/><polyline points="52.69,23.72 53.20,24.14 53.76,24.43 54.27,24.64" fill="none" stroke="black" stroke-width="0.5"/><polyline points="58.83,24.03 59.35,24.57 59.71,25.13 60.09,25.70" fill="none" stroke="black" stroke-width="0.5"/><polyline points="61.16,25.99 61.46,26.41 61.73,26.85 61.98,27.29 62.23,27.75 62.46,28.22 62.69,28.69 62.92,29.16 63.15,29.63 63.39,30.10 63.63,30.56 63.86,31.02 64.10,31.46 64.33,31.89" fill="none" stroke="black" stroke-width="0.5"/><polyline points="41.32,27.05 40.89,27.49 40.54,27.87 40.25,28.20 40.00,28.51 39.77,28.79 39.53,29.09 39.26,29.43 38.96,29.81 38.66,30.21 38.40,30.60 38.20,30.96 38.10,31.26 38.13,31.48" fill="none" stroke="black" stroke-width="0.5"/><polyline points="73.61,28.03 73.77,28.10 74.43,28.15 74.47,28.22" fill="none" stroke="black" stroke-width="0.5"/><polyline points="76.24,28.32 76.38,28.38 76.89,28.37 77.53,28.38 77.43,28.41 77.06,28.42 77.47,28.42 78.15,28.47" fill="none" stroke="black" stroke-width="0.5"/><polyline points="60.05,31.06 59.98,31.67 60.10,32.28 60.28,32.82 60.38,33.26" fill="none" stroke="black" stroke-width="0.5"/><polyline points="21.83,31.34 22.36,31.36 22.81,31.39 23.12,31.42 23.33,31.46 23.76,31.46 24.28,31.50 24.71,31.53 25.17,31.55 25.27,31.59 25.85,31.58 25.87,31.63 26.43,31.62 26.27,31.67 26.70,31.67 27.13,31.71 27.24,31.77 27.83,31.79 28.18,31.83 28.44,31.86 28.55,31.87 29.08,31.87 29.15,31.92 28.77,32.15 28.58,32.49 28.14,32.44" fill="none" stroke="black" stroke-width="0.5"/><polyline points="30.14,31.95 30.87,31.98 30.39,32.00 29.89,32.02" fill="none" stroke="black" stroke-width="0.5"/><polyline points="31.04,31.99 31.51,32.04 31.61,32.08 31.40,32.09 32.02,32.11 32.48,32.16 32.80,32.20 33.40,32.21 33.53,32.26" fill="none" stroke="black" stroke-width="0.5"/><polyline points="55.53,32.23 55.92,32.48 56.28,32.87 56.68,33.23 57.16,33.45 57.67,33.55 58.15,33.62 58.50,33.69 58.82,33.81 59.18,34.07 59.28,34.48" fill="none" stroke="black" stroke-width="0.5"/><polyline points="37.77,32.57 37.67,32.87 37.69,33.23 37.55,33.63 37.40,33.96 37.33,34.48 37.29,34.86 37.35,35.34 37.41,35.76 37.63,35.79 38.24,35.68 38.65,35.97 39.01,36.35 39.38,36.72 39.74,37.07 40.11,37.44 40.49,37.81 40.83,37.80 41.07,37.57 41.28,37.36 41.57,37.11 41.94,36.87 42.38,36.65 42.82,36.43 43.17,36.23 43.59,36.09 44.06,36.11 44.46,36.12 44.91,36.07 45.35,36.11 45.77,36.27 46.17,36.51 46.56,36.75 46.95,36.97 47.36,37.18 47.79,37.42 48.09,37.66 48.53,37.81 48.51,38.16 48.11,38.50 47.76,38.77 47.53,38.99 47.25,39.21 46.88,39.49 46.51,39.77 46.19,40.03 45.86,40.27 45.48,40.51 45.05,40.67 44.58,40.61" fill="none" stroke="black" stroke-width="0.5"/><polyline points="64.61,33.16 64.74,33.49 64.72,33.72 64.77,34.03 64.75,34.39 64.77,34.84 64.80,35.07 64.81,35.36 64.80,35.81 64.82,36.19 64.81,36.50 64.82,36.81 64.84,37.27 64.88,37.63 64.79,38.02 64.78,38.44 64.71,38.81 64.87,39.22 65.11,39.64 65.32,40.06 65.54,40.40 65.94,40.57 66.23,40.66 66.66,40.68 67.04,40.55 67.42,40.43 67.97,40.42 67.90,40.37 67.59,40.39 68.10,40.41 68.67,40.42 69.17,40.42 69.69,40.42 70.17,40.43 69.78,40.45" fill="none" stroke="black" stroke-width="0.5"/><polyline points="66.42,34.54 66.92,34.55 66.81,34.59 67.36,34.59 67.91,34.58 67.75,34.63 68.13,34.62 68.45,34.67 68.88,34.71 69.43,34.71 69.73,34.74 69.60,34.76 70.21,34.75 70.75,34.75 71.22,34.78 71.73,34.83 72.04,34.86 72.03,34.88 72.61,34.87 73.13,34.88 73.46,34.90 72.92,34.92 72.39,34.92" fill="none" stroke="black" stroke-width="0.5"/><polyline points="73.81,34.98 74.31,35.00 74.90,35.00 74.95,35.03 74.41,35.05 74.79,35.03 75.41,35.04 75.69,35.09 76.15,35.13 76.69,35.16 77.18,35.18 77.34,35.21 77.79,35.21 77.97,35.26" fill="none" stroke="black" stroke-width="0.5"/><polyline points="29.96,35.30 29.53,35.35 29.24,35.72 28.99,36.08 28.61,36.13 28.40,36.68 28.51,36.71 28.04,36.77 27.60,36.95 27.19,37.12 26.98,37.18 26.79,37.22 27.00,37.63 26.86,37.89 26.43,38.04 26.08,38.01 25.88,38.37 25.52,38.43 25.57,38.82 26.03,38.88 25.91,38.91 26.47,38.88 26.52,38.98 26.89,39.20 26.86,39.43 26.52,39.53 26.13,39.41 25.71,39.52 25.28,39.33 24.82,39.27 24.41,39.44 24.05,39.48 23.71,39.33 23.32,39.38 22.79,39.25 22.96,39.26 22.43,39.38 22.28,39.76 22.65,39.95 23.14,39.96 23.66,39.96 23.69,40.00 23.18,40.00 22.67,40.03 22.34,40.46 22.52,40.83 22.63,40.94 23.02,41.26 23.07,41.51 23.12,41.69 22.63,41.58 22.29,41.32 21.80,40.87 22.10,40.75 21.84,40.71" fill="none" stroke="black" stroke-width="0.5"/><polyline points="62.97,35.87 63.18,36.12 62.96,36.51 62.57,36.68 62.27,36.40 61.87,36.25 61.32,36.36 60.80,36.43 60.38,36.27 59.95,36.18 59.51,36.23 59.07,36.31 58.62,36.38 58.17,36.55" fill="none" stroke="black" stroke-width="0.5"/><polyline points="29.75,36.29 30.08,36.48 29.78,36.80 29.70,37.30 29.35,37.45 29.35,37.93 29.74,37.99 29.92,37.76 30.18,37.95 30.65,37.93 30.26,37.97 29.97,38.38 30.36,38.46 30.00,38.69 30.25,38.93 30.71,38.90 30.79,38.43 31.08,38.56 31.42,38.79 31.72,38.95 32.06,39.07 32.33,39.31 32.50,39.28 32.06,39.58 31.81,39.67 31.50,39.39 31.54,39.52 31.47,39.80 31.07,40.10 31.44,40.20 31.95,40.26 31.68,40.38 31.94,40.81 32.38,41.18 32.73,41.19 33.11,41.48 33.43,41.47 33.84,41.28 33.65,40.94 33.16,40.95 32.94,41.34 32.77,41.66 32.46,41.81 32.64,42.07 32.94,42.29 33.36,42.19 33.58,41.97 33.96,42.05 34.03,42.47 33.75,42.78 34.10,42.92 34.12,43.35 34.12,43.52 34.48,43.14 34.81,42.88 34.88,42.57 34.80,42.36 35.10,42.61 35.47,42.96 35.84,43.18 36.07,43.49 36.01,43.89 35.79,44.10 35.58,44.31 35.75,44.57 35.98,44.94 36.21,45.33 36.46,45.70" fill="none" stroke="black" stroke-width="0.5"/><polyline points="24.15,36.57 24.55,36.72 24.87,37.05 25.07,37.17 24.82,37.48 25.27,37.67 25.68,37.60 26.08,37.34 26.04,36.88 26.10,36.80 25.66,36.72 25.51,36.66" fill="none" stroke="black" stroke-width="0.5"/><polyline points="32.54,36.58 32.85,36.73 32.67,37.23 32.38,37.35 32.05,37.35 31.68,37.71 31.29,37.89 31.14,37.94 31.23,38.31 31.23,38.57 31.56,39.00 31.23,39.31 30.81,39.54 30.49,39.84 30.32,39.92 29.85,39.96 29.52,39.71 29.12,39.76 28.86,39.99 29.14,40.20 29.43,40.23 28.88,40.54 29.14,40.76 28.70,40.87 28.25,40.83 27.99,40.39 28.19,40.11 28.60,40.04 28.52,39.65 28.70,39.40 29.02,39.35 29.28,39.11 29.66,38.97 29.57,38.73 29.17,38.71 28.72,38.79 28.72,38.91 28.33,39.00 28.14,39.09 27.97,39.34 28.37,39.59 27.92,39.79 27.39,40.08 27.73,40.13 27.77,40.08 27.27,40.07 26.95,39.93 26.54,40.09 26.07,40.05 25.65,40.04 25.37,40.07 24.93,39.96 24.48,40.00 24.14,39.93 24.07,40.53 23.71,40.68 23.53,40.77 23.95,41.30 24.37,41.45 24.72,41.67 25.09,41.82 24.95,41.59 25.14,41.36 25.44,41.48 25.79,41.51 26.25,41.22 26.67,41.00 27.12,40.88 27.50,40.91 27.20,41.30 27.47,41.58" fill="none" stroke="black" stroke-width="0.5"/><polyline points="33.60,36.89 33.62,37.14 33.21,37.43 33.21,37.74 33.64,37.78 34.19,37.58 34.41,37.30" fill="none" stroke="black" stroke-width="0.5"/><polyline points="56.97,36.90 56.77,37.15 56.48,37.37 56.11,37.59 55.74,37.82 55.54,38.12 55.69,38.51 56.01,38.92 56.33,39.28 56.59,39.70 56.83,40.15 57.10,40.54 57.46,40.81 57.90,41.01 58.38,41.28" fill="none" stroke="black" stroke-width="0.5"/><polyline points="22.99,36.98 23.37,37.23 23.48,37.56 23.50,38.04 23.91,38.01 24.24,37.72 24.24,37.79 24.08,38.30 24.37,38.51 24.29,38.79 23.81,38.71 23.31,38.69 22.84,38.41 22.46,38.37 22.18,38.66" fill="none" stroke="black" stroke-width="0.5"/><polyline points="27.38,37.37 27.18,37.51 27.78,37.51 28.07,37.68 28.11,38.03 28.14,38.44 27.68,38.65 27.35,38.29" fill="none" stroke="black" stroke-width="0.5"/><polyline points="75.39,38.02 75.77,38.26 76.34,38.27 76.96,38.20 77.47,38.21 77.26,38.26 76.58,38.24" fill="none" stroke="black" stroke-width="0.5"/><polyline points="65.68,38.09 65.68,38.47 65.79,38.92 66.30,39.02 66.44,39.27 66.92,39.21" fill="none" stroke="black" stroke-width="0.5"/><polyline points="73.87,38.11 73.45,38.12 73.59,38.43 73.92,38.87 74.24,39.23 74.62,39.57 75.01,39.97 75.39,40.16 75.82,40.10 76.31,40.19 76.84,40.28 77.35,40.23 77.78,40.24" fill="none" stroke="black" stroke-width="0.5"/><polyline points="62.72,38.17 62.40,38.66 61.97,38.80 61.55,38.63 61.25,38.18" fill="none" stroke="black" stroke-width="0.5"/><polyline points="40.69,38.54 41.25,38.82 41.71,39.12 42.08,39.43 42.40,39.75 42.71,40.07 43.05,40.39" fill="none" stroke="black" stroke-width="0.5"/><polyline points="68.47,38.59 69.25,38.58 69.69,38.60 69.25,38.63 68.47,38.62" fill="none" stroke="black" stroke-width="0.5"/><polyline points="33.57,38.64 33.25,38.83 33.46,39.24 33.13,39.43 32.87,39.91 33.15,40.13 33.66,40.11 34.06,40.14 34.47,39.97 34.90,39.61 35.26,39.25" fill="none" stroke="black" stroke-width="0.5"/><polyline points="72.82,38.67 73.28,38.66 72.80,38.84 72.34,39.33" fill="none" stroke="black" stroke-width="0.5"/><polyline points="61.85,39.03 61.58,39.42 61.12,39.71 60.57,39.81 60.02,39.65 59.57,39.13" fill="none" stroke="black" stroke-width="0.5"/><polyline points="36.53,39.90 36.71,40.36 36.84,40.82 36.87,41.30 36.82,41.75 36.86,42.10 37.14,42.50 37.33,42.83 37.34,43.08 37.05,43.32 37.10,43.67 37.34,43.97 37.64,44.23 37.89,44.53 38.03,44.95 38.24,45.35 38.25,45.68 38.16,46.14 37.87,46.49" fill="none" stroke="black" stroke-width="0.5"/><polyline points="34.65,40.21 35.26,40.32 35.53,40.54 35.37,40.92 34.95,41.19 34.46,41.02" fill="none" stroke="black" stroke-width="0.5"/><polyline points="71.06,40.42 71.91,40.42 71.95,40.45 71.09,40.45" fill="none" stroke="black" stroke-width="0.5"/><polyline points="25.42,40.75 25.94,40.89 26.16,41.34 26.25,41.88 26.44,42.26 26.71,42.67 27.10,43.02 27.48,43.12 27.72,42.84 27.99,42.63" fill="none" stroke="black" stroke-width="0.5"/><polyline points="29.36,40.80 29.88,41.01 29.67,41.22 29.17,41.45 28.81,41.72" fill="none" stroke="black" stroke-width="0.5"/><polyline points="30.09,40.83 30.56,41.23 30.54,41.64 30.25,41.92 30.07,42.26 30.14,42.69 30.49,43.15" fill="none" stroke="black" stroke-width="0.5"/><polyline points="50.20,41.00 50.42,41.43 50.48,41.79 50.51,42.16 50.61,42.66" fill="none" stroke="black" stroke-width="0.5"/><polyline points="65.05,40.93 64.71,41.53 64.80,42.06 65.16,42.56 65.63,43.04 66.06,43.50" fill="none" stroke="black" stroke-width="0.5"/><polyline points="31.95,41.17 31.55,41.53 31.15,41.66 31.04,41.97 31.30,42.07 31.75,42.10 32.13,41.87 31.93,41.44" fill="none" stroke="black" stroke-width="0.5"/><polyline points="35.65,41.58 35.32,41.84 35.70,41.92 35.95,42.22 36.04,42.39 36.41,41.98" fill="none" stroke="black" stroke-width="0.5"/><polyline points="31.81,43.73 31.58,43.99 31.16,44.18 30.68,44.35 30.29,44.53 30.05,44.77 29.90,45.12 29.80,45.57 29.65,45.98 29.38,46.21 28.93,46.16 28.41,45.90 27.99,45.58" fill="none" stroke="black" stroke-width="0.5"/><polyline points="39.71,44.66 39.49,45.20 39.92,45.65 40.56,45.83" fill="none" stroke="black" stroke-width="0.5"/><polyline points="21.79,44.83 22.29,45.09 22.73,45.14 23.14,45.08 23.54,45.05 23.95,45.15 24.39,45.42 24.87,45.71 25.39,45.88 25.93,45.88 26.45,45.71 26.91,45.35" fill="none" stroke="black" stroke-width="0.5"/><polyline points="33.12,46.98 33.60,47.19 34.09,47.42 34.57,47.67 34.99,47.95 35.34,48.24 35.57,48.56" fill="none" stroke="black" stroke-width="0.5"/><polyline points="40.74,50.04 41.03,50.30 41.31,50.57 41.59,50.85 41.86,51.12 42.13,51.40 42.39,51.67 42.66,51.94 42.93,52.22 43.20,52.48 43.50,52.75 43.82,53.00 44.18,53.25 44.57,53.48 45.02,53.70 45.52,53.91" fill="none" stroke="black" stroke-width="0.5"/><polyline points="35.56,51.19 35.23,51.45 34.88,51.68 34.53,51.90 34.18,52.13 33.83,52.38 33.49,52.66 33.15,52.98 32.77,53.20 32.31,53.20 31.81,53.07 31.34,53.07 30.95,53.25 30.59,53.37 30.20,53.27 29.75,53.08 29.29,53.01 28.87,53.21 28.44,53.37 27.96,53.44 27.42,53.45 26.99,53.46" fill="none" stroke="black" stroke-width="0.5"/><polyline points="49.92,52.12 49.67,52.35 49.44,52.57 49.21,52.80 48.98,53.03 48.76,53.27 48.53,53.50 48.31,53.73 48.07,53.96 47.84,54.18 47.59,54.40 47.34,54.62 47.07,54.83" fill="none" stroke="black" stroke-width="0.5"/><polyline points="50.28,52.16 50.76,52.35 51.28,52.68 51.80,53.03" fill="none" stroke="black" stroke-width="0.5"/><polyline points="54.33,52.81 54.63,53.04 54.90,53.33 55.16,53.64 55.47,53.93 55.85,54.15 56.27,54.25 56.72,54.19 57.17,53.97 57.59,53.65 57.93,53.30" fill="none" stroke="black" stroke-width="0.5"/><polyline points="25.05,53.12 25.49,53.35 25.96,53.47 26.55,53.45 26.77,53.49 26.24,53.51 25.65,53.40 25.13,53.26 24.75,53.39 24.29,53.53 23.74,53.55 23.22,53.54 23.03,53.57 23.63,53.59 24.14,53.59" fill="none" stroke="black" stroke-width="0.5"/><polyline points="45.51,55.20 45.31,55.45 45.08,55.74 44.84,56.06 44.61,56.40 44.41,56.78 44.22,57.21 44.27,57.62 44.63,57.90 45.07,58.12 45.45,58.35 45.81,58.59 46.19,58.85 46.57,59.12 46.92,59.39 47.23,59.64 47.50,59.90 47.79,60.17 48.11,60.46 48.47,60.75 48.85,61.01 49.16,61.28 49.47,61.54 49.86,61.79 50.25,61.93 50.67,61.94 51.11,61.81 51.54,61.58 51.96,61.32 52.33,60.95" fill="none" stroke="black" stroke-width="0.5"/><polyline points="58.92,56.45 59.35,56.98 59.32,57.59 58.95,58.16" fill="none" stroke="black" stroke-width="0.5"/><polyline points="56.67,58.60 56.44,59.09 56.20,59.50 55.95,59.85 55.70,60.16 55.45,60.47 55.21,60.80 54.98,61.17" fill="none" stroke="black" stroke-width="0.5"/><polyline points="62.90,58.89 63.27,58.89 63.57,59.00 63.98,59.33 64.40,59.81" fill="none" stroke="black" stroke-width="0.5"/><polyline points="62.51,59.06 62.74,59.58 62.83,60.01 62.89,60.35" fill="none" stroke="black" stroke-width="0.5"/><polyline points="26.87,59.14 26.32,59.28 25.82,59.46 25.35,59.66 24.87,59.87 24.34,60.06 23.72,60.24" fill="none" stroke="black" stroke-width="0.5"/><polyline points="40.36,63.05 40.56,63.46 40.82,63.88 41.30,64.17" fill="none" stroke="black" stroke-width="0.5"/><polyline points="37.54,65.25 37.19,65.62 36.94,65.96 36.71,66.27 36.43,66.62 36.71,66.87 36.99,67.13 37.38,67.33 37.82,67.51 38.21,67.75 38.61,68.00 38.98,68.30 39.14,68.48 39.43,68.50 39.81,68.63 40.16,68.88 40.50,69.21 40.84,69.58 41.18,69.96 41.49,70.30 41.82,70.55 42.18,70.77 42.55,71.03 42.95,71.27 43.26,71.47 43.51,71.75 43.83,72.02 44.16,72.30 44.53,72.53 44.94,72.69 45.27,72.96 45.57,73.35" fill="none" stroke="black" stroke-width="0.5"/><polyline points="33.74,65.72 34.23,65.93 34.71,66.09 35.18,66.25 35.64,66.48" fill="none" stroke="black" stroke-width="0.5"/><polyline points="64.39,66.92 64.01,67.21 63.70,67.53 63.33,67.85 62.90,68.03 62.41,68.07 61.93,68.07 61.47,68.09 61.08,68.07 60.64,68.02 60.28,67.97 59.92,67.93 59.57,67.88 59.23,67.80 58.84,67.64 58.45,67.44 58.03,67.23 57.67,67.15" fill="none" stroke="black" stroke-width="0.5"/><polyline points="49.81,68.47 49.24,68.64 48.80,68.74 48.35,68.93 47.74,69.39" fill="none" stroke="black" stroke-width="0.5"/><polyline points="54.56,70.53 54.79,70.52 54.24,70.64 53.99,70.84 53.82,71.13 53.46,71.44 53.10,71.70 52.71,71.98 52.29,72.26 51.95,72.48 51.65,72.71 51.30,73.04 50.92,73.45 50.60,73.76 50.20,73.89 49.77,73.76 49.76,73.31" fill="none" stroke="black" stroke-width="0.5"/><polyline points="29.99,71.56 29.54,71.96 29.49,72.47 29.85,72.83 30.32,72.75 30.74,72.87 31.15,73.26 31.53,73.46 31.95,73.59 32.49,73.34" fill="none" stroke="black" stroke-width="0.5"/><polyline points="30.08,71.56 30.49,71.78 31.23,72.02 31.38,72.06" fill="none" stroke="black" stroke-width="0.5"/><polyline points="29.13,72.59 28.59,72.83 27.99,72.87 27.44,72.90 27.03,73.05 26.69,73.31 26.27,73.58 25.63,73.78" fill="none" stroke="black" stroke-width="0.5"/><polyline points="44.41,73.20 43.76,73.61 43.70,74.17 44.06,74.51 44.53,74.32 44.44,73.69" fill="none" stroke="black" stroke-width="0.5"/><polyline points="38.71,73.48 39.06,73.73 39.33,74.06 39.72,74.02 40.05,74.12 40.38,74.32 40.83,74.43 41.20,74.20 41.50,73.96 41.86,74.09 42.18,74.30 42.60,74.17 43.04,73.92" fill="none" stroke="black" stroke-width="0.5"/><polyline points="48.01,75.23 48.06,75.56 48.21,75.89 48.13,76.21 48.07,76.62 48.08,76.88 48.05,77.13 47.95,77.57 47.97,77.95 47.91,78.22 47.72,78.60 47.79,79.02 47.64,79.40 47.55,79.75 47.50,80.18 47.46,80.59 47.44,80.86 47.43,81.08 47.41,81.36 47.39,81.72 47.38,82.15 47.39,82.61 47.39,83.06 47.37,83.47 47.44,83.87" fill="none" stroke="black" stroke-width="0.5"/><polyline points="23.65,77.13 23.22,77.19 23.96,77.19 24.66,77.39" fill="none" stroke="black" stroke-width="0.5"/><polyline points="48.77,78.77 48.71,79.12 48.65,79.45 48.61,79.77 48.57,80.09 48.52,80.41 48.47,80.75 48.40,81.11 48.31,81.50 48.20,81.93" fill="none" stroke="black" stroke-width="0.5"/><polyline points="51.05,78.98 50.94,79.50 51.34,79.81 51.69,80.17 51.82,80.53 51.74,80.67" fill="none" stroke="black" stroke-width="0.5"/><polyline points="72.78,79.11 73.02,79.48 73.39,79.71 73.72,79.99 73.90,80.41 74.14,80.79 74.46,81.08 74.73,81.37 75.00,81.67 75.30,81.94 75.68,82.01 75.81,81.94 75.60,82.36 75.86,82.82" fill="none" stroke="black" stroke-width="0.5"/><polyline points="71.55,79.61 72.04,79.94 72.59,80.11 73.02,80.39" fill="none" stroke="black" stroke-width="0.5"/><polyline points="53.33,81.55 53.33,82.06 53.09,82.34 52.64,81.95 52.77,81.60" fill="none" stroke="black" stroke-width="0.5"/><polyline points="37.22,81.71 37.17,82.10 37.11,82.37 36.96,82.73 36.90,82.98 36.87,83.25 36.81,83.52 36.76,83.84 36.63,84.13 36.60,84.41 36.58,84.82 36.52,85.22 36.39,85.58 36.39,85.83 36.31,86.16 36.19,86.47 36.19,86.77 36.13,87.07 36.06,87.43 35.99,87.73 35.94,87.95 35.88,88.20 35.79,88.56 35.73,88.99 35.72,89.22 35.60,89.59 35.57,89.82 35.51,90.28 35.48,90.53 35.36,90.92 35.34,91.15 35.27,91.44 35.22,91.75 35.13,92.10 35.19,92.42 35.05,92.75 35.01,93.14 34.95,93.55 34.86,93.95 34.80,94.27 34.82,94.76 34.85,95.19 34.66,95.63 34.56,96.02 34.53,96.50" fill="none" stroke="black" stroke-width="0.5"/><polyline points="42.68,83.07 42.67,83.83 43.18,84.08 43.51,84.10" fill="none" stroke="black" stroke-width="0.5"/><polyline points="44.63,84.13 44.86,84.19 45.18,84.29 45.55,84.43 45.93,84.55 46.36,84.65 46.83,84.88 47.29,85.15 47.62,85.43 47.71,85.73 47.60,86.07 47.61,86.51" fill="none" stroke="black" stroke-width="0.5"/><polyline points="64.33,84.99 63.75,85.06 63.02,85.27 62.59,85.65 62.91,86.21" fill="none" stroke="black" stroke-width="0.5"/><polyline points="75.69,84.96 75.37,85.28 75.27,85.71 75.34,86.19 75.51,86.69 75.76,87.18 76.03,87.64 76.29,88.10 76.51,88.55 76.66,89.00" fill="none" stroke="black" stroke-width="0.5"/><polyline points="60.55,85.08 61.02,85.11 61.45,85.34 61.69,85.70 61.57,86.03 61.12,86.20 60.76,86.30 60.33,86.48 59.95,86.48 59.58,86.25 59.09,86.02 58.78,85.75 59.04,85.40 59.49,85.14 59.93,85.25 60.33,85.10" fill="none" stroke="black" stroke-width="0.5"/><polyline points="64.77,85.58 65.42,85.65 65.52,85.98 65.11,86.33 64.44,86.20" fill="none" stroke="black" stroke-width="0.5"/><polyline points="65.87,86.50 66.27,86.55 66.77,86.69 66.90,86.75 67.32,86.84 67.80,86.72 68.34,86.70 68.86,86.77 69.32,86.87 69.68,86.86 69.93,86.66 70.29,86.79 70.64,87.07 70.85,87.40 70.77,87.55 70.18,87.78 69.68,87.83 69.33,87.97" fill="none" stroke="black" stroke-width="0.5"/><polyline points="21.86,86.90 22.29,87.21 22.71,87.53 23.11,87.87 23.50,88.22 23.91,88.59 24.33,88.99" fill="none" stroke="black" stroke-width="0.5"/><polyline points="44.56,87.00 45.03,87.09 45.45,87.20 45.86,87.33 46.31,87.42 46.83,87.44" fill="none" stroke="black" stroke-width="0.5"/><polyline points="41.85,89.68 42.33,89.74 42.16,90.37 41.68,90.23" fill="none" stroke="black" stroke-width="0.5"/><polyline points="38.21,92.71 37.91,93.08 37.53,93.53 37.05,93.92" fill="none" stroke="black" stroke-width="0.5"/><polyline points="45.97,93.94 46.49,93.96 46.93,93.97 46.49,94.00 45.94,94.07 45.86,94.59 46.17,94.94 46.68,95.00 46.95,94.96 46.64,95.21 46.07,95.45 45.70,95.31" fill="none" stroke="black" stroke-width="0.5"/><polyline points="37.96,96.39 37.49,96.57 36.86,96.59 36.20,96.62 35.66,96.89" fill="none" stroke="black" stroke-width="0.5"/><polyline points="51.97,96.40 52.29,96.44 52.48,96.87 52.64,97.20 52.86,96.96 53.22,96.68 53.66,96.88 53.85,97.24 53.92,97.73 54.03,98.20 54.30,98.50" fill="none" stroke="black" stroke-width="0.5"/><polyline points="45.70,96.76 46.06,97.08 46.52,97.42 47.05,97.71 47.59,97.85" fill="none" stroke="black" stroke-width="0.5"/><polyline points="55.87,97.51 55.81,97.86 55.80,98.15 55.98,98.51" fill="none" stroke="black" stroke-width="0.5"/><polyline points="35.14,98.51 35.78,98.84 35.92,99.36 35.42,99.99" fill="none" stroke="black" stroke-width="0.5"/><polyline points="38.87,98.56 38.90,98.98 38.98,99.47 39.24,99.85 39.73,100.01 40.44,99.88" fill="none" stroke="black" stroke-width="0.5"/><polyline points="39.26,98.79 39.95,98.79 40.18,98.82 39.38,98.83" fill="none" stroke="black" stroke-width="0.5"/></svg>