<svg width="100.0mm" height="100.0mm" viewBox="0 0 100.0 100.0" xmlns="http://www.w3.org/2000/svg"><polyline points="54.23,13.39 53.71,13.49 53.17,13.58 52.81,13.64 52.40,13.71 51.92,13.78 51.45,13.86 50.96,13.96 50.45,14.09 49.93,14.23 49.42,14.40 48.94,14.59" fill="none" stroke="black" stroke-width="0.5"/><polyline points="50.42,13.52 50.07,13.54 50.28,13.55 50.83,13.53 51.30,13.52" fill="none" stroke="black" stroke-width="0.5"/><polyline points="49.26,13.56 49.69,13.57 49.23,13.58 48.70,13.62 48.15,13.68 47.59,13.75 47.04,13.85 46.50,13.95 45.97,14.07 45.46,14.20" fill="none" stroke="black" stroke-width="0.5"/><polyline points="53.83,14.26 54.32,14.26 54.62,14.29 54.96,14.32 55.31,14.36 55.63,14.43 56.01,14.52 56.41,14.63 56.83,14.74 57.27,14.88 57.61,14.99 57.91,15.11 58.18,15.21 58.45,15.32 58.77,15.45 59.06,15.58 59.39,15.72 59.67,15.84 60.04,16.01 60.34,16.16 60.71,16.36 61.06,16.54 61.09,16.94 61.39,17.07 61.72,17.16 62.07,17.25 62.49,17.38 62.89,17.51 63.30,17.66 63.64,17.81 64.03,17.99 64.35,18.15 64.67,18.32 65.06,18.53 65.41,18.74 65.76,18.95 66.15,19.23 66.45,19.56 66.77,19.81 67.14,20.09" fill="none" stroke="black" stroke-width="0.5"/><polyline points="47.77,14.92 47.17,15.21 46.63,15.49 46.11,15.82 45.53,16.24" fill="none" stroke="black" stroke-width="0.5"/><polyline points="42.92,15.06 42.48,15.24 42.01,15.46 41.67,15.63 41.32,15.82 40.85,16.07 40.51,16.27 40.24,16.44 39.87,16.67 39.47,16.94 39.08,17.21 38.72,17.49 38.37,17.76 38.05,17.95 37.72,17.94 37.25,18.05 36.84,18.31 36.53,18.62 36.32,18.93 36.16,19.25 36.02,19.61 35.90,19.98 35.82,20.30 35.76,20.74 35.74,21.11 35.52,21.32 35.07,21.44 35.16,21.88 35.30,22.28 35.48,22.65" fill="none" stroke="black" stroke-width="0.5"/><polyline points="57.19,16.64 57.60,16.64 57.78,16.63 58.07,16.65 57.99,16.65 58.54,16.67 58.96,16.69 59.15,16.70 59.56,16.75 59.78,16.78 60.23,16.84 60.62,16.91 61.04,16.99" fill="none" stroke="black" stroke-width="0.5"/><polyline points="35.57,17.42 35.49,17.77 35.40,18.13 35.29,18.52 35.20,18.91 35.11,19.31 35.03,19.70 34.98,20.08 34.96,20.50 34.98,20.96 35.03,21.31" fill="none" stroke="black" stroke-width="0.5"/><polyline points="48.55,18.36 49.17,18.36 49.36,18.38 49.69,18.39 49.99,18.43 50.37,18.49" fill="none" stroke="black" stroke-width="0.5"/><polyline points="64.98,19.30 65.33,19.62 65.68,19.88 66.00,20.16 66.27,20.43 66.57,20.71 66.89,21.05 67.17,21.36 67.45,21.70 67.68,22.01 67.87,22.35 67.89,22.67 67.28,22.85 67.48,23.18 67.73,23.55 67.95,23.89 68.12,24.20 68.28,24.54 68.00,24.77 67.51,24.86 67.65,25.18 67.81,25.53 67.93,25.84 68.08,26.22 68.18,26.50 68.30,26.86 68.38,27.17 68.45,27.52 68.49,27.90 68.51,28.18 68.14,28.32 68.20,28.65 68.32,29.05 68.43,29.36 68.53,29.67 68.62,29.98 68.73,30.32 68.30,30.64 68.22,30.99 68.31,31.31 68.37,31.55 68.43,31.87 68.48,32.15 68.51,32.50 68.53,32.73 68.53,32.95 68.53,33.16 68.53,33.36 68.51,33.76 68.50,34.07 68.09,33.58 67.93,33.60 67.98,33.92 67.99,34.17 67.99,34.39 67.99,34.72 67.98,35.20 67.96,35.46 67.93,35.73 67.89,36.04 67.83,36.43 67.78,36.70 67.71,37.00 67.61,37.40 67.55,37.65 67.47,37.90 67.38,38.19 67.23,38.65 67.08,39.07 67.01,39.43 66.85,39.81 66.55,40.14 66.35,39.75 66.35,39.52 66.33,39.28 66.31,39.05 66.30,38.80 66.28,38.59 66.26,38.33 66.24,38.07 66.20,37.74 66.15,37.38 66.10,37.08 66.06,36.83 65.99,36.53 65.91,36.18 65.76,35.69 65.64,35.37 65.49,34.98 65.33,34.60 65.15,34.24 64.94,33.89 64.81,33.58 65.37,33.35 65.31,33.09 65.07,32.78 65.03,32.44 64.86,32.10 64.68,31.79 64.44,31.41 64.23,31.10 63.92,30.68 63.63,30.28 63.36,29.94 63.11,29.64 62.79,29.29 62.50,28.97 62.20,28.66 61.94,28.41 61.64,28.11 61.35,27.78" fill="none" stroke="black" stroke-width="0.5"/><polyline points="48.71,19.58 49.22,19.58 49.77,19.58 50.24,19.59 50.71,19.61 51.05,19.63 51.30,19.66 51.63,19.69 51.78,19.71 52.08,19.74 52.37,19.79 52.66,19.84 53.09,19.92 53.47,20.00 53.87,20.09 54.24,20.18 54.55,20.26" fill="none" stroke="black" stroke-width="0.5"/><polyline points="48.52,19.60 48.47,19.60 47.91,19.64 47.31,19.69 46.78,19.77 46.25,19.88 45.72,20.00 45.21,20.16" fill="none" stroke="black" stroke-width="0.5"/><polyline points="34.41,19.81 34.19,20.13 34.02,20.44 33.88,20.72 33.72,21.10 33.63,21.39 33.57,21.63 33.50,21.94 33.48,22.20 33.46,22.52 33.48,22.80 33.52,23.11 33.60,23.43 33.73,23.73 33.94,24.11 34.22,24.44 34.52,24.73 34.44,24.99 34.25,25.17 33.82,25.42 33.57,25.64 33.30,25.89 33.05,26.16 32.81,26.47 32.61,26.75 32.39,27.09 32.20,27.43 31.99,27.82 31.81,28.19 31.66,28.54 31.54,28.82 31.42,29.16 31.32,29.44 31.23,29.82 31.17,30.13 31.40,30.31 31.73,30.38 31.65,30.70 31.58,31.02 31.55,31.32 31.54,31.56 31.52,31.79 31.50,32.08 31.50,32.29 31.50,32.50 31.51,32.72 31.52,33.04 31.54,33.31 31.55,33.53 31.57,33.76 31.60,34.02 31.62,34.24 31.65,34.51 31.68,34.75 31.72,35.03 31.78,35.36 31.86,35.78 31.95,36.20 32.05,36.60 32.11,36.86 32.19,37.12 32.31,37.47 32.42,37.78 32.55,38.10 32.76,38.53 32.93,38.88 33.37,38.77 33.51,39.20 33.71,39.60 33.94,39.97 34.08,40.22 34.29,40.58 34.47,40.88 34.64,41.15 34.83,41.42 35.13,41.69 35.27,41.32 35.31,40.96 35.34,40.70 35.37,40.47 35.41,40.13 35.44,39.89 35.49,39.64 35.52,39.40 35.59,39.07 35.67,38.61 35.75,38.25 35.86,37.85 35.97,37.53 36.13,37.22 36.32,36.87 36.43,36.64 36.57,36.38 36.69,36.15 36.80,35.90 36.95,35.59 37.11,35.26 37.29,34.85 37.44,34.48 37.63,34.01 37.79,33.58 37.89,33.30 38.00,32.99 38.10,32.70 38.22,32.30 38.34,31.89 38.40,31.62 38.49,31.24 38.52,30.94 38.74,30.76 39.35,31.03 39.06,30.80 38.76,30.53 38.50,30.23 38.23,29.88 38.00,29.52 37.86,29.23 37.70,28.84 37.57,28.46 37.48,28.15 37.40,27.84 37.33,27.47 37.29,27.22 37.24,26.92 37.26,26.49 37.53,26.05 37.85,26.38 38.20,26.68 38.58,26.93 38.91,27.13 39.26,27.30 39.57,27.40 39.92,27.51 40.25,27.57 40.41,27.59 40.89,27.57" fill="none" stroke="black" stroke-width="0.5"/><polyline points="43.42,19.94 42.98,20.23 42.63,20.48 42.32,20.74 42.01,21.04 41.63,21.43" fill="none" stroke="black" stroke-width="0.5"/><polyline points="65.81,21.22 66.29,21.66 66.77,22.22 67.24,22.82" fill="none" stroke="black" stroke-width="0.5"/><polyline points="52.16,21.46 52.59,21.64 52.92,21.77 53.27,21.95 53.64,22.15 53.99,22.37 54.32,22.59 54.58,22.77 54.85,22.99 55.18,23.27 55.55,23.60 55.90,23.94 56.18,24.23 56.48,24.54 56.75,24.85 57.01,25.20 56.92,25.64 57.16,25.98 57.45,26.35 57.74,26.74 57.99,27.07 58.21,27.38 58.50,27.79 58.69,28.09 58.92,28.49 59.09,28.79 59.24,29.08 59.45,29.48 59.66,29.92 59.85,30.32 60.00,30.66 60.14,30.99 60.28,31.34 60.45,31.78 60.58,32.16 60.71,32.54 60.80,32.88 61.00,33.40 61.19,33.71 61.15,33.35 61.24,33.06 61.27,32.72 61.28,32.36 61.27,31.96 61.27,31.74 61.25,31.41 61.22,31.11 61.20,30.85 61.17,30.60 61.14,30.35 61.07,29.89 60.99,29.50 60.90,29.08 60.81,28.76 60.73,28.46 60.65,28.17 60.55,27.88 60.45,27.63 60.35,27.37 60.24,27.11 60.01,26.74" fill="none" stroke="black" stroke-width="0.5"/><polyline points="49.12,21.75 49.44,21.86 49.77,22.00 50.11,22.15 50.38,22.27 50.70,22.43 51.09,22.64 51.49,22.87 51.85,23.09 52.14,23.28 52.43,23.48 52.77,23.73 53.15,24.03 53.53,24.35 53.85,24.66 54.13,24.96 54.44,25.29 54.71,25.61 54.98,25.96 55.23,26.29 55.49,26.70 55.74,27.11 55.89,27.37 56.06,27.69 56.23,28.01 56.37,28.29 56.50,28.56 56.64,28.84 56.79,29.15 56.97,29.54 57.16,29.96 57.33,30.29 57.45,30.56 57.56,30.80 57.69,31.08 57.86,31.43 58.02,31.80 58.18,32.13 58.34,32.45 58.50,32.79 58.68,33.16 58.92,33.54" fill="none" stroke="black" stroke-width="0.5"/><polyline points="45.95,23.39 45.44,23.39 44.95,23.44 44.46,23.50 44.18,23.69 44.31,24.23 44.08,24.57 44.24,24.50 44.68,24.36 45.14,24.27 45.64,24.21 46.09,24.00 46.34,23.61 46.12,23.38 45.53,23.41 45.57,23.41 46.17,23.42 46.59,23.42 46.81,23.76 47.28,23.92 47.79,23.89 48.36,23.89 48.36,23.88 47.83,23.89 47.31,23.90 47.07,24.32 47.34,24.78 47.82,24.79 47.39,24.81 46.88,24.80 46.39,24.82" fill="none" stroke="black" stroke-width="0.5"/><polyline points="48.62,23.89 48.89,23.91 49.26,23.92 49.43,23.94 49.66,23.96 49.87,23.99 50.26,24.04 50.73,24.13 51.23,24.25 51.60,24.37 51.94,24.48" fill="none" stroke="black" stroke-width="0.5"/><polyline points="47.89,24.81 48.45,24.82 48.50,24.84 48.86,24.85 49.31,24.89 49.70,24.94 50.14,25.02 50.61,25.11 51.03,25.22 51.38,25.33 51.67,25.43 51.99,25.56 52.34,25.71 52.67,25.87 52.99,26.06 53.33,26.28 53.70,26.56 54.03,26.84" fill="none" stroke="black" stroke-width="0.5"/><polyline points="36.69,25.30 37.14,25.37 37.63,25.46 38.13,25.57 38.66,25.66 39.20,25.74 39.76,25.79 40.33,25.80 40.90,25.74 41.48,25.62" fill="none" stroke="black" stroke-width="0.5"/><polyline points="34.31,26.03 33.94,26.32 33.62,26.62 33.36,26.93 33.13,27.26 32.94,27.60 32.77,27.96 32.62,28.34 32.51,28.73 32.44,29.12 32.39,29.47" fill="none" stroke="black" stroke-width="0.5"/><polyline points="56.97,26.82 57.13,27.16 57.30,27.53 57.49,27.95 57.69,28.38 57.86,28.76 57.97,29.03 58.08,29.29 58.20,29.61 58.34,29.97 58.48,30.35 58.61,30.73 58.73,31.10 58.85,31.49 58.98,31.93" fill="none" stroke="black" stroke-width="0.5"/><polyline points="38.55,27.81 38.64,28.15 38.75,28.54 38.88,28.95 39.04,29.37 39.25,29.79 39.50,30.18 39.80,30.52 40.17,30.80" fill="none" stroke="black" stroke-width="0.5"/><polyline points="36.70,28.12 36.76,28.65 36.96,29.23 37.39,29.75" fill="none" stroke="black" stroke-width="0.5"/><polyline points="32.76,34.18 32.73,34.56 32.72,34.87 32.73,35.15 32.74,35.41 32.75,35.66 32.78,35.93 32.80,36.24 32.84,36.61 32.91,37.06 33.00,37.53 33.10,37.97 33.26,38.45" fill="none" stroke="black" stroke-width="0.5"/><polyline points="43.16,35.06 43.63,35.06 43.55,35.08 43.04,35.07 42.72,35.09 42.41,35.11 42.24,35.27 42.20,35.72 42.56,35.86 42.99,36.05 43.48,36.10 43.84,36.13 44.11,36.15 44.25,36.17 44.68,36.22 45.18,36.30 45.56,36.38 45.84,36.45 46.14,36.51 46.44,36.55 46.73,36.60 47.08,36.53 46.89,36.15 46.63,35.83 46.31,35.57 45.98,35.39 45.61,35.27 45.25,35.19 44.81,35.15 44.63,35.11 44.43,35.10 43.94,35.09 44.16,35.08 43.76,35.26 43.94,35.74 43.81,35.75 43.54,35.69" fill="none" stroke="black" stroke-width="0.5"/><polyline points="46.71,35.11 47.02,35.44 47.25,35.74 47.49,36.11 47.66,36.46 47.78,36.79 48.04,36.66 48.33,36.51 48.52,36.91 48.47,36.86 48.25,36.39 48.04,35.93 47.83,35.60" fill="none" stroke="black" stroke-width="0.5"/><polyline points="40.96,35.49 41.41,35.69 41.92,35.70 41.76,35.79 41.32,36.20 41.83,36.17 42.38,36.08" fill="none" stroke="black" stroke-width="0.5"/><polyline points="62.45,35.55 62.16,35.91 61.61,35.91 61.61,35.91 61.21,35.91 60.82,35.77 60.49,35.73 60.10,35.70 59.68,35.79 59.58,36.35 59.93,36.61 60.07,36.62 59.54,36.62 58.99,36.64 58.50,36.68 58.73,36.66 59.24,36.64" fill="none" stroke="black" stroke-width="0.5"/><polyline points="40.35,35.62 39.87,35.87 39.47,36.15 39.14,36.46 38.85,36.80 38.58,37.16 38.30,37.53 37.99,37.92" fill="none" stroke="black" stroke-width="0.5"/><polyline points="56.15,35.71 55.85,35.97 55.56,36.30 55.31,36.66 55.07,37.02 54.76,37.23 54.30,37.20 54.24,37.29 54.53,36.85 54.71,36.51 54.93,36.07" fill="none" stroke="black" stroke-width="0.5"/><polyline points="58.72,35.68 59.26,35.68 59.66,35.69 59.17,35.70 58.64,35.69 58.50,35.70 57.98,35.74 57.48,35.80 56.99,35.91 56.64,36.04 56.30,36.25 56.01,36.52 55.86,36.88 56.23,36.97 56.74,36.92 57.21,36.85 57.69,36.78 58.20,36.72" fill="none" stroke="black" stroke-width="0.5"/><polyline points="62.30,35.89 62.74,36.06 63.16,36.26 63.53,36.52 63.84,36.84 64.09,37.18 64.28,37.51 64.49,37.87 64.65,38.14 64.33,37.74 63.88,37.51 63.57,37.39 63.26,37.24 62.88,37.09 62.44,36.95 61.98,36.83 61.55,36.74 61.15,36.69 60.67,36.65 60.48,36.63 60.38,36.38 60.64,36.07" fill="none" stroke="black" stroke-width="0.5"/><polyline points="40.54,36.46 39.98,36.66 39.41,36.92 38.90,37.20" fill="none" stroke="black" stroke-width="0.5"/><polyline points="43.95,37.86 44.24,37.87 43.95,37.88 44.50,37.88 44.77,37.91 45.20,38.00 45.54,38.10 45.87,38.24 46.26,38.44 46.64,38.69 46.99,38.96 47.25,39.37 46.91,39.73 46.58,39.64 46.20,39.45 45.82,39.29 45.49,39.17" fill="none" stroke="black" stroke-width="0.5"/><polyline points="57.96,38.20 57.76,38.22 58.21,38.20 58.51,38.22 58.85,38.23 59.26,38.30 59.65,38.40 60.01,38.51 60.26,38.61 60.61,38.79 61.03,39.03 61.41,39.28 61.74,39.54 62.06,39.84 62.31,40.18 62.14,40.65 61.77,40.70 61.42,40.58 61.24,40.38 60.89,40.14 60.57,39.95 60.29,39.79 60.04,39.67 59.75,39.55 59.34,39.46 58.88,39.74 58.46,39.74 58.04,39.51 57.63,39.52 57.27,39.67 57.20,39.97 57.31,40.38 57.59,40.75 58.00,40.80 58.43,40.57 58.68,40.22 58.68,39.85" fill="none" stroke="black" stroke-width="0.5"/><polyline points="56.66,38.51 56.44,38.61 55.99,38.83 55.65,39.04 55.72,39.48 56.22,39.70 56.75,39.44" fill="none" stroke="black" stroke-width="0.5"/><polyline points="41.48,38.69 41.11,38.95 40.70,39.25 40.33,39.51 40.30,39.94 40.60,40.31 40.98,40.20 41.29,39.98 41.61,39.80 41.93,39.64 42.33,39.42 42.82,39.35 43.17,39.57 43.25,39.95 43.47,40.35 43.87,40.53 44.35,40.37 44.69,40.03 44.71,39.68 44.41,39.39 43.96,39.20 43.61,39.30" fill="none" stroke="black" stroke-width="0.5"/><polyline points="33.42,39.47 33.17,39.66 33.02,40.02 33.00,40.25 33.00,40.46 33.03,40.86 33.09,41.25 33.16,41.61 33.25,42.04 33.36,42.50 33.45,42.87 33.53,43.16 33.61,43.46 33.68,43.74 33.80,44.15 33.90,44.49 33.98,44.74 34.05,45.01 34.13,45.34 34.21,45.69 34.27,45.98 34.32,46.33 34.36,46.60 34.38,46.87 34.44,47.29 34.50,47.69 34.58,48.02 34.71,48.37 34.95,48.73 35.27,49.01 35.60,49.15 35.92,49.05 35.97,48.73 35.93,48.37 35.91,48.13 35.86,47.79 35.86,47.49 35.82,47.13 35.73,46.79 35.65,46.43 35.59,46.15 35.51,45.73 35.43,45.28 35.38,45.00 35.33,44.67 35.30,44.40 35.28,44.15 35.26,43.88 35.23,43.62 35.22,43.33 35.21,43.08 35.21,42.88 35.21,42.66 35.21,42.45 35.22,42.18 35.12,41.72" fill="none" stroke="black" stroke-width="0.5"/><polyline points="67.28,39.60 67.57,39.90 67.64,40.23 67.65,40.51 67.65,40.72 67.63,40.96 67.62,41.22 67.58,41.61 67.55,41.84 67.51,42.13 67.47,42.39 67.42,42.72 67.38,43.02 67.33,43.34 67.30,43.60 67.26,43.86 67.22,44.19 67.19,44.44 67.17,44.74 67.14,44.98 67.11,45.24 67.10,45.45 67.08,45.67 67.08,45.88 67.07,46.11 67.05,46.36 67.05,46.58 67.04,46.89 67.02,47.34 66.98,47.71 66.94,47.99 66.85,48.32 66.67,48.63 66.43,48.90 66.09,49.13 65.67,49.28 65.47,49.63 65.31,49.95 65.12,49.58 65.10,49.61 65.20,49.93 65.21,50.26 65.16,50.51 65.09,50.84 65.00,51.14 64.89,51.50 64.70,51.81 64.48,52.11 64.36,52.42 64.20,52.77 64.05,53.16 63.95,53.54 63.75,53.88 63.50,54.20 63.19,54.55 63.04,54.95 62.83,55.27 62.56,55.58 62.29,55.85 62.15,56.21 61.92,56.50 61.66,56.79 61.39,57.02 61.21,57.40 60.92,57.72 60.65,58.03 60.39,58.30 60.17,58.53 59.83,58.87 59.49,59.22 59.15,59.56 58.94,59.75 58.68,60.00 58.44,60.23 58.12,60.40 57.88,60.68 57.60,60.94 57.41,61.11 57.11,61.33 56.83,61.59 56.49,61.83 56.19,62.07 55.77,62.28 55.45,62.51 55.10,62.32 55.02,61.97 54.86,61.57 54.63,61.13 54.38,60.75 54.05,60.49 53.78,61.00 53.96,61.46 54.17,61.83 54.31,62.19 54.37,62.43 54.48,62.79 54.86,62.76" fill="none" stroke="black" stroke-width="0.5"/><polyline points="53.11,39.74 52.89,40.07 52.83,40.34 52.82,40.70 52.83,40.92 52.89,41.32 52.96,41.64 53.03,41.90 53.12,42.24 53.26,42.68 53.35,42.98 53.45,43.27 53.55,43.56 53.67,43.93 53.80,44.32 53.88,44.55 53.97,44.86 54.06,45.16 54.14,45.48 54.24,45.83 54.68,46.00 55.20,46.16 55.51,46.46 55.82,46.83 56.06,47.22 56.21,47.56 56.32,47.89 56.36,48.14 56.38,48.43 56.32,48.75 56.15,49.11 55.87,49.40 55.52,49.60 55.11,49.74 55.20,49.23 55.21,48.78 54.74,48.84 54.29,48.96 53.84,49.21 53.54,49.48 53.24,49.75 52.85,50.03 52.60,50.16 52.25,50.23 52.22,50.39 52.74,50.74 53.06,51.13 53.29,51.55 53.45,51.91 53.77,52.26 54.08,52.40 54.06,52.25 54.26,52.00 54.07,51.62 53.81,51.27 53.92,51.43 54.34,51.97 54.63,52.28 54.92,52.57 55.25,52.44 55.59,52.68 55.98,52.76 56.37,52.81 56.78,52.97 57.18,52.81 57.53,52.99 57.23,52.77 56.90,52.44 56.68,52.13 56.23,52.05 55.95,52.33 56.09,52.50 55.76,52.04 55.44,51.78 55.14,52.15 54.99,51.90 54.72,51.53" fill="none" stroke="black" stroke-width="0.5"/><polyline points="46.96,39.88 47.45,40.28 47.09,40.61 46.40,40.84 45.85,40.96" fill="none" stroke="black" stroke-width="0.5"/><polyline points="55.46,40.08 54.98,40.35 54.98,40.69 55.37,40.89 55.85,41.01 56.44,41.32" fill="none" stroke="black" stroke-width="0.5"/><polyline points="66.55,40.18 66.45,40.54 66.40,40.97 66.41,41.51 66.40,41.87 66.40,42.09 66.40,42.29 66.40,42.52 66.38,42.80 66.35,43.18 66.33,43.53 66.30,43.91 66.27,44.24 66.24,44.51 66.21,44.75 66.18,45.00 66.15,45.28 66.09,45.63 66.04,45.97 66.00,46.22 65.97,46.44 65.93,46.69 65.88,47.00 65.84,47.28 65.79,47.62 65.73,47.99 65.69,48.31 65.65,48.61 65.63,48.94" fill="none" stroke="black" stroke-width="0.5"/><polyline points="47.63,46.63 47.41,46.90 47.20,47.27 47.07,47.59 46.99,47.93 46.97,48.18 46.96,48.39 47.01,48.68 47.15,49.04 47.42,49.37 47.77,49.59 48.15,49.74 48.30,49.60 48.18,49.07 48.49,48.89 48.81,48.88 49.23,48.89 49.61,48.99 49.91,49.14 50.28,49.39 50.59,49.69 50.91,49.99 50.74,50.33 50.31,50.72 50.07,51.10 49.85,51.46 49.72,51.75 49.81,52.12 50.21,52.07 50.49,51.67 50.37,51.89 50.51,52.31 50.59,52.60 50.84,52.96" fill="none" stroke="black" stroke-width="0.5"/><polyline points="36.53,48.52 36.43,48.85 36.37,49.24 36.30,49.54 36.29,49.77 36.31,50.06 36.39,50.41 36.45,50.74 36.69,51.12 36.85,51.40 36.98,51.78 37.01,52.15 37.18,52.46 37.29,52.74 37.44,53.08 37.73,53.41 37.90,53.70 38.04,54.08 38.19,54.49 38.37,54.80 38.63,55.14 38.87,55.55 39.09,55.89 39.36,56.30 39.64,56.51 39.90,56.77 40.21,57.08 40.58,57.43 40.92,57.76 41.23,58.05 41.57,58.37 41.87,58.65 42.18,58.86 42.44,59.17 42.74,59.44 43.15,59.60 43.37,59.96 43.71,60.11 44.13,59.84 44.23,60.12 44.19,60.57 44.54,60.85 44.87,61.04 45.23,61.32 45.58,61.48 45.92,61.74 46.22,61.93 46.60,62.04 46.94,62.28 47.32,62.47 47.71,62.62 48.04,62.64 48.33,62.75 48.75,62.92 49.24,62.98 49.63,63.22 50.05,63.32 50.37,63.27 50.81,63.44 51.24,63.48 51.70,63.35 52.12,63.39 52.55,63.37 52.99,63.27 52.67,62.87 52.43,62.49 52.27,62.12 52.17,61.79 52.07,61.44 52.00,61.09" fill="none" stroke="black" stroke-width="0.5"/><polyline points="37.05,49.24 36.99,49.60 36.97,49.92 36.97,50.24 36.96,50.71 37.31,50.96 37.82,51.05 37.83,51.34 37.82,51.65 37.82,51.99 37.84,52.39 37.87,52.79 37.92,53.02" fill="none" stroke="black" stroke-width="0.5"/><polyline points="49.20,51.25 48.91,51.67 48.67,52.08 48.71,52.56 49.01,52.45 49.44,52.05" fill="none" stroke="black" stroke-width="0.5"/><polyline points="52.45,51.57 52.77,52.10 52.63,52.58 52.41,53.01" fill="none" stroke="black" stroke-width="0.5"/><polyline points="58.54,51.59 58.76,52.06 58.92,52.52 59.04,52.96 59.13,53.34 59.19,53.66 59.10,53.98 58.65,54.13 58.62,54.47 58.64,54.78 58.62,55.11" fill="none" stroke="black" stroke-width="0.5"/><polyline points="48.09,51.70 47.82,52.07 47.59,52.38 47.34,52.78 46.93,52.80 46.77,52.48 47.10,52.13 47.47,52.29 47.83,52.64 48.17,52.48 48.44,52.24" fill="none" stroke="black" stroke-width="0.5"/><polyline points="45.47,51.97 44.97,52.32 44.63,52.74 44.24,53.10 43.86,53.09 43.89,52.61 44.06,52.19" fill="none" stroke="black" stroke-width="0.5"/><polyline points="57.45,51.94 57.86,52.40 58.25,52.85 58.45,53.25 58.14,53.48 58.49,53.91" fill="none" stroke="black" stroke-width="0.5"/><polyline points="63.47,52.23 63.44,52.64 63.40,52.99 63.35,53.27 63.30,53.60 63.14,53.87 62.74,53.52 62.53,53.51 62.50,53.85 62.49,54.22 62.45,54.57 62.39,54.87 62.35,55.13" fill="none" stroke="black" stroke-width="0.5"/><polyline points="46.03,52.34 45.75,52.62 45.65,52.90 45.22,52.97 45.10,53.27 45.47,53.50 45.81,53.67 46.14,53.80 46.53,53.89 46.95,53.96 47.31,53.99 47.50,54.00 47.85,54.00 48.39,54.00 48.89,54.01 48.38,54.02 47.83,54.02" fill="none" stroke="black" stroke-width="0.5"/><polyline points="38.77,52.37 38.74,52.73 38.73,53.10 38.74,53.47 38.77,53.85 38.82,54.24 38.89,54.65" fill="none" stroke="black" stroke-width="0.5"/><polyline points="44.94,53.22 44.57,53.53 44.33,53.98 44.20,54.46 44.17,54.87 44.22,55.09" fill="none" stroke="black" stroke-width="0.5"/><polyline points="39.65,53.33 39.64,53.60 39.65,53.87 39.66,54.17 39.68,54.53 39.71,54.87 39.75,55.15 39.80,55.47 39.91,55.82 40.05,56.18 40.31,56.51 40.30,56.82 40.37,56.77 40.83,56.87 41.26,56.67 41.25,56.35 41.15,56.06 41.02,55.65 40.93,55.31 40.87,55.01 40.81,54.66 40.78,54.38" fill="none" stroke="black" stroke-width="0.5"/><polyline points="57.35,53.59 56.91,53.80 56.44,53.95 56.02,54.03 55.57,54.06 55.05,54.07 54.47,54.09 53.92,54.11 53.46,54.15 53.02,54.21 52.53,54.28 51.99,54.33 51.45,54.32 51.35,54.32 51.93,54.34" fill="none" stroke="black" stroke-width="0.5"/><polyline points="48.93,54.02 49.42,54.04 49.71,54.06 50.02,54.10 50.38,54.15 50.82,54.24" fill="none" stroke="black" stroke-width="0.5"/><polyline points="61.57,54.09 61.58,54.43 61.56,54.74 61.55,55.11 61.52,55.39 61.48,55.73 61.42,56.07 61.34,56.41 61.34,56.80 61.55,57.31 61.87,57.63 62.16,58.02 62.35,58.33 62.51,58.65 62.68,59.04 62.80,59.37 62.91,59.72 63.05,60.17 63.18,60.58 63.27,60.89 63.39,61.22 63.60,61.61 63.98,61.66 64.35,61.71 64.70,61.78 65.06,61.88 65.42,62.01 65.80,62.18 66.15,62.38 66.48,62.61 66.80,62.89 67.11,63.18 67.46,63.45 67.89,63.66 68.34,63.83 68.73,63.95 69.00,64.05" fill="none" stroke="black" stroke-width="0.5"/><polyline points="42.41,54.96 42.42,55.30 42.44,55.71 42.49,56.15 42.57,56.57 42.67,56.95" fill="none" stroke="black" stroke-width="0.5"/><polyline points="60.48,55.13 60.49,55.44 60.49,55.85 60.49,56.11 60.45,56.52 60.40,56.82 60.35,57.07 60.27,57.44 60.15,57.88 60.31,58.18 60.72,58.44 60.76,58.75 60.74,59.02 60.71,59.43 60.68,59.86 60.66,60.18 60.63,60.46 60.60,60.71 60.57,60.95 60.54,61.18 60.52,61.39 60.48,61.61 60.44,61.90 60.37,62.31 60.31,62.61 60.26,62.88 60.16,63.25 60.08,63.54 59.97,63.85 59.84,64.21 59.74,64.46 59.63,64.74 59.46,65.16 59.29,65.55 59.19,65.80 59.05,66.11" fill="none" stroke="black" stroke-width="0.5"/><polyline points="48.09,55.53 48.54,55.79 48.85,55.94 49.13,56.07 49.53,56.22 49.94,56.37 50.32,56.48 50.72,56.66 50.78,56.98 50.68,57.30 50.91,57.54 50.79,57.87 51.07,57.58 51.31,57.28 51.64,56.98 51.32,56.73 51.23,56.75 51.69,57.07 52.13,56.99 52.54,56.78 52.97,56.68 53.41,56.54 53.87,56.41 54.28,56.25 54.52,56.13 54.84,55.95 55.19,55.69" fill="none" stroke="black" stroke-width="0.5"/><polyline points="38.79,56.20 38.45,56.39 38.17,56.58 37.82,56.84 37.51,57.08 37.22,57.33 36.92,57.60 36.70,57.82 36.45,58.09 36.24,58.32 36.00,58.60 35.79,58.85 35.59,59.10 35.31,59.47 35.12,59.73 34.91,60.03 34.69,60.34 34.52,60.61 34.29,60.92 34.06,61.25 33.93,61.56 33.76,61.85 33.60,62.15 33.47,62.41 33.28,62.80 33.11,63.15 32.95,63.47 32.80,63.76 32.60,64.13 32.37,64.52 32.23,64.75 32.07,65.01 31.81,65.41 31.59,65.75 31.37,66.08 31.21,66.31 30.99,66.66 30.80,66.96 30.62,67.21 30.44,67.48 30.25,67.77 29.98,68.18 29.77,68.49 29.57,68.79 29.37,69.09 29.50,69.41 29.86,69.54 30.20,69.65 30.48,69.74 30.86,69.87 31.13,69.97 31.42,70.08 31.67,70.18 31.95,70.31 32.32,70.49 32.69,70.67 33.03,70.85 33.32,70.99 33.67,71.14 33.97,71.24 34.39,71.19 34.79,71.04 35.03,70.75 35.27,70.43 35.52,70.11 35.79,69.75 36.01,69.46 36.25,69.13 36.48,68.83 36.74,68.49" fill="none" stroke="black" stroke-width="0.5"/><polyline points="39.25,56.70 39.25,56.95 39.26,57.32 39.27,57.61 39.28,57.96 39.30,58.32 39.31,58.68 39.32,58.92 39.33,59.38 39.35,59.74 39.36,60.02 39.36,60.24 39.37,60.48 39.33,60.81 39.29,61.21 39.42,61.60 39.42,61.95 39.43,62.38 39.44,62.86 39.45,63.08 39.45,63.41 39.45,63.72 39.45,63.95 39.44,64.28" fill="none" stroke="black" stroke-width="0.5"/><polyline points="52.82,56.92 53.02,57.32 53.26,57.70 53.49,58.01 53.06,58.02 52.55,57.76 52.45,57.37 52.14,57.42 52.04,57.83 51.98,58.15 51.65,58.12 51.58,57.77 51.71,57.62 51.46,58.03 51.13,58.42" fill="none" stroke="black" stroke-width="0.5"/><polyline points="59.26,57.36 59.38,57.73 59.44,58.10 59.46,58.45 59.15,58.65 58.72,58.78 58.65,59.04 58.68,59.32 58.64,59.08 58.53,58.53 58.34,58.11 58.10,57.69" fill="none" stroke="black" stroke-width="0.5"/><polyline points="43.64,57.56 43.42,57.95 43.24,58.29 43.12,58.68 43.08,59.19" fill="none" stroke="black" stroke-width="0.5"/><polyline points="44.23,58.06 44.16,58.40 44.10,58.78 44.08,59.06 44.09,59.27 44.08,59.55 44.37,59.81 44.92,59.83 45.08,60.00 45.00,60.34 44.97,60.67 45.03,61.06 45.46,61.26 45.72,61.05 45.87,60.68 46.08,60.39 46.25,60.08 46.49,59.75 46.79,59.92 46.88,60.42 46.78,60.72 46.71,61.00 46.67,61.29 46.68,61.78" fill="none" stroke="black" stroke-width="0.5"/><polyline points="56.99,58.85 57.50,59.22 57.85,59.68 57.98,60.13" fill="none" stroke="black" stroke-width="0.5"/><polyline points="55.01,60.03 55.31,60.41 55.50,60.76 55.64,61.13 55.75,61.47 55.77,61.78 56.18,61.62 56.49,61.26 56.51,60.94 56.47,60.55 56.81,60.15 57.08,60.22 57.13,60.64 57.32,61.09" fill="none" stroke="black" stroke-width="0.5"/><polyline points="48.87,60.60 48.82,60.95 48.81,61.33 48.83,61.63 48.87,61.89 48.95,62.24 49.14,62.59 49.55,62.62 49.97,62.32 50.06,61.92 49.97,61.53 49.97,61.21" fill="none" stroke="black" stroke-width="0.5"/><polyline points="47.84,60.72 47.74,61.27 47.81,61.86 48.20,62.36" fill="none" stroke="black" stroke-width="0.5"/><polyline points="39.16,61.10 38.90,61.40 38.63,61.75 38.38,62.09 38.11,62.47 37.85,62.87 37.66,63.16 37.45,63.50 37.24,63.87 37.05,64.21 36.87,64.55 36.65,64.87 36.47,64.68 36.39,64.33 36.37,64.07 36.36,63.64 36.36,63.31 36.38,63.04 36.41,62.72 36.45,62.42" fill="none" stroke="black" stroke-width="0.5"/><polyline points="51.03,61.49 51.08,61.91 51.18,62.34 51.38,62.77 51.75,63.18" fill="none" stroke="black" stroke-width="0.5"/><polyline points="63.69,62.01 63.81,62.26 64.02,62.63 64.22,62.96 64.40,63.30 64.54,63.65 64.64,63.97 64.73,64.34 64.82,64.75 64.93,65.18 65.01,65.49 65.10,65.78 65.19,66.10 65.33,66.54 65.43,66.90 65.55,67.29 65.68,67.72 65.81,68.20 65.92,68.66 66.02,69.03 66.12,69.38 66.22,69.72 66.29,69.98 66.36,70.26 66.44,70.59 66.52,70.89 66.59,71.15 66.66,71.45 66.72,71.72 66.73,72.03 66.52,72.32 66.19,72.53 65.99,72.65 65.61,72.80 65.23,72.97 64.78,73.14 64.32,73.30 63.83,73.42 63.32,73.45 63.03,73.41 62.69,73.34 62.37,73.24 61.95,73.11 61.56,72.99 61.12,72.84 60.70,72.71 60.35,72.61 60.02,72.51 59.66,72.39 59.34,72.29 59.02,72.19 58.72,72.10 58.33,72.20 57.82,72.29 57.44,72.05 57.02,71.86 56.74,71.82 56.32,71.88 55.88,71.72 55.40,71.73 54.98,71.79 54.49,71.89 54.06,72.01 53.57,72.16 53.34,72.47 53.55,73.04 53.97,73.06 54.39,72.93 54.87,72.74 55.30,72.57 55.61,72.40 56.01,72.15" fill="none" stroke="black" stroke-width="0.5"/><polyline points="70.66,64.70 70.90,64.80 71.23,64.93 71.70,65.09 72.15,65.18 72.23,65.20 72.62,65.19 72.68,65.19 73.36,65.12 73.84,65.14 74.08,65.19 74.49,65.31 74.77,65.41 75.09,65.53 75.40,65.65 75.68,65.75 75.96,65.86 76.36,66.03 76.79,66.20 77.19,66.37 77.60,66.55 77.95,66.71 78.28,66.86 78.71,67.07 79.16,67.29 79.49,67.44 79.76,67.58 80.06,67.73 80.42,67.92 80.88,68.17 81.29,68.40" fill="none" stroke="black" stroke-width="0.5"/><polyline points="36.57,65.01 36.58,65.38 36.68,65.74 36.84,66.14 37.01,66.45 37.22,66.79 37.49,67.14 37.71,67.43 37.91,67.72 38.09,68.03 38.22,68.26 38.40,68.60 38.63,69.05 38.85,69.48 39.08,69.95 39.22,70.25 39.43,70.62 39.71,70.99 39.97,71.27 40.28,71.56 40.65,71.93 40.91,72.21 41.26,72.56 41.53,72.85 41.85,73.18 42.12,73.46 42.43,73.79 42.69,74.05 42.99,74.37 43.32,74.71 43.60,75.01 43.90,75.34 44.18,75.63 44.46,75.97 44.68,76.26 44.90,76.60 45.14,76.95 45.28,77.23 45.46,77.52 45.63,77.81 45.86,78.15 46.09,78.49 46.36,78.89 46.54,79.18 46.71,79.51 46.85,79.82 46.95,80.15 47.01,80.48 47.05,80.75 47.07,81.15 47.07,81.63 47.08,81.86 47.08,82.06 47.07,82.35 47.07,82.87 47.06,83.21 47.06,83.46 47.04,83.88 47.03,84.19 47.01,84.41 47.00,84.67 46.98,84.95 46.94,85.35 46.93,85.62 46.88,85.97 46.86,86.25 46.83,86.47 46.79,86.80 46.76,87.09 46.72,87.42 46.70,87.75 46.67,88.07 46.65,88.36" fill="none" stroke="black" stroke-width="0.5"/><polyline points="58.47,67.39 58.33,67.63 58.12,67.93 57.91,68.22 57.65,68.53 57.42,68.79 57.15,69.09 56.89,69.35 56.57,69.69 56.31,69.94 56.03,70.18 55.73,70.41 55.41,70.63 55.03,70.81 54.59,70.96 54.13,71.05 53.69,71.12 53.33,71.19 52.84,71.32 52.36,71.51 51.99,71.69 51.73,71.88 51.48,72.19 51.33,72.60 51.22,72.98 51.15,73.32 51.49,73.55 51.94,73.52 52.34,73.63 52.00,73.93 51.71,74.14 51.44,74.36 51.15,74.66 50.96,74.86 50.73,75.14 50.43,75.50 50.21,75.78 49.97,76.10 49.80,76.33 49.58,76.63 49.28,77.03 49.01,77.41 48.77,77.74 48.55,78.07 48.34,78.39" fill="none" stroke="black" stroke-width="0.5"/><polyline points="33.97,71.26 34.53,71.38 34.71,71.64 34.94,71.96 35.33,72.12 35.76,72.19 36.22,72.27 36.63,72.37 37.01,72.48 37.34,72.64 37.56,72.97 37.78,73.34 38.03,73.67 38.32,73.98 38.61,74.27 38.89,74.56 39.14,74.78 39.48,75.08 39.85,75.38 40.17,75.62 40.50,75.86 40.87,76.12 41.25,76.36 41.63,76.60 42.01,76.83 42.38,77.08 42.73,77.37 43.11,77.55 43.42,77.75 43.72,77.96 44.03,78.18 44.34,78.42 44.66,78.69 44.99,79.02" fill="none" stroke="black" stroke-width="0.5"/><polyline points="57.88,72.35 57.63,72.74 57.38,73.10 57.15,73.44 56.91,73.77 56.66,74.10 56.40,74.43 56.12,74.77 55.81,75.12" fill="none" stroke="black" stroke-width="0.5"/><polyline points="49.43,73.33 49.17,73.45 48.87,73.60 48.52,73.79 48.17,74.01 47.84,74.24 47.53,74.47 47.21,74.73 46.90,75.01 46.60,75.31 46.32,75.62 46.06,75.94 45.82,76.28 45.58,76.63 45.35,76.99" fill="none" stroke="black" stroke-width="0.5"/><polyline points="42.80,77.80 42.85,78.14 42.87,78.62 42.90,79.15 42.93,79.67 42.97,80.15 43.05,80.61 43.16,81.03" fill="none" stroke="black" stroke-width="0.5"/></svg>