<svg width="100.0mm" height="100.0mm" viewBox="0 0 100.0 100.0" xmlns="http://www.w3.org/2000/svg"><polyline points="54.25,13.40 53.76,13.48 53.28,13.56 52.79,13.64 52.31,13.72 51.82,13.80 51.34,13.89 50.86,13.99 50.39,14.10 49.92,14.24 49.45,14.39 48.99,14.58 48.86,14.23 48.71,13.68 48.25,13.66 48.70,13.62 49.18,13.58 49.65,13.56 50.18,13.54 50.62,13.53 50.78,13.53 51.13,13.52 50.75,13.54 50.08,13.56" fill="none" stroke="black" stroke-width="0.5"/><polyline points="53.78,14.26 53.65,14.29 54.10,14.26 54.43,14.27 54.74,14.29 55.04,14.33 55.45,14.39 55.75,14.46 56.18,14.56 56.61,14.68 56.97,14.78 57.31,14.89 57.61,14.99 57.98,15.14 58.42,15.31 58.84,15.48 59.28,15.67 59.63,15.83 60.00,15.99 60.34,16.16 60.58,16.29 60.90,16.46 61.25,16.66 61.09,17.01 61.44,17.09 61.76,17.17 62.20,17.29 62.52,17.39 62.85,17.49 63.14,17.60 63.51,17.76 63.86,17.91 64.26,18.10 64.70,18.34 65.04,18.52 65.44,18.76 65.76,18.95 66.13,19.21 66.45,19.53 66.77,19.81 67.14,20.08" fill="none" stroke="black" stroke-width="0.5"/><polyline points="47.90,14.84 47.48,15.06 47.13,15.23 46.77,15.42 46.48,15.59 46.20,15.76 45.89,15.96 45.54,16.25" fill="none" stroke="black" stroke-width="0.5"/><polyline points="42.47,15.25 42.04,15.44 41.58,15.67 41.15,15.91 40.77,16.12 40.48,16.29 40.14,16.50 39.82,16.71 39.52,16.91 39.16,17.17 38.73,17.48 38.32,17.80 38.01,17.97 37.61,17.95 37.13,18.11 36.80,18.33 36.54,18.63 36.30,18.96 36.15,19.25 36.04,19.56 35.91,19.94 35.83,20.28 35.78,20.56 35.75,20.87 35.74,21.22 35.41,21.21 35.01,21.23 35.08,21.57 35.16,21.88 35.29,22.25 35.43,22.59" fill="none" stroke="black" stroke-width="0.5"/><polyline points="57.18,16.63 57.53,16.64 57.81,16.63 57.98,16.65 57.93,16.65 58.44,16.66 58.64,16.68 59.00,16.68 58.89,16.70 59.43,16.75 59.69,16.77 60.04,16.82 60.41,16.87 60.78,16.94" fill="none" stroke="black" stroke-width="0.5"/><polyline points="35.57,17.45 35.47,17.84 35.36,18.25 35.26,18.67 35.16,19.08 35.08,19.46 35.02,19.79 34.98,20.08 34.97,20.37 34.97,20.69 34.99,21.06" fill="none" stroke="black" stroke-width="0.5"/><polyline points="48.56,18.36 49.27,18.36 49.57,18.38 49.90,18.42 50.39,18.51" fill="none" stroke="black" stroke-width="0.5"/><polyline points="48.29,18.37 48.17,18.41 47.74,18.45 47.32,18.52 47.58,18.48 47.16,18.54 46.62,18.65 46.12,18.79 45.62,18.94 45.12,19.12 44.64,19.31 44.19,19.52 43.76,19.74 43.38,19.97" fill="none" stroke="black" stroke-width="0.5"/><polyline points="64.97,19.34 65.32,19.60 65.67,19.88 66.02,20.18 66.35,20.49 66.66,20.80 66.95,21.11 67.23,21.43 67.49,21.75 67.75,22.10 67.87,22.48 67.57,22.81 67.18,22.78 66.94,22.44 66.69,22.11 66.42,21.80 66.12,21.49 65.79,21.20" fill="none" stroke="black" stroke-width="0.5"/><polyline points="49.01,19.56 49.57,19.56 49.85,19.57 49.37,19.58 48.79,19.59 48.21,19.61 47.66,19.65 47.13,19.72 46.61,19.81 46.09,19.91 45.58,20.04" fill="none" stroke="black" stroke-width="0.5"/><polyline points="50.02,19.58 50.53,19.60 50.87,19.62 51.37,19.66 51.75,19.70 52.11,19.75 52.52,19.81 52.84,19.87 53.17,19.93 53.47,20.00 53.87,20.09 54.24,20.18 54.61,20.26" fill="none" stroke="black" stroke-width="0.5"/><polyline points="34.39,19.81 34.18,20.14 34.02,20.43 33.83,20.81 33.67,21.22 33.58,21.56 33.53,21.82 33.48,22.16 33.47,22.49 33.48,22.78 33.52,23.07 33.58,23.34 33.74,23.75 33.93,24.10 34.22,24.44 34.49,24.71 34.47,24.97 34.12,25.23 33.78,25.47 33.44,25.76 33.20,25.99 32.97,26.27 32.70,26.62 32.52,26.87 32.32,27.21 32.15,27.51 32.00,27.80 31.86,28.09 31.71,28.41 31.58,28.72 31.48,28.97 31.38,29.25 31.29,29.57 31.20,29.94 31.14,30.25 31.58,30.34 31.68,30.58 31.60,30.94 31.57,31.22 31.53,31.55 31.50,31.97 31.50,32.18 31.51,32.46 31.52,32.95 31.54,33.33 31.57,33.69 31.59,33.97 31.63,34.34 31.68,34.72 31.74,35.16 31.81,35.51 31.89,35.91 31.96,36.23 32.05,36.61 32.16,37.02 32.26,37.35 32.42,37.76 32.54,38.07 32.68,38.38 32.90,38.80 33.23,39.11 33.50,39.03 33.38,38.76 33.23,38.38 33.11,37.99 33.01,37.62 32.96,37.31 32.91,37.03 32.85,36.68 32.80,36.22 32.77,35.89 32.76,35.68 32.74,35.36 32.72,35.10 32.72,34.77 32.73,34.50 32.76,34.18" fill="none" stroke="black" stroke-width="0.5"/><polyline points="52.23,21.51 52.67,21.66 53.07,21.84 53.41,22.02 53.70,22.18 54.01,22.38 54.33,22.59 54.73,22.89 55.00,23.11 55.37,23.43 55.71,23.75 56.02,24.05 56.32,24.37 56.61,24.69 56.91,25.02 56.98,25.44 57.04,25.86 57.33,26.19 57.58,26.53 57.85,26.88 58.11,27.23 58.35,27.57 58.59,27.94 58.85,28.37 59.10,28.83 59.26,29.11 59.42,29.41 59.58,29.74 59.73,30.05 59.91,30.46 60.11,30.93 60.29,31.35 60.41,31.67 60.54,32.04 60.65,32.36 60.76,32.72 60.84,33.02" fill="none" stroke="black" stroke-width="0.5"/><polyline points="49.19,21.78 49.54,21.90 49.90,22.06 50.24,22.21 50.65,22.41 51.02,22.60 51.41,22.82 51.70,23.00 52.06,23.23 52.47,23.51 52.89,23.82 53.24,24.10 53.57,24.40 53.91,24.73 54.21,25.04 54.48,25.35 54.77,25.68 55.02,26.01 55.25,26.33 55.45,26.64 55.71,27.06 55.92,27.42 56.06,27.68 56.21,27.97 56.40,28.36 56.59,28.73 56.73,29.04 56.87,29.31 56.99,29.59 57.13,29.89 57.26,30.17 57.42,30.49 57.60,30.89 57.73,31.16 57.86,31.44 58.02,31.79 58.22,32.21 58.39,32.56 58.55,32.90 58.69,33.18 58.95,33.55" fill="none" stroke="black" stroke-width="0.5"/><polyline points="67.38,23.02 67.58,23.33 67.82,23.70 68.07,24.09 68.26,24.47 68.17,24.82 67.77,25.03 67.47,24.85 67.32,24.38 67.06,24.00" fill="none" stroke="black" stroke-width="0.5"/><polyline points="45.41,23.39 45.92,23.39 46.35,23.40 46.60,23.45 46.68,23.94 47.04,23.93 47.37,23.91 47.47,23.91 47.97,23.88 48.51,23.88 48.32,23.89 47.90,23.89 48.40,23.89 48.91,23.91 49.21,23.93 49.62,23.96 49.91,23.99 50.23,24.04 50.50,24.09 50.88,24.17 51.26,24.26 51.60,24.37 51.94,24.48" fill="none" stroke="black" stroke-width="0.5"/><polyline points="45.14,23.40 45.53,23.40 44.98,23.44 45.03,23.44 44.57,23.50 44.10,23.57 43.61,23.67 43.12,23.79 42.62,23.93 42.12,24.09 41.62,24.26 41.14,24.44 40.67,24.61 40.23,24.77" fill="none" stroke="black" stroke-width="0.5"/><polyline points="46.35,24.00 46.26,24.10 46.29,24.64 46.71,24.81 47.22,24.81 47.72,24.80 47.27,24.79 47.57,24.80 48.20,24.80 48.21,24.82 48.54,24.84 48.93,24.85 49.22,24.88 49.52,24.92 49.77,24.96 50.05,25.00 50.43,25.08 50.84,25.17 51.22,25.28 51.54,25.38 51.96,25.55 52.31,25.69 52.58,25.83 52.96,26.04 53.36,26.30 53.69,26.56 54.06,26.85" fill="none" stroke="black" stroke-width="0.5"/><polyline points="67.68,25.24 67.82,25.56 68.01,26.02 68.15,26.40 68.27,26.77 68.38,27.17 68.46,27.56 68.50,27.92 68.48,28.26 68.16,28.40 67.99,28.05 67.90,27.67 67.80,27.27" fill="none" stroke="black" stroke-width="0.5"/><polyline points="36.64,25.30 36.87,25.33 37.24,25.39 37.69,25.47 38.08,25.54 37.99,25.73 37.63,26.13 37.95,26.47 38.26,26.72 38.59,26.94 38.96,27.15 39.24,27.28 39.59,27.40 40.02,27.52 40.46,27.59 40.91,27.58" fill="none" stroke="black" stroke-width="0.5"/><polyline points="39.00,25.75 39.36,25.78 39.75,25.80 40.20,25.79 40.39,25.78 40.79,25.77" fill="none" stroke="black" stroke-width="0.5"/><polyline points="34.32,26.02 33.94,26.31 33.60,26.65 33.30,27.01 33.05,27.39 32.85,27.78 32.69,28.15 32.57,28.52 32.48,28.88 32.42,29.26 32.38,29.63" fill="none" stroke="black" stroke-width="0.5"/><polyline points="37.24,26.73 37.26,27.06 37.32,27.38 37.37,27.70 37.43,27.97 37.52,28.31 37.66,28.73 37.77,29.03 37.88,29.28 38.07,29.63 38.31,29.99 38.58,30.33 38.86,30.62 39.17,30.89 38.66,30.80 38.52,31.02 38.47,31.32 38.40,31.66 38.31,32.00 38.22,32.29 38.12,32.61 38.01,32.96 37.92,33.23 37.81,33.55 37.68,33.90 37.56,34.19 37.44,34.50 37.28,34.86 37.15,35.18 37.03,35.43 36.91,35.67 36.80,35.91 36.66,36.19 36.46,36.60 36.25,36.99 36.10,37.28 35.95,37.58 35.84,37.89 35.76,38.20 35.67,38.62 35.60,38.95 35.54,39.35 35.47,39.74 35.43,40.04 35.38,40.33 35.36,40.57 35.33,40.88 35.28,41.17 35.19,41.53 35.21,41.90 35.21,42.19 35.21,42.40 35.21,42.61 35.21,42.82 35.21,43.03 35.22,43.40 35.24,43.71 35.26,43.96 35.28,44.22 35.33,44.63 35.38,44.98 35.41,45.23 35.48,45.59 35.54,45.90 35.62,46.29 35.71,46.66 35.79,47.01 35.86,47.33 35.85,47.62 35.88,47.96 35.91,48.20 35.96,48.60 35.98,48.83 35.81,49.16 35.42,49.08 35.07,48.86 34.81,48.54 34.64,48.21 34.54,47.87 34.48,47.57 34.44,47.27 34.38,46.83 34.34,46.46 34.30,46.20 34.25,45.88 34.18,45.54 34.10,45.22 34.04,44.99 33.96,44.66 33.82,44.20 33.72,43.86 33.63,43.55 33.50,43.07 33.39,42.62 33.29,42.22 33.21,41.86 33.14,41.55 33.11,41.31 33.06,41.06 33.02,40.70 33.00,40.43 33.00,40.22 33.04,39.92 33.27,39.58 33.55,39.39 33.81,39.74 34.06,40.17 34.27,40.56 34.49,40.90 34.75,41.32 35.03,41.64" fill="none" stroke="black" stroke-width="0.5"/><polyline points="60.00,26.73 60.22,27.06 60.37,27.41 60.52,27.80 60.63,28.10 60.70,28.35 60.78,28.63 60.85,28.88 60.91,29.12 60.99,29.51 61.07,29.92 61.13,30.26 61.17,30.61 61.21,30.95 61.23,31.22 61.26,31.59 61.27,31.91 61.27,32.14 61.27,32.54 61.26,32.84 61.19,33.20 61.18,33.57 61.21,33.87 61.20,34.15 61.12,34.55" fill="none" stroke="black" stroke-width="0.5"/><polyline points="56.96,26.80 57.12,27.12 57.28,27.49 57.45,27.85 57.59,28.17 57.71,28.42 57.82,28.68 57.95,28.99 58.11,29.37 58.25,29.74 58.37,30.06 58.50,30.42 58.64,30.82 58.77,31.22 58.88,31.57 58.96,31.90" fill="none" stroke="black" stroke-width="0.5"/><polyline points="61.34,27.77 61.65,28.12 62.01,28.48 62.40,28.87 62.76,29.26 63.06,29.58 63.30,29.87 63.60,30.25 63.90,30.64 64.17,31.02 64.42,31.40 64.66,31.77 64.88,32.14 65.07,32.50 65.18,32.89 65.41,33.30 65.59,33.77 65.73,34.20 65.63,34.50 65.28,34.51 65.09,34.14 64.86,33.82" fill="none" stroke="black" stroke-width="0.5"/><polyline points="38.54,27.80 38.65,28.18 38.77,28.58 38.90,28.99 39.05,29.40 39.25,29.80 39.49,30.17 39.80,30.51 40.19,30.81" fill="none" stroke="black" stroke-width="0.5"/><polyline points="36.70,28.13 36.74,28.55 36.85,28.99 37.06,29.40 37.38,29.74" fill="none" stroke="black" stroke-width="0.5"/><polyline points="68.20,28.63 68.29,28.93 68.36,29.16 68.47,29.48 68.55,29.74 68.63,29.99 68.69,30.30 68.28,30.63 68.21,30.97 68.31,31.32 68.41,31.77 68.47,32.15 68.50,32.41 68.53,32.76 68.53,33.18 68.53,33.40 68.51,33.61 68.50,33.97 68.29,33.84 67.93,33.46 67.95,33.75 67.99,34.14 67.99,34.44 67.99,34.65 67.99,34.86 67.99,35.08 67.97,35.33 67.94,35.61 67.90,36.02 67.86,36.28 67.80,36.57 67.72,36.98 67.65,37.27 67.58,37.53 67.45,37.96 67.32,38.38 67.22,38.69 67.11,39.00 67.01,39.27 66.94,39.69 66.62,40.08 66.39,39.87 66.35,39.62 66.34,39.37 66.32,39.09 66.30,38.80 66.27,38.43 66.23,37.98 66.19,37.67 66.16,37.43 66.11,37.11 66.06,36.84 65.99,36.52 65.90,36.17 65.79,35.79 65.64,35.36 65.54,35.10 65.40,34.75" fill="none" stroke="black" stroke-width="0.5"/><polyline points="43.14,35.06 43.65,35.06 43.34,35.08 42.80,35.08 42.30,35.12 41.79,35.17 41.31,35.28 41.08,35.55 41.57,35.70 42.02,35.70 42.14,35.71 42.60,35.90 42.25,36.10 41.76,36.17 41.27,36.26 40.95,35.87 40.62,35.50 40.24,35.66 39.93,35.84 39.56,36.09 39.24,36.37 38.96,36.62 38.73,36.93 38.53,37.29 38.26,37.58 37.99,37.91" fill="none" stroke="black" stroke-width="0.5"/><polyline points="43.76,35.08 44.20,35.09 44.40,35.11 44.72,35.13 45.10,35.17 45.54,35.25 45.86,35.34 46.17,35.48 46.52,35.72 46.80,36.02 47.03,36.39 46.83,36.62 46.45,36.56 46.24,36.53 45.90,36.46 45.55,36.38 45.09,36.28 44.72,36.22 44.50,36.19 44.20,36.16 43.98,36.14 43.77,36.12 43.20,36.11 43.48,36.10 43.01,36.06 42.72,35.86 43.21,35.78 43.64,35.71 43.77,35.74 44.13,35.79" fill="none" stroke="black" stroke-width="0.5"/><polyline points="46.69,35.08 47.08,35.53 47.36,35.90 47.59,36.32 47.78,36.79 48.14,36.77 48.46,36.64 48.62,37.11" fill="none" stroke="black" stroke-width="0.5"/><polyline points="56.16,35.73 55.85,35.96 55.55,36.31 55.28,36.71 55.03,37.08 54.73,37.14 54.33,37.15 54.17,37.37 54.44,36.98 54.67,36.62 54.85,36.24" fill="none" stroke="black" stroke-width="0.5"/><polyline points="58.83,35.68 59.34,35.68 59.70,35.69 59.18,35.69 58.66,35.69 58.53,35.69 58.22,35.72 57.95,35.75 57.46,35.80 57.02,35.90 56.56,36.06 56.21,36.31 55.95,36.60 55.95,36.96 56.43,36.96 56.90,36.90 57.36,36.82 57.83,36.76 58.11,36.70 58.69,36.65 58.97,36.63 59.50,36.62 60.02,36.62 60.53,36.63 60.78,36.65 61.09,36.68 61.28,36.71 61.70,36.77 62.07,36.85 62.46,36.96 62.90,37.10 63.22,37.22 63.57,37.38 63.89,37.54 64.08,37.52 64.42,37.73 64.60,38.06 64.56,37.97 64.22,37.38 63.99,37.04 63.70,36.69 63.40,36.42 63.07,36.18 62.66,36.04 62.28,35.87 61.85,35.92 61.66,35.92 61.38,35.90 60.97,35.83 60.54,35.76 60.26,35.71 60.10,35.71 59.80,35.69" fill="none" stroke="black" stroke-width="0.5"/><polyline points="44.08,37.86 44.49,37.88 44.70,37.90 45.04,37.96 45.50,38.09 45.98,38.28 46.36,38.50 46.68,38.72 47.03,39.00 47.20,39.34 46.70,39.59 46.77,39.75 47.13,39.96 47.46,40.23 47.34,40.53 46.81,40.70 46.34,40.84 45.93,40.95" fill="none" stroke="black" stroke-width="0.5"/><polyline points="58.08,38.20 58.58,38.21 58.91,38.25 59.26,38.30 59.55,38.37 59.82,38.44 60.16,38.57 60.61,38.78 61.02,39.02 61.32,39.21 61.60,39.44 61.94,39.72 62.26,40.04 62.17,40.52 61.82,40.72 61.45,40.56 61.24,40.38 60.88,40.14 60.48,39.89 60.11,39.70 59.81,39.57 59.51,39.44 59.07,39.62 58.59,39.80 58.16,39.59 57.76,39.47 57.34,39.72 57.19,40.10 57.38,40.48 57.68,40.81 58.09,40.77 58.46,40.54 58.70,40.20 58.65,39.86" fill="none" stroke="black" stroke-width="0.5"/><polyline points="41.89,38.45 41.55,38.65 41.28,38.82 40.95,39.06 40.57,39.33 40.28,39.60 40.36,40.00 40.70,40.31 41.10,40.45 41.47,40.68 41.85,40.87 42.25,41.03" fill="none" stroke="black" stroke-width="0.5"/><polyline points="56.49,38.57 56.22,38.71 55.81,38.96 55.39,39.23 55.16,39.58 55.33,40.06 55.17,40.25 54.85,40.57 55.19,40.83 55.61,40.94 56.00,41.10 56.39,41.24" fill="none" stroke="black" stroke-width="0.5"/><polyline points="43.90,39.18 44.43,39.39 44.72,39.67 44.65,40.08 44.30,40.44 43.83,40.51 43.41,40.28 43.21,39.87 43.31,39.47 43.74,39.25" fill="none" stroke="black" stroke-width="0.5"/><polyline points="42.23,39.48 41.94,39.63 41.70,39.75 41.42,39.90 41.05,40.13" fill="none" stroke="black" stroke-width="0.5"/><polyline points="67.29,39.60 67.57,39.89 67.63,40.23 67.65,40.45 67.65,40.72 67.64,41.01 67.62,41.22 67.60,41.47 67.55,41.79 67.52,42.08 67.46,42.49 67.41,42.84 67.37,43.06 67.34,43.33 67.28,43.70 67.23,44.14 67.17,44.56 67.15,44.90 67.11,45.28 67.09,45.65 67.07,45.94 67.06,46.22 67.05,46.57 67.05,46.78 67.03,47.00 67.01,47.36 66.99,47.68 66.95,47.90 66.88,48.19 66.76,48.50 66.51,48.82 66.25,49.05 65.78,49.15 65.55,49.48 65.36,49.84 65.16,49.72 65.08,49.43 65.12,49.75 65.22,50.12 65.16,50.49 65.09,50.85 65.02,51.10 64.95,51.32 64.84,51.59 64.63,51.88 64.48,52.12 64.34,52.47 64.22,52.75 64.07,53.12 63.99,53.46 63.85,53.72 63.62,54.05 63.32,54.29 63.15,54.62 63.04,54.94 62.86,55.23 62.64,55.49 62.37,55.72 62.19,56.11 61.99,56.42 61.75,56.68 61.44,56.89 61.33,57.28 61.10,57.53 60.83,57.82 60.59,58.12 60.32,58.38 59.96,58.74 59.62,59.08 59.34,59.38 59.08,59.62 58.79,59.88 58.56,60.11 58.26,60.34 57.98,60.58 57.72,60.82 57.43,61.11 57.09,61.35 56.80,61.57 56.57,61.75 56.22,62.04 55.84,62.22 55.52,62.47 55.17,62.45 55.05,62.10 54.93,61.72 54.77,61.37 54.57,61.04 54.34,60.70 54.01,60.54 53.79,61.09 53.99,61.52 54.17,61.82 54.27,62.07 54.37,62.47 54.51,62.76 54.95,62.70" fill="none" stroke="black" stroke-width="0.5"/><polyline points="53.10,39.76 52.88,40.08 52.82,40.48 52.83,40.91 52.88,41.26 52.93,41.51 53.02,41.87 53.13,42.27 53.23,42.60 53.33,42.89 53.42,43.17 53.51,43.46 53.62,43.78 53.74,44.15 53.87,44.55 53.99,44.91 54.09,45.27 54.19,45.68" fill="none" stroke="black" stroke-width="0.5"/><polyline points="66.54,40.20 66.46,40.54 66.39,40.84 66.40,41.13 66.40,41.39 66.40,41.62 66.40,41.83 66.40,42.03 66.40,42.25 66.39,42.49 66.38,42.74 66.37,42.99 66.35,43.24 66.33,43.49 66.31,43.75 66.29,44.00 66.27,44.23 66.24,44.53 66.19,44.94 66.13,45.36 66.07,45.77 66.01,46.19 65.95,46.55 65.91,46.83 65.86,47.11 65.80,47.53 65.75,47.84 65.71,48.16 65.68,48.38 65.65,48.67 65.62,49.05" fill="none" stroke="black" stroke-width="0.5"/><polyline points="61.27,40.61 60.85,40.95 60.30,41.24 59.85,41.36" fill="none" stroke="black" stroke-width="0.5"/><polyline points="55.11,46.09 55.43,46.37 55.71,46.69 55.95,47.05 56.16,47.42 56.29,47.78 56.36,48.10 56.37,48.35 56.36,48.59 56.23,48.98 55.96,49.32 55.66,49.54 55.24,49.71 55.21,49.30 55.23,48.79 54.77,48.83 54.31,48.95 53.89,49.18 53.66,49.36 53.39,49.62 53.09,49.86 52.70,50.09 52.28,50.24 52.53,50.56 52.95,50.95 53.17,51.30 53.32,51.63 53.55,52.05 53.89,52.33 54.25,52.07 54.12,51.69 53.87,51.34 53.85,51.32 54.23,51.82 54.55,52.20 54.85,52.53 55.33,52.46 55.66,52.73 56.09,52.68 56.44,52.85 56.76,52.96 57.15,52.80 57.51,52.97 57.56,53.39 57.22,53.65 56.80,53.84 56.36,53.97 55.94,54.04 55.46,54.07 54.97,54.08 54.47,54.09 53.97,54.10 53.48,54.15 52.96,54.20 52.64,54.26 52.18,54.32 51.69,54.33 51.23,54.30 50.73,54.22 50.37,54.15 49.95,54.09 49.63,54.06 49.36,54.04 49.36,54.02 48.83,54.02 48.15,54.02 48.09,54.02 48.60,54.02 48.55,54.00 48.04,54.00 47.58,54.00 47.23,53.98 46.79,53.93 46.42,53.86 46.08,53.77 45.64,53.59 45.27,53.40 44.89,53.26 44.57,53.55 44.37,53.85 44.25,54.20 44.18,54.59 44.18,54.87 44.20,55.13" fill="none" stroke="black" stroke-width="0.5"/><polyline points="47.85,46.40 47.55,46.70 47.34,47.01 47.17,47.34 47.04,47.69 46.97,48.07 46.97,48.48 47.08,48.90 47.33,49.27 47.69,49.56 48.03,49.71 48.36,49.77 48.29,49.33 48.32,48.90 48.85,48.88 48.90,48.86 49.32,48.91 49.67,49.02 50.00,49.19 50.32,49.43 50.64,49.74 51.00,50.05" fill="none" stroke="black" stroke-width="0.5"/><polyline points="36.55,48.49 36.42,48.90 36.36,49.30 36.29,49.61 36.29,49.82 36.31,50.11 36.39,50.41 36.44,50.70 36.66,51.07 36.86,51.41 36.97,51.75 36.99,52.11 37.16,52.44 37.31,52.77 37.45,53.09 37.72,53.41 37.93,53.77 38.02,54.18 38.23,54.54 38.46,54.93 38.76,55.24 38.89,55.52 39.09,55.84 39.31,56.25 39.61,56.47 39.95,56.81 40.26,57.12 40.53,57.39 40.81,57.64 41.10,57.92 41.41,58.22 41.73,58.52 42.01,58.79 42.24,58.96 42.57,59.28 42.92,59.52 43.23,59.80 43.54,60.11 43.87,60.38 44.25,60.65 44.60,60.90 44.92,61.07 45.27,61.34 45.62,61.51 45.99,61.79 46.34,61.98 46.73,62.10 47.06,62.35 47.42,62.51 47.87,62.64 48.20,62.65 48.57,62.90 49.02,62.96 49.45,63.10 49.86,63.30 50.32,63.29 50.74,63.41 51.16,63.47 51.63,63.39 51.64,63.07 51.34,62.72 51.20,62.41 51.11,62.09 51.06,61.74 51.02,61.42" fill="none" stroke="black" stroke-width="0.5"/><polyline points="37.04,49.22 37.00,49.56 36.97,49.89 36.97,50.18 36.96,50.59 37.08,50.84 37.62,50.94 37.86,51.17 37.83,51.49 37.82,51.81 37.82,52.07 37.84,52.41 37.86,52.76 38.13,52.82 38.63,52.52 38.75,52.64 38.73,52.96 38.73,53.26 38.75,53.65 38.78,53.94 38.81,54.26 38.87,54.56" fill="none" stroke="black" stroke-width="0.5"/><polyline points="50.21,50.85 50.05,51.16 49.74,51.66 49.35,52.13 48.93,52.33 48.64,52.11 48.89,51.70 49.17,51.29" fill="none" stroke="black" stroke-width="0.5"/><polyline points="54.70,51.56 54.98,51.89 55.22,52.11 55.56,51.89 55.85,52.16 56.10,52.48 56.41,52.16 56.72,52.18 57.01,52.58 57.27,52.31 57.55,52.04 57.82,52.35 58.13,52.71 58.43,53.09 58.86,53.28 59.09,53.09 58.98,52.71 58.86,52.34 58.72,51.97 58.54,51.59" fill="none" stroke="black" stroke-width="0.5"/><polyline points="52.48,51.58 52.76,52.14 52.61,52.64 52.41,53.00" fill="none" stroke="black" stroke-width="0.5"/><polyline points="48.11,51.73 47.85,52.04 47.61,52.32 47.42,52.72 46.96,52.75 46.77,52.49 47.06,52.15 47.10,52.15 46.74,52.67 46.38,52.80 46.13,52.36 45.98,52.42 45.63,52.73 45.26,52.91 45.19,52.43 45.03,52.29 44.74,52.59 44.50,52.87 44.25,53.20 43.86,53.29 43.78,53.02 43.92,52.64 44.06,52.26" fill="none" stroke="black" stroke-width="0.5"/><polyline points="63.47,52.22 63.45,52.58 63.42,52.89 63.34,53.28 63.30,53.74 63.04,53.76 62.65,53.53 62.51,53.60 62.51,53.99 62.47,54.40 62.42,54.73 62.35,55.09" fill="none" stroke="black" stroke-width="0.5"/><polyline points="59.09,53.26 59.20,53.71 58.95,54.03 58.61,54.35 58.64,54.74 58.56,55.09" fill="none" stroke="black" stroke-width="0.5"/><polyline points="39.65,53.36 39.64,53.64 39.65,53.93 39.67,54.29 39.69,54.64 39.72,54.96 39.79,55.35 39.88,55.76 40.01,56.09 40.27,56.44 40.27,56.81 40.30,56.84 40.78,56.84 41.15,56.49 41.32,56.49 41.45,56.87 41.58,57.24" fill="none" stroke="black" stroke-width="0.5"/><polyline points="61.57,54.08 61.58,54.42 61.56,54.72 61.55,54.98 61.53,55.28 61.50,55.57 61.44,55.99 61.36,56.33 61.32,56.71 61.47,57.22 61.73,57.50 62.00,57.79 62.25,58.16 62.45,58.52 62.60,58.84 62.73,59.16 62.85,59.53 62.94,59.83 63.08,60.24 63.16,60.54 63.24,60.78 63.36,61.15 63.52,61.48 63.90,61.64 64.20,61.68 64.59,61.75 64.92,61.84 65.34,61.98 65.57,62.08 65.95,62.26 66.28,62.46 66.62,62.74 66.93,63.01 67.22,63.28 67.53,63.49 67.88,63.67 68.27,63.80 68.73,63.95 69.20,64.11 69.61,64.26 69.99,64.42 70.38,64.58 70.81,64.76 71.10,64.88 71.33,64.97 71.68,65.09 72.01,65.17 72.46,65.20 72.94,65.16 73.42,65.12 73.48,65.10 73.84,65.14 74.21,65.22 74.58,65.35 75.08,65.53 75.45,65.67 75.80,65.80 76.11,65.92 76.34,66.02 76.65,66.14 76.92,66.26 77.16,66.36 77.46,66.49 77.74,66.61 78.00,66.74 78.28,66.86 78.54,66.98 78.91,67.16 79.24,67.32 79.53,67.46 79.78,67.59 80.16,67.78 80.55,67.98 80.91,68.19 81.28,68.40" fill="none" stroke="black" stroke-width="0.5"/><polyline points="40.77,54.29 40.81,54.70 40.92,55.23 41.05,55.76 41.17,56.12" fill="none" stroke="black" stroke-width="0.5"/><polyline points="42.40,54.90 42.42,55.25 42.43,55.61 42.47,56.03 42.54,56.44 42.63,56.80 42.61,57.20 42.43,57.70 42.28,58.19 42.44,58.45 42.93,58.37 43.20,58.41 43.10,58.77 43.13,59.21" fill="none" stroke="black" stroke-width="0.5"/><polyline points="60.50,55.15 60.50,55.47 60.49,55.88 60.49,56.10 60.45,56.50 60.41,56.81 60.33,57.17 60.26,57.45 60.18,57.76 60.21,58.13 60.63,58.36 60.76,58.73 60.74,59.06 60.72,59.38 60.69,59.72 60.67,59.95 60.66,60.19 60.63,60.42 60.60,60.78 60.54,61.17 60.50,61.51 60.44,61.93 60.37,62.33 60.27,62.78 60.18,63.18 60.10,63.46 59.99,63.81 59.87,64.12 59.77,64.38 59.61,64.80 59.43,65.22 59.23,65.69 59.04,66.15 58.88,66.53 58.74,66.83 58.62,67.09 58.42,67.47 58.22,67.80 58.04,68.05 57.81,68.33 57.60,68.58 57.33,68.90 57.06,69.18 56.76,69.49 56.45,69.80 56.15,70.07 55.84,70.33 55.57,70.52 55.20,70.73 54.79,70.90 54.32,71.02 53.85,71.10 53.38,71.18 53.26,71.53 53.56,72.06 53.29,72.27 53.34,72.78 53.35,73.26 52.92,73.41 52.50,73.55 52.11,73.79 51.80,74.07 51.44,74.35 51.17,74.63 50.91,74.92 50.70,75.18 50.47,75.45 50.24,75.74 49.96,76.11 49.67,76.50 49.42,76.84 49.19,77.16 49.01,77.42 48.79,77.72 48.57,78.03 48.35,78.38" fill="none" stroke="black" stroke-width="0.5"/><polyline points="48.12,55.54 48.49,55.76 48.88,55.96 49.26,56.12 49.59,56.25 49.91,56.36 50.27,56.47 50.70,56.64 50.79,57.01 50.65,57.38 50.73,57.51 51.15,57.49 51.45,57.15 51.57,56.86 51.08,56.62" fill="none" stroke="black" stroke-width="0.5"/><polyline points="55.30,55.59 54.89,55.93 54.52,56.12 54.13,56.32 53.66,56.46 53.17,56.61 52.84,56.88 53.01,57.27 53.20,57.63 53.49,57.97 53.05,58.03 52.58,57.82 52.45,57.40 52.15,57.38 52.05,57.82 51.93,58.23 51.68,58.30 51.39,58.12 51.09,58.41 50.83,58.01 51.04,57.75 51.53,57.86 51.78,57.51" fill="none" stroke="black" stroke-width="0.5"/><polyline points="38.85,56.17 38.43,56.41 38.06,56.65 37.79,56.86 37.55,57.04 37.27,57.28 37.05,57.49 36.78,57.75 36.51,58.03 36.23,58.33 35.92,58.69 35.66,59.00 35.49,59.23 35.27,59.52 34.98,59.94 34.73,60.29 34.45,60.71 34.21,61.01 34.01,61.36 33.86,61.68 33.68,62.00 33.53,62.29 33.37,62.61 33.22,62.92 33.09,63.19 32.92,63.54 32.76,63.83 32.55,64.21 32.33,64.58 32.06,65.02 31.84,65.37 31.57,65.78 31.29,66.20 31.10,66.48 30.88,66.82 30.66,67.16 30.40,67.54 30.20,67.84 29.98,68.18 29.83,68.41 29.66,68.65 29.51,68.87 29.31,69.19 29.58,69.44 29.96,69.57 30.38,69.71 30.77,69.84 31.15,69.98 31.50,70.12 31.93,70.31 32.22,70.45 32.62,70.64 32.98,70.82 33.27,70.97 33.65,71.14 34.06,71.26 34.50,71.16 34.88,70.95 35.09,70.67 35.33,70.37 35.55,70.07 35.75,69.80 35.98,69.50 36.19,69.23 36.40,68.93 36.64,68.60" fill="none" stroke="black" stroke-width="0.5"/><polyline points="39.29,56.61 39.25,57.10 39.27,57.48 39.27,57.69 39.28,57.93 39.30,58.20 39.31,58.46 39.31,58.71 39.32,58.94 39.32,59.19 39.34,59.49 39.35,59.96 39.38,60.46 39.30,60.87 39.32,61.28 39.43,61.79 39.42,62.23 39.43,62.45 39.44,62.74 39.45,63.09 39.45,63.52 39.44,63.78 39.45,64.03 39.43,64.40" fill="none" stroke="black" stroke-width="0.5"/><polyline points="59.28,57.42 59.39,57.75 59.45,58.18 59.40,58.61 58.99,58.83 58.67,59.10 58.52,59.52 58.06,59.76 57.94,59.98 57.91,59.83 57.70,59.42 57.38,59.13 57.00,58.83" fill="none" stroke="black" stroke-width="0.5"/><polyline points="43.60,57.66 43.67,57.87 44.19,57.95 44.19,58.25 44.14,58.53 44.11,58.77 44.08,59.04 44.08,59.39 44.11,59.66 44.18,60.04 44.51,60.17 44.99,59.95 45.02,60.20 44.99,60.55 44.96,61.00 45.41,61.28 45.69,61.08 45.88,60.69 46.11,60.33 46.31,60.00 46.57,59.73 46.88,60.05 46.85,60.52 46.74,60.84 46.67,61.28 46.68,61.75" fill="none" stroke="black" stroke-width="0.5"/><polyline points="55.04,60.07 55.32,60.43 55.54,60.86 55.70,61.26 55.74,61.61 55.85,61.74 56.28,61.47 56.52,61.06 56.45,60.68 56.75,60.30 57.08,60.24 57.13,60.60 57.31,61.01" fill="none" stroke="black" stroke-width="0.5"/><polyline points="48.88,60.51 48.83,60.95 48.81,61.40 48.85,61.85 48.97,62.28 49.19,62.68" fill="none" stroke="black" stroke-width="0.5"/><polyline points="47.78,60.91 47.73,61.42 47.83,61.89 48.19,62.39" fill="none" stroke="black" stroke-width="0.5"/><polyline points="52.00,61.07 52.08,61.48 52.19,61.86 52.32,62.22 52.47,62.57 52.61,62.95 52.83,63.32 53.25,63.15 53.37,62.65 53.33,62.16 53.30,61.80" fill="none" stroke="black" stroke-width="0.5"/><polyline points="39.14,61.13 38.89,61.42 38.60,61.79 38.31,62.19 38.03,62.59 37.79,62.96 37.57,63.30 37.37,63.64 37.16,64.01 36.95,64.40 36.74,64.74 36.48,64.69 36.38,64.26 36.36,63.89 36.36,63.57 36.37,63.15 36.40,62.77 36.44,62.45" fill="none" stroke="black" stroke-width="0.5"/><polyline points="49.96,61.31 50.00,61.69 50.07,62.15 50.23,62.63 50.50,63.06" fill="none" stroke="black" stroke-width="0.5"/><polyline points="31.70,61.60 31.23,61.73 30.71,61.88 30.16,62.04 29.60,62.21 29.06,62.38" fill="none" stroke="black" stroke-width="0.5"/><polyline points="63.87,62.36 64.06,62.69 64.27,63.02 64.45,63.40 64.58,63.77 64.67,64.08 64.74,64.37 64.80,64.66 64.88,64.99 64.96,65.30 65.04,65.59 65.16,65.99 65.26,66.33 65.35,66.60 65.42,66.85 65.50,67.10 65.59,67.40 65.68,67.74 65.79,68.12 65.88,68.50 65.98,68.85 66.09,69.29 66.22,69.73 66.33,70.15 66.45,70.60 66.57,71.06 66.65,71.41 66.73,71.73 66.71,72.07 66.44,72.39 66.18,72.53" fill="none" stroke="black" stroke-width="0.5"/><polyline points="26.37,63.29 25.88,63.47 25.39,63.65 25.10,63.77 25.10,63.75 24.59,63.95" fill="none" stroke="black" stroke-width="0.5"/><polyline points="36.55,65.22 36.66,65.65 36.77,65.98 36.91,66.28 37.12,66.63 37.36,66.97 37.61,67.30 37.85,67.64 38.07,67.98 38.27,68.36 38.49,68.78 38.70,69.18 38.85,69.48 39.02,69.84 39.23,70.25 39.37,70.52 39.59,70.84 39.85,71.14 40.14,71.43 40.43,71.72 40.68,71.97 40.94,72.23 41.23,72.53 41.58,72.90 41.89,73.23 42.17,73.51 42.47,73.83 42.74,74.10 43.05,74.44 43.32,74.71 43.60,75.01 43.91,75.35 44.20,75.65 44.50,76.02 44.76,76.38 44.94,76.66 45.16,76.98 45.34,77.34 45.54,77.65 45.80,78.07 46.08,78.48 46.33,78.86 46.55,79.22 46.73,79.55 46.87,79.88 46.98,80.27 47.03,80.60 47.06,81.03 47.07,81.32 47.07,81.84 47.07,82.34 47.07,82.84 47.06,83.06 47.06,83.27 47.06,83.49 47.05,83.73 47.04,83.95 47.03,84.18 47.00,84.58 46.98,84.95 46.94,85.32 46.91,85.74 46.86,86.20 46.82,86.54 46.79,86.79 46.75,87.15 46.73,87.38 46.69,87.76 46.67,88.08 46.65,88.35" fill="none" stroke="black" stroke-width="0.5"/><polyline points="34.84,71.34 34.74,71.71 34.99,72.00 35.36,72.12 35.74,72.18 36.17,72.27 36.60,72.36 36.97,72.45 37.28,72.62 37.56,72.93 37.75,73.31 38.00,73.63 38.27,73.92 38.56,74.23 38.84,74.51 39.16,74.80 39.44,75.05 39.79,75.33 40.16,75.62 40.52,75.88 40.87,76.11 41.21,76.33 41.55,76.56 41.88,76.75 42.19,76.95 42.53,77.20 42.89,77.46 43.22,77.62 43.57,77.84 43.98,78.14 44.32,78.41 44.65,78.69 44.98,79.01" fill="none" stroke="black" stroke-width="0.5"/><polyline points="52.22,71.56 51.89,71.76 51.57,72.04 51.41,72.38 51.27,72.77 51.13,73.29 51.26,73.52 51.86,73.49" fill="none" stroke="black" stroke-width="0.5"/><polyline points="55.90,71.72 55.42,71.72 54.89,71.79 54.46,71.95 54.42,72.47 54.72,72.80 55.20,72.59 55.61,72.38 56.00,72.17 56.33,71.90 55.94,71.74 56.26,71.73 56.90,71.84 57.28,71.97 57.73,72.23 57.79,72.50 57.55,72.86 57.32,73.20 57.09,73.52 56.85,73.84 56.63,74.15 56.39,74.45 56.14,74.76 55.85,75.06" fill="none" stroke="black" stroke-width="0.5"/><polyline points="58.70,72.10 59.02,72.19 59.39,72.31 59.80,72.44 60.21,72.56 60.57,72.67 60.88,72.76 61.17,72.86 61.47,72.95 61.80,73.05 62.14,73.17 62.52,73.30 62.93,73.40 63.38,73.44 63.88,73.40 64.38,73.29 64.85,73.13 65.25,72.94" fill="none" stroke="black" stroke-width="0.5"/><polyline points="50.82,72.86 50.35,72.99 49.83,73.17 49.37,73.35 48.99,73.53 48.63,73.73 48.25,73.96 47.86,74.22 47.49,74.50 47.14,74.79 46.82,75.08 46.53,75.38 46.27,75.68 46.03,76.00 45.79,76.32 45.57,76.65 45.34,77.00" fill="none" stroke="black" stroke-width="0.5"/><polyline points="42.80,77.76 42.84,78.12 42.87,78.44 42.88,78.74 42.89,79.03 42.90,79.30 42.92,79.57 42.94,79.84 42.97,80.12 43.01,80.41 43.07,80.72 43.16,81.06" fill="none" stroke="black" stroke-width="0.5"/></svg>