<svg width="100.0mm" height="100.0mm" viewBox="0 0 100.0 100.0" xmlns="http://www.w3.org/2000/svg"><polyline points="57.57,0.42 58.11,0.67 58.57,0.75 58.89,0.76 59.25,0.79 59.69,0.84 60.14,0.92 60.57,0.99" fill="none" stroke="black" stroke-width="0.5"/><polyline points="45.44,0.86 45.29,0.90 44.78,0.91 44.27,0.93 43.78,0.98 43.31,1.05 42.86,1.13 42.42,1.24 41.98,1.37 41.53,1.54 41.08,1.74 40.64,1.97 40.24,2.22 39.88,2.50 39.54,2.83 39.35,3.21 39.62,3.52 39.96,3.87 40.12,4.32 40.31,4.73 40.64,5.04 40.92,5.40 41.23,5.75" fill="none" stroke="black" stroke-width="0.5"/><polyline points="45.61,0.89 46.05,0.91 46.38,0.92 46.72,0.94 46.93,0.97 47.22,1.01 47.60,1.04 47.95,1.10 48.31,1.18 48.71,1.28 49.03,1.35 49.20,1.74 49.53,2.03 49.88,2.30 50.24,2.48 50.47,2.61 50.81,2.77 51.08,2.92 51.47,3.14 51.74,3.30 52.09,3.51 52.39,3.71 52.82,3.99 53.14,4.21 53.47,4.46 53.83,4.72 54.16,4.99 54.49,5.28 54.80,5.58 55.10,5.88 55.42,6.21 55.49,6.67 55.37,7.15 55.69,7.43 56.01,7.72 56.31,8.02 56.61,8.33 56.86,8.64 57.11,9.01 57.31,9.32 57.48,9.66 57.61,10.00 57.68,10.27 57.74,10.58 57.76,10.87 57.73,11.30 57.69,11.63 57.50,11.97 57.27,12.30 56.96,12.60 56.57,12.92 56.24,13.24" fill="none" stroke="black" stroke-width="0.5"/><polyline points="54.14,1.04 53.77,1.10 53.30,1.35 52.95,1.70 52.92,2.06 53.23,2.37 53.59,2.63 53.93,2.85 54.29,3.05 54.67,3.26 54.88,3.60 55.20,3.92 55.53,4.20 55.81,4.54 56.07,4.93 56.37,5.30 56.75,5.63" fill="none" stroke="black" stroke-width="0.5"/><polyline points="61.66,1.26 62.13,1.38 62.56,1.51 62.97,1.64 63.34,1.75" fill="none" stroke="black" stroke-width="0.5"/><polyline points="56.56,1.59 56.93,1.89 57.35,2.21 57.76,2.43 58.05,2.49 58.16,2.73 58.70,2.93 59.00,3.02 58.57,3.32 58.72,3.75" fill="none" stroke="black" stroke-width="0.5"/><polyline points="65.45,1.81 65.86,1.90 66.21,1.98 66.53,2.06 66.86,2.16 67.21,2.26 67.62,2.41 68.03,2.58 68.35,2.71 68.63,2.84 69.00,3.02 69.34,3.21 69.66,3.39 70.01,3.56 70.39,3.73 70.79,3.93 71.21,4.15 71.62,4.40 71.86,4.78 72.03,5.24 72.34,5.57 72.64,5.91 72.92,6.30 73.15,6.63" fill="none" stroke="black" stroke-width="0.5"/><polyline points="65.04,1.92 64.85,2.23 65.08,2.56 65.43,2.81 65.75,2.95 66.06,3.06 66.43,3.21 66.84,3.39 67.27,3.61 67.69,3.83 68.08,4.06 68.45,4.31 68.82,4.56 69.17,4.83 69.52,5.11 69.85,5.40 70.18,5.69 70.50,5.99 70.81,6.30 71.12,6.61 71.41,6.92" fill="none" stroke="black" stroke-width="0.5"/><polyline points="58.87,2.06 59.05,2.09 59.43,2.11 59.60,2.12 59.86,2.16 60.21,2.21 60.59,2.28 61.11,2.39 61.61,2.50 62.06,2.61 62.43,2.73" fill="none" stroke="black" stroke-width="0.5"/><polyline points="35.36,2.63 35.94,2.64 35.78,2.66 35.26,2.84 34.67,3.01 34.15,3.06 33.67,3.07 33.20,3.11 32.72,3.19 32.25,3.31 31.80,3.47 31.38,3.66 31.01,3.90" fill="none" stroke="black" stroke-width="0.5"/><polyline points="47.50,2.72 47.97,2.87 48.41,3.04 48.83,3.21 49.23,3.39 49.62,3.59 49.99,3.80 50.35,4.02 50.70,4.26 51.04,4.53" fill="none" stroke="black" stroke-width="0.5"/><polyline points="42.67,2.84 43.11,2.85 43.40,2.86 43.63,2.88 43.92,2.91 44.28,2.95 44.59,2.99 44.71,3.06 45.25,3.11 45.55,3.17 45.95,3.25 46.28,3.33 46.60,3.41 46.96,3.52 47.39,3.65 47.73,3.77 48.04,3.88 48.43,4.05 48.85,4.24 49.18,4.41 49.46,4.57 49.82,4.79 50.15,5.00 50.52,5.25 50.88,5.51 51.19,5.75 51.47,5.97 51.82,6.24 52.15,6.51 52.48,6.81 52.80,7.09 53.11,7.38 53.44,7.70 53.77,8.05 54.08,8.42 54.33,8.77 54.54,9.08 54.73,9.41 54.88,9.72 55.02,10.05 55.12,10.30 55.25,10.75 55.32,11.05 55.38,11.36 55.42,11.73 55.42,12.02 55.42,12.37 55.39,12.64 55.32,12.95 55.23,13.26 55.01,13.67" fill="none" stroke="black" stroke-width="0.5"/><polyline points="42.56,2.91 42.14,3.13 42.02,3.50 42.31,3.86 42.55,4.21 42.94,4.46 43.36,4.64 43.72,4.79 44.03,4.93 44.38,5.10 44.78,5.29 45.19,5.49 45.54,5.69 45.91,5.90 46.35,6.17 46.80,6.44 47.21,6.71 47.60,6.98 47.96,7.24 48.31,7.50 48.65,7.77 49.02,8.08 49.40,8.41 49.70,8.70" fill="none" stroke="black" stroke-width="0.5"/><polyline points="55.65,2.97 56.08,3.09 56.49,3.26 56.93,3.38 57.20,3.71 57.11,4.22 56.72,4.32 56.97,4.40 57.34,4.53 57.71,4.68 58.09,4.84 58.42,4.99 58.69,5.13 59.01,5.32 59.40,5.56 59.77,5.79 60.07,6.00 60.38,6.25 60.71,6.53 61.05,6.83 61.39,7.14 61.70,7.45 61.99,7.77 62.30,8.11" fill="none" stroke="black" stroke-width="0.5"/><polyline points="60.01,3.21 60.35,3.29 60.74,3.40 61.13,3.51 61.47,3.62 61.78,3.71 62.10,3.80 62.49,3.93 62.83,4.04 63.28,4.18 63.72,4.33 64.04,4.45 64.38,4.58 64.75,4.72 65.13,4.88 65.49,5.06 65.84,5.25 66.19,5.46 66.54,5.69 66.88,5.94 67.21,6.20 67.54,6.48 67.86,6.76 68.17,7.06 68.47,7.36 68.77,7.66" fill="none" stroke="black" stroke-width="0.5"/><polyline points="34.54,3.33 34.94,3.59 35.32,3.81 35.70,4.00 36.06,4.19 36.43,4.39 36.79,4.60 37.15,4.85 37.51,5.14 37.88,5.49 38.26,5.92" fill="none" stroke="black" stroke-width="0.5"/><polyline points="43.06,3.72 43.51,3.81 43.98,3.94 44.47,4.09 44.88,4.24 45.26,4.40 45.65,4.57 46.06,4.77 46.44,4.97 46.76,5.15 47.06,5.33 47.39,5.55 47.76,5.80 48.12,6.05 48.45,6.30 48.76,6.55 49.09,6.84 49.46,7.17 49.81,7.50 50.07,7.76 50.39,8.11 50.69,8.45 50.94,8.75 51.20,9.10 51.48,9.49 51.75,9.89 51.98,10.26 52.15,10.59 52.35,10.93 52.61,11.31 52.92,11.64 53.34,11.73 53.30,12.09 52.95,12.38 52.50,12.59 52.09,12.82" fill="none" stroke="black" stroke-width="0.5"/><polyline points="37.10,3.82 37.53,4.07 37.89,4.28 38.23,4.49 38.56,4.73 38.91,5.02 39.25,5.31 39.57,5.61 39.88,5.95 40.19,6.34 40.51,6.72 40.87,7.02 41.22,7.27 41.57,7.53 41.93,7.83 42.25,8.08 42.53,8.35 42.87,8.49 43.33,8.47 43.77,8.57 44.13,8.80 44.49,9.02 44.83,9.23 45.15,9.43 45.50,9.66 45.86,9.91 46.18,10.11 46.49,10.33 46.82,10.57 47.16,10.83 47.49,11.10 47.80,11.38 48.11,11.66 48.41,11.92" fill="none" stroke="black" stroke-width="0.5"/><polyline points="28.67,3.88 28.33,4.14 28.03,4.39 27.78,4.63 27.57,4.89 27.26,5.33 27.10,5.65 26.95,5.99 27.03,6.47 27.14,6.92 27.05,7.27 26.92,7.57 26.71,7.85 26.23,7.81 26.02,8.02 25.81,8.23 25.50,8.53 25.29,8.82 25.11,9.13 24.96,9.44 24.85,9.69 24.76,9.97 24.66,10.34 24.59,10.69 24.55,11.00 24.53,11.34 24.55,11.70 24.55,11.95 24.47,12.36 24.27,12.80 24.21,13.16 24.28,13.45 24.37,13.77 24.46,14.04 24.61,14.36 24.77,14.70 24.93,14.97 25.15,15.31 25.43,15.67 25.71,15.98 26.01,16.26 26.34,16.52 26.63,16.72 27.04,16.96 27.36,17.12 27.78,17.30 28.13,17.43 28.47,17.54 28.85,17.72 29.23,17.97 29.22,18.32 29.10,18.60 28.98,18.91 28.86,19.19 28.73,19.52 28.62,19.81 28.49,20.18 28.39,20.43 28.32,20.65 28.22,20.98 28.05,21.50 27.91,21.90 27.81,22.20 27.73,22.49 27.63,22.78 27.56,23.02 27.48,23.26 27.38,23.57 27.32,23.80 27.24,24.07 27.14,24.41" fill="none" stroke="black" stroke-width="0.5"/><polyline points="72.87,4.26 73.21,4.44 73.54,4.69 73.87,4.99 74.18,5.31 74.46,5.66 74.72,6.00 74.93,6.32 75.10,6.65 75.29,7.03 75.39,7.52 75.27,8.01 74.94,8.29 74.49,8.26 74.00,8.06 73.50,7.83 73.05,7.72 72.68,7.82 72.32,8.10" fill="none" stroke="black" stroke-width="0.5"/><polyline points="66.46,4.43 66.84,4.66 67.19,4.89 67.53,5.11 67.87,5.35 68.20,5.60 68.54,5.87 68.90,6.17 69.26,6.48 69.58,6.79 69.90,7.08 70.19,7.48 70.36,8.02 70.54,8.40 70.85,8.35 71.33,8.00" fill="none" stroke="black" stroke-width="0.5"/><polyline points="32.65,4.59 33.15,4.62 33.61,4.66 34.05,4.74 34.49,4.85 34.94,4.99 35.42,5.17 35.94,5.40" fill="none" stroke="black" stroke-width="0.5"/><polyline points="62.65,4.74 63.06,4.93 63.44,5.12 63.81,5.30 64.17,5.51 64.53,5.74 64.89,6.01 65.24,6.29 65.58,6.58 65.90,6.87 66.24,7.16 66.46,7.55 66.57,8.02 66.68,8.47 66.92,8.78 67.31,8.95 67.73,9.04 68.14,9.03 68.57,8.75" fill="none" stroke="black" stroke-width="0.5"/><polyline points="61.63,5.06 61.99,5.23 62.36,5.43 62.72,5.66 63.08,5.92 63.43,6.19 63.78,6.47 64.11,6.76 64.43,7.06 64.74,7.35 65.05,7.66 65.37,7.99 65.69,8.36 65.90,8.76 65.85,9.19 65.47,9.52 64.99,9.68 64.51,9.84 64.09,10.12" fill="none" stroke="black" stroke-width="0.5"/><polyline points="28.88,5.18 28.54,5.51 28.20,5.95 27.86,6.43 27.52,6.87" fill="none" stroke="black" stroke-width="0.5"/><polyline points="58.34,6.13 58.71,6.38 59.09,6.64 59.48,6.92 59.85,7.23 60.22,7.54 60.58,7.88 60.91,8.22 61.23,8.57 61.51,8.93" fill="none" stroke="black" stroke-width="0.5"/><polyline points="29.74,6.19 29.43,6.44 29.14,6.75 28.90,7.07 28.73,7.37 28.61,7.65 28.52,7.95 28.44,8.28 28.38,8.58 28.36,8.84 28.36,9.12 28.38,9.49 28.44,9.87 28.52,10.21 28.62,10.54 28.75,10.87 28.90,11.20 29.08,11.55 29.31,11.91 29.56,12.27 29.83,12.62 30.12,12.96 30.41,13.26" fill="none" stroke="black" stroke-width="0.5"/><polyline points="30.89,6.21 30.64,6.49 30.41,6.80 30.19,7.19 30.04,7.59 29.97,7.90 29.92,8.15 29.90,8.45 29.92,8.80 29.97,9.16 30.05,9.50 30.14,9.80 30.27,10.12 30.46,10.51 30.68,10.92 30.92,11.29 31.17,11.62 31.44,11.95 31.73,12.28 32.04,12.61 32.37,12.93 32.68,13.20 33.02,13.46 33.45,13.77 33.82,14.02 34.10,14.19 34.46,14.39 34.84,14.59 35.18,14.74 35.48,14.87 35.82,15.01 36.19,15.13 36.65,15.25 37.09,15.33 37.37,15.35" fill="none" stroke="black" stroke-width="0.5"/><polyline points="44.04,6.31 44.44,6.50 44.81,6.69 45.16,6.87 45.48,7.06 45.81,7.26 46.13,7.47 46.46,7.70 46.79,7.94 47.13,8.19 47.48,8.45 47.83,8.73 48.19,9.01 48.54,9.31 48.90,9.62 49.24,9.93 49.57,10.24 49.88,10.56 50.17,10.88 50.44,11.20 50.68,11.51" fill="none" stroke="black" stroke-width="0.5"/><polyline points="32.47,6.37 32.51,6.72 32.54,7.03 32.62,7.37 32.73,7.72 32.86,8.06 33.01,8.39 33.18,8.72 33.39,9.06 33.62,9.41 33.88,9.76 34.15,10.10 34.42,10.44 34.71,10.76 35.02,11.06 35.34,11.36 35.67,11.65 36.00,11.96 36.33,12.25 36.61,12.55 36.69,13.02 36.92,13.30 37.28,13.48 37.67,13.69 38.06,13.88 38.42,14.09 38.81,14.30 39.26,14.37 39.72,14.47 40.16,14.60 40.56,14.67 40.98,14.69 41.49,14.73 41.89,14.77" fill="none" stroke="black" stroke-width="0.5"/><polyline points="33.93,6.80 34.13,7.16 34.34,7.53 34.58,7.89 34.83,8.25 35.10,8.61 35.38,8.97 35.67,9.31 35.98,9.65 36.29,9.98 36.61,10.30 36.94,10.61 37.27,10.91 37.61,11.19 37.95,11.46 38.30,11.72 38.66,11.96 39.02,12.18" fill="none" stroke="black" stroke-width="0.5"/><polyline points="35.88,6.98 36.19,7.35 36.49,7.72 36.79,8.07 37.09,8.42 37.39,8.76 37.69,9.10 37.99,9.44 38.30,9.77 38.61,10.10 38.93,10.44 39.26,10.77 39.60,11.11 39.95,11.44" fill="none" stroke="black" stroke-width="0.5"/><polyline points="62.55,6.98 62.89,7.33 63.25,7.66 63.62,8.00 63.99,8.33 64.37,8.66 64.74,8.99" fill="none" stroke="black" stroke-width="0.5"/><polyline points="57.62,7.15 57.98,7.37 58.33,7.62 58.68,7.88 59.03,8.17 59.37,8.49 59.70,8.84 60.01,9.21 60.29,9.58 60.54,9.93 60.61,10.20 60.25,10.47 60.03,10.90 59.88,11.29 59.78,11.66 59.67,11.98 59.46,12.24 59.15,12.46 58.77,12.69 58.39,12.98 58.04,13.33 57.66,13.65" fill="none" stroke="black" stroke-width="0.5"/><polyline points="37.24,7.18 37.58,7.43 37.92,7.71 38.26,8.00 38.60,8.30 38.93,8.60 39.24,8.90 39.54,9.19 39.82,9.47 40.11,9.76 40.39,10.05 40.68,10.34 40.98,10.64 41.28,10.93 41.59,11.22 41.91,11.51 42.24,11.79 42.55,12.10 42.74,12.56 42.94,12.97 43.30,13.14 43.69,13.26 44.05,13.33 44.56,13.34 45.01,13.16 45.20,12.74 45.11,12.24 44.81,11.89 44.46,11.62 44.13,11.36 43.79,11.10 43.46,10.84 43.13,10.58 42.80,10.32 42.48,10.05 42.16,9.79 41.84,9.52 41.52,9.24 41.20,8.97 40.88,8.69 40.55,8.41 40.21,8.13 39.87,7.85 39.52,7.57 39.16,7.29" fill="none" stroke="black" stroke-width="0.5"/><polyline points="41.98,7.22 42.52,7.55 43.01,7.88 43.55,8.25" fill="none" stroke="black" stroke-width="0.5"/><polyline points="51.30,7.24 51.66,7.62 52.01,8.02 52.34,8.41 52.66,8.81 52.94,9.22 53.20,9.62 53.42,10.03 53.59,10.44 53.71,10.85" fill="none" stroke="black" stroke-width="0.5"/><polyline points="31.44,7.35 31.42,7.75 31.46,8.15 31.54,8.54 31.66,8.93 31.81,9.31 32.01,9.68 32.23,10.05 32.47,10.42 32.74,10.77 33.03,11.11 33.34,11.44 33.66,11.76 34.00,12.06 34.35,12.34 34.71,12.60 35.08,12.84 35.45,13.05 35.81,13.24" fill="none" stroke="black" stroke-width="0.5"/><polyline points="75.39,8.07 75.81,8.29 76.23,8.51 76.56,8.58 76.85,8.60 77.07,8.62 77.40,8.66 77.69,8.69 77.89,9.04 78.22,9.39 78.64,9.56 78.98,9.68 79.29,9.79 79.61,9.91 79.94,10.07 80.31,10.26 80.70,10.50 81.09,10.77 81.45,11.07" fill="none" stroke="black" stroke-width="0.5"/><polyline points="26.98,8.43 26.92,8.76 26.86,9.19 26.82,9.52 26.80,9.74 26.80,9.99 26.80,10.34 26.83,10.73 26.90,11.11 27.00,11.49 27.14,11.87 27.32,12.24 27.53,12.61 27.77,12.98 28.04,13.33 28.34,13.66 28.67,13.99 29.01,14.29 29.38,14.57" fill="none" stroke="black" stroke-width="0.5"/><polyline points="55.52,8.41 55.80,8.90 56.04,9.36 56.25,9.81 56.41,10.22 56.52,10.61 56.60,10.97 56.62,11.29 56.60,11.57" fill="none" stroke="black" stroke-width="0.5"/><polyline points="78.46,8.50 78.86,8.57 79.09,8.63 79.49,8.75 79.89,8.88 80.20,8.99 80.63,9.17 80.98,9.35 81.37,9.55 81.73,9.76 82.01,9.94 82.38,10.20 82.74,10.46 83.02,10.70 83.34,10.97 83.67,11.28 83.97,11.59 84.27,11.93 84.59,12.28 84.87,12.63 85.10,12.96 85.34,13.31 85.58,13.67 85.84,14.07 86.07,14.41 86.34,14.77 86.62,15.13 86.89,15.48 87.17,15.83 87.42,16.18 87.65,16.54 88.03,16.67 88.32,16.97 88.60,17.32 88.86,17.70 89.07,18.12 89.23,18.46 89.39,18.79 89.52,19.13 89.66,19.53 89.79,19.89 89.89,20.22 89.98,20.57 90.06,20.89" fill="none" stroke="black" stroke-width="0.5"/><polyline points="58.61,9.79 58.72,10.26 58.76,10.66 58.76,11.02 58.72,11.39 58.66,11.81" fill="none" stroke="black" stroke-width="0.5"/><polyline points="75.96,9.90 76.27,10.06 76.62,10.24 76.97,10.43 77.31,10.62 77.64,10.81 77.98,11.01 78.34,11.24 78.71,11.48 79.08,11.75 79.44,12.01 79.78,12.29 80.12,12.58 80.47,12.89 80.80,13.19 81.09,13.47 81.39,13.78 81.72,14.12 82.05,14.47 82.37,14.82 82.68,15.17 82.99,15.52 83.30,15.86 83.60,16.19 83.89,16.52" fill="none" stroke="black" stroke-width="0.5"/><polyline points="74.88,10.73 75.21,10.91 75.56,11.11 75.94,11.34 76.33,11.59 76.72,11.85 77.10,12.12 77.46,12.38 77.79,12.63 78.11,12.88 78.42,13.13 78.73,13.39 79.05,13.66 79.38,13.94 79.71,14.22 80.03,14.51 80.34,14.79 80.66,15.09 80.99,15.39 81.33,15.70 81.66,16.00 81.99,16.30 82.31,16.58" fill="none" stroke="black" stroke-width="0.5"/><polyline points="70.65,10.78 71.02,10.88 71.37,11.01 71.72,11.15 72.11,11.33 72.55,11.54 72.95,11.75 73.28,11.94 73.59,12.12 73.92,12.33 74.28,12.55 74.65,12.80 75.01,13.04 75.34,13.27 75.69,13.52 76.03,13.76 76.36,14.00 76.66,14.22 76.94,14.43 77.27,14.68 77.63,14.94 77.96,15.19 78.27,15.42 78.58,15.66 78.92,15.91 79.28,16.17 79.66,16.42 80.03,16.68 80.41,16.92 80.75,17.14 81.07,17.33 81.46,17.58" fill="none" stroke="black" stroke-width="0.5"/><polyline points="61.75,11.11 61.35,11.60 60.95,12.00 60.53,12.42 60.10,12.96" fill="none" stroke="black" stroke-width="0.5"/><polyline points="67.98,11.35 68.43,11.51 68.89,11.69 69.28,11.86 69.60,12.00 69.95,12.18 70.29,12.36 70.64,12.56 71.00,12.77 71.38,12.99 71.78,13.25 72.07,13.43 72.38,13.64 72.75,13.89 73.09,14.12 73.45,14.37 73.82,14.62 74.14,14.85 74.47,15.07 74.74,15.26 75.08,15.50 75.50,15.78 75.87,16.03 76.17,16.22 76.54,16.46 76.92,16.69 77.30,16.91 77.66,17.11 77.97,17.28 78.30,17.45 78.70,17.65 79.14,17.86 79.51,18.03 79.94,18.21 80.29,18.34 80.69,18.48 81.04,18.59 81.40,18.70 81.69,18.77" fill="none" stroke="black" stroke-width="0.5"/><polyline points="65.35,11.88 65.80,12.04 66.15,12.17 66.50,12.33 66.88,12.52 67.25,12.71 67.59,12.89 67.93,13.08 68.29,13.29 68.62,13.50 68.92,13.68 69.23,13.87 69.62,14.12 70.02,14.38 70.38,14.61 70.71,14.83 71.05,15.05 71.39,15.27 71.74,15.49 72.07,15.71 72.39,15.91 72.74,16.13 73.12,16.37 73.51,16.62 73.88,16.84 74.20,17.01" fill="none" stroke="black" stroke-width="0.5"/><polyline points="24.74,12.19 25.03,12.56 25.27,12.96 25.49,13.37 25.72,13.76 25.95,14.13 26.20,14.48 26.48,14.80 26.79,15.10 27.12,15.38 27.46,15.65 27.79,15.88 28.12,16.07 28.48,16.26 28.87,16.46 29.23,16.61 29.57,16.72 29.94,16.84 30.37,16.96 30.80,17.06 31.19,17.14 31.55,17.20 31.90,17.24 31.95,17.27" fill="none" stroke="black" stroke-width="0.5"/><polyline points="81.99,12.29 82.37,12.57 82.70,12.85 83.06,13.17 83.37,13.46 83.64,13.73 83.92,14.03 84.21,14.39 84.48,14.73 84.75,15.13 85.02,15.52 85.20,15.81 85.42,16.18 85.59,16.47 85.78,16.81 85.97,17.17 86.18,17.58 86.29,17.84 86.47,18.17 86.73,18.54 87.11,18.76 87.33,18.91 87.31,19.36 87.29,19.72 87.50,20.07 87.74,20.41 87.93,20.74 88.14,21.07 88.41,21.36 88.71,21.70 88.99,22.03 89.38,22.24 89.62,22.44 89.77,22.87 89.85,23.25 89.65,23.69 89.45,24.11 89.23,24.53 89.17,24.91 89.30,25.29 89.40,25.65 89.49,26.03 89.60,26.43 89.70,26.78 89.80,27.11 89.89,27.44 89.99,27.78 90.11,28.13 90.21,28.47 90.31,28.78 90.43,29.15 90.53,29.50 90.65,29.90 90.75,30.25 90.84,30.57 90.93,30.91 91.01,31.25 91.10,31.65 91.18,31.99 91.23,32.34 91.27,32.68 91.33,33.06 91.35,33.31 91.40,33.60 91.42,33.97 91.45,34.26 91.46,34.74 91.48,35.02 91.48,35.53 91.44,35.99 91.45,36.21 91.42,36.50 91.21,36.89 91.00,37.27 90.78,37.68 90.46,38.03 90.36,37.81 90.13,37.41 89.90,37.02 89.67,36.64 89.56,36.32 89.50,35.90 89.45,35.57 89.38,35.22 89.06,35.16 88.82,34.81 88.57,34.44 88.43,34.09 88.34,33.82 88.23,33.49 88.09,33.12" fill="none" stroke="black" stroke-width="0.5"/><polyline points="40.30,12.40 40.81,12.70 41.29,12.94 41.78,13.18" fill="none" stroke="black" stroke-width="0.5"/><polyline points="62.73,12.41 63.10,12.70 63.50,12.97 63.91,13.22 64.30,13.47 64.68,13.72 65.08,13.99 65.47,14.26 65.85,14.52 66.21,14.77 66.54,15.01 66.86,15.24 67.18,15.46 67.52,15.70 67.87,15.95 68.24,16.22 68.62,16.49 68.96,16.73 69.28,16.95 69.65,17.21 70.05,17.49 70.43,17.75 70.77,17.97 71.13,18.21 71.48,18.44 71.81,18.65 72.12,18.84 72.43,19.03 72.77,19.23 73.14,19.43 73.53,19.62 73.91,19.79 74.30,19.95" fill="none" stroke="black" stroke-width="0.5"/><polyline points="61.88,13.76 62.25,14.06 62.60,14.35 62.93,14.63 63.26,14.91 63.59,15.19 63.94,15.48 64.30,15.78 64.67,16.08 65.04,16.37 65.40,16.65 65.74,16.90 66.06,17.13 66.38,17.35 66.73,17.59 67.13,17.85 67.50,18.10 67.84,18.31 68.19,18.52 68.54,18.72 68.88,18.92 69.20,19.10 69.52,19.27 69.92,19.48 70.35,19.71 70.75,19.91 71.12,20.10 71.48,20.27" fill="none" stroke="black" stroke-width="0.5"/><polyline points="58.75,14.05 59.00,14.41 59.21,14.74 59.44,15.08 59.67,15.41 59.93,15.73 60.20,16.05 60.46,16.36 60.70,16.64 60.99,16.96 61.29,17.26 61.59,17.59 61.97,17.95 62.28,18.24 62.59,18.54 62.90,18.81 63.21,19.08 63.54,19.38 63.85,19.64 64.19,19.94 64.50,20.19 64.84,20.48 65.15,20.74 65.43,20.99 65.73,21.23 65.97,21.44 66.26,21.68 66.58,21.95 66.85,22.17 67.23,22.47 67.62,22.79 68.02,23.10 68.39,23.38 68.71,23.62 68.96,23.82 69.27,24.05 69.58,24.28 69.87,24.49 70.18,24.72 70.57,24.99 70.94,25.26 71.21,25.44 71.58,25.70 71.90,25.93 72.24,26.17 72.63,26.45 73.04,26.75 73.45,27.05 73.82,27.34 74.15,27.61 74.42,27.83 74.71,28.07 75.05,28.36 75.36,28.64 75.71,28.95 76.03,29.25 76.35,29.53 76.61,29.78 76.95,30.12 77.25,30.42 77.58,30.75 77.90,31.08 78.19,31.37 78.49,31.71 78.78,32.01 79.18,32.18 79.68,32.22 79.96,32.54 80.08,33.02 80.21,33.46 80.47,33.81 80.74,34.16 81.00,34.51 81.27,34.86 81.52,35.21 81.77,35.58 82.03,35.96 82.29,36.33 82.53,36.70" fill="none" stroke="black" stroke-width="0.5"/><polyline points="60.16,14.08 60.45,14.46 60.74,14.83 61.02,15.18 61.30,15.53 61.58,15.87 61.87,16.19 62.15,16.51 62.45,16.82 62.74,17.12 63.05,17.42 63.37,17.71 63.70,17.99 64.04,18.27 64.40,18.54 64.78,18.81" fill="none" stroke="black" stroke-width="0.5"/><polyline points="30.48,14.44 30.85,14.68 31.21,14.91 31.57,15.13 31.92,15.33 32.28,15.55 32.56,15.90 32.66,16.29 32.99,16.58 33.50,16.76 33.89,16.87 34.25,16.88 34.74,16.85 35.18,16.89 35.14,16.36 35.32,16.07 35.65,16.15 36.01,16.20 35.76,16.15 35.20,16.04 34.80,15.94 34.41,15.82 34.05,15.70 33.74,15.59" fill="none" stroke="black" stroke-width="0.5"/><polyline points="52.86,14.72 53.36,14.72 53.38,14.74 52.87,14.75 52.39,14.79 51.94,14.85 51.50,14.91 51.05,15.02 50.60,15.13 50.19,15.25 49.79,15.37 49.34,15.51 49.13,15.64 49.22,16.16 49.57,16.30 49.01,16.34 49.35,16.29 49.81,16.27 50.28,16.25 50.66,16.24 50.96,16.27 51.34,16.28 51.59,16.34 52.05,16.38 52.35,16.45 52.71,16.58 53.06,16.69 53.45,16.87 53.77,17.04 54.17,17.29 54.54,17.56 54.89,17.84 55.20,18.11 55.50,18.41 55.80,18.74 56.10,19.08 56.38,19.40 56.65,19.74 56.91,20.07 57.17,20.40 57.45,20.77 57.73,21.13 58.02,21.47 58.31,21.80 58.63,22.16 58.81,22.47 58.30,22.67 57.94,22.41 57.75,22.17 58.10,22.62 58.39,22.97 58.68,23.27 58.98,23.60 59.32,23.92 59.62,24.19 59.96,24.48 60.30,24.77 60.60,25.09 60.66,25.70 60.41,25.82 60.10,25.63 59.77,25.41 59.44,25.18 59.09,24.92 58.76,24.66 58.47,24.42 58.18,24.17 57.86,23.89 57.52,23.55 57.22,23.23 56.95,22.92 56.67,22.61 56.40,22.29 56.14,21.95 55.89,21.60 55.63,21.25 55.39,20.87" fill="none" stroke="black" stroke-width="0.5"/><polyline points="53.83,14.75 54.30,14.83 54.73,14.91 55.12,15.01 55.50,15.14 55.86,15.29 56.22,15.48 56.57,15.71 56.93,16.00 57.30,16.36" fill="none" stroke="black" stroke-width="0.5"/><polyline points="57.82,14.90 58.04,15.28 58.28,15.65 58.52,16.02 58.78,16.39 59.05,16.75 59.33,17.11 59.62,17.46 59.92,17.81 60.22,18.16 60.53,18.49 60.83,18.81 61.14,19.12 61.45,19.41 61.75,19.69 62.06,19.97 62.38,20.25 62.71,20.52 63.05,20.80 63.40,21.08 63.75,21.36 64.12,21.65 64.50,21.95" fill="none" stroke="black" stroke-width="0.5"/><polyline points="56.20,16.33 56.56,16.69 56.89,17.02 57.17,17.34 57.41,17.70 57.61,18.05 57.79,18.37 57.97,18.69 58.18,19.10 58.40,19.54 58.62,19.99 58.83,20.39 58.98,20.67 59.17,21.01 59.39,21.38 59.63,21.76 59.89,22.13 60.16,22.48 60.46,22.82 60.77,23.13 61.11,23.42 61.47,23.70 61.84,23.97 62.24,24.24" fill="none" stroke="black" stroke-width="0.5"/><polyline points="58.88,17.75 59.11,18.13 59.36,18.50 59.61,18.86 59.87,19.21 60.14,19.56 60.42,19.89 60.71,20.22 61.01,20.54 61.32,20.85 61.63,21.15 61.96,21.45 62.30,21.73 62.65,22.00 63.00,22.27 63.36,22.52 63.73,22.77 64.11,23.00 64.49,23.22 64.89,23.43" fill="none" stroke="black" stroke-width="0.5"/><polyline points="84.80,18.37 85.33,18.80 85.79,19.21 86.22,19.58" fill="none" stroke="black" stroke-width="0.5"/><polyline points="83.02,18.67 83.42,18.92 83.80,19.19 84.17,19.45 84.53,19.73 84.88,20.02 85.22,20.32 85.56,20.63 85.89,20.96 86.21,21.31 86.53,21.66 86.83,22.02 87.12,22.36 87.39,22.71 87.59,23.11 87.68,23.56 87.80,24.01 88.03,24.40 88.38,24.73" fill="none" stroke="black" stroke-width="0.5"/><polyline points="76.78,19.36 77.18,19.65 77.57,19.94 77.95,20.23 78.32,20.52 78.69,20.81 79.04,21.11 79.40,21.42 79.75,21.73 80.10,22.04 80.44,22.37 80.80,22.70 81.15,23.05 81.51,23.40 81.88,23.77 82.26,24.16" fill="none" stroke="black" stroke-width="0.5"/><polyline points="82.93,19.93 83.32,20.22 83.71,20.52 84.08,20.83 84.44,21.15 84.79,21.48 85.12,21.81 85.45,22.15 85.77,22.50 86.08,22.84 86.38,23.20 86.68,23.55 86.98,23.90" fill="none" stroke="black" stroke-width="0.5"/><polyline points="76.58,20.62 76.93,20.89 77.24,21.14 77.55,21.38 77.87,21.64 78.20,21.92 78.55,22.23 78.90,22.56 79.24,22.87 79.51,23.14 79.77,23.40 80.05,23.69 80.34,24.00 80.63,24.32 80.90,24.64 81.18,24.95 81.45,25.27 81.74,25.60 82.03,25.94 82.32,26.29 82.60,26.64 82.88,27.00 83.15,27.36 83.41,27.72 83.67,28.09 83.92,28.46 84.18,28.84 84.43,29.24 84.67,29.64 84.88,29.97 85.04,30.25 85.17,30.48 85.31,30.74 85.49,31.08 85.73,31.53 85.97,32.01" fill="none" stroke="black" stroke-width="0.5"/><polyline points="80.07,20.68 80.44,21.05 80.86,21.43 81.28,21.83 81.66,22.24" fill="none" stroke="black" stroke-width="0.5"/><polyline points="74.88,20.95 75.22,21.17 75.58,21.43 75.93,21.70 76.29,21.99 76.64,22.29 76.98,22.58 77.30,22.87 77.60,23.15 77.89,23.44 78.19,23.74 78.50,24.07 78.80,24.39 79.09,24.70 79.36,25.00 79.64,25.31 79.91,25.61 80.18,25.92 80.44,26.23 80.72,26.56 81.01,26.93 81.31,27.32 81.59,27.68 81.84,28.02 82.07,28.34 82.31,28.69 82.58,29.08 82.86,29.51 83.12,29.91" fill="none" stroke="black" stroke-width="0.5"/><polyline points="73.80,21.61 74.17,21.84 74.50,22.06 74.84,22.33 75.17,22.59 75.48,22.86 75.78,23.14 76.12,23.45 76.46,23.76 76.80,24.09 77.07,24.38 77.37,24.65 77.67,24.97 77.97,25.32 78.26,25.64 78.55,25.96 78.80,26.27 79.08,26.60 79.34,26.93 79.59,27.25 79.84,27.57 80.06,27.85 80.25,28.12 80.45,28.39 80.65,28.66 80.88,29.00 81.15,29.41 81.37,29.74 81.58,30.07 81.78,30.39 81.99,30.75 82.19,31.07 82.39,31.41 82.59,31.76 82.78,32.10 82.96,32.45 83.14,32.77 83.36,33.21 83.54,33.55 83.71,33.94 83.95,34.32 84.21,34.68 84.46,35.05 84.87,35.13 85.02,35.53 85.13,35.91 85.22,36.21 85.33,36.56 85.39,36.78 85.47,37.04 85.56,37.45 85.65,37.83 85.82,38.17 86.05,38.55 86.31,38.80 86.56,39.05 86.81,39.30 87.07,39.55 87.37,39.76 87.62,40.02 87.84,40.41 88.07,40.81 88.28,41.20 88.50,41.62 88.39,42.00 88.18,42.31 87.98,42.62 87.79,42.90 87.60,43.19 87.35,43.56 87.11,43.89 86.88,44.22 86.67,44.54 86.41,44.90 86.16,45.25 85.94,45.54 85.39,45.73 85.31,45.39 85.03,45.04 84.76,44.72 84.49,44.43 84.24,44.18 83.99,43.92 83.73,43.67 83.48,43.42 83.23,43.16 82.97,42.91 82.72,42.66 82.47,42.41 82.22,42.15 81.96,41.90 81.77,41.60 81.99,41.17 82.18,40.73 82.40,40.29 82.39,39.80 82.04,39.44 81.64,39.18 81.16,39.13 80.85,38.86 80.52,38.59 80.19,38.31 79.89,38.04 79.54,37.74 79.29,37.52 78.96,37.30 78.70,36.96 78.64,36.43 78.38,36.02 78.13,35.77 77.78,35.44 77.46,35.14 77.10,34.77 76.76,34.51 76.43,34.26 75.93,34.30 75.48,34.28 75.21,34.09 74.86,33.87 74.63,33.48 74.38,33.08 74.07,32.81 73.76,32.54 73.42,32.26 73.16,32.06 72.78,31.76 72.46,31.51 72.19,31.28 71.82,30.99 71.49,30.70 71.18,30.41 70.87,30.11 70.56,29.80 70.28,29.50 69.80,29.25 69.26,29.18 69.45,29.52 69.71,29.85 69.98,30.19 70.25,30.52 70.54,30.85 70.81,31.15 71.12,31.48 71.45,31.83 71.80,32.19 72.19,32.52 72.53,32.82 72.85,33.07 73.24,33.35 73.60,33.61 73.90,33.83" fill="none" stroke="black" stroke-width="0.5"/><polyline points="71.87,22.20 72.24,22.41 72.62,22.63 72.99,22.85 73.35,23.08 73.69,23.31 74.03,23.56 74.37,23.81 74.71,24.07 75.04,24.34 75.35,24.62 75.66,24.89 75.95,25.16 76.24,25.43 76.56,25.75 76.90,26.10 77.21,26.45 77.50,26.76 77.77,27.08 78.06,27.41 78.35,27.75 78.64,28.10 78.88,28.41 79.13,28.74 79.38,29.07 79.62,29.40 79.82,29.69 80.01,29.99 80.26,30.35 80.47,30.69 80.62,30.95" fill="none" stroke="black" stroke-width="0.5"/><polyline points="70.00,22.86 70.44,23.13 70.84,23.39 71.20,23.62 71.55,23.85 71.88,24.06 72.20,24.28 72.53,24.50 72.87,24.74 73.22,24.99 73.58,25.25 73.93,25.51 74.27,25.77 74.60,26.04 74.92,26.32 75.25,26.61 75.57,26.90 75.87,27.18 76.17,27.47 76.49,27.77 76.83,28.10 77.19,28.47 77.55,28.84 77.89,29.22 78.22,29.58 78.53,29.95 78.83,30.30 79.11,30.65 79.39,30.99 79.65,31.32" fill="none" stroke="black" stroke-width="0.5"/><polyline points="55.86,23.24 56.16,23.67 56.46,24.08 56.78,24.46 57.10,24.82 57.42,25.15 57.76,25.47 58.11,25.76 58.46,26.04 58.83,26.30 59.20,26.54 59.59,26.77 59.99,26.99 60.40,27.19 60.82,27.39 61.26,27.57" fill="none" stroke="black" stroke-width="0.5"/><polyline points="83.48,23.61 83.84,23.91 84.19,24.21 84.53,24.53 84.86,24.84 85.17,25.17 85.48,25.50 85.77,25.83 86.05,26.16 86.31,26.50 86.57,26.84 86.81,27.18 87.04,27.52 87.26,27.86" fill="none" stroke="black" stroke-width="0.5"/><polyline points="54.96,23.92 55.25,24.35 55.53,24.74 55.82,25.12 56.11,25.47 56.41,25.80 56.72,26.11 57.05,26.41 57.39,26.70 57.74,26.98 58.11,27.26 58.49,27.52 58.89,27.78 59.29,28.03 59.70,28.28 60.12,28.53" fill="none" stroke="black" stroke-width="0.5"/><polyline points="63.81,24.33 64.16,24.69 64.51,25.03 64.87,25.36 65.24,25.68 65.62,25.98 66.00,26.27 66.39,26.55 66.78,26.82 67.18,27.08 67.59,27.34 67.99,27.58 68.40,27.83 68.81,28.07 69.22,28.31" fill="none" stroke="black" stroke-width="0.5"/><polyline points="54.24,25.33 54.48,25.66 54.75,26.02 55.02,26.36 55.30,26.70 55.60,27.04 55.91,27.38 56.22,27.69 56.50,27.96 56.83,28.24 57.19,28.52 57.51,28.77 57.86,29.02 58.25,29.28 58.63,29.52 59.02,29.76 59.43,30.00 59.81,30.23 60.19,30.45 60.57,30.70 60.96,30.93 61.41,30.75 61.82,30.59 62.11,30.89 62.39,31.26 62.67,31.61 62.96,31.94 63.24,32.27 63.53,32.59 63.84,32.91 64.16,33.20 64.47,33.47 64.77,33.72 65.09,33.98 65.42,34.24 65.76,34.50 66.14,34.75 66.49,34.99 66.86,35.17 67.10,34.87 67.05,34.39 66.75,34.05 66.45,33.74 66.15,33.42 65.83,33.10 65.52,32.79 65.24,32.52 64.95,32.23 64.59,31.86 64.25,31.51 63.97,31.20 63.67,30.85 63.37,30.50 63.08,30.16 62.80,29.82 62.53,29.48 62.28,29.15 62.01,28.83" fill="none" stroke="black" stroke-width="0.5"/><polyline points="35.90,25.35 35.74,25.38 35.48,25.40 36.01,25.40 36.43,25.38 36.77,25.39 37.17,25.41 37.55,25.43 38.01,25.44 38.17,25.88 38.37,26.37 38.31,26.34 37.80,26.31 37.40,26.28 36.90,26.27 36.36,26.30 35.87,26.30 35.47,26.34 34.99,26.38 34.49,26.43 34.04,26.50 33.59,26.55 33.29,26.61 32.81,26.71 32.38,26.81 31.93,26.92" fill="none" stroke="black" stroke-width="0.5"/><polyline points="34.63,25.43 34.35,25.47 33.65,25.54 33.19,25.63" fill="none" stroke="black" stroke-width="0.5"/><polyline points="26.73,25.67 26.62,26.03 26.48,26.43 26.33,26.86 26.17,27.30 26.03,27.69 25.91,27.99 25.80,28.28 25.65,28.64 25.51,28.98 25.40,29.24 25.26,29.57 25.08,29.98 24.88,30.41 24.71,30.78 24.56,31.09 24.42,31.37 24.28,31.65 24.12,31.97 23.92,32.34 23.71,32.72" fill="none" stroke="black" stroke-width="0.5"/><polyline points="84.27,26.32 84.55,26.69 84.82,27.05 85.08,27.41 85.33,27.77 85.58,28.13 85.82,28.50 86.06,28.88 86.29,29.27 86.51,29.66 86.73,30.06 86.94,30.45 87.13,30.84 87.30,31.21 87.47,31.58 87.62,31.95" fill="none" stroke="black" stroke-width="0.5"/><polyline points="38.53,26.38 38.91,26.40 39.13,26.43 39.41,26.47 39.72,26.51 40.13,26.57 40.54,26.64 40.96,26.72 41.32,26.80 41.66,26.89 42.00,26.99" fill="none" stroke="black" stroke-width="0.5"/><polyline points="54.80,27.34 55.06,27.71 55.32,28.08 55.59,28.44 55.87,28.79 56.15,29.13 56.46,29.47 56.78,29.78 57.12,30.08 57.48,30.36 57.85,30.62 58.21,30.86 58.56,31.08 58.90,31.29 59.25,31.53 59.64,31.80 60.13,31.94 60.59,32.06 60.90,32.40 61.20,32.72 61.50,33.03 61.83,33.33 62.17,33.60 62.50,33.85 62.82,34.08 63.14,34.28 63.48,34.49 63.83,34.68 64.19,34.87 64.53,35.03 64.89,35.18 65.28,35.30" fill="none" stroke="black" stroke-width="0.5"/><polyline points="29.15,27.43 28.96,27.74 28.78,28.13 28.60,28.55 28.45,28.96 28.33,29.33 28.23,29.66 28.14,30.02 28.06,30.42 27.99,30.83 27.96,31.22 27.95,31.54 27.97,31.81 27.98,32.15 28.01,32.53 28.04,32.85 28.11,33.18" fill="none" stroke="black" stroke-width="0.5"/><polyline points="64.77,27.57 65.05,27.90 65.33,28.24 65.62,28.59 65.91,28.94 66.20,29.29 66.48,29.64 66.76,29.99 67.04,30.34 67.31,30.68 67.57,31.01 67.83,31.35 68.07,31.67 68.34,32.03 68.63,32.41 68.91,32.78 69.17,33.12 69.42,33.44 69.67,33.76 69.92,34.09 70.19,34.42 70.48,34.77 70.77,35.12 71.07,35.44 71.54,35.51 71.86,35.71 72.16,36.07 72.48,36.43 72.77,36.76 73.05,37.07 73.34,37.38 73.65,37.71 73.94,38.03 74.24,38.36 74.57,38.68 74.86,39.01 74.91,39.47 75.00,39.92 75.32,40.19 75.65,40.49 76.02,40.69 76.40,40.78 76.76,40.88 77.10,40.99 77.43,41.09 77.78,41.20 78.17,41.33 78.57,41.47 78.95,41.61 79.32,41.78" fill="none" stroke="black" stroke-width="0.5"/><polyline points="72.35,27.97 72.72,28.31 73.08,28.64 73.44,28.96 73.80,29.28 74.15,29.60 74.50,29.91 74.84,30.21 75.18,30.52 75.52,30.82 75.86,31.12 76.20,31.42 76.54,31.72 76.89,32.03 77.24,32.34 77.60,32.66 77.97,32.99 78.35,33.33" fill="none" stroke="black" stroke-width="0.5"/><polyline points="70.76,28.11 71.14,28.34 71.53,28.62 71.92,28.93 72.31,29.27 72.69,29.62 73.07,29.97 73.43,30.33 73.77,30.67 74.10,30.99 74.41,31.30 74.72,31.60 75.05,31.93 75.42,32.31 75.79,32.68 76.12,33.02 76.36,33.26" fill="none" stroke="black" stroke-width="0.5"/><polyline points="63.20,28.12 63.51,28.43 63.81,28.74 64.10,29.05 64.38,29.36 64.67,29.68 64.96,30.01 65.25,30.34 65.53,30.67 65.80,30.99 66.06,31.31 66.34,31.64 66.61,31.99 66.90,32.34 67.18,32.69 67.46,33.04 67.75,33.39 68.03,33.74 68.31,34.10 68.58,34.45 68.86,34.81 69.13,35.17 69.40,35.52 69.67,35.88 69.94,36.22 70.21,36.57 70.48,36.91 70.75,37.24 71.02,37.56 71.30,37.88 71.58,38.21 71.88,38.53 72.19,38.85 72.51,39.17 72.84,39.47 73.17,39.75" fill="none" stroke="black" stroke-width="0.5"/><polyline points="67.29,28.59 67.50,28.89 67.73,29.22 67.98,29.58 68.24,29.95 68.50,30.33 68.76,30.69 69.02,31.06 69.27,31.42 69.53,31.78 69.79,32.14 70.05,32.50 70.30,32.83 70.53,33.16 70.77,33.48 71.01,33.82 71.25,34.16 71.48,34.48 71.69,34.77" fill="none" stroke="black" stroke-width="0.5"/><polyline points="32.79,28.61 32.54,28.96 32.34,29.35 32.21,29.66 32.10,29.98 32.00,30.32 31.92,30.67 31.86,31.09 31.84,31.40 31.85,31.70 31.88,32.07 31.93,32.37 31.99,32.68 32.19,33.04 32.44,33.44 32.74,33.76 33.18,33.79 33.67,33.68 34.08,33.61 34.45,33.58 34.76,33.56 34.98,33.64 35.33,33.79 35.77,33.69" fill="none" stroke="black" stroke-width="0.5"/><polyline points="55.07,29.18 55.26,29.57 55.48,29.97 55.70,30.37 55.93,30.76 56.17,31.15 56.42,31.53 56.66,31.91 56.69,32.34 56.75,32.76 56.97,33.12 57.22,33.46 57.48,33.81 57.75,34.16 58.02,34.50 58.31,34.82 58.60,35.12 58.92,35.40 59.19,35.73 59.42,36.16 59.74,36.50 60.14,36.75 60.50,37.03 60.89,37.21 61.31,37.03 61.47,36.66 61.13,36.42 60.75,36.22 60.39,36.01 60.01,35.79" fill="none" stroke="black" stroke-width="0.5"/><polyline points="88.04,29.16 88.25,29.62 88.44,30.01 88.59,30.34 88.72,30.64 88.84,30.94 88.96,31.25 89.08,31.61 89.22,32.04 89.36,32.49 89.48,32.94 89.57,33.33 89.64,33.66 89.69,33.95 89.75,34.25" fill="none" stroke="black" stroke-width="0.5"/><polyline points="83.62,30.75 83.91,31.25 84.17,31.74 84.41,32.22 84.64,32.69 84.85,33.16 85.03,33.61 85.20,34.05" fill="none" stroke="black" stroke-width="0.5"/><polyline points="58.75,32.00 59.04,32.32 59.35,32.65 59.65,32.96 59.93,33.24 60.23,33.53 60.54,33.77 60.94,34.05 61.23,34.25 61.54,34.43 61.88,34.64 62.25,34.84 62.61,35.04 62.98,35.22 63.32,35.38 63.66,35.52 63.83,35.71 63.48,36.13 63.45,36.49 63.57,36.87 63.66,37.18 63.76,37.56 63.85,37.92 63.94,38.25 64.00,38.53 64.08,38.89 64.13,39.12 64.21,39.59 64.24,39.89 64.29,40.25 64.35,40.72 64.39,41.11 64.44,41.50 64.48,41.84 64.51,42.12 64.53,42.36 64.57,42.70 64.58,42.95 64.61,43.25 64.63,43.54 64.65,43.82 64.67,44.34 64.69,44.66 64.69,45.03 64.71,45.31 64.71,45.52 64.70,45.76 64.68,46.06 64.68,46.24 64.67,46.65 64.66,46.93 64.63,47.20 64.62,47.48 64.58,47.81" fill="none" stroke="black" stroke-width="0.5"/><polyline points="57.36,32.05 57.75,32.45 58.11,32.83 58.45,33.18 58.78,33.53 59.09,33.86 59.41,34.18 59.73,34.50 60.05,34.81 60.40,35.13 60.77,35.45 61.18,35.78 61.62,36.12" fill="none" stroke="black" stroke-width="0.5"/><polyline points="30.81,32.38 30.89,32.80 31.02,33.20 31.18,33.58 31.36,33.95 31.56,34.31 31.83,34.67 31.83,34.93 31.38,35.10 31.31,35.35 31.68,35.66 31.99,35.92" fill="none" stroke="black" stroke-width="0.5"/><polyline points="45.34,32.52 45.72,32.75 46.09,32.98 46.47,33.22 46.84,33.47 47.21,33.72 47.58,33.98 47.93,34.25 48.29,34.52 48.63,34.80 48.97,35.09 49.31,35.38 49.64,35.67 49.96,35.97 50.28,36.27 50.60,36.58 50.92,36.89 51.24,37.20 51.55,37.52" fill="none" stroke="black" stroke-width="0.5"/><polyline points="71.09,32.73 71.39,33.07 71.70,33.40 72.02,33.72 72.35,34.04 72.68,34.34 73.02,34.64 73.36,34.93 73.71,35.21 74.06,35.47 74.42,35.73 74.77,35.98 75.12,36.21 75.47,36.44 75.81,36.65 76.15,36.85 76.49,37.04 76.82,37.22" fill="none" stroke="black" stroke-width="0.5"/><polyline points="30.00,33.05 30.15,33.46 30.34,33.89 30.56,34.31 30.82,34.72 31.10,35.11" fill="none" stroke="black" stroke-width="0.5"/><polyline points="40.86,33.15 41.25,33.19 41.71,33.26 42.19,33.42 42.66,33.71" fill="none" stroke="black" stroke-width="0.5"/><polyline points="40.10,33.30 40.42,33.31 39.76,33.30 39.43,33.30" fill="none" stroke="black" stroke-width="0.5"/><polyline points="86.60,33.44 86.80,33.93 86.98,34.42 87.13,34.86 87.26,35.25 87.37,35.61 87.47,36.00 87.58,36.42 87.67,36.83 87.75,37.19 87.81,37.52 87.88,37.97" fill="none" stroke="black" stroke-width="0.5"/><polyline points="43.71,33.68 44.10,33.81 44.48,33.97 44.85,34.14 45.22,34.33 45.59,34.53 45.96,34.75 46.33,34.98 46.70,35.23 47.09,35.48 47.46,35.75 47.77,36.05 48.03,36.40 48.36,36.71 48.74,36.96 49.11,37.17 49.45,37.37 49.81,37.58 50.18,37.84" fill="none" stroke="black" stroke-width="0.5"/><polyline points="24.22,34.15 24.44,34.59 24.47,34.78 24.80,34.72 25.22,34.77 25.56,34.87 26.01,35.05 26.44,35.30 26.76,35.63 27.01,36.04 27.23,36.48 27.36,36.92 27.45,37.35 27.45,37.78 27.20,38.14 26.93,38.50 26.68,38.86 26.44,39.19 26.21,39.48" fill="none" stroke="black" stroke-width="0.5"/><polyline points="39.06,34.99 38.71,35.17 38.34,35.36 37.95,35.59 37.55,35.86 37.16,36.16 36.80,36.45 36.51,36.70 36.20,37.00 35.86,37.34 35.61,37.63 35.40,37.88 35.22,38.12 35.04,38.36 34.85,38.63 34.64,38.93 34.43,39.26 34.22,39.60 34.02,39.95 33.82,40.30 33.64,40.64 33.48,40.95 33.36,41.21" fill="none" stroke="black" stroke-width="0.5"/><polyline points="67.74,35.47 67.96,35.84 68.20,36.22 68.44,36.58 68.68,36.94 68.93,37.28 69.18,37.61 69.43,37.94 69.70,38.26 69.98,38.59 70.27,38.92 70.58,39.26 70.85,39.56 71.11,39.82 71.43,40.14 71.79,40.47 72.14,40.77 72.47,41.04 72.78,41.31 73.14,41.58 73.20,41.89 72.85,42.22 72.37,42.48 71.89,42.55 71.46,42.40 71.12,42.09 70.79,41.77 70.45,41.47 70.09,41.20 69.93,40.81 69.82,40.37 69.55,40.03 69.24,39.69 68.95,39.35 68.67,39.03 68.40,38.72 68.15,38.42 67.90,38.12 67.65,37.80 67.39,37.46 67.14,37.11 66.90,36.74 66.67,36.38 66.48,36.03" fill="none" stroke="black" stroke-width="0.5"/><polyline points="35.70,36.41 35.32,36.69 34.98,37.00 34.65,37.35 34.33,37.75 34.04,38.16 33.77,38.56 33.53,38.92 33.32,39.26 33.11,39.62 32.87,40.00 32.60,40.44" fill="none" stroke="black" stroke-width="0.5"/><polyline points="65.30,36.46 65.54,36.87 65.78,37.26 66.02,37.64 66.27,38.01 66.52,38.38 66.80,38.74 67.09,39.10 67.40,39.46 67.73,39.82 68.08,40.16 68.45,40.50 68.83,40.82 69.24,41.12" fill="none" stroke="black" stroke-width="0.5"/><polyline points="34.39,36.56 33.97,36.91 33.61,37.27 33.28,37.63 32.99,38.00 32.71,38.38 32.43,38.79" fill="none" stroke="black" stroke-width="0.5"/><polyline points="23.67,36.59 23.83,37.06 23.98,37.54 24.15,38.02 24.36,38.49 24.66,38.95 25.07,39.40" fill="none" stroke="black" stroke-width="0.5"/><polyline points="64.66,37.16 64.76,37.50 64.85,37.83 64.95,38.21 65.04,38.58 65.10,38.93 65.18,39.33 65.25,39.63 65.30,39.92 65.36,40.26 65.41,40.54 65.48,40.88 65.54,41.26 65.61,41.57 65.65,41.83 65.73,42.18 65.58,42.59 65.51,43.03 65.55,43.42 65.57,43.82 65.60,44.14 65.60,44.37 65.61,44.62 65.64,45.03 65.64,45.56 65.65,45.92 65.67,46.34 65.83,46.81 66.04,47.24 66.45,47.41 66.72,47.14 66.97,46.84 67.23,46.51 67.48,46.18 67.72,45.88 67.96,45.58 68.11,45.26 67.95,44.86 68.03,44.53 67.85,44.11 67.60,43.67 67.48,43.25" fill="none" stroke="black" stroke-width="0.5"/><polyline points="62.39,37.39 62.45,37.74 62.52,38.07 62.59,38.42 62.64,38.69 62.68,38.98 62.73,39.27 62.77,39.58 62.81,39.84 62.85,40.23 62.89,40.56 62.92,40.97 62.90,41.31 62.92,41.67 62.91,42.04 62.91,42.56 62.91,43.09 62.90,43.48 62.88,43.89 62.84,44.19 62.80,44.45 62.62,44.82 62.39,45.23 62.15,45.08 61.92,44.66 61.80,44.19 61.80,43.72 61.77,43.38 61.75,43.09 61.75,42.88 61.75,42.66 61.75,42.44 61.75,42.24 61.71,41.86 61.70,41.60 61.69,41.28 61.67,40.82 61.65,40.49 61.63,40.16 61.59,39.83 61.55,39.49 61.51,39.18 61.46,38.88 61.40,38.54 61.30,38.20" fill="none" stroke="black" stroke-width="0.5"/><polyline points="42.34,37.63 42.70,37.77 43.09,37.93 43.45,38.11 43.77,38.28 44.12,38.48 44.42,38.66 44.81,38.91 45.14,39.14 45.47,39.38 45.83,39.65 46.17,39.93 46.48,40.22 46.84,40.51 46.95,40.85 46.46,41.20 46.48,41.43 46.86,41.59 47.19,41.72 47.40,42.10 47.15,42.46 46.88,42.65 46.68,42.79 46.40,42.98 46.02,43.24 45.69,43.48 45.37,43.65" fill="none" stroke="black" stroke-width="0.5"/><polyline points="38.30,37.85 38.72,38.06 39.24,37.98 39.66,38.17 40.10,38.38 40.63,38.22 41.10,38.23 41.56,38.47 42.03,38.61 42.34,38.83 42.67,39.02 43.03,39.23 43.38,39.47 43.72,39.72 44.05,39.98 44.40,40.24 44.78,40.47 45.16,40.68 45.50,40.90 45.86,41.10 46.25,41.32" fill="none" stroke="black" stroke-width="0.5"/><polyline points="36.06,38.32 35.88,38.64 35.69,39.00 35.50,39.39 35.30,39.81 35.09,40.24 34.88,40.68 34.67,41.13 34.44,41.56" fill="none" stroke="black" stroke-width="0.5"/><polyline points="90.36,38.42 90.42,38.76 90.39,39.12 90.27,39.50 90.09,39.89 89.87,40.29 89.62,40.68 89.37,41.06 89.12,41.43 88.91,41.78" fill="none" stroke="black" stroke-width="0.5"/><polyline points="85.73,38.77 85.48,39.02 85.23,39.27 84.98,39.52 84.74,39.77 84.49,40.02" fill="none" stroke="black" stroke-width="0.5"/><polyline points="38.33,38.91 38.10,39.31 37.88,39.70 37.72,40.08 37.59,40.48 37.44,40.75 37.82,40.74 38.23,40.84 38.55,40.92 38.84,40.67 39.13,40.56 39.36,40.99 39.71,41.15 40.11,41.37 40.54,41.43 41.06,41.41 41.38,41.38 41.11,41.66 40.86,41.91 41.31,41.88 41.71,41.64 42.09,41.37 42.58,41.30 43.07,41.21 43.52,41.09 43.91,40.97" fill="none" stroke="black" stroke-width="0.5"/><polyline points="50.64,39.12 50.28,39.40 49.92,39.66 49.55,39.88 49.18,40.09 48.81,40.29 48.44,40.48 48.07,40.67" fill="none" stroke="black" stroke-width="0.5"/><polyline points="51.72,39.32 51.40,39.62 51.12,39.91 50.83,40.18 50.51,40.44 50.14,40.69 49.74,40.92 49.37,41.11 49.23,41.47 49.40,41.87 49.82,41.96 50.31,41.93 50.74,41.91 51.16,42.08 51.53,42.21 51.94,42.21 52.39,42.29 52.80,42.47 53.20,42.47 53.56,42.26 53.83,41.91 54.05,41.64" fill="none" stroke="black" stroke-width="0.5"/><polyline points="41.38,39.42 41.35,39.73 41.25,40.12 41.02,40.50 40.63,40.77 40.16,40.97 39.97,41.39 40.03,41.88 39.75,41.91 39.96,41.93 40.51,41.91" fill="none" stroke="black" stroke-width="0.5"/><polyline points="36.30,39.48 36.18,39.86 36.00,40.35 35.80,40.87 35.63,41.38" fill="none" stroke="black" stroke-width="0.5"/><polyline points="66.44,39.62 66.67,39.96 66.89,40.31 67.13,40.68 67.36,41.05 67.61,41.42 67.86,41.78 68.13,42.12 68.41,42.43 68.71,42.71 69.02,42.95 69.35,43.14 69.71,43.26 70.09,43.32 70.49,43.29 70.93,43.17" fill="none" stroke="black" stroke-width="0.5"/><polyline points="52.60,39.72 52.24,40.17 51.89,40.58 51.55,40.96 51.18,41.33 50.77,41.71" fill="none" stroke="black" stroke-width="0.5"/><polyline points="26.40,40.66 26.36,40.94 26.26,41.30 26.14,41.67 26.03,41.96 25.88,42.30 25.72,42.64 25.59,42.92 25.44,43.22 25.27,43.49 25.09,43.80 24.92,44.08 24.75,44.36 24.51,44.73 24.37,44.95 24.16,45.29 23.99,45.57 23.82,45.85 23.67,46.09 23.54,46.34 23.37,46.63 23.15,46.98 22.99,47.25 22.81,47.55 22.63,47.83 22.47,48.11 22.26,48.43 22.08,48.74 21.91,49.01 21.75,49.27 21.54,49.62 21.34,49.95 21.08,50.39 20.84,50.77 20.59,51.18 20.45,51.40 20.31,51.61 20.16,51.88 20.00,52.17 19.84,52.48 19.70,52.90 19.66,53.19 19.64,53.51 19.66,53.77 19.73,54.11 19.86,54.46 20.05,54.79 20.30,55.13 20.61,55.47 20.93,55.73 21.23,55.95 21.68,56.17 22.08,56.34 22.43,56.46 22.80,56.55 23.13,56.61 23.41,56.74 23.79,56.97 24.15,57.10 24.44,57.21 24.81,57.34 25.19,57.59 25.56,57.83 25.46,58.27 25.40,58.56 25.33,58.92 25.24,59.27 25.18,59.54 25.11,59.91 25.02,60.34 24.96,60.61 24.89,60.91 24.86,61.13 24.81,61.37 24.76,61.59 24.71,61.83 24.66,62.17 24.60,62.46 24.55,62.80 24.58,63.19 24.79,63.58 25.04,63.95 25.40,64.27 25.76,64.49 26.20,64.49 26.58,64.58 26.89,64.80 27.25,64.99 27.65,65.10 28.10,65.05 28.26,65.27 28.70,65.48 29.16,65.46 29.63,65.44 30.07,65.41 30.51,65.38 30.92,65.17 31.07,64.89 30.69,64.67 30.42,64.53 29.98,64.49 29.48,64.51 29.18,64.54" fill="none" stroke="black" stroke-width="0.5"/><polyline points="53.34,40.71 52.94,41.15 52.60,41.57 52.20,42.02" fill="none" stroke="black" stroke-width="0.5"/><polyline points="37.55,41.61 37.80,42.06 38.14,42.48 38.54,42.86 38.95,43.17 39.36,43.41 39.72,43.56" fill="none" stroke="black" stroke-width="0.5"/><polyline points="45.28,41.78 44.86,42.28 44.36,42.73 43.82,43.09" fill="none" stroke="black" stroke-width="0.5"/><polyline points="65.94,42.30 66.21,42.72 66.34,43.05 66.42,43.36 66.50,43.71 66.56,44.07 66.61,44.42 66.64,44.76 66.67,45.07 66.72,45.38 66.85,45.74 67.13,46.25" fill="none" stroke="black" stroke-width="0.5"/><polyline points="63.76,42.53 63.79,42.80 63.79,43.18 63.77,43.50 63.76,43.91 63.76,44.30 63.76,44.59 63.76,44.91 63.76,45.17 63.75,45.42 63.74,45.65 63.71,45.89 63.67,46.21 63.64,46.52 63.60,46.85 63.56,47.22 63.50,47.59 63.43,48.02 63.37,48.33 63.29,48.70 63.21,49.00 63.10,49.38 63.01,49.66 62.88,49.99 62.72,50.35 62.55,50.68 62.36,51.01 61.96,51.28 61.55,51.29 61.64,50.92 61.71,50.59 61.79,50.21 61.86,49.89 61.92,49.55 61.97,49.20 62.03,48.87 62.06,48.56 62.09,48.26 62.13,47.92 62.18,47.57 62.20,47.26 62.23,46.96 62.25,46.70 62.25,46.35 62.28,46.02 62.31,45.58 62.31,45.35" fill="none" stroke="black" stroke-width="0.5"/><polyline points="48.12,42.63 48.47,42.73 48.83,42.85 49.21,42.98 49.61,43.13 50.03,43.29 50.48,43.48 50.97,43.69" fill="none" stroke="black" stroke-width="0.5"/><polyline points="74.39,42.79 73.78,43.20 73.18,43.53 72.62,43.81" fill="none" stroke="black" stroke-width="0.5"/><polyline points="77.56,43.94 77.10,44.00 76.63,44.13 76.42,44.54 76.61,44.92 76.80,44.94 76.33,44.79 75.88,44.76 75.51,44.93 75.20,45.15 74.90,45.40 74.68,45.62 74.46,45.93 74.26,46.30 74.02,46.61 73.78,46.91 73.65,47.27 73.60,47.65 73.37,47.97 73.14,48.29 73.19,48.72 72.97,49.04 72.77,49.42 72.74,49.81 72.52,50.15 72.34,50.51 72.33,50.89 72.33,51.12 72.33,51.48 72.35,51.77 72.40,52.17 72.58,52.55 72.50,52.91 72.45,53.23 72.59,53.66 72.43,54.01 72.18,54.30 72.06,54.76 71.90,55.05 71.69,55.27 71.54,55.56 71.42,56.02 71.18,56.33 70.96,56.66 70.70,57.01 70.41,57.39 70.08,57.76" fill="none" stroke="black" stroke-width="0.5"/><polyline points="69.39,44.42 69.14,44.76 68.88,45.09 68.90,45.32 69.31,45.45 69.42,45.63 69.24,45.91 69.00,46.26 68.75,46.65 68.51,47.04 68.27,47.40 67.98,47.83 67.68,48.29 67.44,48.65 67.24,48.94 66.95,49.34 66.64,49.71 66.36,50.01 66.07,50.27 65.75,50.55" fill="none" stroke="black" stroke-width="0.5"/><polyline points="78.24,45.33 78.62,45.58 78.97,45.87 79.25,46.20 79.48,46.55 79.65,46.88 79.77,47.19 79.88,47.52 79.97,47.85 80.03,48.19 80.11,48.60 80.12,48.86 80.14,49.13 80.17,49.50 80.19,49.90 80.19,50.24 80.14,50.64 80.10,50.97 80.04,51.36 79.93,51.68 79.70,52.06 79.36,51.90 79.48,52.27 79.41,52.62 79.34,52.98 79.27,53.33 79.18,53.71 79.10,54.00 78.98,54.36 78.86,54.68 78.69,55.10 78.51,55.47 78.35,55.75 78.16,56.04 77.89,56.39 77.65,56.65 77.44,56.86 77.19,57.09 76.91,57.29 76.74,57.42 76.28,57.67 75.89,57.91 75.77,58.02" fill="none" stroke="black" stroke-width="0.5"/><polyline points="85.37,45.88 85.34,46.27 85.30,46.61 85.24,46.94 85.17,47.35 85.10,47.73 85.03,48.05 84.96,48.41 84.88,48.76 84.80,49.09 84.71,49.44 84.61,49.81 84.51,50.15 84.41,50.48 84.29,50.88 84.16,51.26 84.03,51.63 83.91,51.99 83.73,52.48 83.56,52.90 83.43,53.25 83.24,53.67 83.11,54.00 82.93,54.38 82.78,54.72 82.63,55.05 82.51,55.29 82.39,55.54 82.27,55.79 82.16,56.02 82.02,56.31 81.86,56.59 81.68,56.93 81.42,57.38 81.23,57.70 81.05,57.99 80.85,58.29 80.65,58.60 80.41,58.94 80.17,59.27 79.94,59.60 79.73,59.91 79.52,60.22 79.30,60.53 79.09,60.86 78.87,61.18 78.62,61.57" fill="none" stroke="black" stroke-width="0.5"/><polyline points="75.84,45.99 76.42,46.01 76.93,46.08 77.38,46.22 77.79,46.42 78.19,46.67" fill="none" stroke="black" stroke-width="0.5"/><polyline points="75.58,46.11 75.46,46.08 75.22,46.50 75.53,46.94 76.10,47.09 76.68,47.06 77.12,47.28" fill="none" stroke="black" stroke-width="0.5"/><polyline points="66.47,47.50 66.28,47.85 66.03,48.16 65.75,48.45 65.48,48.74 65.23,49.03 65.03,49.35 64.82,49.65 64.51,49.90 64.12,50.15 63.71,50.45 63.36,50.80 63.23,51.14 63.66,51.28 64.22,51.03" fill="none" stroke="black" stroke-width="0.5"/><polyline points="79.20,49.01 79.17,49.41 79.14,49.75 79.12,50.05 79.11,50.34 79.12,50.64 79.15,50.97 79.20,51.35 79.27,51.80" fill="none" stroke="black" stroke-width="0.5"/><polyline points="72.97,49.66 73.35,49.95 73.70,50.24 74.08,50.52 74.39,50.82 74.49,51.25 74.78,51.60 74.97,52.00 75.12,52.46 75.40,52.81 75.51,53.24 75.78,53.58 76.00,54.00 76.30,54.31 76.67,54.41 76.93,54.41 76.78,54.00 76.75,53.53 77.08,53.26 76.82,52.81 76.77,52.38 76.81,52.38 76.31,52.66 75.87,52.83" fill="none" stroke="black" stroke-width="0.5"/><polyline points="29.80,50.49 30.43,50.58 30.84,50.63 31.20,50.68 31.68,50.77" fill="none" stroke="black" stroke-width="0.5"/><polyline points="75.03,50.68 75.55,50.83 76.05,50.97 76.55,51.11" fill="none" stroke="black" stroke-width="0.5"/><polyline points="33.87,51.11 34.19,51.47 34.51,51.83 34.81,52.19 35.09,52.53 35.35,52.87 35.60,53.21 35.86,53.58 36.12,53.95 36.38,54.34 36.64,54.73 36.87,55.12 37.10,55.50 37.32,55.88 37.53,56.27 37.75,56.65 37.98,57.03 38.22,57.40" fill="none" stroke="black" stroke-width="0.5"/><polyline points="57.62,52.74 57.27,53.04 56.94,53.37 56.64,53.70 56.36,54.04 56.10,54.38 55.86,54.72 55.63,55.05 55.41,55.37 55.19,55.70 54.98,56.02 54.77,56.34 54.56,56.67 54.35,57.01 54.14,57.35 53.93,57.69 53.71,58.04 53.50,58.39 53.28,58.74" fill="none" stroke="black" stroke-width="0.5"/><polyline points="33.02,53.25 33.22,53.62 33.39,54.01 33.53,54.40 33.63,54.78 33.70,55.15 33.74,55.50 33.74,55.82 33.70,56.14 33.62,56.48 33.48,56.85 33.26,57.22 32.97,57.55" fill="none" stroke="black" stroke-width="0.5"/><polyline points="26.90,54.83 26.43,54.90 25.94,54.96 25.45,55.03 24.94,55.09 24.42,55.14 23.90,55.17 23.38,55.18 22.85,55.16 22.32,55.11 21.80,55.02 21.28,54.89" fill="none" stroke="black" stroke-width="0.5"/><polyline points="75.18,54.80 74.82,55.19 74.47,55.42 74.11,55.69 73.76,55.99 73.39,56.22 72.92,56.21 73.18,56.21 73.82,56.31 74.31,56.45 74.75,56.35 75.23,55.98" fill="none" stroke="black" stroke-width="0.5"/><polyline points="27.48,55.87 26.97,55.87 26.46,55.90 25.93,55.94 25.41,55.98 24.90,55.98 24.36,56.00 23.77,56.10 23.42,56.21 23.76,56.12 24.39,56.05" fill="none" stroke="black" stroke-width="0.5"/><polyline points="27.45,55.83 28.09,55.85 28.41,55.84 28.76,55.89 29.18,56.00 29.62,56.15 30.05,56.32 30.46,56.50 30.87,56.71 31.30,56.95 31.74,57.22" fill="none" stroke="black" stroke-width="0.5"/><polyline points="26.13,57.62 26.57,57.76 27.01,57.80 27.44,57.82 27.69,58.11 27.49,58.63 26.96,58.79 26.74,58.87 26.67,59.27 26.77,59.73 27.12,59.92 27.59,59.79 28.01,59.50" fill="none" stroke="black" stroke-width="0.5"/><polyline points="65.44,58.01 65.19,58.40 64.90,58.65 65.07,59.10 65.08,59.52 64.73,59.80 64.28,60.02 63.91,60.25 63.57,60.48 63.21,60.72 62.92,60.93 62.60,61.15 62.22,61.42 61.88,61.73 61.48,62.01 61.20,62.29 61.46,62.78 61.61,63.17 61.32,63.40 60.97,63.67 60.72,63.87 60.39,64.14 60.01,64.45 59.67,64.74 59.40,64.98 59.07,65.28" fill="none" stroke="black" stroke-width="0.5"/><polyline points="66.63,58.48 66.55,58.91 66.49,59.24 66.43,59.57 66.36,59.94 66.30,60.30 66.25,60.60 66.21,60.86 66.16,61.12 66.11,61.44 66.05,61.78 65.99,62.12 65.94,62.44 65.88,62.75 65.83,63.06 65.78,63.33 65.73,63.59 65.68,63.92 65.62,64.26 65.55,64.62 65.50,64.96 65.50,65.20" fill="none" stroke="black" stroke-width="0.5"/><polyline points="72.11,58.70 71.66,59.12 71.07,59.39 70.53,59.44" fill="none" stroke="black" stroke-width="0.5"/><polyline points="68.03,59.25 67.95,59.62 67.86,59.96 67.79,60.30 67.72,60.63 67.67,60.98 67.63,61.36 67.62,61.77 67.65,62.20 67.75,62.62 67.97,62.99 68.30,63.31 68.68,63.58 69.02,63.84" fill="none" stroke="black" stroke-width="0.5"/><polyline points="48.72,59.76 48.87,60.17 49.02,60.55 49.16,60.90 49.30,61.32 49.42,61.75 49.51,62.12 49.58,62.43 49.65,62.79 49.72,63.10 49.77,63.40 49.82,63.70 49.86,63.99 49.92,64.36 49.96,64.78 49.97,65.09 49.98,65.42 49.98,65.76 49.97,66.06 49.95,66.36 49.92,66.75" fill="none" stroke="black" stroke-width="0.5"/><polyline points="43.16,59.87 43.47,60.23 43.78,60.57 44.08,60.90 44.36,61.24 44.62,61.59 44.85,61.95 45.06,62.30 45.25,62.65 45.42,62.99 45.56,63.31 45.67,63.59 45.76,63.85 45.83,64.09 45.91,64.36 45.99,64.67 46.07,65.08 46.13,65.49 46.17,65.77 46.19,66.03 46.19,66.36 46.18,66.74 46.16,67.11 46.12,67.46 46.07,67.82 46.00,68.14 45.92,68.45 45.82,68.77 45.69,69.11" fill="none" stroke="black" stroke-width="0.5"/><polyline points="26.83,60.24 26.97,60.81 27.47,60.99 28.13,60.70" fill="none" stroke="black" stroke-width="0.5"/><polyline points="76.21,61.50 75.89,61.81 75.61,62.06 75.33,62.31 75.02,62.59 74.68,62.91 74.29,63.23 73.85,63.49 73.37,63.69 72.90,63.80 72.53,63.82" fill="none" stroke="black" stroke-width="0.5"/><polyline points="64.54,62.40 64.25,62.63 63.97,62.83 63.61,63.11 63.39,63.29 63.09,63.51 62.82,63.72 62.49,63.98 62.12,64.26 61.84,64.49 61.63,64.66 61.21,64.98 60.86,65.26 60.60,65.46 60.32,65.69 60.04,65.91 59.74,66.15 59.42,66.41 59.13,66.65 58.87,66.86 58.62,67.06 58.39,67.24 58.22,67.39 57.91,67.64 57.63,67.87 57.28,68.15 56.97,68.41 56.67,68.66 56.33,68.95 56.05,69.19 55.80,69.40 55.56,69.61 55.27,69.84 55.01,70.07 54.61,70.40 54.34,70.65 53.99,70.94 53.59,71.28 53.37,71.47 53.16,71.65 52.80,71.95 52.56,72.14 52.26,72.40 51.95,72.65 51.76,72.82 51.40,73.11 51.08,73.38 50.80,73.60 50.43,73.91 50.07,74.19 49.82,74.39 49.55,74.62 49.29,74.82 48.90,75.12 48.59,75.37 48.27,75.62 47.98,75.84 47.71,76.04 47.44,76.25 47.08,76.52 46.70,76.82 46.48,77.02 45.99,77.34 45.71,77.56 45.34,77.82 44.97,78.08 44.65,78.30 44.37,78.51 44.16,78.67 43.85,78.88 43.60,79.08 43.23,79.33 42.84,79.59" fill="none" stroke="black" stroke-width="0.5"/><polyline points="79.02,62.71 78.92,63.00 78.77,63.34 78.94,63.81 78.91,64.11 78.69,64.50 78.83,64.92 78.81,65.33 78.75,65.57 78.62,65.95 78.79,66.40 78.71,66.79 78.59,67.13 78.70,67.63 78.54,67.98 78.70,68.45 78.69,68.72 78.56,69.10 78.59,69.59 78.56,69.92 78.57,70.30 78.82,70.62 79.03,71.05 79.07,71.59 78.93,71.99 78.84,72.31 78.97,72.72 79.22,73.12 79.32,73.60 79.63,73.99 79.63,74.40 79.48,74.66 79.26,74.99 79.26,75.39 79.20,75.74 78.98,76.03 78.78,76.32 78.53,76.62 78.26,76.95 78.04,77.21 77.82,77.49 77.56,77.78 77.36,78.00 77.16,78.23 76.87,78.54 76.65,78.79 76.47,79.00 76.26,79.21 76.05,79.42 75.84,79.63 75.62,79.88 75.36,80.12 75.05,80.42 74.84,80.63 74.63,80.84 74.39,81.07 74.11,81.34 73.80,81.63 73.57,81.86 73.40,82.03 73.15,82.22 72.94,82.43 72.71,82.64 72.49,82.83 72.25,83.05 72.04,83.26 71.72,83.53 71.44,83.77 71.21,83.98 70.97,84.19 70.76,84.38 70.58,84.54 70.29,84.78 70.07,84.97 69.87,85.14 69.59,85.37 69.30,85.62 68.97,85.90 68.60,86.20 68.31,86.45 68.04,86.67 67.72,86.95 67.40,87.19 67.02,87.50 66.77,87.71 66.52,87.92 66.22,88.14 65.88,88.42" fill="none" stroke="black" stroke-width="0.5"/><polyline points="67.56,62.82 67.32,63.19 67.09,63.56 66.97,63.84 66.89,64.17 66.79,64.57 66.75,64.83 66.68,65.12 66.60,65.44 66.52,65.82 66.45,66.10 66.39,66.33 66.33,66.58 66.24,66.94 66.15,67.27 66.04,67.69 65.95,68.01 65.85,68.32 65.71,68.72 65.62,69.00 65.47,69.39 65.32,69.78 65.18,70.12 65.01,70.51 64.81,70.94 64.67,71.22 64.47,71.59 64.27,71.93 64.10,72.21 63.90,72.52 63.69,72.82 63.46,73.13 63.23,73.45 63.00,73.77 62.76,74.09 62.54,74.38 62.29,74.68 62.01,75.02 61.70,75.37 61.38,75.70 61.12,75.95 60.80,76.22 60.47,76.58 60.16,76.96 59.84,77.28 59.61,77.50" fill="none" stroke="black" stroke-width="0.5"/><polyline points="76.29,63.34 76.11,63.55 75.88,63.79 75.61,64.05 75.30,64.33 74.97,64.62 74.62,64.91 74.26,65.18 73.92,65.43 73.59,65.65" fill="none" stroke="black" stroke-width="0.5"/><polyline points="64.69,63.49 64.40,63.81 64.12,64.08 63.86,64.30 63.55,64.56 63.25,64.80 62.90,65.08 62.56,65.35 62.18,65.68 61.87,65.93 61.52,66.23 61.20,66.51 60.94,66.72 60.71,66.92 60.48,67.11 60.20,67.34 59.96,67.55 59.59,67.85 59.26,68.13 58.97,68.38 58.66,68.65 58.35,68.92 58.09,69.13 57.91,69.29 57.66,69.50 57.45,69.68 57.18,69.91 56.86,70.17 56.56,70.42 56.29,70.66 55.99,70.91 55.72,71.13 55.47,71.35 55.15,71.61 54.91,71.83 54.62,72.08 54.23,72.39 53.92,72.66 53.66,72.88 53.41,73.08 53.17,73.28 52.82,73.57 52.50,73.83 52.18,74.09 51.84,74.36 51.51,74.63 51.18,74.90 50.79,75.21 50.39,75.51 50.09,75.75 49.75,76.00 49.35,76.30 49.02,76.54 48.62,76.83 48.29,77.07 47.99,77.28" fill="none" stroke="black" stroke-width="0.5"/><polyline points="76.62,64.54 76.17,64.98 75.83,65.32 75.55,65.60 75.28,65.85 75.01,66.09 74.78,66.40 74.65,66.81 74.45,67.17 74.13,67.49 73.79,67.79 73.48,68.09 73.17,68.34 72.79,68.61 72.37,68.88 72.00,69.10 71.73,69.26" fill="none" stroke="black" stroke-width="0.5"/><polyline points="68.53,64.80 68.94,65.07 69.34,65.28 69.74,65.45 70.16,65.56 70.61,65.61 71.08,65.58 71.58,65.49 72.08,65.33 72.56,65.09 73.01,64.79" fill="none" stroke="black" stroke-width="0.5"/><polyline points="25.90,65.06 25.65,65.42 25.50,65.73 25.40,66.05 25.31,66.45 25.27,66.77 25.27,67.00 25.27,67.20 25.30,67.50 25.35,67.82 25.44,68.17 25.55,68.52 25.68,68.82 25.79,69.06 25.95,69.34 25.94,69.78 26.04,70.21 26.39,70.49 26.74,70.77 27.10,71.03 27.44,71.22 27.81,71.33 28.19,71.56 28.52,71.81 28.88,72.05 29.23,72.33 29.54,72.67 29.79,73.04 29.98,73.37 30.08,73.72 30.12,74.00 30.12,74.20 30.07,74.51 29.97,74.84 29.82,75.16 29.60,75.50 29.36,75.82 29.11,76.11 28.77,76.39 28.48,76.59 28.09,76.82 27.64,77.01 27.23,77.12 26.77,77.19 26.42,77.21 26.90,77.19" fill="none" stroke="black" stroke-width="0.5"/><polyline points="31.30,65.04 31.61,65.09 31.93,65.15 32.26,65.22 32.61,65.29 32.98,65.37 33.35,65.46 33.73,65.54 34.10,65.63 34.46,65.72" fill="none" stroke="black" stroke-width="0.5"/><polyline points="64.48,65.05 64.21,65.39 63.93,65.68 63.61,65.93 63.27,66.20 62.95,66.48 62.70,66.69 62.44,66.90 62.12,67.18 61.84,67.42 61.56,67.66 61.27,67.91 61.00,68.14 60.82,68.30 60.61,68.48 60.36,68.71 59.99,69.02 59.62,69.35 59.33,69.60 59.07,69.84 58.87,70.00 58.66,70.19 58.41,70.40 58.12,70.66 57.74,70.98 57.43,71.25 57.12,71.50 56.85,71.74 56.55,71.99 56.26,72.24 56.00,72.46 55.75,72.67 55.47,72.91 55.14,73.19 54.83,73.44 54.49,73.72 54.12,74.02 53.75,74.32 53.38,74.61 52.98,74.92 52.69,75.15" fill="none" stroke="black" stroke-width="0.5"/><polyline points="39.08,65.53 39.46,65.90 39.86,66.21 40.26,66.49 40.66,66.79 41.03,67.13 41.37,67.55" fill="none" stroke="black" stroke-width="0.5"/><polyline points="76.80,65.85 76.44,66.19 76.22,66.42 75.99,66.65 75.68,66.97 75.35,67.32 75.06,67.63 74.81,67.90 74.58,68.14 74.36,68.36 74.13,68.58 73.81,68.89 73.44,69.26 73.19,69.51 72.96,69.71 72.69,69.95 72.39,70.19 72.13,70.39 71.78,70.63 71.48,70.82 71.14,71.06" fill="none" stroke="black" stroke-width="0.5"/><polyline points="36.00,66.04 36.54,66.16 36.91,66.23 37.27,66.27 37.69,66.30 38.14,66.32 38.65,66.32" fill="none" stroke="black" stroke-width="0.5"/><polyline points="64.38,66.56 64.12,66.92 63.80,67.22 63.53,67.48 63.31,67.68 63.02,67.94 62.74,68.19 62.49,68.42 62.18,68.69 61.86,68.96 61.54,69.24 61.16,69.57 60.77,69.91 60.41,70.22 60.08,70.51 59.78,70.76 59.54,70.96 59.32,71.15 59.03,71.40 58.66,71.72 58.28,72.04 57.91,72.34 57.62,72.59 57.41,72.77 57.11,73.01 56.81,73.25 56.52,73.49 56.25,73.70 55.91,73.97 55.55,74.23 55.22,74.47 54.93,74.69 54.53,74.96 54.17,75.20" fill="none" stroke="black" stroke-width="0.5"/><polyline points="76.92,67.12 76.72,67.33 76.49,67.56 76.23,67.82 75.95,68.10 75.68,68.37 75.41,68.66 75.11,68.97 74.77,69.31 74.41,69.67 74.04,70.04 73.67,70.41 73.31,70.77 73.01,71.06 72.75,71.31 72.50,71.53 72.22,71.77 71.89,72.06 71.47,72.43" fill="none" stroke="black" stroke-width="0.5"/><polyline points="72.96,67.24 72.54,67.49 72.15,67.71 71.79,67.91 71.46,68.13" fill="none" stroke="black" stroke-width="0.5"/><polyline points="77.17,68.02 76.89,68.33 76.61,68.64 76.35,68.92 76.11,69.17 75.88,69.41 75.62,69.68 75.31,70.00 74.98,70.35 74.63,70.70 74.32,71.03 74.04,71.31 73.80,71.53 73.56,71.75 73.32,72.00 73.09,72.25 72.88,72.47 72.66,72.69 72.38,72.96 72.05,73.28 71.73,73.59" fill="none" stroke="black" stroke-width="0.5"/><polyline points="64.03,68.36 63.75,68.71 63.47,69.04 63.18,69.36 62.91,69.64 62.66,69.90 62.35,70.20 62.00,70.52 61.64,70.84 61.28,71.15 60.94,71.44 60.65,71.67 60.41,71.87 60.06,72.15 59.76,72.39 59.47,72.61 59.14,72.86 58.80,73.12 58.58,73.28 58.31,73.48 57.98,73.71 57.78,73.87" fill="none" stroke="black" stroke-width="0.5"/><polyline points="26.70,68.62 27.14,68.88 27.55,69.11 28.00,69.29 28.24,69.31 28.34,69.34 28.84,69.34 29.36,69.34 28.98,69.36 28.83,69.36 29.44,69.37 29.83,69.41 30.22,69.42 30.34,69.43 30.70,69.44 31.02,69.45 31.33,69.47 31.75,69.50 32.19,69.54 32.55,69.58" fill="none" stroke="black" stroke-width="0.5"/><polyline points="77.31,69.27 76.95,69.60 76.68,69.87 76.46,70.09 76.25,70.29 76.04,70.51 75.78,70.77 75.50,71.06 75.26,71.31 74.98,71.62 74.68,71.94 74.41,72.24 74.18,72.49 73.98,72.72 73.79,72.93 73.58,73.16 73.34,73.42 73.07,73.72 72.78,74.05 72.47,74.38 72.19,74.68 71.99,74.88" fill="none" stroke="black" stroke-width="0.5"/><polyline points="77.53,70.13 77.25,70.43 76.87,70.80 76.52,71.17 76.16,71.54 75.88,71.84 75.67,72.08 75.44,72.30 75.22,72.54 75.01,72.76 74.75,73.05 74.42,73.41 74.13,73.72 73.84,74.04 73.58,74.34 73.32,74.64 73.09,74.91 72.88,75.16 72.59,75.50 72.33,75.83 72.10,76.11 71.85,76.44 71.65,76.72 71.53,77.19 71.65,77.74 71.87,77.76 72.07,77.47 72.27,77.19 72.52,76.89 72.78,76.55 73.03,76.25 73.31,75.92 73.53,75.68 73.73,75.46 73.95,75.21 74.16,74.98 74.38,74.77 74.68,74.45 74.90,74.22 75.11,74.02 75.32,73.80 75.53,73.59 75.75,73.37 75.96,73.16 76.17,72.95 76.39,72.73 76.59,72.53 76.85,72.24 77.21,71.87 77.49,71.58 77.78,71.33" fill="none" stroke="black" stroke-width="0.5"/><polyline points="24.62,70.20 24.98,70.22 24.38,70.26 23.76,70.42 23.24,70.66" fill="none" stroke="black" stroke-width="0.5"/><polyline points="29.37,70.61 29.88,70.61 30.29,70.65 30.65,70.73 31.01,70.83 31.40,70.97 31.81,71.14 32.22,71.33 32.63,71.55 33.01,71.79" fill="none" stroke="black" stroke-width="0.5"/><polyline points="63.28,70.89 62.98,71.24 62.67,71.57 62.34,71.90 62.01,72.21 61.67,72.50 61.33,72.78 60.99,73.03 60.66,73.25 60.33,73.45" fill="none" stroke="black" stroke-width="0.5"/><polyline points="22.26,71.25 21.91,71.45 21.53,71.66 21.14,71.84 20.69,72.02 20.31,72.17 19.84,72.38 19.41,72.64 19.10,72.92 18.85,73.22 18.64,73.57 18.46,73.91 18.33,74.29 18.25,74.58 18.17,74.90 18.10,75.22 18.06,75.45 18.01,75.69 17.96,76.04 17.90,76.35 17.85,76.61 17.81,76.84 17.76,77.07 17.69,77.35 17.60,77.69 17.54,77.97 17.46,78.32 17.40,78.61 17.34,78.88 17.28,79.11 17.19,79.48 17.07,79.88 16.98,80.20 16.90,80.45 16.78,80.79 16.65,81.13 16.53,81.44 16.46,81.87 16.39,82.40 16.14,82.70 15.82,82.95 15.55,83.18 15.26,83.43 14.95,83.69 14.64,83.94 14.24,84.21 14.06,84.34" fill="none" stroke="black" stroke-width="0.5"/><polyline points="80.15,71.30 80.66,71.48 81.10,71.73 81.47,72.04 81.78,72.40 82.06,72.80 82.31,73.22 82.54,73.66 82.77,74.10 83.01,74.54 83.26,74.96" fill="none" stroke="black" stroke-width="0.5"/><polyline points="26.43,71.71 26.06,72.02 25.75,72.34 25.51,72.68 25.37,73.06 25.34,73.49 25.43,73.92 25.65,74.30 25.98,74.58 26.38,74.72 26.81,74.69 27.21,74.55 27.56,74.33 27.87,74.07 28.18,73.79 28.52,73.50" fill="none" stroke="black" stroke-width="0.5"/><polyline points="81.50,72.17 81.19,72.62 80.82,73.06 80.45,73.50 80.13,73.94" fill="none" stroke="black" stroke-width="0.5"/><polyline points="78.05,72.45 77.78,72.72 77.55,72.94 77.34,73.16 77.11,73.39 76.84,73.64 76.57,73.90 76.34,74.15 76.11,74.40 75.86,74.67 75.62,74.92 75.36,75.20 75.03,75.54 74.74,75.84 74.40,76.18 74.04,76.55 73.76,76.83 73.53,77.08 73.31,77.33 73.07,77.59 72.81,77.87 72.53,78.17 72.27,78.46 72.00,78.77 71.73,79.10 71.45,79.44 71.19,79.78" fill="none" stroke="black" stroke-width="0.5"/><polyline points="78.16,73.82 77.91,74.07 77.69,74.28 77.47,74.51 77.24,74.75 77.01,74.99 76.79,75.23 76.57,75.46 76.35,75.68 76.13,75.90 75.92,76.11 75.71,76.32 75.49,76.54 75.27,76.75 75.06,76.97 74.84,77.19 74.63,77.40 74.42,77.61 74.20,77.83 73.93,78.09 73.60,78.42 73.27,78.74 72.99,79.02 72.75,79.26 72.52,79.48 72.30,79.70 72.05,79.95 71.79,80.21 71.54,80.47 71.28,80.72 71.08,81.02 71.36,81.47 71.49,81.85 71.19,82.13 70.85,82.44 70.55,82.71 70.27,82.99" fill="none" stroke="black" stroke-width="0.5"/><polyline points="84.55,74.61 84.87,74.83 85.12,75.14 85.39,75.46 85.60,75.88 85.51,76.39 85.28,76.66 85.04,76.91 84.52,76.91 84.20,77.09 83.97,77.35 83.75,77.57 83.48,77.86 83.24,78.13 83.03,78.34 82.78,78.61 82.48,78.92 82.25,79.21 81.94,79.54 81.59,79.90 81.35,80.17 81.03,80.50 80.80,80.77 80.59,80.99 80.31,81.28 80.01,81.60 79.73,81.91 79.46,82.20 79.24,82.43 79.00,82.69 78.73,82.99 78.45,83.28 78.12,83.65 77.89,83.88 77.66,84.13 77.32,84.49 77.05,84.78 76.80,85.05 76.61,85.26 76.41,85.46 76.13,85.77 75.77,86.14 75.50,86.44 75.23,86.73 74.92,87.07 74.62,87.39 74.28,87.75 74.04,88.02 73.75,88.33 73.49,88.61 73.23,88.90 72.99,89.15 72.78,89.37 72.59,89.58 72.35,89.85 72.14,90.08 71.91,90.33 71.69,90.57 71.47,90.81 71.19,91.11 70.92,91.42 70.62,91.76 70.41,91.98 70.16,92.26 69.90,92.55 69.62,92.86 69.31,93.19 69.03,93.52 68.79,93.78 68.51,94.10 68.32,94.33 68.05,94.63 67.77,94.93 67.54,95.20 67.31,95.48 67.08,95.75 66.85,96.03 66.61,96.31 66.38,96.58 66.12,96.89 65.87,97.18 65.61,97.51 65.36,97.79 65.08,98.09 64.82,98.37" fill="none" stroke="black" stroke-width="0.5"/><polyline points="22.41,75.07 22.69,75.47 22.98,75.83 23.29,76.17 23.62,76.47 24.00,76.70 24.45,76.81 24.85,76.97 25.20,77.24 25.43,77.58 25.45,78.01 25.46,78.38 25.49,78.68 25.54,78.99 25.72,79.37 25.68,79.75 25.33,80.01 24.95,80.17 24.51,80.33 24.04,80.38 23.59,80.26 23.18,80.35 22.78,80.61 22.35,80.80 21.89,80.91 21.43,81.01 20.97,81.14 20.53,81.28 20.08,81.43 19.62,81.56 19.17,81.70 18.75,81.87" fill="none" stroke="black" stroke-width="0.5"/><polyline points="78.42,75.08 78.15,75.38 77.84,75.72 77.57,76.01 77.32,76.27 77.09,76.51 76.87,76.74 76.65,76.96 76.43,77.18 76.20,77.41 75.96,77.64 75.72,77.87 75.49,78.09 75.28,78.30 75.04,78.54 74.69,78.89 74.35,79.20 74.04,79.50 73.77,79.76 73.45,80.05 73.14,80.35 72.82,80.64 72.50,80.93 72.19,81.21 71.89,81.48 71.60,81.75" fill="none" stroke="black" stroke-width="0.5"/><polyline points="58.32,75.88 57.75,76.12 57.23,76.33 56.72,76.54 56.20,76.75 55.66,76.98" fill="none" stroke="black" stroke-width="0.5"/><polyline points="83.22,76.07 83.03,76.40 82.74,76.74 82.49,77.04 82.26,77.29 82.07,77.51 81.80,77.81 81.57,78.06 81.28,78.38 81.02,78.68 80.80,78.91 80.53,79.21 80.17,79.58 79.88,79.88 79.60,80.17 79.30,80.49 78.98,80.82 78.73,81.10 78.36,81.46 78.10,81.74 77.75,82.10 77.42,82.44 77.14,82.77 76.78,83.12 76.57,83.34 76.31,83.62 76.04,83.91 75.72,84.25 75.48,84.51 75.13,84.88 74.83,85.21 74.59,85.46 74.30,85.78 73.99,86.11 73.73,86.39 73.49,86.66 73.18,86.99 72.94,87.27 72.58,87.64 72.31,87.93 72.09,88.18 71.77,88.52 71.54,88.77 71.26,89.07 70.99,89.38 70.70,89.69 70.49,89.92 70.23,90.21 69.97,90.50 69.69,90.80 69.43,91.10 69.15,91.40 68.87,91.70 68.63,91.97 68.43,92.20 68.19,92.47 67.92,92.76 67.64,93.08 67.39,93.37 67.13,93.65 66.88,93.93 66.60,94.26 66.33,94.57 66.05,94.87 65.78,95.18 65.55,95.45 65.29,95.74 64.99,96.09 64.76,96.38" fill="none" stroke="black" stroke-width="0.5"/><polyline points="85.79,76.43 86.08,76.78 86.37,77.13 86.66,77.47 86.83,77.86 86.93,78.31 87.22,78.63 87.49,78.99 87.79,79.38 88.09,79.74 88.35,80.06 88.65,80.40 88.79,80.81 89.02,81.18 89.31,81.51 89.47,81.93 89.71,82.26 90.00,82.59 90.19,82.95 90.48,83.31 90.70,83.63 90.36,83.88 89.99,84.14 89.75,84.43 89.47,84.78 89.24,85.10 89.03,85.38 88.79,85.69 88.57,85.99 88.32,86.31 88.04,86.66 87.80,86.99 87.58,87.26 87.30,87.60 87.07,87.90 86.87,88.14 86.65,88.42 86.42,88.70 86.15,89.02 85.88,89.36 85.60,89.70 85.34,90.01 85.08,90.32 84.82,90.63 84.55,90.96" fill="none" stroke="black" stroke-width="0.5"/><polyline points="20.94,76.64 21.39,76.97 21.73,77.21 22.08,77.40 22.54,77.57 22.96,77.63 23.17,77.70 23.18,78.21 22.89,78.55 22.45,78.49 22.06,78.39 21.66,78.22 21.27,77.98 20.88,77.70 20.50,77.38 20.15,77.05 19.82,76.72" fill="none" stroke="black" stroke-width="0.5"/><polyline points="63.31,77.25 63.03,77.51 62.72,77.78 62.43,78.04 62.07,78.34 61.73,78.60 61.35,78.89 61.07,79.12 60.81,79.31 60.56,79.52 60.26,79.75 59.96,80.00 59.63,80.28 59.31,80.57 59.09,80.77 58.84,80.99 58.56,81.25 58.31,81.46 58.04,81.71 57.80,81.94 57.51,82.20 57.29,82.42 56.96,82.74 56.58,83.10 56.31,83.35 56.10,83.56 55.85,83.79 55.56,84.07 55.35,84.27 55.14,84.49 54.93,84.70 54.57,85.04 54.28,85.32 54.07,85.54 53.86,85.75 53.65,85.96 53.43,86.17 53.22,86.38 53.01,86.59 52.80,86.81 52.59,87.01 52.35,87.24 52.11,87.47 51.89,87.68 51.69,87.89 51.41,88.18 51.04,88.56 50.80,88.81 50.60,89.03 50.32,89.32 50.08,89.59 49.83,89.87 49.57,90.18 49.29,90.51" fill="none" stroke="black" stroke-width="0.5"/><polyline points="24.58,77.32 24.37,77.61 24.01,78.00 23.63,78.44 23.34,78.90 23.24,79.38 23.44,79.91" fill="none" stroke="black" stroke-width="0.5"/><polyline points="54.45,77.39 54.14,77.91 53.90,78.34 53.65,78.67 53.32,78.91" fill="none" stroke="black" stroke-width="0.5"/><polyline points="52.86,77.55 52.37,77.74 51.89,77.91 51.44,78.10 50.99,78.34 50.56,78.67" fill="none" stroke="black" stroke-width="0.5"/><polyline points="58.45,77.65 58.17,77.89 57.87,78.12 57.60,78.32 57.29,78.54 56.97,78.77 56.71,79.05 56.53,79.51 56.32,79.82 56.12,80.01 55.88,80.25 55.55,80.57 55.28,80.83 55.08,81.03 54.87,81.24 54.60,81.50 54.25,81.85 54.03,82.08 53.82,82.29 53.60,82.51 53.36,82.75 53.11,82.99 52.75,83.34 52.51,83.57 52.30,83.78 52.09,84.00 51.87,84.21 51.67,84.44 51.38,84.72 51.01,85.09 50.73,85.38 50.52,85.62 50.31,85.83 50.08,86.06 49.76,86.40 49.53,86.64 49.20,87.00 48.95,87.26 48.71,87.51 48.47,87.78 48.23,88.04 47.99,88.32 47.75,88.60 47.48,88.91 47.22,89.21 46.97,89.49 46.70,89.82 46.45,90.12 46.12,90.47" fill="none" stroke="black" stroke-width="0.5"/><polyline points="85.03,77.73 84.79,78.02 84.55,78.28 84.25,78.62 83.99,78.93 83.70,79.27 83.44,79.56 83.17,79.88 82.93,80.15 82.69,80.42 82.48,80.67 82.23,80.95 82.04,81.16 81.80,81.43 81.57,81.71 81.36,81.92 81.11,82.20 80.81,82.52 80.47,82.87 80.16,83.21 79.87,83.51 79.54,83.88 79.35,84.11 79.14,84.32 78.94,84.55 78.72,84.76 78.52,84.97 78.32,85.19 77.98,85.55 77.79,85.77 77.58,85.98 77.34,86.24 77.15,86.46 76.93,86.68 76.67,86.96 76.42,87.24 76.19,87.49 75.88,87.82 75.55,88.18 75.24,88.50 74.94,88.83 74.65,89.14 74.44,89.38 74.20,89.64 73.97,89.89 73.72,90.16 73.51,90.39 73.27,90.66 73.06,90.88 72.85,91.14 72.64,91.35 72.44,91.58 72.19,91.84 71.96,92.11 71.74,92.36 71.48,92.64 71.26,92.88 71.02,93.16 70.69,93.52 70.44,93.80 70.20,94.08 69.91,94.40 69.73,94.62 69.46,94.91 69.26,95.15 69.01,95.42 68.77,95.71 68.47,96.05 68.18,96.40 67.92,96.70 67.70,96.98 67.46,97.25 67.21,97.54 66.96,97.86 66.72,98.12 66.45,98.44" fill="none" stroke="black" stroke-width="0.5"/><polyline points="29.18,78.16 29.48,78.46 29.81,78.77 30.16,79.07 30.52,79.36 30.88,79.64 31.24,79.90 31.58,80.15 31.91,80.38 32.26,80.62 32.63,80.88 33.03,81.15 33.42,81.42 33.79,81.69 34.06,82.02 34.09,82.50 34.17,82.59 34.52,82.68 34.89,82.80 35.23,82.88 35.58,82.98 35.94,83.05 36.37,82.86 36.78,82.77 37.17,82.90 37.48,82.95 37.80,83.05 38.26,83.12 38.78,83.00 39.18,82.74" fill="none" stroke="black" stroke-width="0.5"/><polyline points="86.17,78.17 85.93,78.43 85.68,78.69 85.47,78.95 85.25,79.20 85.02,79.50 84.76,79.77 84.55,80.03 84.34,80.27 84.06,80.61 83.76,80.95 83.43,81.32 83.21,81.55 83.01,81.80 82.80,82.03 82.53,82.33 82.18,82.69 81.97,82.94 81.71,83.22 81.48,83.49 81.26,83.73 81.05,83.94 80.85,84.16 80.64,84.37 80.37,84.67 80.14,84.93 79.89,85.18 79.61,85.50 79.40,85.72 79.18,85.96 78.97,86.17 78.79,86.41 78.57,86.62 78.31,86.91 78.05,87.18 77.81,87.45 77.55,87.75 77.34,87.95 77.16,88.16 76.92,88.41 76.69,88.68 76.42,88.97 76.15,89.27 75.84,89.62 75.63,89.84 75.41,90.09 75.13,90.39 74.95,90.60 74.75,90.83 74.46,91.14 74.26,91.37 74.02,91.65 73.72,91.99 73.45,92.28 73.23,92.55 73.02,92.76 72.74,93.08 72.52,93.33 72.27,93.63 72.05,93.89 71.79,94.16 71.59,94.40 71.36,94.68 71.09,94.99 70.82,95.29 70.59,95.54 70.42,95.77 70.15,96.08 69.90,96.37 69.64,96.66 69.39,96.98 69.15,97.25 68.90,97.55 68.63,97.86 68.37,98.16" fill="none" stroke="black" stroke-width="0.5"/><polyline points="27.98,78.40 28.25,78.77 28.52,79.13 28.80,79.48 29.10,79.82 29.44,80.16 29.83,80.48 30.23,80.78 30.61,81.07 30.90,81.40 30.98,81.89 30.82,82.41 30.45,82.74 30.08,82.60 29.74,82.18 29.39,81.89 29.05,81.59 28.70,81.24 28.33,80.89 27.95,80.57 27.62,80.26 27.38,79.92 27.26,79.44 27.06,79.02 26.84,78.63" fill="none" stroke="black" stroke-width="0.5"/><polyline points="59.41,78.65 59.13,78.90 58.85,79.15 58.59,79.41 58.33,79.65 58.10,79.87 57.76,80.20 57.51,80.44 57.30,80.65 57.03,80.92 56.82,81.12 56.49,81.44 56.18,81.74 55.84,82.06 55.55,82.35 55.35,82.55 55.11,82.77 54.87,83.00 54.66,83.21 54.41,83.45 54.16,83.68 53.96,83.89 53.74,84.10 53.46,84.38 53.08,84.74 52.76,85.07 52.52,85.30 52.19,85.64 51.82,86.01 51.52,86.32 51.32,86.52 51.08,86.77 50.86,87.01 50.62,87.26 50.33,87.57 50.04,87.89 49.79,88.16 49.54,88.45 49.27,88.74 49.02,89.02 48.78,89.30 48.53,89.58 48.30,89.85 48.04,90.13 47.79,90.44" fill="none" stroke="black" stroke-width="0.5"/><polyline points="63.05,78.83 62.77,79.10 62.44,79.40 62.16,79.64 61.84,79.92 61.52,80.19 61.21,80.45 60.87,80.73 60.59,80.96 60.31,81.19 60.04,81.40 59.86,81.55 59.57,81.78 59.27,82.04 58.98,82.28 58.75,82.48 58.43,82.74 58.22,82.92 57.95,83.16 57.70,83.38 57.46,83.60 57.24,83.81 56.97,84.06 56.63,84.38 56.31,84.69 55.95,85.04 55.71,85.27 55.50,85.48 55.29,85.69 55.07,85.91 54.83,86.15 54.56,86.43 54.21,86.77 54.00,86.98 53.78,87.22 53.50,87.52 53.13,87.89 52.88,88.16 52.63,88.43 52.40,88.67 52.12,88.97 51.89,89.25" fill="none" stroke="black" stroke-width="0.5"/><polyline points="86.68,79.29 86.43,79.58 86.20,79.85 85.97,80.13 85.72,80.41 85.47,80.70 85.21,81.01 84.93,81.33 84.70,81.60 84.48,81.87 84.28,82.08 84.00,82.41 83.75,82.69 83.52,82.97 83.27,83.23 82.96,83.58 82.75,83.80 82.46,84.12 82.12,84.49 81.85,84.78 81.62,85.02 81.40,85.27 81.12,85.56 80.88,85.82 80.61,86.13 80.42,86.36 80.19,86.61 79.90,86.94 79.66,87.19 79.44,87.43 79.27,87.66 79.06,87.87 78.79,88.19 78.54,88.46 78.29,88.75 78.05,89.01 77.81,89.28 77.56,89.56 77.33,89.82 77.09,90.10 76.82,90.39 76.56,90.68 76.26,91.01 75.96,91.36 75.62,91.73 75.39,92.01 75.18,92.26 74.88,92.58 74.60,92.90 74.40,93.14 74.14,93.45 73.86,93.75 73.60,94.06 73.40,94.30 73.15,94.58 72.93,94.85 72.68,95.15 72.47,95.39 72.22,95.67 71.99,95.96 71.78,96.22 71.56,96.46 71.36,96.72 71.11,97.00 70.88,97.29 70.68,97.54 70.41,97.83" fill="none" stroke="black" stroke-width="0.5"/><polyline points="33.23,79.71 33.63,79.97 34.03,80.23 34.42,80.49 34.81,80.76 35.20,81.03 35.57,81.31 35.94,81.60 36.29,81.90 36.63,82.20" fill="none" stroke="black" stroke-width="0.5"/><polyline points="87.45,80.05 87.24,80.30 86.97,80.61 86.70,80.95 86.44,81.26 86.17,81.58 85.87,81.94 85.66,82.21 85.44,82.47 85.16,82.81 84.89,83.12 84.67,83.39 84.42,83.68 84.18,83.97 83.99,84.18 83.79,84.44 83.60,84.66 83.40,84.87 83.20,85.11 82.98,85.34 82.76,85.59 82.47,85.90 82.24,86.18 81.95,86.49 81.69,86.77 81.41,87.10 81.18,87.35 80.98,87.58 80.74,87.84 80.49,88.11 80.26,88.38 80.06,88.60 79.84,88.83 79.60,89.11 79.33,89.41 79.02,89.77 78.74,90.09 78.52,90.33 78.29,90.58 78.08,90.82 77.84,91.10 77.58,91.40 77.36,91.66 77.06,92.00 76.80,92.31 76.51,92.63 76.31,92.88 76.06,93.16 75.78,93.50 75.48,93.86 75.25,94.12 75.04,94.39 74.80,94.66 74.53,94.97 74.29,95.26 74.02,95.57 73.78,95.84 73.52,96.17" fill="none" stroke="black" stroke-width="0.5"/><polyline points="50.31,80.57 50.82,81.12 51.50,81.19 52.09,80.70" fill="none" stroke="black" stroke-width="0.5"/><polyline points="50.04,80.67 49.66,80.91 49.27,81.17 48.88,81.43 48.48,81.69 48.08,81.96 47.68,82.23 47.28,82.50 46.89,82.77 46.49,83.03 46.11,83.30 45.73,83.55 45.36,83.80 45.00,84.04" fill="none" stroke="black" stroke-width="0.5"/><polyline points="62.44,80.77 62.09,81.02 61.78,81.30 61.48,81.55 61.23,81.76 61.01,81.94 60.71,82.19 60.41,82.44 60.05,82.72 59.70,83.01 59.38,83.28 59.05,83.54 58.73,83.80 58.45,84.04 58.20,84.26 57.90,84.52 57.65,84.76 57.38,85.01 57.06,85.31 56.75,85.60 56.51,85.82 56.30,86.04 56.09,86.24 55.81,86.52 55.50,86.83 55.28,87.05 55.04,87.30 54.77,87.58 54.51,87.85 54.26,88.10 54.00,88.36 53.69,88.66" fill="none" stroke="black" stroke-width="0.5"/><polyline points="88.32,80.87 88.07,81.18 87.82,81.46 87.57,81.75 87.32,82.02 87.01,82.40 86.77,82.68 86.51,83.00 86.26,83.30 86.02,83.59 85.83,83.82 85.60,84.08 85.39,84.35 85.14,84.63 84.93,84.89 84.73,85.13 84.50,85.40 84.32,85.63 84.09,85.88 83.88,86.14 83.58,86.45 83.34,86.74 83.08,87.02 82.85,87.29 82.58,87.60 82.32,87.89 82.07,88.18 81.86,88.44 81.53,88.81 81.29,89.09 81.03,89.38 80.79,89.66 80.53,89.97 80.28,90.26 80.05,90.53 79.82,90.80 79.56,91.09 79.34,91.35 79.07,91.67 78.83,91.95 78.61,92.20 78.38,92.47 78.20,92.67 77.92,93.01 77.63,93.35 77.35,93.66 77.11,93.95 76.87,94.23 76.63,94.50 76.39,94.77 76.14,95.06 75.89,95.34 75.63,95.64 75.39,95.90 75.16,96.16" fill="none" stroke="black" stroke-width="0.5"/><polyline points="88.94,81.97 88.70,82.27 88.44,82.57 88.20,82.84 87.97,83.13 87.72,83.43 87.45,83.75 87.17,84.08 86.88,84.43 86.59,84.77 86.33,85.09 86.12,85.34 85.92,85.57 85.69,85.86 85.41,86.18 85.17,86.47 84.99,86.69 84.78,86.94 84.53,87.25 84.24,87.61 83.98,87.91 83.78,88.16 83.50,88.49 83.27,88.78 83.04,89.06 82.79,89.37 82.52,89.70 82.26,90.03 82.00,90.36 81.73,90.68 81.47,91.00 81.22,91.30 80.99,91.60" fill="none" stroke="black" stroke-width="0.5"/><polyline points="31.57,82.17 31.99,82.32 32.44,82.49 32.94,82.66 33.49,82.81" fill="none" stroke="black" stroke-width="0.5"/><polyline points="26.84,82.53 26.44,82.71 26.11,82.87 25.74,83.07 25.34,83.36 24.95,83.71 24.63,84.09 24.45,84.47" fill="none" stroke="black" stroke-width="0.5"/><polyline points="89.64,82.90 89.38,83.19 89.12,83.50 88.87,83.81 88.64,84.10 88.42,84.39 88.18,84.69 87.92,85.01 87.67,85.33 87.44,85.61 87.22,85.89 86.99,86.18 86.74,86.49 86.47,86.82 86.23,87.12 86.01,87.39 85.77,87.69 85.53,87.98 85.30,88.27 85.03,88.60 84.77,88.93 84.53,89.23 84.29,89.54 84.04,89.84 83.80,90.15 83.55,90.46 83.31,90.78 83.04,91.13" fill="none" stroke="black" stroke-width="0.5"/><polyline points="50.87,83.57 50.63,83.82 50.33,84.10 50.10,84.33 49.83,84.59 49.57,84.86 49.32,85.14 49.00,85.44 48.61,85.83 48.23,86.21 47.95,86.50 47.71,86.74 47.47,86.99 47.20,87.28 46.93,87.59 46.70,87.85 46.45,88.12 46.19,88.42 45.94,88.74 45.69,89.06 45.44,89.39 45.20,89.70 44.96,90.00 44.73,90.26" fill="none" stroke="black" stroke-width="0.5"/><polyline points="30.11,83.92 30.15,84.26 30.24,84.61 30.38,85.02 30.54,85.48 30.70,85.90 30.82,86.24 30.93,86.55 31.04,86.87 31.16,87.18 31.30,87.58 31.44,87.99 31.57,88.35 31.67,88.65 31.77,88.94 31.88,89.29 32.02,89.71 32.14,90.12 32.21,90.38 32.30,90.73 32.36,91.03 32.40,91.28 32.44,91.58 32.55,91.96 32.59,92.38 32.43,92.81 32.40,93.14 32.35,93.46 32.32,93.74 32.27,94.01 32.06,94.42 32.18,94.79 32.19,95.07 32.21,95.30 32.17,95.58 32.16,95.86 32.16,96.17 32.19,96.43 32.20,96.90 32.21,97.21 32.21,97.55 32.12,97.91" fill="none" stroke="black" stroke-width="0.5"/><polyline points="38.42,84.06 38.29,84.39 38.13,84.69 37.95,85.01 37.78,85.31 37.57,85.65 37.36,85.99 37.17,86.28 36.96,86.62 36.71,87.09 36.52,87.45 36.32,87.91 36.19,88.21 36.06,88.56 35.90,88.99 35.76,89.44 35.66,89.75 35.58,90.03 35.47,90.45 35.39,90.75 35.34,91.02 35.26,91.39 35.17,91.81 35.10,92.19 35.03,92.58 34.96,92.93 34.97,93.39 34.80,93.77 34.73,94.10 34.69,94.39 34.64,94.73 34.61,95.06 34.57,95.28 34.55,95.52 34.51,95.83 34.48,96.18 34.43,96.54 34.40,96.80 34.36,97.09 34.31,97.34 34.27,97.67 34.19,98.00" fill="none" stroke="black" stroke-width="0.5"/><polyline points="28.47,84.14 27.92,84.25 27.41,84.43 26.94,84.66 26.51,84.94 26.15,85.24 25.85,85.54" fill="none" stroke="black" stroke-width="0.5"/><polyline points="59.53,84.58 59.26,84.84 58.97,85.13 58.68,85.42 58.41,85.70 58.14,85.96 57.87,86.21 57.59,86.47 57.29,86.73 56.98,87.01 56.67,87.28 56.35,87.57 56.03,87.84 55.71,88.11 55.41,88.38 55.12,88.63" fill="none" stroke="black" stroke-width="0.5"/><polyline points="90.90,84.83 91.11,85.27 91.35,85.76 91.61,86.27 91.89,86.75" fill="none" stroke="black" stroke-width="0.5"/><polyline points="13.09,84.83 12.66,85.01 12.22,85.20 11.82,85.39 11.48,85.59 11.13,85.83 10.76,86.12 10.43,86.42 10.20,86.72 10.00,87.01 9.81,87.33 9.66,87.66 9.54,88.01 9.44,88.34 9.35,88.66 9.29,88.90 9.24,89.12 9.17,89.40 9.08,89.74 8.99,90.09 8.88,90.48 8.79,90.81 8.69,91.23 8.58,91.67 8.48,92.04 8.39,92.39 8.31,92.73 8.25,93.01 8.18,93.31 8.10,93.65 8.02,94.02 7.93,94.41 7.77,94.77 7.43,95.02" fill="none" stroke="black" stroke-width="0.5"/><polyline points="23.51,85.17 23.63,85.66 23.75,86.08 23.89,86.49 24.05,86.92 24.26,87.41" fill="none" stroke="black" stroke-width="0.5"/><polyline points="22.60,86.07 22.75,86.40 22.90,86.79 22.88,87.29 22.96,87.76 23.32,88.11 23.69,88.49 24.07,88.74 24.34,89.04 24.54,89.38 24.75,89.74 24.96,90.10 25.16,90.42 25.39,90.77 25.60,91.10 25.81,91.42 26.06,91.79 26.29,92.14 26.52,92.47 26.76,92.83 26.98,93.18 27.22,93.57 27.46,93.98 27.63,94.30 27.76,94.64 27.85,94.98 27.88,95.32 27.88,95.85 27.86,96.11 27.99,96.48 28.02,96.92 27.79,97.33 27.66,97.75 27.65,98.02 27.62,98.28 27.61,98.67" fill="none" stroke="black" stroke-width="0.5"/><polyline points="58.88,86.88 58.48,87.23 58.13,87.54 57.81,87.83 57.50,88.10 57.18,88.37 56.81,88.66 56.39,88.97" fill="none" stroke="black" stroke-width="0.5"/><polyline points="16.60,87.31 16.02,87.33 15.51,87.34 15.06,87.35 14.65,87.36 14.24,87.38 13.82,87.39 13.35,87.41" fill="none" stroke="black" stroke-width="0.5"/><polyline points="16.87,87.29 16.97,87.33 17.32,87.30 17.57,87.32 17.70,87.33 18.07,87.30 18.52,87.31 18.99,87.33 19.53,87.33 19.83,87.31 20.34,87.32 20.75,87.34 20.34,87.34 21.02,87.35 21.41,87.39 21.85,87.45 22.23,87.55" fill="none" stroke="black" stroke-width="0.5"/><polyline points="58.12,89.05 57.74,89.39 57.31,89.74 56.87,90.07 56.43,90.38 56.04,90.66" fill="none" stroke="black" stroke-width="0.5"/><polyline points="43.40,89.14 43.24,89.54 42.99,89.97 42.67,90.40 42.29,90.80 41.89,91.15 41.49,91.41 41.12,91.63 40.81,91.87 40.52,92.13 40.19,92.42" fill="none" stroke="black" stroke-width="0.5"/><polyline points="64.80,89.26 64.34,89.62 64.05,89.85 63.74,90.09 63.39,90.36 63.07,90.61 62.78,90.84 62.50,91.05 62.20,91.28 61.85,91.55 61.47,91.84 61.08,92.14 60.72,92.41 60.40,92.66 60.11,92.87 59.86,93.06 59.61,93.25 59.29,93.49 58.92,93.76 58.55,94.04 58.20,94.30 57.84,94.57 57.44,94.87" fill="none" stroke="black" stroke-width="0.5"/><polyline points="21.96,90.07 21.34,90.34 20.80,90.63 20.34,90.96 19.95,91.33 19.66,91.75" fill="none" stroke="black" stroke-width="0.5"/><polyline points="43.42,90.43 43.64,90.75 43.94,91.07 44.27,91.40 44.59,91.78 44.89,92.18 45.16,92.58 45.31,92.99 45.23,93.45 45.42,93.84 45.69,94.20 45.95,94.57 46.23,94.93 46.44,95.33 46.54,95.76 46.85,96.09 47.02,96.47 47.13,96.88 47.43,97.22 47.69,97.57 47.82,98.01 48.09,98.36 48.43,98.63 48.65,99.02 48.95,99.38 49.36,99.60 49.75,99.63 50.09,99.50 50.52,99.37" fill="none" stroke="black" stroke-width="0.5"/><polyline points="23.24,91.30 22.67,91.49 22.14,91.78 21.62,92.13" fill="none" stroke="black" stroke-width="0.5"/><polyline points="56.82,91.37 56.48,91.62 56.14,91.92 55.76,92.14 55.82,92.41 56.23,92.76 56.25,93.07 55.90,93.33 55.49,93.59 55.38,94.00 55.64,94.43 56.00,94.36 56.29,94.09" fill="none" stroke="black" stroke-width="0.5"/><polyline points="48.99,92.05 48.48,92.22 48.47,92.62 48.70,93.08 48.53,93.26 48.68,93.11 49.16,92.89 49.46,92.71 49.85,92.47" fill="none" stroke="black" stroke-width="0.5"/><polyline points="10.85,92.28 11.34,92.46 11.82,92.63 12.29,92.79 12.74,92.94 13.18,93.08 13.61,93.22 14.03,93.34 14.44,93.46 14.85,93.57 15.26,93.68 15.69,93.79" fill="none" stroke="black" stroke-width="0.5"/><polyline points="30.98,92.52 30.38,92.77 30.00,92.93 29.58,93.17" fill="none" stroke="black" stroke-width="0.5"/><polyline points="42.13,92.63 42.23,93.12 42.19,93.44 42.15,93.71 42.11,94.02 42.07,94.34 42.04,94.64 42.00,94.94 41.95,95.26 41.89,95.60 41.88,96.01 42.03,96.47 42.14,96.89 42.13,97.30 42.08,97.67 42.06,97.93 42.04,98.22 42.02,98.57 42.05,98.89" fill="none" stroke="black" stroke-width="0.5"/><polyline points="38.52,92.69 38.17,92.99 37.76,93.27 37.37,93.56 37.08,93.91 36.88,94.31 36.76,94.71 36.69,95.09 36.64,95.46 36.59,95.83 36.54,96.19 36.49,96.56 36.44,96.93 36.39,97.30 36.35,97.69 36.32,98.09" fill="none" stroke="black" stroke-width="0.5"/><polyline points="39.38,93.49 39.17,93.89 38.99,94.26 38.83,94.62 38.69,94.97 38.56,95.32 38.44,95.66 38.32,96.01 38.19,96.37 38.06,96.74 37.94,97.11 37.81,97.49 37.68,97.88" fill="none" stroke="black" stroke-width="0.5"/><polyline points="50.73,93.53 50.26,93.82 49.80,94.07 49.34,94.29 48.90,94.50 48.47,94.71 48.05,94.93 47.66,95.18" fill="none" stroke="black" stroke-width="0.5"/><polyline points="40.14,93.81 39.95,94.22 39.80,94.60 39.68,94.96 39.57,95.31 39.47,95.67 39.36,96.04 39.23,96.43 39.10,96.85 38.97,97.31 38.84,97.76 38.76,98.09" fill="none" stroke="black" stroke-width="0.5"/><polyline points="17.03,94.12 17.47,94.18 17.83,94.26 18.22,94.28 18.63,94.27 19.01,94.38 19.34,94.65 19.68,94.97 20.02,95.33 20.38,95.72 20.76,96.11 21.14,96.49 21.52,96.86 21.89,97.22 22.23,97.56 22.54,97.88 22.82,98.20 23.12,98.52 23.44,98.84" fill="none" stroke="black" stroke-width="0.5"/><polyline points="40.73,94.20 40.67,94.46 40.60,94.77 40.52,95.11 40.44,95.48 40.35,95.84 40.27,96.19 40.20,96.50 40.13,96.79 40.06,97.09 39.98,97.44 39.88,97.85 39.78,98.25 39.71,98.56" fill="none" stroke="black" stroke-width="0.5"/><polyline points="31.36,94.36 30.80,94.52 30.32,94.75 29.91,95.03 29.55,95.35 29.26,95.69 29.00,96.03 28.79,96.37 28.63,96.74 28.61,97.21 28.65,97.65 28.71,98.01 28.80,98.39 28.94,98.79" fill="none" stroke="black" stroke-width="0.5"/><polyline points="51.12,94.85 50.55,95.13 50.02,95.37 49.53,95.60 49.06,95.84 48.59,96.09 48.11,96.38" fill="none" stroke="black" stroke-width="0.5"/><polyline points="26.13,95.26 25.83,95.53 25.49,95.78 25.12,96.05 24.76,96.36 24.44,96.75" fill="none" stroke="black" stroke-width="0.5"/><polyline points="51.23,96.21 50.62,96.49 50.05,96.75 49.52,97.00 49.04,97.25 48.61,97.50" fill="none" stroke="black" stroke-width="0.5"/><polyline points="41.51,96.23 41.26,96.74 41.12,97.21 41.04,97.63 40.99,98.02 40.92,98.40 40.79,98.77" fill="none" stroke="black" stroke-width="0.5"/><polyline points="54.56,96.95 54.24,97.18 53.86,97.45 53.44,97.74 53.03,98.03 52.64,98.30 52.33,98.52" fill="none" stroke="black" stroke-width="0.5"/></svg>