<svg width="100.0mm" height="100.0mm" viewBox="0 0 100.0 100.0" xmlns="http://www.w3.org/2000/svg"><polyline points="16.62,30.88 16.11,30.86 15.61,30.92 15.15,31.04 14.71,31.23 14.33,31.48 14.03,31.81 13.81,32.20 13.60,32.58 13.45,32.97 13.40,33.36 13.37,33.76 13.36,34.14 13.38,34.51 13.37,34.85 13.37,35.33 13.36,35.66 13.36,36.08 13.35,36.38 13.36,36.66 13.36,37.00 13.35,37.23 13.35,37.57 13.36,37.93 13.36,38.38 13.34,38.60 13.37,38.83 13.28,39.19 13.07,39.61 12.86,40.01" fill="none" stroke="black" stroke-width="0.5"/><polyline points="17.32,30.85 17.72,30.86 18.36,30.87 18.70,30.89 17.92,30.90" fill="none" stroke="black" stroke-width="0.5"/><polyline points="33.46,30.85 32.97,30.87 32.47,30.87 31.98,30.87 31.51,30.87 31.02,30.87 30.86,30.90 31.42,30.90 31.92,30.90 32.43,30.90 32.95,30.90 33.45,30.89 33.68,30.85 34.16,30.87 34.00,30.90 34.68,30.87 35.19,30.87 35.31,30.91 35.61,30.93 35.91,30.98 36.39,31.15 36.79,31.38 37.14,31.67 37.39,32.06 37.62,32.47 37.81,32.87 37.87,33.23 37.89,33.47 37.92,33.79 37.91,34.08 37.92,34.42 37.90,34.77 37.92,35.02 37.90,35.39 37.92,35.65 37.92,35.85 37.91,36.08 37.92,36.33 37.92,36.55 37.91,36.78 37.92,37.16 37.91,37.44 37.92,37.71 37.92,37.90 37.92,38.21 37.92,38.44 37.91,38.83 37.99,39.18 38.20,39.59 38.39,40.00" fill="none" stroke="black" stroke-width="0.5"/><polyline points="18.93,30.87 19.46,30.87 19.98,30.87 19.91,30.90 20.34,30.87 20.85,30.87 20.94,30.87 21.47,30.87 21.57,30.90 22.12,30.87 22.50,30.88 23.02,30.88 22.65,30.89 23.12,30.87 23.69,30.87 23.93,30.90 23.58,30.89 24.22,30.87 24.67,30.87 25.12,30.87 25.64,30.87 26.18,30.87 26.69,30.87 27.22,30.87 27.43,30.87 27.60,30.90 27.99,30.87 28.15,30.88 28.65,30.88 29.18,30.88 29.63,30.88 30.04,30.88 30.45,30.87 30.39,30.90" fill="none" stroke="black" stroke-width="0.5"/><polyline points="62.92,33.73 63.28,34.12 63.75,34.10 64.27,34.02 64.74,34.04 65.13,34.21 65.42,34.54 65.60,34.89 65.64,35.15 65.61,35.39 65.53,35.67 65.29,35.97 64.87,36.21 64.35,36.32 63.80,36.28" fill="none" stroke="black" stroke-width="0.5"/><polyline points="68.72,33.75 69.07,34.06 69.20,34.29 68.92,34.72 68.84,35.11 69.05,35.52 69.06,36.04 69.07,36.61 69.09,37.19 69.01,37.73 68.74,38.18" fill="none" stroke="black" stroke-width="0.5"/><polyline points="56.84,33.78 57.21,34.15 57.62,34.09 58.15,34.02 58.43,34.05 57.90,34.06 57.40,34.20 57.15,34.52 57.15,34.78 57.15,35.00 57.15,35.20 57.15,35.42 57.15,35.64 57.15,35.86 57.15,36.07 57.15,36.28 57.15,36.50 57.15,36.72 57.15,36.93 57.14,37.14 57.16,37.40 57.40,37.74 57.82,37.83 58.34,37.85 58.83,37.80 59.25,37.66 59.61,37.42 59.90,37.08 60.10,36.68 60.17,36.41 60.19,36.21 60.19,35.83 60.18,35.58 60.12,35.28 59.98,34.93 59.75,34.62 59.39,34.33 58.99,34.13 58.56,34.06" fill="none" stroke="black" stroke-width="0.5"/><polyline points="54.66,34.01 55.05,34.28 55.26,34.64 55.29,34.95 55.14,35.27 54.87,35.56 54.72,35.80 54.92,36.08 55.22,36.38 55.40,36.69 55.43,37.04 55.31,37.38 55.04,37.67 54.66,37.86 54.21,37.93 53.74,37.89 53.38,37.76" fill="none" stroke="black" stroke-width="0.5"/><polyline points="63.30,34.31 63.25,34.62 63.24,34.88 63.25,35.10 63.25,35.32 63.24,35.57 63.27,35.84 63.40,36.28 63.28,36.74 63.24,37.01 63.26,37.24 63.24,37.46 63.25,37.71 63.47,38.00 63.31,37.94 62.85,38.20" fill="none" stroke="black" stroke-width="0.5"/><polyline points="68.17,34.99 67.82,35.35 67.34,35.52 66.88,35.36 66.76,35.22 66.97,35.55 66.96,36.05 66.92,36.59 66.95,37.16 66.90,37.69 66.62,38.15" fill="none" stroke="black" stroke-width="0.5"/><polyline points="75.37,35.04 74.95,35.30 75.28,35.47 75.75,35.29 76.14,35.20 76.54,35.24 76.50,35.26 76.37,35.79 76.36,36.34 76.37,36.89 76.38,37.44 76.25,37.94 75.84,38.01 75.39,37.80 74.92,37.92 74.52,37.73 74.32,37.30 74.32,36.75 74.35,36.20 74.27,35.75" fill="none" stroke="black" stroke-width="0.5"/><polyline points="77.61,35.17 77.96,35.45 77.98,35.87 77.89,36.42 77.90,37.03 77.89,37.63 77.63,38.10" fill="none" stroke="black" stroke-width="0.5"/><polyline points="83.75,35.09 83.35,35.30 82.94,35.49 82.54,35.27 82.26,35.22 81.99,35.26 81.51,35.55 81.31,35.99 81.30,36.36 81.47,36.81 81.75,37.17 81.49,37.55 81.65,37.88 82.09,38.05 82.61,38.11 82.97,38.19 83.35,38.39 83.58,38.76 83.49,39.09 83.22,39.33 82.82,39.50 82.29,39.54 81.84,39.48 81.50,39.30 81.22,38.96 81.24,38.64 81.42,38.39 81.64,38.17" fill="none" stroke="black" stroke-width="0.5"/><polyline points="70.39,35.10 70.65,35.54 70.67,35.89 70.62,36.18 70.60,36.42 70.61,36.64 70.62,36.86 70.63,37.10 70.61,37.34 70.60,37.56 70.66,37.82 70.94,38.15" fill="none" stroke="black" stroke-width="0.5"/><polyline points="71.64,35.30 71.66,35.23 72.13,35.41 72.51,35.72 72.64,36.11 72.67,36.57 72.67,37.11 72.64,37.71 72.29,38.15" fill="none" stroke="black" stroke-width="0.5"/><polyline points="78.97,35.27 78.93,35.26 79.38,35.39 79.77,35.66 79.92,36.03 79.97,36.52 79.99,37.10 79.92,37.67 79.71,38.13" fill="none" stroke="black" stroke-width="0.5"/><polyline points="82.97,35.61 83.18,35.98 83.17,36.41 82.96,36.82 82.57,37.10 82.01,37.18" fill="none" stroke="black" stroke-width="0.5"/><polyline points="10.65,40.40 11.06,40.83 11.47,41.23 11.93,41.55 12.45,41.74 12.91,41.93 13.12,42.27 12.91,42.82" fill="none" stroke="black" stroke-width="0.5"/><polyline points="40.60,40.46 40.20,40.83 39.83,41.22 39.39,41.50 38.89,41.66 38.45,41.83 38.19,42.16 38.21,42.60 38.51,42.92 38.98,43.06 39.48,43.21 39.89,43.52 40.25,43.94 40.61,44.32" fill="none" stroke="black" stroke-width="0.5"/><polyline points="14.80,42.33 15.34,42.33 15.88,42.33 16.41,42.33 16.95,42.33 17.49,42.33 18.03,42.33 18.57,42.33 19.10,42.33 19.64,42.33 20.18,42.33 20.72,42.33 21.26,42.33 21.80,42.33 22.33,42.33" fill="none" stroke="black" stroke-width="0.5"/><polyline points="23.98,42.35 24.64,42.33 25.18,42.35 24.87,42.37 24.12,42.37 23.56,42.37" fill="none" stroke="black" stroke-width="0.5"/><polyline points="25.42,42.33 25.69,42.36 25.86,42.35 26.52,42.33 27.01,42.35 26.62,42.37 26.03,42.37" fill="none" stroke="black" stroke-width="0.5"/><polyline points="28.67,42.33 29.23,42.33 29.78,42.33 30.34,42.33 30.90,42.33 31.46,42.33 32.02,42.33 32.58,42.33 33.14,42.33 33.70,42.33 34.26,42.33 34.82,42.33 35.38,42.33 35.93,42.33 36.49,42.34" fill="none" stroke="black" stroke-width="0.5"/><polyline points="12.86,44.67 13.07,45.10 13.27,45.53 13.36,46.00 13.38,46.41 13.35,46.73 13.38,47.04 13.38,47.29 13.38,47.75 13.35,48.17 13.37,48.56 13.38,48.88 13.38,49.11 13.38,49.38 13.38,49.72 13.38,49.97 13.38,50.18 13.39,50.47 13.38,50.90 13.37,51.18 13.38,51.56 13.38,51.97 13.38,52.39 13.36,52.86 13.37,53.24 13.36,53.58 13.38,53.94 13.37,54.41 13.37,54.78 13.38,55.04 13.38,55.29 13.41,55.67 13.38,56.04 13.37,56.31 13.34,56.74 13.35,57.12 13.39,57.44 13.37,57.83 13.38,58.11 13.39,58.35 13.36,58.73 13.37,59.14 13.39,59.41 13.38,59.70 13.38,60.05 13.36,60.40 13.37,60.74 13.38,61.01 13.39,61.37 13.38,61.77 13.38,62.01 13.39,62.27 13.39,62.51 13.39,62.81 13.38,63.16 13.38,63.39 13.37,63.70 13.38,64.01 13.40,64.23" fill="none" stroke="black" stroke-width="0.5"/><polyline points="38.33,44.86 38.12,45.29 37.92,45.71 37.90,46.19 37.90,46.57 37.91,46.91 37.91,47.33 37.91,47.56 37.91,48.03 37.91,48.30 37.91,48.67 37.91,49.04 37.91,49.34 37.91,49.68 37.90,50.01 37.90,50.35 37.92,50.63 37.90,51.04 37.91,51.35 37.90,51.63 37.91,51.99 37.92,52.34 37.90,52.73 37.92,52.96 37.92,53.30 37.92,53.58 37.92,53.79 37.91,54.11 37.92,54.46 37.91,54.76 37.89,55.03 37.92,55.47 37.89,55.72 37.91,56.19 37.92,56.48 37.92,56.78 37.92,57.12 37.88,57.49 37.92,57.83 37.92,58.21 37.92,58.61 37.91,59.05 37.88,59.47 37.90,59.79 37.89,60.24 37.91,60.56 37.91,60.84 37.92,61.12 37.92,61.41 37.92,61.69 37.88,61.93 37.90,62.28 37.88,62.62 37.92,62.92 37.90,63.22 37.92,63.60 37.90,64.10" fill="none" stroke="black" stroke-width="0.5"/><polyline points="54.14,44.83 54.06,45.19 53.79,45.02 53.33,45.01 53.22,45.31 53.16,45.58 53.12,45.84 53.08,46.10 53.04,46.37 52.98,46.64 52.92,46.90 52.95,47.22 53.41,47.31" fill="none" stroke="black" stroke-width="0.5"/><polyline points="64.31,44.87 64.24,45.16 64.38,45.45 64.70,45.84 64.64,46.19 64.59,46.44 64.59,46.77 64.49,47.15 64.40,47.53 64.44,47.50 64.66,47.05 65.02,46.94 65.37,46.81 65.57,46.45 65.55,46.02 65.29,45.71 65.05,45.78" fill="none" stroke="black" stroke-width="0.5"/><polyline points="73.39,44.99 73.84,45.02 73.85,45.28 73.80,45.51 73.75,45.78 73.71,46.03 73.67,46.27 73.62,46.53 73.58,46.74 73.55,46.98 73.39,47.29 72.87,47.33 72.62,46.98 72.68,46.66 72.74,46.33 72.73,45.93 72.43,45.70 72.15,45.79 71.93,45.92 71.85,46.31 71.76,46.67 71.76,47.06 72.04,47.43 72.11,47.48 72.33,47.40 72.57,47.17" fill="none" stroke="black" stroke-width="0.5"/><polyline points="55.54,45.00 55.49,45.48 55.42,45.88 55.36,46.33 55.23,46.77 54.96,47.02 54.52,46.85 54.48,46.41 54.56,45.96" fill="none" stroke="black" stroke-width="0.5"/><polyline points="61.75,45.11 61.70,45.51 61.61,45.96 61.57,46.32 61.53,46.61 61.24,46.88 60.81,46.92 60.60,46.57 60.51,46.27 60.04,46.14 59.41,46.12 59.07,46.16 59.69,46.18" fill="none" stroke="black" stroke-width="0.5"/><polyline points="58.72,45.17 58.19,45.22 58.10,45.49 58.06,45.75 57.74,46.01 57.61,46.44 57.72,46.85 58.20,46.97 58.34,46.61 58.00,46.34 58.20,46.30 58.53,46.06 58.25,45.72" fill="none" stroke="black" stroke-width="0.5"/><polyline points="63.20,45.17 62.67,45.21 62.62,45.49 62.59,45.75 62.28,45.94 62.11,46.32 62.18,46.77 62.54,46.98 62.88,46.75 62.84,46.27 63.03,45.99 62.73,45.80 62.47,46.22 62.36,46.36" fill="none" stroke="black" stroke-width="0.5"/><polyline points="66.77,45.59 66.52,45.76 66.23,45.97 66.11,46.42 66.40,46.82 66.84,46.92 66.98,46.59 67.06,46.24 67.08,45.81 67.41,45.82 67.65,46.18 67.58,46.58 67.54,46.98 68.05,47.07 68.42,46.83 68.49,46.43 68.52,45.99 68.22,45.70 68.00,45.77" fill="none" stroke="black" stroke-width="0.5"/><polyline points="55.88,45.72 55.99,45.78 56.21,46.10 56.12,46.60 56.31,46.95 56.71,46.80 56.77,46.22" fill="none" stroke="black" stroke-width="0.5"/><polyline points="71.29,45.78 71.16,46.18 71.14,46.60 70.88,46.93 70.47,46.96 70.25,46.60 70.40,46.14 70.17,46.03 69.60,46.11 69.18,46.15 69.72,46.17" fill="none" stroke="black" stroke-width="0.5"/><polyline points="72.72,52.56 72.71,52.74 72.72,52.97 72.73,53.27 72.73,53.62 72.73,53.95 72.72,54.24 72.71,54.48 72.71,54.70 72.72,54.93 72.76,55.18" fill="none" stroke="black" stroke-width="0.5"/><polyline points="82.91,52.53 82.90,53.07 82.90,53.59 82.90,54.12 82.88,54.66 83.09,55.09 83.07,55.27 82.50,55.24 82.06,54.98 82.00,54.54 82.00,54.07 81.90,53.67 81.61,53.46 81.22,53.48 81.03,53.78 81.28,54.16 81.68,54.17 81.30,54.27 80.97,54.48 80.88,54.73 81.05,55.06 81.46,55.15" fill="none" stroke="black" stroke-width="0.5"/><polyline points="86.81,52.51 86.83,53.07 86.90,53.58 86.84,53.99 86.82,54.46 86.89,54.92 87.08,55.04 87.37,55.14 87.61,55.15 88.01,54.95 88.23,54.63 88.26,54.24 88.13,53.82 87.82,53.53 87.44,53.47" fill="none" stroke="black" stroke-width="0.5"/><polyline points="54.07,52.63 54.43,52.66 53.88,52.72 53.48,52.94 53.25,53.23 53.12,53.54 53.10,54.04 53.18,54.44 53.36,54.73 53.67,55.01 54.04,55.15 54.50,55.14 55.00,55.07 55.54,55.15 55.58,55.02 55.58,54.80 55.58,54.59 55.59,54.37 55.58,54.16 55.60,53.92 55.56,53.51 55.77,53.64 56.11,53.49 56.51,53.54 56.76,54.01 56.75,54.41 56.89,54.87 57.27,55.11 57.75,55.12 58.10,54.89 57.90,54.33 57.45,54.20 57.13,54.17 57.66,54.18 58.03,54.00 57.92,53.65 57.52,53.44 57.27,53.48 56.90,53.67 56.74,53.93" fill="none" stroke="black" stroke-width="0.5"/><polyline points="30.75,53.19 30.68,53.50 30.62,53.84 30.57,54.20 30.52,54.57 30.46,54.93 30.40,55.28 30.33,55.65 30.27,56.05 30.21,56.41 30.17,56.65 30.14,56.93 30.14,57.40 30.15,57.65 30.14,58.03 30.15,58.38 30.14,58.66 30.15,58.94 30.15,59.16 30.13,59.50 30.20,59.83 30.10,59.91 29.71,60.26" fill="none" stroke="black" stroke-width="0.5"/><polyline points="62.71,53.40 62.84,53.83 62.79,54.35 62.81,54.90 62.53,55.27 62.07,55.24 61.95,54.82 61.97,54.26 61.97,53.74 61.65,53.45 61.17,53.48 60.91,53.76 60.83,54.21 60.82,54.72 60.97,55.10 61.41,55.12" fill="none" stroke="black" stroke-width="0.5"/><polyline points="59.27,53.42 58.92,53.50 59.11,53.51 59.67,53.64 59.78,54.07 59.77,54.59 59.91,55.03 59.86,55.23 59.26,55.20 58.77,55.03 58.70,54.60 59.02,54.31" fill="none" stroke="black" stroke-width="0.5"/><polyline points="63.53,53.44 63.26,53.51 63.33,53.52 63.92,53.57 64.12,53.90 64.18,54.37 64.14,54.91 64.30,55.29 64.72,55.50 64.91,55.87 65.29,56.05 65.77,56.08 66.17,55.95 66.33,55.64 66.11,55.36 65.75,55.23 65.38,55.18 65.00,54.95 65.10,54.56 64.89,54.16 64.96,53.71 65.36,53.49 65.83,53.53 66.16,53.57 66.12,54.01 66.05,54.33 65.72,54.64 65.31,54.80 65.09,55.24 64.87,55.50" fill="none" stroke="black" stroke-width="0.5"/><polyline points="68.27,53.43 67.94,53.50 68.05,53.49 68.60,53.57 68.78,53.95 68.76,54.41 68.80,54.87 68.98,55.14 68.64,55.23 68.06,55.16 67.69,54.93 67.69,54.59 68.02,54.29 68.54,54.19" fill="none" stroke="black" stroke-width="0.5"/><polyline points="71.37,53.42 71.06,53.50 71.48,53.51 71.87,53.77 71.99,54.17 71.96,54.59 71.79,54.94 71.44,55.13 71.19,55.14 70.83,54.97" fill="none" stroke="black" stroke-width="0.5"/><polyline points="80.05,53.43 79.70,53.51 79.34,53.75 79.15,54.09 79.14,54.48 79.31,54.84 79.66,55.09 80.22,55.12" fill="none" stroke="black" stroke-width="0.5"/><polyline points="85.32,53.48 85.11,53.53 84.72,53.83 84.58,54.11 84.59,54.46 84.74,54.83 85.06,55.08 85.53,55.10 85.94,54.92 86.10,54.58 86.11,54.15 85.97,53.76 85.59,53.50" fill="none" stroke="black" stroke-width="0.5"/><polyline points="90.37,53.43 90.27,53.49 89.90,53.70 89.78,54.05 89.75,54.47 89.88,54.82 90.16,55.07 90.62,55.15 91.05,54.97 91.03,54.52 90.58,54.18 90.12,54.20 90.53,54.17 91.01,54.08 91.03,53.75 90.73,53.54" fill="none" stroke="black" stroke-width="0.5"/><polyline points="92.56,53.45 92.29,53.51 91.87,53.79 91.70,54.12 91.74,54.51 91.96,54.90 92.38,55.13 93.02,55.05" fill="none" stroke="black" stroke-width="0.5"/><polyline points="94.34,53.52 93.93,53.62 93.73,54.27 93.82,54.95 94.26,55.14" fill="none" stroke="black" stroke-width="0.5"/><polyline points="70.58,53.49 70.57,53.97 70.57,54.51 70.56,55.07 70.56,55.62 70.53,56.11" fill="none" stroke="black" stroke-width="0.5"/><polyline points="73.24,53.48 73.72,53.55 73.98,53.92 74.05,54.49 74.00,55.19" fill="none" stroke="black" stroke-width="0.5"/><polyline points="77.43,53.43 77.53,53.52 76.96,53.52 76.71,53.89 76.96,54.15 77.42,54.39 77.69,54.73 77.42,55.08 77.11,55.18 76.75,55.12" fill="none" stroke="black" stroke-width="0.5"/><polyline points="89.03,53.56 88.98,54.25 89.02,55.01 88.98,55.67 88.68,56.08" fill="none" stroke="black" stroke-width="0.5"/><polyline points="74.75,53.54 74.91,53.96 75.02,54.21 75.16,54.58 75.42,54.81 75.73,54.56 75.85,54.19 75.96,53.92 76.06,53.63" fill="none" stroke="black" stroke-width="0.5"/><polyline points="75.48,54.96 75.35,55.42 75.21,55.77 74.95,56.20" fill="none" stroke="black" stroke-width="0.5"/><polyline points="53.81,57.16 53.37,57.41 53.23,57.92 53.25,58.58 53.29,59.28 53.21,59.89" fill="none" stroke="black" stroke-width="0.5"/><polyline points="76.31,57.21 75.88,57.32 75.76,57.71 75.91,58.12 76.26,58.21 76.71,58.24 76.93,58.61 76.89,59.17 76.91,59.69 77.28,59.94 77.71,59.81 77.73,59.46 77.72,59.22 77.72,59.00 77.71,58.78 77.71,58.56 77.72,58.34 77.72,58.11 77.72,57.89 77.72,57.67 77.72,57.45 77.71,57.23" fill="none" stroke="black" stroke-width="0.5"/><polyline points="66.20,57.25 66.19,57.85 66.15,58.36 66.18,58.79 66.24,59.15 66.14,59.56 66.13,59.77 65.65,59.84 65.19,59.80 64.89,59.54 64.77,59.14 64.82,58.72 64.96,58.44 65.26,58.22" fill="none" stroke="black" stroke-width="0.5"/><polyline points="73.81,57.22 73.80,57.69 73.80,58.20 73.80,58.73 73.80,59.24 73.82,59.64 74.08,59.85 73.92,59.95 73.32,59.92 72.95,59.63 72.96,59.27 72.90,58.90 72.88,58.46 72.51,58.19 72.43,58.17 72.08,58.23 71.55,58.22 71.17,58.21 70.93,58.40 70.78,58.62 70.78,58.84 70.78,59.05 70.78,59.26 70.79,59.51 70.98,59.86 71.42,59.78 71.81,59.32 71.85,59.28 71.85,59.66 72.22,59.89 72.41,59.64 72.23,59.10 72.33,58.93" fill="none" stroke="black" stroke-width="0.5"/><polyline points="55.19,58.05 54.73,58.22 54.48,58.29 54.46,58.64 54.46,58.92 54.45,59.17 54.44,59.39 54.45,59.62 54.48,59.88" fill="none" stroke="black" stroke-width="0.5"/><polyline points="56.23,58.16 56.42,58.21 56.79,58.34 57.04,58.64 57.10,59.08 56.95,59.52 56.63,59.81 56.19,59.85 55.78,59.65 55.58,59.23 55.60,58.74 55.78,58.44" fill="none" stroke="black" stroke-width="0.5"/><polyline points="58.50,58.16 58.25,58.21 57.91,58.33 57.81,58.70 57.84,59.31 57.83,59.93" fill="none" stroke="black" stroke-width="0.5"/><polyline points="59.62,58.17 59.63,58.21 59.38,58.37 58.94,58.40 58.86,58.30 59.11,58.73 59.13,59.30 59.18,59.90" fill="none" stroke="black" stroke-width="0.5"/><polyline points="62.51,58.15 62.28,58.24 62.55,58.21 63.06,58.51 63.10,59.05 63.11,59.51 63.42,59.89" fill="none" stroke="black" stroke-width="0.5"/><polyline points="68.20,58.19 68.67,58.25 68.93,58.38 69.01,58.82 68.86,59.20 68.51,59.40 68.03,59.48 68.04,59.40 67.85,59.08 67.77,58.63 67.90,58.34 67.45,58.25 67.03,58.35 67.06,58.57 67.05,58.79 67.05,59.01 67.05,59.22 67.05,59.43 67.04,59.66 67.13,59.90 67.51,60.19 67.84,60.57 68.22,60.80 68.74,60.79 69.16,60.58 69.15,60.19 68.72,59.98 68.60,59.93 68.31,59.88 68.04,60.21 68.18,60.75 68.66,60.84" fill="none" stroke="black" stroke-width="0.5"/><polyline points="79.10,58.16 79.19,58.18 78.81,58.39 78.60,58.79 78.57,59.20 78.71,59.55 79.00,59.79 79.39,59.87 79.87,59.80 80.37,59.70 80.81,59.73" fill="none" stroke="black" stroke-width="0.5"/><polyline points="25.50,58.31 25.75,58.42 25.71,58.95 25.68,59.67 25.82,60.28" fill="none" stroke="black" stroke-width="0.5"/><polyline points="59.96,58.20 60.38,58.55 60.44,59.22 60.42,59.91" fill="none" stroke="black" stroke-width="0.5"/><polyline points="79.72,58.36 79.85,58.79 79.27,58.91 78.99,58.92 79.72,58.95" fill="none" stroke="black" stroke-width="0.5"/><polyline points="33.15,61.64 32.67,61.74 32.14,61.73 31.61,61.73 31.10,61.74 30.59,61.74 30.07,61.73 29.56,61.73 29.05,61.74 28.56,61.77 28.10,61.93 27.68,62.18 27.24,62.40 26.80,62.60 26.37,62.81 25.98,63.18 25.60,63.39 25.23,63.06 24.82,62.76 24.39,62.56 23.95,62.33 23.52,62.12 23.08,61.90 22.61,61.73 22.61,61.74 22.35,61.77 21.78,61.76 21.66,61.77 22.07,61.74 21.56,61.73 21.07,61.73 21.14,61.77 20.77,61.74 20.44,61.77 20.31,61.77 20.26,61.73 19.74,61.73 19.22,61.74 18.70,61.73 18.18,61.71" fill="none" stroke="black" stroke-width="0.5"/><polyline points="28.57,61.77 29.36,61.77 30.14,61.77 30.93,61.77" fill="none" stroke="black" stroke-width="0.5"/><polyline points="25.47,65.76 25.04,65.99 24.61,66.20 24.18,66.41 23.76,66.63 23.34,66.87 22.90,67.04 22.43,67.11 21.94,67.12 21.47,67.13 20.99,67.13 20.53,67.13 20.06,67.13 19.60,67.12 19.13,67.12 18.67,67.12 18.20,67.13 17.72,67.13 17.24,67.13 16.74,67.12 16.24,67.12 15.74,67.14 15.25,67.15 14.79,67.09 14.35,66.92 13.92,66.71 13.48,66.65 13.05,66.80 12.64,67.11 12.26,67.49 11.91,67.87 11.53,68.17" fill="none" stroke="black" stroke-width="0.5"/><polyline points="25.80,65.76 26.24,65.98 26.67,66.20 27.11,66.42 27.54,66.63 27.98,66.85 28.41,67.07 28.81,67.11 28.91,67.14 29.41,67.12 29.90,67.12 30.39,67.12 30.87,67.12 31.36,67.13 31.85,67.13 32.34,67.13 32.82,67.13 33.30,67.13 33.79,67.12 34.28,67.12 34.78,67.13 35.29,67.14 35.78,67.14 36.26,67.12 36.72,67.04 37.16,66.83 37.58,66.57 37.97,66.49 38.34,66.76 38.70,67.20 39.07,67.57 39.45,67.92 39.83,68.30 40.20,68.66" fill="none" stroke="black" stroke-width="0.5"/><polyline points="41.89,79.67 42.33,79.88 42.38,80.37 42.18,80.89 41.87,81.14 41.48,81.04 41.12,81.36 41.17,81.79 41.56,82.04 42.02,82.02 42.42,81.78 42.77,81.45 43.04,81.15" fill="none" stroke="black" stroke-width="0.5"/><polyline points="57.16,79.85 57.16,80.39 57.13,80.78 57.15,81.23 57.13,81.65 56.82,81.82 56.36,81.74 56.05,81.49 55.98,81.18 56.03,80.89 56.44,80.62 56.48,80.64" fill="none" stroke="black" stroke-width="0.5"/><polyline points="43.98,79.92 43.98,80.20 43.98,80.41 43.98,80.62 43.98,80.84 43.98,81.06 43.98,81.28 43.98,81.49 43.99,81.78 44.46,81.88 44.65,81.58 44.65,81.36 44.65,81.15 44.71,80.88 44.68,80.62 45.02,80.62 45.20,80.57 45.54,80.75 45.65,81.04 45.65,81.27 45.65,81.48 45.64,81.70 45.82,81.73 46.17,81.28 46.46,81.43 46.74,81.51 46.90,81.19 47.28,81.17 47.63,81.51 47.97,81.76 48.20,81.69 47.87,81.21 48.22,81.14 48.53,80.93 48.22,80.59 47.82,80.63 47.56,80.96" fill="none" stroke="black" stroke-width="0.5"/><polyline points="50.42,80.08 50.42,80.47 50.42,80.86 50.42,81.14 50.41,81.33 50.48,81.61 50.96,81.80 51.43,81.75 51.21,81.43 51.19,81.09 51.36,80.73 51.80,80.57 51.90,80.63 52.28,80.87 52.37,81.20 52.27,81.48 51.93,81.77 51.57,81.72" fill="none" stroke="black" stroke-width="0.5"/><polyline points="52.82,80.53 52.86,80.99 52.84,81.36 52.85,81.77 52.83,82.05 52.80,82.28 52.83,82.43 52.89,81.91 53.23,81.74 53.68,81.73 53.97,81.43 54.01,81.16 53.89,80.82 53.51,80.59 53.47,80.59 53.28,80.65" fill="none" stroke="black" stroke-width="0.5"/><polyline points="58.87,80.56 58.69,80.66 58.34,80.94 58.31,81.37 58.58,81.72 59.03,81.76 59.40,81.51 59.47,81.05 59.45,80.60" fill="none" stroke="black" stroke-width="0.5"/><polyline points="55.10,80.58 55.45,80.94 55.03,81.16 54.58,80.91 54.64,80.74 54.53,81.21 54.67,81.67 55.08,81.76 55.41,81.62" fill="none" stroke="black" stroke-width="0.5"/><polyline points="57.78,80.63 57.78,80.93 57.78,81.23 57.78,81.53 57.80,81.83" fill="none" stroke="black" stroke-width="0.5"/></svg>