<svg width="100.0mm" height="100.0mm" viewBox="0 0 100.0 100.0" xmlns="http://www.w3.org/2000/svg"><polyline points="50.17,12.58 50.25,12.59 49.70,12.60 49.11,12.62 48.56,12.65 48.04,12.70 47.51,12.77 46.99,12.85 46.47,12.95 45.95,13.07 45.46,13.20 44.98,13.35" fill="none" stroke="black" stroke-width="0.5"/><polyline points="50.46,12.60 50.85,12.62 51.04,12.63 51.44,12.67 51.78,12.75 52.21,13.00 52.23,13.11 52.63,13.13 53.00,13.20 53.44,13.23 53.95,13.21 54.51,13.18 55.07,13.19 54.96,13.20 54.40,13.20 53.85,13.22 53.31,13.25" fill="none" stroke="black" stroke-width="0.5"/><polyline points="55.29,13.20 55.58,13.22 55.73,13.22 55.88,13.23 56.24,13.26 56.39,13.28 56.75,13.36 57.14,13.58 57.28,13.82 57.67,14.16 57.96,14.31 58.34,14.40 58.60,14.50 58.89,14.60 59.22,14.71 59.55,14.86 59.94,15.00 60.32,15.18 60.68,15.33 60.94,15.45 61.17,15.67 61.76,15.86 62.10,16.05 62.40,16.23 62.78,16.46 63.09,16.66 63.38,16.84 63.66,17.05 64.00,17.30 64.32,17.53 64.61,17.78 64.92,18.04 65.21,18.29 65.52,18.59 65.80,18.85 66.12,19.17 66.41,19.47 66.71,19.81 66.95,20.08 67.23,20.43 67.44,20.72 67.63,21.01 67.69,21.40 68.11,21.66 67.71,21.99 67.83,22.25 67.93,22.50 68.05,22.83 68.14,23.11 68.25,23.48 68.37,23.88 68.44,24.19 68.49,24.44 68.55,24.70 68.60,25.00 68.64,25.28 68.68,25.53 68.72,25.92 68.77,26.39 68.77,26.61 68.77,26.81 68.77,27.02 68.72,27.29 68.64,27.64 68.63,28.03 68.72,28.36 68.77,28.63 68.82,28.93 68.87,29.24 68.92,29.55 68.94,29.80 68.96,30.09 68.97,30.40 68.97,30.61 68.97,30.82 68.97,31.03 68.97,31.24 68.95,31.56 68.94,31.79 68.91,32.06 68.81,32.37 68.74,32.70 68.68,33.04 68.66,33.37 68.63,33.71 68.61,33.99 68.58,34.26 68.56,34.51 68.53,34.85 68.50,35.07 68.45,35.44 68.41,35.71 68.37,35.98 68.32,36.24 68.27,36.53 68.23,36.78 68.17,37.06 68.12,37.31 68.06,37.56 68.01,37.82 67.94,38.15 67.87,38.47 67.76,38.80 67.67,39.08 67.50,39.45 67.38,39.78 67.28,40.15 67.45,40.57 67.45,40.80 67.44,41.16 67.42,41.41 67.41,41.69 67.38,42.01 67.31,42.40 67.25,42.70 67.04,43.07 66.81,43.56 66.68,44.15 66.74,43.92 66.79,43.63 66.84,43.30 66.66,42.88 66.59,42.54 66.59,42.33 66.58,42.03 66.58,41.82 66.55,41.49 66.54,41.14 66.55,40.87 66.69,40.49 66.48,40.10 66.45,39.71 66.43,39.47 66.40,39.24 66.38,38.85 66.34,38.49 66.32,38.15 66.28,37.85 66.24,37.51 66.20,37.25 66.15,36.95 66.11,36.68 66.06,36.36 66.01,36.07 65.96,35.82 65.91,35.51 65.86,35.22 65.80,34.91 65.74,34.62 65.65,34.24 65.58,33.95 65.50,33.61 65.41,33.28 65.32,32.97 65.75,32.86 65.70,32.58 65.48,32.24 65.26,31.92 65.02,31.59 64.80,31.30 64.57,31.00 64.28,30.64 64.00,30.32 63.77,30.06 63.51,29.76 63.26,29.51 63.00,29.23 62.71,28.92 62.46,28.66 62.20,28.41 61.90,28.10 61.64,27.81 61.33,27.49 60.98,27.13 60.69,26.82 60.34,26.61 60.15,26.24 59.83,25.89" fill="none" stroke="black" stroke-width="0.5"/><polyline points="42.24,14.37 41.85,14.53 41.50,14.70 41.30,14.79 40.97,14.95 40.53,15.16 40.15,15.36 39.78,15.56 39.51,15.71 39.32,15.82 39.00,16.00 38.60,16.25 38.21,16.52 37.88,16.75 37.59,16.97 37.29,17.21 36.97,17.48 36.70,17.74 36.43,18.03 36.20,18.30 35.99,18.59 35.74,18.95 35.49,19.10 35.45,19.46 35.40,19.83 35.40,20.22 35.44,20.57" fill="none" stroke="black" stroke-width="0.5"/><polyline points="35.59,17.43 35.41,17.76 35.26,18.07 35.16,18.44 34.83,18.62 34.60,18.95 34.42,19.23 34.25,19.47 34.08,19.78 33.87,20.16 33.70,20.51 33.57,20.81 33.47,21.12 33.36,21.42 33.27,21.73 33.20,22.11 33.16,22.44 33.18,22.71 33.22,23.01 33.28,23.26 33.38,23.65 33.49,23.92 33.63,24.26 33.82,24.61 34.11,24.94 34.48,25.19 34.75,25.39 34.22,25.03 33.74,25.07 33.43,25.33 33.13,25.59 32.86,25.84 32.60,26.10 32.41,26.35 32.18,26.63 31.96,26.93 31.77,27.25 31.57,27.62 31.42,27.94 31.28,28.29 31.15,28.69 31.06,29.09 30.99,29.39 30.97,29.69 30.95,29.95 30.92,30.27 30.92,30.47 30.96,30.81 31.01,31.25 31.11,31.58 31.11,31.86 31.11,32.07 31.13,32.29 31.14,32.56 31.16,32.94 31.19,33.22 31.23,33.59 31.26,33.84 31.31,34.20 31.36,34.52 31.40,34.82 31.45,35.07 31.52,35.44 31.62,35.85 31.82,36.22 32.06,36.55 32.24,36.89 32.39,37.17 32.55,37.46 32.72,37.78 32.89,38.08 33.10,38.48 33.29,38.83 33.45,39.32 33.29,39.67 33.14,39.97 33.11,40.27 33.08,40.51 33.08,40.72 33.08,40.93 33.11,41.33 33.13,41.68 33.19,42.10 33.24,42.48 33.33,42.89 33.40,43.29 33.47,43.56 33.54,43.87 33.62,44.24 33.68,44.57 33.73,44.85 33.79,45.20 33.85,45.50 33.90,45.79 33.95,46.20 34.00,46.59 34.04,46.85 34.11,47.14 34.20,47.47 34.34,47.81 34.50,48.10 34.76,48.47 35.07,48.75 35.40,48.91 35.89,48.78 36.17,49.09 36.31,49.48 36.43,49.82 36.61,50.17 36.84,50.56 36.94,50.87 37.10,51.20 37.23,51.57 37.47,51.87 37.69,52.19 37.77,52.56 37.92,52.94 38.18,53.29 38.43,53.56 38.56,53.90 38.73,54.21 38.96,54.56 39.18,54.88 39.37,55.27 39.67,55.48 39.92,55.73 40.17,55.98 40.51,56.33 40.88,56.65 41.17,56.95 41.52,57.29 41.94,57.51 42.28,57.81 42.65,58.03 42.99,58.24 43.30,58.48 43.66,58.67 43.96,58.95 44.31,59.20 44.67,59.44 45.04,59.69 45.37,60.00 45.71,60.18 46.09,60.32 46.47,60.60 46.81,60.92 47.19,60.91 47.51,61.18 47.88,61.23 48.22,61.50 48.64,61.60 48.96,61.86 49.38,61.76 49.74,62.01 50.24,61.88 50.61,62.07 50.99,62.18 51.22,61.66 51.10,61.24 51.04,60.98 51.01,60.71 51.01,60.36 51.04,60.02 51.39,59.93 51.69,60.30 51.70,60.57 51.72,60.91 51.77,61.25 51.78,61.56 51.89,62.03 52.23,62.04 52.41,61.50 52.50,61.12 52.53,60.78 52.52,60.38 52.47,60.06 53.00,59.86 53.27,60.11 53.35,60.44 53.38,60.70 53.36,60.97 53.26,61.33 53.44,61.71 53.83,61.91 54.26,61.77 54.63,61.79 55.01,61.58 55.40,61.51 55.77,61.30 56.01,61.07 56.08,60.68 55.87,60.27 55.75,59.89 55.61,59.50 55.35,59.18 54.75,59.17 54.61,59.51 54.78,59.87 54.89,60.17 54.94,60.44 54.96,60.75 54.89,61.06 54.36,61.29 54.18,61.08 54.20,60.74 54.16,60.47 54.08,60.21 53.98,59.95 53.79,59.59" fill="none" stroke="black" stroke-width="0.5"/><polyline points="48.58,22.92 49.14,22.92 49.71,22.92 49.98,22.94 50.26,22.96 50.58,23.00 51.00,23.09 51.45,23.23 51.87,23.42 52.24,23.64 52.58,23.90 52.95,24.21 53.30,24.55 53.53,24.94" fill="none" stroke="black" stroke-width="0.5"/><polyline points="48.49,22.93 47.96,22.97 47.39,23.04 46.82,23.15 46.27,23.29" fill="none" stroke="black" stroke-width="0.5"/><polyline points="52.95,23.29 53.30,23.56 53.67,23.70 54.04,23.86 54.40,24.07 54.74,24.31 55.07,24.57 55.37,24.86 55.66,25.17 55.93,25.49 56.18,25.83 56.40,26.17 56.61,26.52 56.82,26.90 56.98,27.22 57.13,27.56 57.33,28.02 57.47,28.37 57.57,28.66 57.70,29.06 57.85,29.52 58.01,29.92 58.27,30.35 58.42,30.88 58.42,30.86 58.37,30.50 58.46,30.12 58.62,29.77 58.59,29.56 58.60,29.35 58.64,29.08 58.81,28.69 58.75,28.37 58.66,28.01 58.57,27.64 58.49,27.35 58.42,27.04" fill="none" stroke="black" stroke-width="0.5"/><polyline points="44.85,23.74 44.39,23.84 44.12,23.95 44.39,24.45 44.51,24.66 44.03,24.69 43.52,24.73 43.03,24.77 42.54,24.81 42.06,24.85 41.56,24.89 41.05,24.92 40.55,24.97 40.07,25.07 39.64,24.97 39.74,25.16 40.05,25.63 40.31,25.95 40.64,26.19 40.99,26.33 41.33,26.40 41.65,26.50" fill="none" stroke="black" stroke-width="0.5"/><polyline points="38.61,26.03 38.45,26.38 38.37,26.69 38.34,26.97 38.32,27.23 38.32,27.49 38.34,27.81 38.38,28.21 38.43,28.55 38.49,28.83 38.55,29.16 38.50,29.65 38.63,30.12 39.04,30.50" fill="none" stroke="black" stroke-width="0.5"/><polyline points="60.27,27.24 60.37,27.61 60.47,27.97 60.56,28.32 60.64,28.66 60.69,28.99 60.73,29.30 60.77,29.60 60.80,29.90 60.82,30.27 60.82,30.72 60.83,30.99 60.75,31.35 60.49,31.61 60.21,31.31 59.97,30.86 59.75,30.38 59.57,29.91 59.39,29.48 59.20,29.10 58.94,28.72" fill="none" stroke="black" stroke-width="0.5"/><polyline points="37.32,27.59 37.31,27.86 37.32,28.18 37.35,28.50 37.37,28.83 37.16,29.25 37.13,29.61 37.13,30.11 37.13,30.40 37.13,30.61 37.13,30.83 37.13,31.04 37.14,31.27 37.16,31.57 37.19,32.06 37.22,32.44 37.24,32.69 37.12,33.03 37.00,33.30 36.88,33.58 36.70,33.99 36.58,34.29 36.47,34.53 36.36,34.80 36.25,35.05 36.15,35.29 35.98,35.69 35.79,36.18 35.61,36.65 35.46,37.05 35.36,37.37 35.25,37.70 35.16,38.04 35.08,38.34 35.02,38.60 34.96,38.89 34.91,39.13 34.86,39.44 34.83,39.72 34.79,40.10 34.76,40.41 34.56,40.83 34.62,41.17 34.70,41.49 34.74,41.76 34.75,42.03 34.76,42.49 34.78,42.81 34.80,43.07 34.83,43.39 34.86,43.67 34.91,44.05 34.94,44.33 34.99,44.66 35.04,44.97 35.09,45.30 35.14,45.60 35.20,45.90 35.26,46.20 35.33,46.53 35.46,46.89 35.65,47.29 35.71,47.64 35.78,48.00 35.89,48.39 36.28,48.50 36.43,48.18" fill="none" stroke="black" stroke-width="0.5"/><polyline points="41.72,34.73 42.25,34.73 42.76,34.75 42.92,34.77 43.48,34.77 43.27,34.78 43.71,34.79 44.04,34.81 44.15,34.83 44.50,34.85 44.65,34.88 44.84,34.89 45.16,34.93 45.43,34.97 45.77,35.02 46.03,35.07 46.40,35.15 46.72,35.29 47.09,35.64 47.51,35.99 48.09,36.20 48.34,35.93 48.32,35.56 48.30,35.16 48.30,34.95" fill="none" stroke="black" stroke-width="0.5"/><polyline points="41.09,34.75 41.56,34.75 41.18,34.78 40.64,34.89 40.18,35.06 39.73,35.28 39.30,35.55 38.88,35.84 38.49,36.16 38.12,36.47 37.77,36.80 37.44,37.13 37.14,37.47" fill="none" stroke="black" stroke-width="0.5"/><polyline points="59.73,35.11 60.35,35.11 60.89,35.11 61.34,35.14 61.73,35.19 62.12,35.28 62.53,35.41 62.94,35.59 63.35,35.82 63.75,36.08 64.13,36.37 64.49,36.68 64.82,37.02 65.12,37.38" fill="none" stroke="black" stroke-width="0.5"/><polyline points="59.42,35.12 59.96,35.12 60.09,35.13 59.51,35.13 59.10,35.15 58.90,35.16 58.50,35.19 58.39,35.20 58.05,35.23 57.58,35.29 57.07,35.38 56.63,35.47 56.20,35.64 55.67,35.77 55.19,35.51 55.23,35.29 55.04,35.63 54.86,35.98 54.63,36.31" fill="none" stroke="black" stroke-width="0.5"/><polyline points="43.84,37.16 44.38,37.16 44.68,37.18 44.97,37.21 45.38,37.29 45.74,37.39 46.14,37.55 46.51,37.74 46.81,37.95 47.14,38.22 47.49,38.54 47.68,38.84 47.26,39.11 47.21,39.38 47.58,39.70 47.59,40.02 47.11,40.22 46.63,40.39 46.15,40.52 45.73,40.63" fill="none" stroke="black" stroke-width="0.5"/><polyline points="58.56,37.31 58.07,37.34 57.46,37.43 56.84,37.62" fill="none" stroke="black" stroke-width="0.5"/><polyline points="58.57,37.32 58.84,37.34 59.07,37.36 59.41,37.41 59.85,37.50 60.31,37.64 60.74,37.81 61.05,37.95 61.40,38.15 61.76,38.38 62.08,38.62 62.45,38.96 62.71,39.34 62.53,39.88 62.22,39.96 61.85,39.82 61.48,39.57 61.14,39.35 60.76,39.16 60.38,38.98 60.00,38.88 59.52,39.01 59.12,38.82 58.65,38.65 58.45,38.65 57.97,38.85 57.68,39.18 57.66,39.57 57.84,39.96 58.14,40.28 58.58,40.45 58.53,40.44 59.10,40.27 59.32,39.93 59.50,39.51 59.47,39.24" fill="none" stroke="black" stroke-width="0.5"/><polyline points="42.23,37.52 41.77,37.71 41.32,37.96 40.89,38.25 40.46,38.57 40.12,38.94 40.08,39.42 40.10,39.90 39.61,40.13" fill="none" stroke="black" stroke-width="0.5"/><polyline points="55.71,38.24 55.45,38.50 55.12,38.79 55.19,39.26 55.24,39.73 55.02,40.06 55.39,40.32 55.84,40.49 56.26,40.61 56.61,40.71 57.10,40.84" fill="none" stroke="black" stroke-width="0.5"/><polyline points="44.12,38.46 44.54,38.56 44.95,38.81 45.10,39.07 45.09,39.41 44.87,39.83 44.52,40.17 44.11,40.29 43.71,40.12 43.39,39.77 43.23,39.37 43.23,39.01 43.44,38.73 43.95,38.51" fill="none" stroke="black" stroke-width="0.5"/><polyline points="41.57,39.20 41.06,39.49 41.05,39.89 41.35,40.29 41.78,40.59 42.15,40.68" fill="none" stroke="black" stroke-width="0.5"/><polyline points="33.48,39.42 33.84,39.88 34.11,40.35 34.47,40.84" fill="none" stroke="black" stroke-width="0.5"/><polyline points="61.79,39.96 61.48,40.40 61.06,40.75 60.50,40.91" fill="none" stroke="black" stroke-width="0.5"/><polyline points="53.13,40.02 53.18,40.36 53.23,40.67 53.28,40.99 53.32,41.35 53.37,41.72 53.41,42.06 53.45,42.41 53.51,42.83 53.56,43.28 53.62,43.69 53.66,44.04 53.69,44.45" fill="none" stroke="black" stroke-width="0.5"/><polyline points="66.68,44.18 66.60,44.52 66.51,44.85 66.49,45.10 66.46,45.37 66.42,45.76 66.37,46.12 66.33,46.45 66.29,46.78 66.24,47.04 66.19,47.35 66.13,47.68 66.05,47.98 65.97,48.29 65.87,48.64 65.69,48.99 65.49,49.37 65.36,49.69 65.31,49.96 65.27,50.23 65.12,50.59 65.00,50.87 64.77,51.24 64.59,51.62 64.42,52.00 64.11,52.37 64.03,52.68 63.88,53.08 63.69,53.45 63.46,53.78 63.16,54.17 63.08,54.49 62.89,54.77 62.68,55.01 62.37,55.32 62.04,55.67 61.84,55.99 61.50,56.35 61.28,56.59 61.00,56.82 60.78,57.03 60.57,57.28 60.18,57.55 59.91,57.76 59.66,57.95 59.34,58.21 58.99,58.56 58.68,58.77 58.47,58.99 58.25,59.20 58.01,59.42 57.75,59.63 57.54,59.85 57.23,60.02 56.93,60.38 56.59,60.64 56.29,60.87" fill="none" stroke="black" stroke-width="0.5"/><polyline points="55.64,46.12 55.97,46.47 56.24,46.81 56.44,47.17 56.54,47.55 56.55,47.90 56.52,48.12 56.36,48.45 56.10,48.77 55.75,49.01 55.31,49.24 54.85,49.20 54.65,48.72 54.82,48.62 54.40,48.81 53.96,49.08 53.63,49.34 53.36,49.57 53.02,49.80 52.64,49.99 52.22,50.11 51.82,50.11 51.48,50.05 51.07,49.83 50.72,49.51 50.38,49.21 50.03,48.95 49.66,48.75 49.33,48.62 48.72,48.52 48.49,48.47 48.13,48.50 47.90,48.96 48.04,49.23 48.43,49.31 48.08,49.23 47.62,49.07 47.26,48.85 46.98,48.52 46.86,48.19 46.91,47.75 47.00,47.46 47.18,47.06 47.36,46.74 47.65,46.39" fill="none" stroke="black" stroke-width="0.5"/><polyline points="37.11,49.33 37.15,49.68 37.31,49.99 37.74,50.28 37.90,50.67 37.90,51.00 37.92,51.32 38.08,51.51 38.55,51.21 38.76,51.29 38.73,51.61 38.72,51.93 38.73,52.33 38.72,52.54 38.75,52.82 38.64,53.27" fill="none" stroke="black" stroke-width="0.5"/><polyline points="64.52,49.86 64.50,50.16 64.48,50.39 64.47,50.75 64.13,50.76 63.80,50.82 63.82,51.22 63.80,51.69 63.47,51.95 63.08,51.92 63.09,51.94 63.09,52.22 63.07,52.65 63.05,52.96 63.03,53.25 62.85,53.48 62.35,53.63 62.40,53.29 62.43,52.88 62.43,52.62 62.40,52.32 61.99,52.67 61.93,53.00 61.94,53.34 61.91,53.77 61.84,54.06 61.82,54.28 61.77,54.63 61.73,54.94 61.72,55.13 62.08,54.83 62.30,54.49 62.32,54.23 62.35,53.85" fill="none" stroke="black" stroke-width="0.5"/><polyline points="50.73,50.63 50.68,51.00 50.66,51.30 50.64,51.68 50.64,51.89 50.64,52.11 50.66,52.40 50.26,52.35 49.91,52.10 49.94,51.78 49.99,51.43 50.05,51.12 50.12,50.76 49.84,50.64 49.49,50.94 49.39,51.26 49.26,51.66 49.15,51.96 48.93,52.25 48.37,52.45 48.38,52.19 48.51,51.83 48.60,51.53 48.71,51.22 48.82,50.86 48.61,50.72 48.06,51.04 47.92,51.41 47.82,51.74 47.73,52.01 47.65,52.35 47.47,52.65 46.95,52.41 46.96,52.10 47.04,51.82 47.13,51.55 47.17,51.25 46.59,51.39 46.38,51.71 46.09,51.89 45.78,51.83 45.54,52.12 45.27,52.46 45.26,52.81 45.61,53.00 45.93,53.17 46.33,53.31 46.65,53.40 47.01,53.48 47.38,53.54 47.81,53.61 48.20,53.66 48.63,53.70 48.93,53.73 49.39,53.77 49.73,53.79 49.71,53.80 50.10,53.84 50.38,53.87 50.67,53.90 51.02,53.93 51.23,53.96 51.59,54.00 52.07,54.00 52.54,53.93 53.01,53.86 53.50,53.80 53.97,53.74 54.43,53.69 54.91,53.64 55.39,53.58 55.84,53.50 56.28,53.42 56.72,53.32 57.17,53.18 57.54,53.04 57.86,52.77 58.24,52.88 57.91,52.61 57.68,52.28 57.41,51.94 57.12,52.01 56.88,51.82 56.68,51.45 56.62,51.12 57.14,51.13 57.35,51.50 57.72,51.30 58.01,51.47 58.23,51.81 58.38,52.12 58.44,52.62 58.59,53.04 58.85,53.38 59.05,53.75 58.88,54.21 58.96,54.63 59.01,54.94 58.91,55.25 58.71,55.77 59.00,56.11 59.22,56.41 58.52,56.45 58.67,56.61 59.02,56.88 59.32,57.17 59.57,57.52 59.25,57.97 58.90,57.84 58.64,57.49 58.32,57.22 57.93,57.23 57.98,57.69 58.23,58.01 58.48,58.36 58.31,58.88 57.94,58.86 57.74,58.43 57.31,58.23 56.88,58.60 57.08,58.96 57.15,59.38 56.84,59.73 56.61,59.34 56.36,58.97" fill="none" stroke="black" stroke-width="0.5"/><polyline points="53.02,50.67 53.02,51.21 53.03,51.53 53.04,51.88 53.05,52.50" fill="none" stroke="black" stroke-width="0.5"/><polyline points="53.46,50.75 53.86,51.08 54.05,51.36 54.33,51.74 54.67,52.04 54.94,52.35 55.35,52.16 55.33,51.78 55.17,51.39 55.06,51.08 55.07,50.83 55.51,51.00 55.94,51.39 56.02,51.76 56.16,52.10 56.26,52.50 56.74,52.48 57.11,52.71" fill="none" stroke="black" stroke-width="0.5"/><polyline points="44.76,50.80 44.54,51.15 44.35,51.45 44.15,51.79 43.95,52.16 43.80,52.51 43.78,52.90 44.03,53.24 43.90,53.57 43.91,53.92 44.24,53.98 44.41,53.65 44.41,53.21 44.69,52.92 44.94,52.82 44.53,52.55 44.70,52.14 44.91,51.79 45.13,51.43 45.35,51.11 45.65,50.86 46.04,51.25 46.07,51.27 46.01,51.68 46.15,52.16 46.02,52.50 46.10,52.79 46.64,52.73 46.87,52.37" fill="none" stroke="black" stroke-width="0.5"/><polyline points="58.18,50.83 58.55,51.25 58.85,51.64 59.10,52.03 59.31,52.44 59.50,52.92" fill="none" stroke="black" stroke-width="0.5"/><polyline points="39.58,52.22 39.56,52.63 39.55,52.96 39.56,53.25 39.57,53.55 39.60,53.92 39.65,54.44" fill="none" stroke="black" stroke-width="0.5"/><polyline points="40.18,52.86 40.19,53.16 40.20,53.42 40.20,53.75 40.22,54.05 40.25,54.34 40.27,54.65 40.31,55.03 40.57,55.36 40.96,55.46 40.97,55.16 40.92,54.67 40.91,54.18 40.90,53.85 40.90,53.53" fill="none" stroke="black" stroke-width="0.5"/><polyline points="61.04,53.55 61.02,53.89 61.00,54.26 61.00,54.54 60.98,54.94 60.95,55.24 60.92,55.61 60.82,56.04 60.47,56.39 60.12,56.36 60.16,56.03 60.17,55.73 60.16,55.43 60.14,55.06" fill="none" stroke="black" stroke-width="0.5"/><polyline points="44.16,54.09 44.16,54.45 44.14,54.84 44.05,55.13 44.09,55.58 44.15,56.10 43.95,56.45 43.84,56.84 43.81,57.31 43.57,57.70 43.72,58.06 44.22,58.13 44.37,57.84 44.43,57.59 44.59,57.33 44.46,56.98 44.53,56.65" fill="none" stroke="black" stroke-width="0.5"/><polyline points="41.86,54.21 41.86,54.63 41.87,54.98 41.88,55.37 41.89,55.74 41.92,56.13 41.97,56.56 42.30,56.95 42.76,57.13 42.83,56.92 42.79,56.63 42.80,56.22 42.81,55.95 42.85,55.59" fill="none" stroke="black" stroke-width="0.5"/><polyline points="38.61,55.17 38.23,55.35 37.89,55.53 37.61,55.68 37.23,55.93 36.94,56.15 36.69,56.37 36.49,56.57 36.22,56.85 35.93,57.16 35.67,57.46 35.41,57.78 35.18,58.06 34.95,58.40 34.75,58.73 34.53,59.04 34.44,59.43 34.40,59.80 34.34,60.17 34.30,60.51 34.14,60.85 34.06,61.27 34.19,61.72 34.17,62.04 34.17,62.23 34.16,62.62 34.15,62.91 34.14,63.22 34.13,63.65 34.13,64.19 34.12,64.45" fill="none" stroke="black" stroke-width="0.5"/><polyline points="49.25,55.68 49.59,55.76 49.98,55.88 50.39,56.06 50.68,56.24 50.32,56.43 50.23,56.74 50.66,56.61 50.75,56.77 50.72,57.14 51.12,57.36 51.49,57.71 51.50,57.83 51.65,57.23 52.06,57.03 52.11,56.75 52.41,56.89 52.76,57.31 52.69,57.68 52.26,57.77 52.09,57.53 52.19,57.97" fill="none" stroke="black" stroke-width="0.5"/><polyline points="39.25,55.77 39.14,56.19 39.16,56.53 39.18,56.85 39.20,57.19 39.21,57.46 39.24,57.73 39.26,58.09 39.18,58.58 39.15,58.98 39.32,59.38 39.33,59.69 39.35,59.97 39.37,60.26 39.39,60.63 39.41,60.93 39.42,61.16 39.43,61.40 39.45,61.76 39.46,62.20" fill="none" stroke="black" stroke-width="0.5"/><polyline points="53.73,55.97 53.25,56.15 52.70,56.41 52.17,56.57 51.67,56.34 51.13,56.02" fill="none" stroke="black" stroke-width="0.5"/><polyline points="60.10,56.55 60.12,56.82 60.49,57.15 60.80,57.56 61.01,57.97 61.01,58.46 61.00,58.75 60.95,59.06 60.89,59.38 60.83,59.65 60.76,59.93 60.68,60.22 60.61,60.52 60.51,60.89 60.37,61.32 60.26,61.69 60.16,61.99 60.05,62.34 59.91,62.73 59.80,63.01 59.66,63.39 59.54,63.71 59.37,64.11 59.24,64.39 59.04,64.79 58.90,65.06 58.72,65.37 58.50,65.74 58.34,65.98 58.04,66.40 57.83,66.70 57.64,66.95 57.40,67.23 57.16,67.53 56.95,67.77 56.63,68.11 56.35,68.40 56.11,68.62 55.86,68.86 55.58,69.11 55.18,69.39 54.80,69.51 54.32,69.60 53.89,69.69 53.47,69.79 53.01,69.98 52.61,70.22 52.32,70.48 52.08,70.78 51.82,71.08 51.50,71.27 51.08,71.40 50.62,71.51 50.14,71.62 49.68,71.75 49.25,71.89 48.88,72.05 48.36,72.24 48.23,72.36 47.86,72.55 47.43,72.83 47.09,73.11 46.82,73.37 46.56,73.64 46.33,73.94 46.09,74.27 45.90,74.56 45.67,74.92 45.51,75.21 45.33,75.49 45.09,75.81 44.78,75.59 44.50,75.21 44.28,74.86 44.09,74.58 43.87,74.25 43.59,73.84 43.34,73.49 43.10,73.15 42.92,72.89 42.73,72.60 42.53,72.32 42.28,71.95 42.00,71.53 41.75,71.13 41.51,70.75 41.31,70.44 41.12,70.14 40.87,69.78 40.64,69.47 40.33,69.16 39.97,68.85 39.62,68.61 39.27,68.40 38.86,67.96 38.55,67.64 38.71,67.99 38.82,68.37 38.67,68.76 38.60,69.10 38.50,69.43 38.41,69.71 38.32,69.99 38.23,70.39" fill="none" stroke="black" stroke-width="0.5"/><polyline points="61.62,56.59 61.95,56.91 62.21,57.23 62.43,57.59 62.63,58.01 62.72,58.29 62.81,58.67 62.90,59.02 63.19,59.36 63.49,59.63 63.83,59.89 63.99,60.24 64.14,60.65 64.24,60.93 64.38,61.35 64.51,61.78 64.59,62.08 64.66,62.41 64.75,62.76 64.81,63.05 64.86,63.33 64.92,63.65 64.97,63.92 65.03,64.19 65.09,64.50 65.15,64.77 65.21,65.11 65.27,65.42 65.33,65.72 65.40,66.04 65.46,66.34 65.55,66.69 65.63,67.00 65.70,67.25 65.77,67.53 65.86,67.83 65.94,68.10 66.06,68.49 66.20,68.86 66.34,69.24 66.45,69.54 66.57,69.86 66.73,70.22 66.86,70.52 66.69,70.84 66.32,71.09 65.94,71.29 65.56,71.43 65.13,71.56 64.68,71.66 64.22,71.74 63.74,71.79 63.25,71.83 62.82,71.83 62.32,71.77 61.96,71.68 61.63,71.59 61.30,71.47 60.86,71.30 60.47,71.15 60.15,71.04 59.85,70.95 59.54,70.85 59.21,70.75 58.91,70.67 58.57,70.58 58.13,70.59 57.68,70.58 57.28,70.37 56.68,70.32 56.52,70.31 56.57,70.30 55.98,70.30 56.04,70.30 56.02,70.31 55.52,70.33" fill="none" stroke="black" stroke-width="0.5"/><polyline points="45.12,57.87 44.95,58.21 44.90,58.56 45.36,58.52 45.77,58.48 45.70,58.74 45.64,59.07 45.93,59.46 46.35,59.55 46.34,59.27 46.42,58.95 46.74,58.82 47.17,59.18 47.18,59.52 47.16,59.79 47.23,60.12 47.69,60.49 47.95,60.39 47.97,59.95 48.03,59.66 48.13,59.30 48.25,59.00 48.71,59.22 48.75,59.59 48.66,59.88 48.58,60.18 48.57,60.40 48.55,60.66 48.87,61.06 49.34,61.28 49.32,61.03 49.28,60.69 49.30,60.32 49.46,60.02 50.01,59.79 50.20,59.96 50.13,60.35 50.12,60.76 50.18,61.11 50.32,61.44" fill="none" stroke="black" stroke-width="0.5"/><polyline points="38.97,58.84 38.70,59.13 38.45,59.44 38.20,59.76 37.95,60.09 37.75,60.38 37.52,60.73 37.33,61.07 37.19,61.40 37.11,61.75 37.08,62.13 37.07,62.42 37.07,62.65 37.07,62.86 37.07,63.08 37.07,63.30 37.08,63.52 37.09,63.77 37.10,64.12 37.11,64.40 37.17,64.78 37.28,65.12 37.43,65.45 37.63,65.82 37.85,66.19 38.07,66.54 38.25,66.89 38.38,67.23 38.51,67.56" fill="none" stroke="black" stroke-width="0.5"/><polyline points="34.22,59.16 33.67,59.16 33.13,59.21 32.62,59.30 32.12,59.42 31.63,59.56 31.15,59.73 30.68,59.91 30.21,60.10 29.74,60.28 29.26,60.46 28.77,60.63 28.28,60.78 27.76,60.91" fill="none" stroke="black" stroke-width="0.5"/><polyline points="64.33,59.90 64.63,60.02 64.94,60.16 65.30,60.38 65.62,60.61 66.00,60.90 66.33,61.11 66.73,61.31 67.08,61.45 67.34,61.56 67.77,61.71 68.18,61.86 68.49,61.97 68.79,62.08 69.11,62.20 69.54,62.35 69.87,62.49 70.26,62.64 70.61,62.79 70.93,62.94 71.37,63.13 71.70,63.27 72.02,63.31 72.37,63.15 72.77,62.96 73.28,62.79 73.78,62.78 74.05,62.82 74.39,62.90 74.71,62.99 74.99,63.10 75.30,63.23 75.67,63.41 76.08,63.61 76.51,63.82 76.93,64.00 77.27,64.16 77.57,64.29 77.97,64.48 78.37,64.68 78.69,64.84 78.94,64.96 79.19,65.10 79.59,65.31 79.99,65.54 80.37,65.76 80.69,65.96 81.05,66.20 81.41,66.46 81.72,66.69 82.07,66.97" fill="none" stroke="black" stroke-width="0.5"/><polyline points="33.88,61.18 33.61,61.47 33.38,61.75 33.14,62.04 32.94,62.28 32.64,62.67 32.40,63.00 32.20,63.31 32.00,63.63 31.80,63.96 31.65,64.24 31.52,64.48 31.39,64.73 31.17,65.12 31.00,65.40 30.84,65.67 30.57,66.12 30.33,66.51 30.16,66.78 29.96,67.12 29.76,67.48 29.63,67.76 29.48,68.09 29.37,68.36 29.24,68.70 29.26,69.08 29.61,69.35 29.97,69.52 30.28,69.65 30.62,69.80 30.93,69.93 31.31,70.08 31.79,70.27 32.19,70.42 32.51,70.53 32.79,70.63 33.14,70.75 33.44,70.85 33.76,70.96 34.14,71.08 34.47,71.22 34.72,71.08 34.95,70.66 35.09,70.27 35.26,69.91 35.41,69.63 35.85,69.36 36.07,69.10 36.18,68.75 36.31,68.44 36.43,68.16 36.62,67.79" fill="none" stroke="black" stroke-width="0.5"/><polyline points="26.59,61.28 26.12,61.43 25.65,61.59 25.20,61.75 24.74,61.91 24.29,62.07 23.84,62.24 23.38,62.42 22.92,62.60 22.45,62.79 21.98,62.99 21.53,63.19 21.14,63.38 20.76,63.57 20.37,63.79 19.99,63.99 19.64,64.20 19.27,64.43 18.86,64.71 18.43,65.00 18.06,65.27 17.77,65.50 17.47,65.73 17.01,66.09" fill="none" stroke="black" stroke-width="0.5"/><polyline points="57.58,70.83 57.15,71.07 56.68,71.23 56.20,71.35 55.71,71.46 55.23,71.57 54.82,71.73 54.57,71.97 54.27,72.23 53.91,72.41 53.36,72.55 53.38,72.56 52.92,72.46 52.78,72.18 52.98,71.87 53.33,71.60 53.77,71.42 54.24,71.36" fill="none" stroke="black" stroke-width="0.5"/><polyline points="34.66,71.43 34.94,71.74 35.43,71.74 35.91,71.73 35.45,71.75 35.78,71.73 36.23,71.74 36.39,71.75 36.78,71.83 37.06,71.92 37.30,72.03 37.64,72.21 38.00,72.45 38.36,72.73 38.67,72.99 38.95,73.22 39.26,73.49 39.60,73.79 39.91,74.05 40.19,74.29 40.46,74.53 40.77,74.80 41.09,75.08 41.39,75.34 41.71,75.63 42.00,75.87 42.28,76.11 42.65,76.43 42.99,76.73 43.28,77.05 43.13,77.44 43.11,77.68 43.10,77.98 43.09,78.25 43.09,78.47 43.07,78.82 43.08,79.03 43.06,79.30 43.04,79.59 43.04,79.79 43.03,80.23 43.02,80.49 43.00,80.98 42.97,81.43 42.94,81.87 42.89,82.20 42.85,82.47 42.80,82.74 42.75,83.03 42.70,83.27 42.66,83.52 42.59,83.86 42.55,84.13 42.50,84.41 42.44,84.83 42.39,85.15 42.34,85.50 42.30,85.87 42.25,86.15 42.21,86.46 42.18,86.72 42.15,87.01 42.12,87.24 42.09,87.51 42.06,87.82 42.04,88.07 42.01,88.34 41.98,88.68 41.95,89.07 41.92,89.43 41.91,89.74 42.10,90.13 42.49,90.22 42.85,90.28 43.23,90.35 43.51,90.40 43.81,90.46 44.36,90.53 44.72,90.58 44.90,90.63 45.34,90.69 45.50,90.73" fill="none" stroke="black" stroke-width="0.5"/><polyline points="51.54,72.29 51.91,72.50 51.76,72.82 51.58,73.20 51.42,73.54 51.24,73.94 51.11,74.26 50.92,74.66 50.77,75.00 50.60,75.37 50.47,75.68 50.36,75.92 50.26,76.17 50.16,76.42 50.00,76.81 49.87,77.13 49.76,77.40 49.65,77.69 49.57,77.93 49.48,78.18 49.39,78.44 49.29,78.73 49.20,79.03 49.11,79.37 49.02,79.67 48.96,79.90 48.90,80.14 48.82,80.47 48.74,80.78 48.68,81.08 48.61,81.43 48.55,81.73 48.51,81.97 48.47,82.25 48.43,82.53 48.40,82.79 48.36,83.17 48.32,83.54 48.30,83.78 48.27,84.10 48.23,84.38 48.21,84.73 48.17,85.12 48.15,85.48 48.12,85.73 48.10,85.98 48.08,86.23 48.06,86.57 48.03,86.82 48.00,87.18 47.96,87.49 47.93,87.82 47.91,88.08 47.87,88.35 47.84,88.65 47.79,88.98 47.75,89.27 47.71,89.58 47.68,89.83 47.63,90.21 47.55,90.53" fill="none" stroke="black" stroke-width="0.5"/><polyline points="45.02,76.02 45.25,76.44 45.45,76.78 45.62,77.09 45.81,77.42 45.99,77.74 46.16,78.06 46.35,78.41 46.54,78.79 46.74,79.19 46.90,79.54 47.04,79.88 47.16,80.23 47.25,80.54 47.32,80.86 47.37,81.14 47.39,81.52 47.40,81.90 47.40,82.10 47.40,82.32 47.39,82.53 47.37,82.82 47.36,83.07 47.32,83.41 47.28,83.86 47.25,84.25 47.19,84.66 47.15,84.99 47.13,85.24 47.09,85.56 47.05,85.92 47.01,86.37 46.97,86.69 46.94,86.94 46.91,87.33 46.88,87.58 46.85,87.98 46.83,88.25 46.82,88.47 46.81,88.83 46.79,89.25 46.80,89.56 46.80,89.77 46.81,90.16 46.83,90.55 46.85,90.90 46.87,91.35 46.90,91.65 46.92,91.92 46.95,92.28 46.97,92.57 47.00,92.83 47.01,93.06 47.03,93.40" fill="none" stroke="black" stroke-width="0.5"/><polyline points="43.41,77.07 43.76,77.37 44.13,77.68 44.48,77.99 44.79,78.27 45.08,78.56 45.37,78.86 45.66,79.17 45.94,79.50 46.16,79.86 46.30,80.25 46.35,80.56 46.34,80.80 46.30,81.09 46.15,81.44 45.88,81.75 45.47,81.92 45.05,81.86 44.69,81.58 44.45,81.21 44.32,80.82 44.29,80.39 44.31,80.05 44.41,79.75 44.62,79.40 44.93,79.14" fill="none" stroke="black" stroke-width="0.5"/><polyline points="42.11,93.03 42.53,93.12 42.97,93.21 43.43,93.29 43.90,93.38 44.36,93.46 44.80,93.53 45.23,93.59 45.62,93.65 45.98,93.69" fill="none" stroke="black" stroke-width="0.5"/></svg>