<svg width="100.0mm" height="100.0mm" viewBox="0 0 100.0 100.0" xmlns="http://www.w3.org/2000/svg"><polyline points="57.49,0.40 57.97,0.63 58.41,0.75 58.90,0.76 59.41,0.81 59.80,0.86 60.06,0.90 60.42,0.96 60.77,1.04 61.10,1.11 61.43,1.19 61.83,1.30 62.29,1.44 62.74,1.57 63.12,1.68 63.47,1.79" fill="none" stroke="black" stroke-width="0.5"/><polyline points="45.55,0.88 45.11,0.90 44.59,0.92 44.08,0.95 43.60,1.00 43.12,1.08 42.62,1.18 42.15,1.31 41.71,1.46 41.29,1.64 40.99,1.78 40.70,1.95 40.35,2.14 40.07,2.34 39.79,2.60 39.48,2.85 39.30,3.13 39.46,3.48 39.88,3.77 40.04,4.24 40.27,4.65 40.58,4.98 40.86,5.34 41.18,5.69" fill="none" stroke="black" stroke-width="0.5"/><polyline points="45.52,0.88 45.81,0.91 45.09,0.92 44.45,0.95" fill="none" stroke="black" stroke-width="0.5"/><polyline points="46.03,0.92 46.35,0.94 46.56,0.94 46.69,0.97 47.10,0.99 47.35,1.04 47.69,1.07 48.10,1.12 48.32,1.22 48.87,1.31 49.22,1.35 49.19,1.82 49.55,2.07 49.91,2.33 50.32,2.53 50.58,2.67 51.01,2.87 51.28,3.02 51.65,3.24 51.97,3.44 52.37,3.69 52.65,3.88 52.91,4.05 53.30,4.34 53.69,4.61 54.04,4.89 54.38,5.18 54.69,5.47 55.00,5.78 55.29,6.07 55.54,6.45 55.37,6.98 55.56,7.32 55.89,7.62 56.21,7.92 56.52,8.23 56.80,8.56 57.05,8.91 57.26,9.26 57.44,9.57 57.54,9.82 57.69,10.27 57.74,10.74 57.75,11.17 57.72,11.41 57.63,11.83 57.41,12.16 57.18,12.47 56.79,12.65 56.50,13.02 56.18,13.33 55.80,13.63 55.40,13.40 55.21,13.35 55.02,13.64 55.26,13.15 55.36,12.80 55.42,12.46 55.42,12.17 55.42,11.96 55.40,11.65 55.38,11.38 55.32,11.02 55.24,10.72 55.16,10.45 55.07,10.16 54.94,9.84 54.77,9.50 54.58,9.16 54.36,8.81 54.10,8.46 53.84,8.12 53.59,7.86 53.28,7.53 52.98,7.25 52.66,6.97 52.34,6.68 52.00,6.38 51.62,6.09 51.23,5.79 50.84,5.49 50.50,5.23 50.14,4.99 49.81,4.78 49.56,4.62 49.19,4.42 48.76,4.20 48.45,4.07 48.16,3.94 47.71,3.76 47.26,3.61 46.95,3.53 46.57,3.43 46.23,3.32 45.79,3.21 45.42,3.13 44.96,3.06 44.64,3.01 44.31,2.96 43.94,2.93 43.74,2.88 43.33,2.89 43.07,2.86 42.80,2.86 43.03,2.83 42.55,2.91 42.13,3.13 41.93,3.51 42.29,3.73 42.42,4.15 42.78,4.38 43.12,4.55 43.55,4.71 43.80,4.82 44.16,5.00 44.45,5.15 44.93,5.35 45.21,5.51 45.59,5.72 45.94,5.92 46.24,6.10 46.51,6.26 46.84,6.45 47.09,6.63 47.38,6.83 47.74,7.09 48.10,7.35 48.44,7.61 48.76,7.85 49.07,8.13 49.42,8.43 49.75,8.73" fill="none" stroke="black" stroke-width="0.5"/><polyline points="49.91,1.09 50.16,1.15 50.52,1.26 50.95,1.38 51.34,1.50 51.75,1.57 52.21,1.61 52.64,1.65 52.81,1.92 53.10,2.26 53.46,2.54 53.81,2.79 54.17,2.99 54.55,3.15 54.75,3.35 54.91,3.65 55.25,3.94 55.57,4.25 55.89,4.51 56.05,4.92 56.36,5.28 56.69,5.63" fill="none" stroke="black" stroke-width="0.5"/><polyline points="56.48,1.57 56.85,1.85 57.21,2.14 57.63,2.39 58.00,2.51 58.21,2.77 58.67,2.92 59.04,3.00 59.41,3.08 59.79,3.16 60.24,3.28 60.71,3.40 61.09,3.50 61.45,3.61 61.81,3.72 62.22,3.84 62.60,3.96 62.95,4.07 63.25,4.17 63.61,4.30 64.02,4.44 64.37,4.57 64.64,4.68 65.01,4.83 65.38,5.00 65.77,5.21 66.18,5.45 66.49,5.66 66.87,5.94 67.21,6.20 67.55,6.50 67.90,6.80 68.21,7.10 68.50,7.39 68.77,7.67" fill="none" stroke="black" stroke-width="0.5"/><polyline points="65.79,1.90 66.16,1.97 66.57,2.08 66.96,2.19 67.36,2.32 67.78,2.48 68.19,2.64 68.56,2.81 68.90,2.97 69.22,3.14 69.53,3.32 69.92,3.50 70.37,3.71 70.77,3.93 71.19,4.14 71.59,4.39 71.81,4.77 71.96,5.18 72.25,5.49 72.55,5.81 72.78,6.10" fill="none" stroke="black" stroke-width="0.5"/><polyline points="58.88,2.06 59.26,2.09 59.43,2.12 59.79,2.15 60.24,2.22 60.73,2.30 61.14,2.40 61.51,2.48 61.87,2.56 62.27,2.67 62.72,2.80 63.12,2.92" fill="none" stroke="black" stroke-width="0.5"/><polyline points="64.87,2.46 65.29,2.74 65.67,2.92 66.04,3.06 66.43,3.21 66.84,3.39 67.24,3.59 67.62,3.80 67.99,4.01 68.35,4.24 68.70,4.48 69.05,4.74 69.41,5.02 69.77,5.31 70.11,5.62 70.42,5.92 70.73,6.22 71.05,6.54 71.36,6.90 71.50,7.38 71.42,7.86 71.17,8.15 70.81,8.34 70.42,8.56 70.03,8.80 69.65,9.00" fill="none" stroke="black" stroke-width="0.5"/><polyline points="35.48,2.60 35.68,2.63 36.06,2.65 36.43,2.68 36.88,2.76 37.34,2.87 37.75,2.99 38.11,3.14 38.59,3.36" fill="none" stroke="black" stroke-width="0.5"/><polyline points="47.63,2.76 47.98,2.88 48.33,3.01 48.70,3.15 49.08,3.32 49.46,3.51 49.85,3.72 50.25,3.96 50.65,4.23 51.05,4.53" fill="none" stroke="black" stroke-width="0.5"/><polyline points="34.93,2.85 34.48,3.06 34.02,3.07 33.55,3.07 33.07,3.13 32.62,3.21 32.19,3.32 31.73,3.50 31.32,3.70 31.00,3.89 31.03,4.31 31.38,4.80 31.11,4.93 31.55,4.81 32.06,4.67 32.26,4.65 32.64,4.59 32.99,4.60 33.41,4.64 33.71,4.68 34.07,4.75 34.40,4.82 34.80,4.95 35.24,5.10 35.61,5.24 35.96,5.44" fill="none" stroke="black" stroke-width="0.5"/><polyline points="55.73,3.00 56.11,3.10 56.45,3.23 56.78,3.35 57.13,3.50 57.27,3.95 57.16,4.38 56.83,4.35 56.65,4.31 57.16,4.48 57.71,4.67 58.04,4.81 58.40,4.99 58.82,5.20 59.15,5.39 59.44,5.57 59.80,5.81 60.16,6.07 60.50,6.36 60.85,6.66 61.19,6.96 61.52,7.28 61.83,7.60 62.15,7.93 62.34,8.32 62.37,8.80 62.48,9.31 62.47,9.75 62.12,10.04 61.85,10.29 61.83,10.84 61.64,11.26 61.36,11.62 61.03,11.97 60.70,12.31 60.38,12.64" fill="none" stroke="black" stroke-width="0.5"/><polyline points="30.02,3.08 29.55,3.32 29.10,3.58 28.68,3.86 28.28,4.17 27.93,4.49 27.62,4.83 27.36,5.18 27.15,5.54 27.00,5.91" fill="none" stroke="black" stroke-width="0.5"/><polyline points="34.54,3.32 34.96,3.59 35.38,3.83 35.81,4.07 36.25,4.30 36.67,4.54 37.09,4.81 37.49,5.11 37.86,5.47 38.21,5.88" fill="none" stroke="black" stroke-width="0.5"/><polyline points="43.06,3.72 43.40,3.79 43.73,3.87 44.11,3.98 44.46,4.09 44.79,4.21 45.17,4.36 45.48,4.50 45.83,4.66 46.21,4.85 46.54,5.03 46.91,5.24 47.25,5.45 47.60,5.68 47.92,5.91 48.29,6.18 48.68,6.48 49.04,6.78 49.36,7.07 49.68,7.37 50.03,7.72 50.35,8.06 50.64,8.40 50.93,8.75 51.22,9.13 51.49,9.50 51.72,9.83 51.95,10.23 52.19,10.66 52.44,11.08 52.70,11.43 52.99,11.84 53.35,11.98 53.41,11.75 53.19,12.26 52.76,12.48 52.32,12.72 51.89,12.79" fill="none" stroke="black" stroke-width="0.5"/><polyline points="37.14,3.84 37.54,4.08 37.91,4.29 38.25,4.52 38.62,4.78 38.91,5.00 39.20,5.26 39.51,5.56 39.84,5.89 40.16,6.28 40.47,6.67 40.83,7.00 41.19,7.24 41.52,7.49 41.86,7.77 42.19,8.04 42.52,8.32 42.92,8.58 43.44,8.50 43.79,8.59 44.20,8.85 44.64,9.11 44.98,9.33 45.34,9.56 45.68,9.78 45.99,9.99 46.36,10.24 46.72,10.49 47.00,10.70 47.31,10.96 47.63,11.24 47.95,11.52 48.27,11.81 48.49,12.24 48.36,12.63 48.20,12.80 48.63,12.65 49.02,12.96 49.49,13.11 49.88,12.93 50.18,12.69 50.53,12.46 50.74,12.00 50.72,11.57 50.48,11.25 50.22,10.92 49.94,10.62 49.66,10.33 49.37,10.06 49.07,9.77 48.74,9.48 48.40,9.19 48.07,8.92 47.74,8.65 47.44,8.41 47.08,8.14 46.76,7.91 46.42,7.67 46.10,7.46 45.78,7.24 45.40,7.01 45.06,6.82 44.66,6.61 44.36,6.46 43.94,6.26 43.54,6.08 43.20,5.94" fill="none" stroke="black" stroke-width="0.5"/><polyline points="72.82,4.23 73.22,4.45 73.59,4.72 73.93,5.04 74.23,5.38 74.51,5.74 74.77,6.10 75.01,6.46 75.22,6.82 75.35,7.22 75.37,7.66 75.22,8.08 74.83,8.31 74.31,8.23 73.88,7.96" fill="none" stroke="black" stroke-width="0.5"/><polyline points="66.21,4.31 66.67,4.57 67.12,4.84 67.55,5.12 67.96,5.41 68.35,5.71 68.73,6.02 69.10,6.34 69.44,6.66 69.77,6.99 70.09,7.32 70.39,7.66" fill="none" stroke="black" stroke-width="0.5"/><polyline points="62.58,4.72 63.02,4.90 63.43,5.10 63.83,5.32 64.22,5.55 64.60,5.80 64.96,6.07 65.33,6.36 65.68,6.66 66.03,6.96 66.32,7.27 66.49,7.68 66.60,8.16 66.79,8.59 67.13,8.88 67.58,9.03 68.06,9.05 68.48,8.86" fill="none" stroke="black" stroke-width="0.5"/><polyline points="61.83,5.14 62.19,5.34 62.56,5.57 62.92,5.81 63.28,6.07 63.61,6.33 63.94,6.61 64.25,6.89 64.56,7.18 64.85,7.47 65.15,7.77 65.44,8.08 65.76,8.41 66.06,8.86 65.99,9.24 65.55,9.47 65.18,9.65 64.82,9.73 64.50,9.87 64.53,9.72 64.67,9.13 64.50,8.73 64.14,8.48 63.82,8.20 63.51,7.89 63.20,7.61 62.88,7.32 62.57,6.99" fill="none" stroke="black" stroke-width="0.5"/><polyline points="28.68,5.36 28.44,5.63 28.22,5.91 28.05,6.18 27.79,6.51 27.57,6.82 27.16,7.06 27.01,7.38 26.86,7.69 26.40,7.78 26.00,8.06 25.69,8.34 25.43,8.62 25.20,8.96 25.01,9.32 24.87,9.63 24.74,10.00 24.67,10.28 24.61,10.58 24.56,10.95 24.54,11.35 24.55,11.63 24.56,11.91 24.51,12.23 24.51,12.28 24.85,12.30 25.11,12.69 25.35,13.05 25.50,13.40 25.70,13.75 25.93,14.11 26.20,14.46 26.49,14.79 26.79,15.09 27.10,15.37 27.42,15.62 27.78,15.87 28.16,16.10 28.47,16.27 28.80,16.42 29.17,16.58 29.53,16.72 29.84,16.81 30.16,16.91 30.48,17.00 30.90,17.08 31.31,17.16 31.76,17.22 32.23,17.26 32.65,17.05 32.95,16.61 33.35,16.72 33.78,16.87 34.18,16.87 34.60,16.88 35.07,16.89 35.32,16.65 35.51,16.15 35.84,16.19 36.19,16.23" fill="none" stroke="black" stroke-width="0.5"/><polyline points="29.85,6.06 29.53,6.36 29.23,6.64 28.96,6.95 28.74,7.36 28.56,7.83 28.43,8.31 28.37,8.77 28.35,9.20 28.39,9.59 28.45,9.94 28.54,10.27 28.65,10.62 28.81,11.00 29.01,11.41 29.25,11.82 29.50,12.19 29.78,12.55 30.08,12.91 30.41,13.28" fill="none" stroke="black" stroke-width="0.5"/><polyline points="58.32,6.12 58.71,6.37 59.10,6.65 59.49,6.93 59.87,7.24 60.24,7.57 60.60,7.90 60.95,8.26 61.28,8.62 61.58,9.00" fill="none" stroke="black" stroke-width="0.5"/><polyline points="30.90,6.20 30.64,6.49 30.39,6.83 30.22,7.13 30.06,7.54 29.97,7.88 29.91,8.23 29.91,8.48 29.93,8.84 29.97,9.12 30.04,9.45 30.14,9.79 30.29,10.17 30.42,10.46 30.62,10.82 30.86,11.20 31.12,11.56 31.40,11.90 31.68,12.22 31.97,12.53 32.27,12.83 32.60,13.13 32.97,13.43 33.32,13.69 33.62,13.89 33.94,14.10 34.31,14.32 34.72,14.54 35.09,14.70 35.43,14.85 35.80,15.00 36.12,15.11 36.52,15.22 36.86,15.29 37.26,15.34 37.53,15.34 37.96,15.33 38.42,15.24" fill="none" stroke="black" stroke-width="0.5"/><polyline points="32.49,6.38 32.50,6.71 32.56,7.09 32.63,7.42 32.73,7.75 32.89,8.14 33.10,8.57 33.34,8.98 33.58,9.36 33.84,9.71 34.10,10.05 34.36,10.37 34.63,10.67 34.92,10.96 35.22,11.25 35.55,11.55 35.87,11.85 36.16,12.10 36.46,12.38 36.68,12.78 36.77,13.19 37.09,13.39 37.47,13.58 37.89,13.79 38.28,13.99 38.62,14.22 38.98,14.33 39.36,14.39 39.73,14.46 40.10,14.58 40.48,14.66 40.88,14.68 41.31,14.73 41.73,14.76 42.11,14.77 42.49,15.03 42.70,15.48 42.42,15.69" fill="none" stroke="black" stroke-width="0.5"/><polyline points="31.52,6.80 31.44,7.14 31.41,7.48 31.42,7.83 31.46,8.18 31.53,8.53 31.64,8.89 31.78,9.24 31.96,9.60 32.16,9.95 32.39,10.31 32.66,10.66 32.94,11.01 33.25,11.35 33.57,11.67 33.90,11.98 34.25,12.26 34.60,12.52 34.96,12.76 35.34,12.98 35.72,13.18" fill="none" stroke="black" stroke-width="0.5"/><polyline points="33.97,6.83 34.17,7.23 34.39,7.62 34.64,8.00 34.91,8.37 35.20,8.73 35.49,9.09 35.80,9.44 36.10,9.78 36.42,10.11 36.73,10.43 37.05,10.72 37.37,11.00 37.70,11.27 38.05,11.53 38.41,11.79 38.78,12.04 39.16,12.28 39.62,12.36 40.10,12.36 40.48,12.48 40.81,12.71 41.21,12.91 41.63,13.11 42.05,13.20 42.53,13.01 42.92,12.99 43.30,13.13 43.65,13.26 44.02,13.37" fill="none" stroke="black" stroke-width="0.5"/><polyline points="35.88,6.99 36.19,7.35 36.49,7.71 36.79,8.07 37.09,8.42 37.40,8.77 37.70,9.11 38.01,9.45 38.32,9.79 38.64,10.13 38.96,10.47 39.29,10.80 39.63,11.14 39.98,11.47" fill="none" stroke="black" stroke-width="0.5"/><polyline points="57.34,7.01 57.71,7.21 58.09,7.45 58.47,7.71 58.84,7.99 59.19,8.30 59.51,8.63 59.82,8.98 60.11,9.34 60.40,9.72 60.68,10.10 60.61,10.23 60.27,10.41 60.04,10.87 59.89,11.25 59.82,11.56 59.67,11.88 59.44,12.23 59.13,12.52 58.73,12.73 58.34,13.01 57.99,13.38 57.63,13.67" fill="none" stroke="black" stroke-width="0.5"/><polyline points="37.26,7.20 37.63,7.48 37.99,7.77 38.34,8.07 38.68,8.37 39.02,8.69 39.35,9.01 39.68,9.33 40.01,9.66 40.33,9.99 40.66,10.31 40.99,10.64 41.32,10.96 41.66,11.27 42.00,11.58 42.35,11.88 42.72,12.17" fill="none" stroke="black" stroke-width="0.5"/><polyline points="41.99,7.21 42.53,7.56 43.05,7.90 43.57,8.28" fill="none" stroke="black" stroke-width="0.5"/><polyline points="51.33,7.26 51.67,7.64 52.01,8.02 52.33,8.40 52.63,8.79 52.92,9.18 53.17,9.57 53.39,9.98 53.57,10.39 53.70,10.82" fill="none" stroke="black" stroke-width="0.5"/><polyline points="39.16,7.26 39.53,7.56 39.89,7.87 40.25,8.17 40.61,8.48 40.97,8.78 41.33,9.08 41.68,9.38 42.04,9.68 42.40,9.97 42.75,10.27 43.11,10.56 43.46,10.85 43.82,11.13 44.18,11.41 44.54,11.69 44.90,11.97 45.27,12.24" fill="none" stroke="black" stroke-width="0.5"/><polyline points="75.36,8.06 75.78,8.26 76.18,8.49 76.30,8.72 76.69,9.13 77.09,9.22 77.59,9.11 78.02,9.30 78.37,9.50 78.55,9.59 79.08,9.71 79.49,9.87 79.75,10.00 80.18,10.19 80.52,10.40 80.83,10.58 81.19,10.86 81.52,11.15 81.51,11.67 81.67,12.10 82.04,12.33 82.39,12.59 82.74,12.88 83.06,13.17 83.36,13.44 83.62,13.71 83.88,13.99 84.13,14.29 84.39,14.62 84.63,14.95 84.86,15.25 85.02,15.52 85.26,15.90 85.48,16.28 85.70,16.66 85.87,16.98 86.06,17.33 86.18,17.59 86.35,17.97 86.51,18.33 86.75,18.68 87.01,19.06 87.17,19.53 87.41,19.93 87.66,20.29 87.85,20.62 88.06,20.98 88.35,21.31 88.63,21.62 88.89,21.92 89.16,22.25 89.61,22.14 89.67,22.57 89.79,22.92 89.86,23.28 89.65,23.70 89.45,24.15 89.24,24.56 89.18,24.93 89.30,25.30 89.42,25.75 89.51,26.08 89.61,26.46 89.71,26.83 89.81,27.17 89.92,27.52 90.01,27.83 90.12,28.19 90.22,28.51 90.32,28.80 90.43,29.14 90.52,29.51 90.63,29.80 90.70,30.14 90.80,30.45 90.91,30.81 90.97,31.12 91.06,31.47 91.14,31.86 91.18,32.14 91.26,32.45 91.29,32.71 91.31,32.94 91.34,33.27 91.39,33.61 91.42,33.88 91.44,34.21 91.45,34.61 91.48,34.92 91.48,35.43 91.46,35.90 91.44,36.11 91.44,36.32 91.37,36.67 91.16,37.07 90.94,37.47 90.71,37.88 90.46,38.35 90.42,38.21 90.34,37.91 90.11,37.50 89.88,37.11 89.66,36.73 89.57,36.42 89.52,36.11 89.49,35.80 89.44,35.55 89.45,35.23 89.04,35.22 88.79,34.84 88.55,34.47 88.42,34.07 88.29,33.68 88.21,33.43 88.10,33.14 88.00,32.88 87.88,32.60 87.78,32.34 87.67,32.07 87.56,31.78 87.41,31.46 87.26,31.13 87.16,30.89 87.00,30.58 86.79,30.19 86.59,29.79 86.39,29.43 86.18,29.09 85.99,28.77 85.75,28.40 85.51,28.02 85.29,27.70 85.02,27.34 84.80,27.02 84.52,26.66 84.28,26.33" fill="none" stroke="black" stroke-width="0.5"/><polyline points="27.00,8.35 26.94,8.62 26.89,8.93 26.85,9.28 26.82,9.64 26.80,10.00 26.80,10.36 26.83,10.71 26.88,11.06 26.97,11.42 27.11,11.79 27.28,12.17 27.49,12.55 27.74,12.93 28.01,13.29 28.31,13.64 28.64,13.97 28.99,14.27 29.36,14.54" fill="none" stroke="black" stroke-width="0.5"/><polyline points="78.68,8.55 79.04,8.62 79.42,8.72 79.70,8.81 80.12,8.96 80.45,9.09 80.80,9.25 81.19,9.46 81.55,9.65 81.89,9.86 82.29,10.13 82.62,10.37 82.97,10.65 83.29,10.94 83.58,11.21 83.87,11.50 84.18,11.82 84.47,12.15 84.73,12.47 84.99,12.81 85.25,13.17 85.48,13.52 85.70,13.86 85.89,14.14 86.14,14.50 86.35,14.79 86.61,15.13 86.89,15.49 87.17,15.84 87.42,16.17 87.65,16.48 88.07,16.61 88.35,16.96 88.64,17.32 88.83,17.63 88.95,17.88 89.10,18.18 89.28,18.56 89.43,18.89 89.55,19.20 89.65,19.47 89.79,19.90 89.88,20.20 89.97,20.52 90.05,20.92" fill="none" stroke="black" stroke-width="0.5"/><polyline points="55.64,8.64 55.87,9.02 56.06,9.39 56.23,9.76 56.38,10.13 56.49,10.49 56.56,10.84 56.61,11.18 56.62,11.51 56.58,11.82" fill="none" stroke="black" stroke-width="0.5"/><polyline points="75.78,9.81 76.22,10.03 76.65,10.25 77.04,10.46 77.39,10.66 77.73,10.86 78.08,11.07 78.43,11.29 78.78,11.53 79.14,11.79 79.49,12.06 79.84,12.34 80.19,12.63 80.54,12.94 80.87,13.25 81.20,13.58 81.52,13.91 81.84,14.25 82.14,14.58 82.44,14.91 82.74,15.24 83.03,15.56 83.33,15.89 83.62,16.22 83.93,16.57" fill="none" stroke="black" stroke-width="0.5"/><polyline points="72.92,9.93 73.24,10.03 73.58,10.14 73.94,10.28 74.31,10.45 74.66,10.62 75.01,10.80 75.37,11.00 75.71,11.20 76.03,11.39 76.33,11.59 76.64,11.79 76.96,12.02 77.29,12.25 77.64,12.51 78.01,12.80 78.39,13.11 78.76,13.41 79.11,13.71 79.42,13.97 79.73,14.25 80.07,14.55 80.40,14.85 80.72,15.14 81.05,15.45 81.39,15.75 81.70,16.04 82.02,16.32 82.34,16.60" fill="none" stroke="black" stroke-width="0.5"/><polyline points="58.73,10.27 58.76,10.69 58.75,11.09 58.71,11.46 58.65,11.85" fill="none" stroke="black" stroke-width="0.5"/><polyline points="70.74,10.81 71.18,10.93 71.54,11.07 71.90,11.23 72.31,11.42 72.71,11.63 73.07,11.82 73.43,12.03 73.82,12.26 74.20,12.50 74.55,12.73 74.91,12.97 75.29,13.23 75.67,13.50 76.04,13.77 76.40,14.03 76.75,14.30 77.11,14.56 77.44,14.81 77.78,15.06 78.14,15.33 78.48,15.58 78.79,15.81 79.12,16.05 79.49,16.31 79.85,16.56 80.20,16.79 80.56,17.02 80.93,17.25 81.31,17.48" fill="none" stroke="black" stroke-width="0.5"/><polyline points="68.02,11.36 68.39,11.50 68.76,11.64 69.17,11.81 69.58,12.00 69.90,12.15 70.20,12.31 70.52,12.49 70.91,12.71 71.27,12.93 71.58,13.12 71.92,13.33 72.28,13.57 72.59,13.78 72.92,14.01 73.28,14.25 73.56,14.45 73.92,14.69 74.30,14.95 74.67,15.22 75.07,15.49 75.42,15.73 75.70,15.91 76.09,16.17 76.46,16.41 76.80,16.61 77.12,16.81 77.47,17.00 77.77,17.17 78.15,17.38 78.55,17.58 78.91,17.76 79.26,17.92 79.57,18.06 79.88,18.19 80.26,18.33 80.68,18.48 81.03,18.59 81.40,18.70 81.73,18.76" fill="none" stroke="black" stroke-width="0.5"/><polyline points="65.72,12.01 66.10,12.16 66.48,12.32 66.85,12.50 67.22,12.69 67.59,12.89 67.96,13.10 68.33,13.32 68.70,13.54 69.06,13.77 69.41,13.98 69.74,14.19 70.07,14.41 70.42,14.64 70.79,14.88 71.16,15.12 71.54,15.37 71.93,15.61 72.31,15.86 72.69,16.10 73.07,16.34 73.45,16.58 73.84,16.81 74.24,17.05" fill="none" stroke="black" stroke-width="0.5"/><polyline points="62.75,12.41 63.09,12.70 63.43,12.92 63.78,13.14 64.11,13.35 64.43,13.55 64.78,13.79 65.10,14.01 65.39,14.20 65.71,14.42 66.05,14.67 66.39,14.90 66.72,15.14 67.08,15.39 67.47,15.67 67.85,15.94 68.18,16.18 68.50,16.41 68.83,16.64 69.20,16.90 69.56,17.15 69.83,17.34 70.14,17.55 70.47,17.78 70.80,18.00 71.16,18.23 71.51,18.46 71.87,18.69 72.22,18.91 72.58,19.12 72.93,19.31 73.26,19.48 73.60,19.65 73.95,19.81 74.31,19.95" fill="none" stroke="black" stroke-width="0.5"/><polyline points="24.19,12.98 24.25,13.33 24.34,13.67 24.45,14.00 24.59,14.33 24.79,14.72 25.01,15.10 25.27,15.46 25.55,15.81 25.85,16.12 26.20,16.41 26.52,16.64 26.89,16.88 27.27,17.08 27.66,17.27 28.09,17.41 28.55,17.58 28.98,17.80 29.31,18.10 29.14,18.60 28.97,18.93 28.84,19.22 28.75,19.47 28.61,19.82 28.51,20.12 28.36,20.54 28.26,20.84 28.19,21.06 28.10,21.33 28.01,21.60 27.92,21.88 27.78,22.33 27.62,22.83 27.48,23.27 27.35,23.70 27.24,24.05 27.13,24.42 27.06,24.65 26.98,24.91 26.91,25.14 26.83,25.38 26.74,25.66 26.65,25.92 26.57,26.18 26.47,26.46 26.40,26.69 26.28,27.01 26.17,27.30 26.04,27.66 25.91,28.00 25.78,28.31 25.68,28.57 25.49,29.03 25.34,29.39 25.20,29.70 25.08,29.98 24.95,30.26 24.80,30.60" fill="none" stroke="black" stroke-width="0.5"/><polyline points="61.86,13.73 62.20,14.02 62.55,14.31 62.89,14.60 63.23,14.89 63.57,15.18 63.91,15.45 64.23,15.72 64.55,15.98 64.90,16.25 65.27,16.54 65.63,16.82 65.98,17.07 66.30,17.30 66.60,17.51 66.90,17.71 67.20,17.90 67.52,18.10 67.87,18.32 68.21,18.53 68.55,18.73 68.91,18.94 69.29,19.15 69.68,19.35 70.05,19.55 70.40,19.74 70.74,19.91 71.09,20.08 71.50,20.28" fill="none" stroke="black" stroke-width="0.5"/><polyline points="58.80,14.10 59.05,14.48 59.27,14.84 59.48,15.15 59.74,15.49 60.01,15.82 60.27,16.14 60.53,16.44 60.83,16.78 61.13,17.11 61.40,17.38 61.75,17.74 62.09,18.06 62.37,18.32 62.70,18.63 63.02,18.92 63.31,19.19 63.61,19.43 63.94,19.73 64.26,20.00 64.60,20.28 64.92,20.55 65.21,20.80 65.59,21.11 65.92,21.39 66.26,21.68 66.58,21.96 66.93,22.23 67.22,22.47 67.54,22.72 67.82,22.95 68.10,23.17 68.40,23.39 68.77,23.67 69.15,23.96 69.54,24.25 69.90,24.51 70.23,24.75 70.52,24.96 70.82,25.17 71.16,25.41 71.48,25.64 71.79,25.84 72.09,26.06 72.38,26.26 72.63,26.45 72.89,26.63 73.15,26.83 73.42,27.04 73.68,27.23 74.03,27.51 74.41,27.82 74.75,28.11 75.04,28.35 75.35,28.62 75.70,28.94 76.03,29.25 76.35,29.54 76.64,29.81 76.96,30.14 77.28,30.46 77.53,30.71 77.80,30.98 78.07,31.24 78.35,31.54 78.61,31.83 78.89,32.14 79.36,32.22 79.79,32.32 80.05,32.65 80.12,33.14 80.28,33.56 80.55,33.91 80.82,34.26 81.07,34.60 81.32,34.92 81.57,35.28 81.81,35.63 82.07,36.00 82.33,36.38 82.55,36.74" fill="none" stroke="black" stroke-width="0.5"/><polyline points="60.20,14.12 60.48,14.49 60.76,14.86 61.06,15.23 61.35,15.59 61.66,15.95 61.97,16.31 62.29,16.66 62.62,17.00 62.95,17.33 63.30,17.65 63.65,17.96 64.01,18.26 64.38,18.54 64.77,18.80" fill="none" stroke="black" stroke-width="0.5"/><polyline points="30.44,14.37 30.85,14.71 31.32,14.98 31.80,15.23 32.23,15.53 32.54,15.93 32.67,16.49" fill="none" stroke="black" stroke-width="0.5"/><polyline points="48.82,14.67 48.51,14.90 48.64,15.30 49.05,15.59 49.48,15.49 49.90,15.33 50.32,15.21 50.74,15.10 51.18,14.99 51.64,14.88 52.12,14.82 52.56,14.77 52.96,14.72 53.47,14.72 53.83,14.75 54.09,14.78 54.29,14.83 54.62,14.88 55.07,15.01 55.54,15.16 55.95,15.33 56.31,15.53 56.65,15.76 56.98,16.05 57.32,16.39" fill="none" stroke="black" stroke-width="0.5"/><polyline points="57.81,14.89 58.04,15.28 58.28,15.65 58.52,16.01 58.77,16.37 59.03,16.72 59.29,17.07 59.56,17.40 59.84,17.74 60.13,18.06 60.43,18.38 60.73,18.70 61.04,19.01 61.36,19.32 61.68,19.62 62.01,19.92 62.35,20.22 62.69,20.51 63.04,20.80 63.39,21.08 63.75,21.37 64.12,21.65 64.49,21.93" fill="none" stroke="black" stroke-width="0.5"/><polyline points="49.87,16.25 49.73,16.27 49.13,16.31 48.51,16.39 47.96,16.50 47.43,16.63" fill="none" stroke="black" stroke-width="0.5"/><polyline points="50.10,16.25 50.45,16.27 50.93,16.25 51.08,16.28 51.52,16.31 51.98,16.39 52.41,16.47 52.72,16.57 53.06,16.69 53.43,16.86 53.81,17.06 54.13,17.26 54.46,17.50 54.82,17.78 55.17,18.08 55.48,18.38 55.78,18.70 56.04,19.01 56.27,19.28 56.55,19.62 56.84,19.98 57.12,20.34 57.39,20.69 57.65,21.02 57.90,21.34 58.21,21.68 58.52,22.05 58.87,22.33 59.38,22.18 59.64,21.79 59.42,21.45 59.19,21.05 58.96,20.64 58.79,20.32 58.65,20.05 58.49,19.72 58.37,19.48 58.14,19.02 57.99,18.74 57.81,18.41 57.59,18.00 57.39,17.67 57.18,17.36 56.90,17.03 56.55,16.68 56.23,16.35" fill="none" stroke="black" stroke-width="0.5"/><polyline points="58.84,17.71 59.05,18.04 59.28,18.39 59.53,18.74 59.79,19.10 60.07,19.46 60.35,19.81 60.65,20.15 60.96,20.48 61.27,20.80 61.59,21.11 61.92,21.41 62.26,21.70 62.60,21.97 62.95,22.23 63.29,22.48 63.64,22.71 64.00,22.93 64.35,23.14 64.70,23.33 65.05,23.51" fill="none" stroke="black" stroke-width="0.5"/><polyline points="84.80,18.38 85.29,18.77 85.77,19.19 86.24,19.60" fill="none" stroke="black" stroke-width="0.5"/><polyline points="83.27,18.82 83.65,19.08 84.02,19.35 84.39,19.63 84.76,19.92 85.11,20.23 85.46,20.54 85.80,20.87 86.12,21.20 86.43,21.54 86.72,21.88 87.00,22.23 87.26,22.58" fill="none" stroke="black" stroke-width="0.5"/><polyline points="76.56,19.21 76.95,19.48 77.34,19.76 77.71,20.04 78.08,20.33 78.45,20.62 78.81,20.92 79.17,21.22 79.52,21.52 79.87,21.83 80.21,22.15 80.55,22.46 80.89,22.79 81.22,23.11 81.55,23.44 81.88,23.78 82.21,24.11" fill="none" stroke="black" stroke-width="0.5"/><polyline points="82.94,19.94 83.33,20.22 83.70,20.51 84.06,20.82 84.41,21.13 84.75,21.44 85.07,21.76 85.39,22.07 85.69,22.39 85.98,22.72 86.26,23.08 86.56,23.45 86.89,23.76 87.32,23.95 87.76,24.11 88.10,24.39 88.35,24.79" fill="none" stroke="black" stroke-width="0.5"/><polyline points="76.62,20.66 76.98,20.94 77.34,21.22 77.69,21.49 78.02,21.76 78.33,22.03 78.63,22.30 78.94,22.59 79.25,22.89 79.52,23.15 79.87,23.50 80.20,23.85 80.45,24.12 80.74,24.45 81.04,24.79 81.28,25.07 81.56,25.39 81.82,25.70 82.05,25.98 82.29,26.26 82.58,26.61 82.87,26.99 83.12,27.34 83.38,27.68 83.58,27.97 83.79,28.27 84.04,28.64 84.25,28.96 84.43,29.25 84.64,29.58 84.88,29.98 85.12,30.39 85.33,30.78 85.52,31.12 85.68,31.43 85.82,31.71 85.96,31.98 86.09,32.28 86.23,32.57 86.36,32.85 86.46,33.08 86.56,33.33 86.68,33.63 86.83,34.02 86.95,34.34 87.04,34.60" fill="none" stroke="black" stroke-width="0.5"/><polyline points="80.06,20.69 80.48,21.09 80.85,21.44 81.24,21.80 81.67,22.23" fill="none" stroke="black" stroke-width="0.5"/><polyline points="55.41,20.90 55.66,21.28 55.92,21.65 56.19,22.02 56.47,22.37 56.76,22.72 57.06,23.06 57.36,23.38 57.68,23.70 58.00,24.01 58.33,24.30 58.67,24.59 59.01,24.87 59.37,25.13 59.73,25.38 60.09,25.63 60.47,25.86 60.85,26.08 61.24,26.29" fill="none" stroke="black" stroke-width="0.5"/><polyline points="74.93,20.98 75.34,21.25 75.70,21.52 76.05,21.80 76.39,22.08 76.74,22.37 77.06,22.65 77.36,22.93 77.64,23.19 77.93,23.47 78.26,23.81 78.57,24.15 78.86,24.45 79.16,24.77 79.46,25.11 79.75,25.44 80.01,25.73 80.26,26.02 80.55,26.36 80.83,26.70 81.07,27.00 81.32,27.32 81.61,27.71 81.91,28.12 82.18,28.50 82.38,28.80 82.60,29.11 82.82,29.44 83.01,29.73 83.17,30.00 83.33,30.25 83.48,30.52 83.65,30.79 83.82,31.09 83.99,31.40 84.15,31.71 84.32,32.01 84.48,32.36 84.63,32.68 84.78,33.01 84.94,33.37 85.07,33.71 85.19,34.05" fill="none" stroke="black" stroke-width="0.5"/><polyline points="73.47,21.42 73.88,21.66 74.26,21.90 74.61,22.15 74.96,22.42 75.29,22.70 75.62,22.99 75.95,23.28 76.28,23.59 76.62,23.91 76.95,24.24 77.28,24.57 77.59,24.90 77.89,25.22 78.18,25.54 78.47,25.87 78.74,26.19 78.99,26.49 79.26,26.83 79.55,27.20 79.86,27.60 80.17,28.01 80.46,28.40 80.72,28.76 80.93,29.07 81.12,29.36 81.32,29.67" fill="none" stroke="black" stroke-width="0.5"/><polyline points="57.69,22.08 57.98,22.47 58.30,22.85 58.64,23.24 59.00,23.62 59.39,23.98 59.78,24.34 60.18,24.67 60.59,24.98" fill="none" stroke="black" stroke-width="0.5"/><polyline points="59.92,22.16 60.19,22.52 60.51,22.88 60.88,23.22 61.26,23.54 61.65,23.84 62.04,24.10 62.39,24.32" fill="none" stroke="black" stroke-width="0.5"/><polyline points="71.87,22.19 72.26,22.42 72.64,22.64 73.00,22.86 73.36,23.09 73.72,23.33 74.07,23.58 74.42,23.85 74.78,24.13 75.14,24.43 75.48,24.73 75.80,25.02 76.12,25.32 76.46,25.65 76.78,25.98 77.08,26.30 77.36,26.61 77.65,26.94 77.96,27.29 78.27,27.65 78.57,28.01 78.83,28.34 79.09,28.68 79.35,29.03 79.61,29.40 79.86,29.76 80.12,30.14 80.37,30.54 80.59,30.89" fill="none" stroke="black" stroke-width="0.5"/><polyline points="70.16,22.96 70.55,23.21 70.95,23.47 71.35,23.72 71.72,23.96 72.09,24.20 72.46,24.45 72.82,24.71 73.18,24.96 73.53,25.21 73.86,25.46 74.20,25.72 74.54,25.99 74.88,26.28 75.21,26.58 75.53,26.87 75.84,27.16 76.17,27.47 76.52,27.81 76.89,28.17 77.26,28.54 77.61,28.92 77.94,29.28 78.25,29.62 78.54,29.95 78.81,30.28 79.09,30.62 79.37,30.97 79.67,31.34" fill="none" stroke="black" stroke-width="0.5"/><polyline points="55.87,23.28 56.15,23.65 56.44,24.03 56.73,24.40 57.04,24.76 57.36,25.10 57.68,25.41 58.02,25.69 58.36,25.96 58.71,26.21 59.07,26.45 59.42,26.67 59.77,26.87 60.13,27.06 60.49,27.24 60.88,27.41 61.29,27.59" fill="none" stroke="black" stroke-width="0.5"/><polyline points="83.50,23.62 83.86,23.92 84.19,24.21 84.51,24.50 84.82,24.81 85.14,25.14 85.46,25.48 85.76,25.83 86.06,26.18 86.34,26.54 86.62,26.91 86.88,27.29 87.12,27.64 87.33,27.96 87.52,28.28 87.72,28.61 87.90,28.93 88.07,29.25 88.24,29.58 88.40,29.90 88.55,30.24 88.72,30.63 88.89,31.09 89.06,31.53 89.18,31.90 89.28,32.22 89.37,32.53 89.45,32.84 89.54,33.20 89.63,33.60 89.71,34.03 89.78,34.45" fill="none" stroke="black" stroke-width="0.5"/><polyline points="54.96,23.93 55.24,24.33 55.52,24.72 55.80,25.09 56.09,25.44 56.38,25.77 56.69,26.08 57.00,26.37 57.32,26.65 57.66,26.92 58.01,27.19 58.38,27.44 58.76,27.70 59.16,27.95 59.55,28.19 59.94,28.42 60.31,28.64" fill="none" stroke="black" stroke-width="0.5"/><polyline points="63.85,24.36 64.15,24.68 64.46,24.98 64.78,25.29 65.12,25.58 65.46,25.86 65.80,26.12 66.11,26.34 66.39,26.55 66.83,26.84 67.16,27.07 67.48,27.27 67.87,27.52 68.29,27.77 68.71,28.02 69.12,28.23 69.39,28.46 69.36,28.91 69.36,29.39 69.61,29.76 69.93,30.09 70.21,30.45 70.46,30.78 70.74,31.09 71.05,31.41 71.37,31.74 71.67,32.05 71.95,32.32 72.24,32.57 72.55,32.84 72.88,33.10 73.19,33.33 73.44,33.49" fill="none" stroke="black" stroke-width="0.5"/><polyline points="54.25,25.34 54.51,25.70 54.77,26.05 55.04,26.38 55.32,26.72 55.60,27.05 55.88,27.35 56.20,27.68 56.57,28.02 56.93,28.32 57.26,28.57 57.57,28.81 57.91,29.05 58.23,29.27 58.59,29.50 58.91,29.68 59.28,29.90 59.58,30.09 59.93,30.30 60.30,30.52 60.64,30.74 61.01,30.98 61.46,30.74 61.86,30.58 62.13,30.94 62.41,31.28 62.69,31.62 62.96,31.94 63.24,32.27 63.53,32.58 63.83,32.89 64.16,33.20 64.51,33.50 64.84,33.79 65.18,34.06 65.51,34.32 65.85,34.56 66.18,34.79 66.60,34.92 67.04,34.61 66.94,34.25 66.65,33.94 66.36,33.65 66.07,33.35 65.77,33.04 65.45,32.72 65.13,32.41 64.81,32.09 64.47,31.74 64.14,31.39 63.84,31.06 63.57,30.74 63.29,30.42 63.02,30.09 62.74,29.75 62.46,29.40 62.20,29.07 61.98,28.76" fill="none" stroke="black" stroke-width="0.5"/><polyline points="35.89,25.36 35.55,25.39 35.76,25.39 36.30,25.38 36.85,25.38 36.55,25.41 36.29,25.41 36.95,25.41 37.33,25.43 37.29,25.41 37.76,25.43 37.97,25.58 37.60,26.11 37.77,26.32 38.23,26.34 38.56,26.37 38.95,26.41 39.32,26.45 39.65,26.51 39.86,26.54 40.20,26.58 40.56,26.64 40.91,26.70 41.26,26.79 41.69,26.90 42.12,27.03" fill="none" stroke="black" stroke-width="0.5"/><polyline points="35.23,25.41 34.52,25.46 33.77,25.52 33.13,25.63" fill="none" stroke="black" stroke-width="0.5"/><polyline points="35.87,26.31 35.34,26.34 34.78,26.40 34.21,26.47 33.65,26.55 33.12,26.65 32.64,26.74 32.22,26.84" fill="none" stroke="black" stroke-width="0.5"/><polyline points="54.83,27.37 55.08,27.75 55.35,28.13 55.63,28.50 55.92,28.87 56.23,29.22 56.54,29.56 56.87,29.87 57.21,30.16 57.56,30.42 57.93,30.68 58.31,30.92 58.71,31.17 59.11,31.44 59.52,31.70 59.97,31.89 60.44,32.04 60.83,32.29 61.12,32.65 61.44,32.98 61.77,33.28 62.10,33.55 62.44,33.81 62.78,34.05 63.14,34.29 63.51,34.50 63.87,34.71 64.22,34.89 64.57,35.05 64.91,35.18 65.27,35.30" fill="none" stroke="black" stroke-width="0.5"/><polyline points="64.80,27.60 65.09,27.94 65.37,28.28 65.64,28.61 65.92,28.94 66.21,29.30 66.52,29.68 66.81,30.04 67.04,30.33 67.34,30.71 67.64,31.09 67.84,31.37 68.10,31.72 68.35,32.05 68.58,32.34 68.82,32.65 69.10,33.03 69.40,33.41 69.66,33.75 69.92,34.07 70.19,34.42 70.48,34.78 70.75,35.11 71.03,35.40 71.46,35.56 71.86,35.69 72.11,36.01 72.39,36.34 72.68,36.65 72.95,36.96 73.24,37.27 73.52,37.57 73.77,37.86 74.05,38.16 74.33,38.46 74.63,38.74 74.89,39.10 74.96,39.59 75.11,40.02 75.46,40.30 75.75,40.58 76.17,40.72 76.57,40.82 76.90,40.92 77.21,41.02 77.54,41.12 77.84,41.22 78.19,41.34 78.56,41.47 78.90,41.60 79.21,41.73" fill="none" stroke="black" stroke-width="0.5"/><polyline points="29.00,27.67 28.85,27.98 28.68,28.36 28.52,28.75 28.39,29.12 28.28,29.48 28.18,29.86 28.09,30.24 28.03,30.58 27.99,30.90 27.96,31.21 27.95,31.53 27.96,31.83 27.98,32.17 28.01,32.55 28.06,32.94 28.14,33.26" fill="none" stroke="black" stroke-width="0.5"/><polyline points="72.40,28.02 72.75,28.33 73.09,28.65 73.43,28.95 73.77,29.26 74.11,29.56 74.45,29.86 74.78,30.16 75.12,30.46 75.45,30.75 75.79,31.05 76.12,31.36 76.46,31.65 76.79,31.95 77.12,32.24 77.44,32.52 77.76,32.81 78.08,33.08 78.39,33.36" fill="none" stroke="black" stroke-width="0.5"/><polyline points="70.77,28.09 71.12,28.33 71.47,28.57 71.80,28.85 72.13,29.11 72.47,29.41 72.79,29.70 73.08,29.98 73.37,30.26 73.65,30.56 73.95,30.84 74.31,31.19 74.57,31.44 74.83,31.71 75.18,32.07 75.53,32.42 75.79,32.69 76.13,33.04 76.43,33.43 76.37,33.96 76.53,34.32 76.87,34.59 77.22,34.87 77.58,35.23 77.91,35.54 78.27,35.89 78.60,36.21 78.61,36.74 78.74,37.15 79.10,37.40 79.44,37.64 79.76,37.91 80.08,38.19 80.40,38.47 80.72,38.73 81.03,38.99 81.38,39.18 81.84,39.22 82.09,39.48 82.35,39.72 82.47,40.13 82.31,40.57 82.11,41.00 81.89,41.42 81.83,41.83 82.09,42.08 82.34,42.33 82.59,42.58 82.85,42.83 83.10,43.09 83.35,43.34 83.60,43.59 83.86,43.84 84.11,44.10 84.36,44.35 84.62,44.62 84.90,44.93 85.18,45.28 85.38,45.63 85.83,45.61 86.16,45.29 86.36,44.99 86.57,44.69 86.78,44.40 86.99,44.10 87.19,43.81 87.41,43.49 87.65,43.14 87.87,42.81 88.09,42.48 88.31,42.14 88.46,41.74 88.29,41.30 88.06,40.90 87.84,40.50 87.61,40.10 87.37,39.78 87.29,39.46 87.44,39.17 87.09,39.60 86.84,39.35 86.58,39.10 86.33,38.84 86.08,38.59 85.83,38.29 85.67,37.93 85.60,37.62 85.54,37.36 85.48,37.11 85.38,36.73 85.29,36.42 85.18,36.08 85.06,35.70 84.97,35.43 84.89,35.17 84.46,35.06 84.22,34.69 83.95,34.33 83.75,34.01 83.59,33.66 83.43,33.35 83.28,33.02 83.15,32.78 82.95,32.42 82.78,32.08 82.58,31.75 82.40,31.41 82.20,31.08" fill="none" stroke="black" stroke-width="0.5"/><polyline points="63.25,28.16 63.53,28.46 63.81,28.76 64.10,29.06 64.40,29.38 64.70,29.71 65.00,30.06 65.29,30.39 65.55,30.70 65.82,31.01 66.09,31.34 66.36,31.67 66.63,32.01 66.91,32.35 67.20,32.71 67.50,33.08 67.80,33.45 68.08,33.80 68.34,34.14 68.60,34.48 68.85,34.80 69.08,35.10 69.35,35.45 69.60,35.77 69.85,36.10 70.12,36.45 70.41,36.81 70.70,37.17 70.99,37.52 71.28,37.86 71.57,38.18 71.85,38.49 72.13,38.78 72.41,39.07 72.70,39.35 73.02,39.63 73.38,39.92" fill="none" stroke="black" stroke-width="0.5"/><polyline points="32.76,28.61 32.55,28.94 32.37,29.30 32.21,29.67 32.08,30.03 31.98,30.36 31.91,30.68 31.87,31.01 31.84,31.37 31.84,31.77 31.89,32.18 31.99,32.61 32.17,33.03 32.43,33.45 32.79,33.84" fill="none" stroke="black" stroke-width="0.5"/><polyline points="67.40,28.75 67.64,29.09 67.87,29.43 68.11,29.77 68.35,30.11 68.59,30.45 68.83,30.80 69.08,31.14 69.32,31.48 69.57,31.82 69.81,32.15 70.04,32.48 70.28,32.82 70.53,33.16 70.78,33.50 71.02,33.84 71.27,34.18 71.50,34.51 71.74,34.84" fill="none" stroke="black" stroke-width="0.5"/><polyline points="55.16,29.39 55.37,29.77 55.59,30.17 55.81,30.58 56.07,30.98 56.34,31.37 56.57,31.76 56.68,32.18 56.68,32.65 56.91,33.01 57.16,33.38 57.43,33.75 57.72,34.12 58.02,34.48 58.31,34.81 58.60,35.12 58.92,35.41 59.27,35.70 59.45,36.09 59.67,36.46 60.06,36.70 60.42,36.96 60.80,37.20 61.18,37.03 61.29,36.57 60.99,36.34 60.67,36.18 60.36,35.99 59.98,35.78" fill="none" stroke="black" stroke-width="0.5"/><polyline points="70.18,29.39 70.49,29.73 70.81,30.05 71.13,30.36 71.45,30.65 71.78,30.94 72.11,31.22 72.43,31.49 72.76,31.75 73.09,32.01 73.43,32.28 73.79,32.56 74.15,32.86 74.44,33.20 74.67,33.57 74.93,33.91 75.27,34.17 75.67,34.37" fill="none" stroke="black" stroke-width="0.5"/><polyline points="57.30,32.00 57.69,32.38 58.05,32.75 58.39,33.11 58.73,33.47 59.06,33.82 59.40,34.17 59.75,34.51 60.10,34.85 60.46,35.18 60.83,35.50 61.21,35.80 61.59,36.09" fill="none" stroke="black" stroke-width="0.5"/><polyline points="58.73,31.99 59.02,32.30 59.32,32.61 59.62,32.92 59.90,33.21 60.22,33.52 60.56,33.79 60.84,33.98 61.12,34.18 61.48,34.40 61.82,34.60 62.13,34.78 62.42,34.94 62.77,35.12 63.09,35.27 63.41,35.43 63.82,35.57 63.71,35.89 63.41,36.33 63.52,36.70 63.63,37.06 63.73,37.45 63.81,37.77 63.91,38.16 64.00,38.56 64.08,38.91 64.15,39.22 64.19,39.48 64.23,39.82 64.28,40.14 64.31,40.44 64.35,40.68 64.38,40.99 64.43,41.36 64.46,41.66 64.49,41.96 64.54,42.38 64.57,42.76 64.58,43.00 64.62,43.33 64.63,43.58 64.66,43.83 64.68,44.13 64.68,44.44 64.69,44.70 64.70,45.05 64.72,45.41 64.70,45.82 64.68,46.27 64.68,46.59 64.66,46.91 64.64,47.15 64.62,47.38 64.56,47.75" fill="none" stroke="black" stroke-width="0.5"/><polyline points="30.80,32.47 30.94,32.93 31.08,33.33 31.24,33.71 31.43,34.09 31.68,34.48 32.00,34.91" fill="none" stroke="black" stroke-width="0.5"/><polyline points="45.36,32.56 45.69,32.74 46.01,32.93 46.34,33.13 46.68,33.35 47.02,33.58 47.35,33.82 47.69,34.07 48.03,34.33 48.37,34.60 48.71,34.87 49.04,35.15 49.37,35.44 49.70,35.73 50.02,36.02 50.34,36.32 50.65,36.62 50.95,36.92 51.25,37.22 51.53,37.52" fill="none" stroke="black" stroke-width="0.5"/><polyline points="71.05,32.70 71.37,33.05 71.69,33.39 72.02,33.72 72.36,34.05 72.71,34.37 73.07,34.68 73.43,34.99 73.81,35.29 74.20,35.57 74.59,35.85 74.98,36.12 75.38,36.38 75.76,36.62 76.15,36.85 76.52,37.06 76.87,37.26" fill="none" stroke="black" stroke-width="0.5"/><polyline points="30.02,33.09 30.16,33.49 30.36,33.94 30.61,34.40 30.91,34.85 31.25,35.27 31.64,35.64 32.06,35.92" fill="none" stroke="black" stroke-width="0.5"/><polyline points="41.02,33.13 40.53,33.32 40.09,33.32 39.76,33.29 39.44,33.29 39.02,33.32 38.51,33.38 37.95,33.47 37.39,33.58 36.86,33.73" fill="none" stroke="black" stroke-width="0.5"/><polyline points="41.01,33.18 41.39,33.23 41.80,33.34 42.15,33.46 42.54,33.63 42.97,33.72 43.42,33.68 43.83,33.70 44.19,33.84 44.53,34.01 44.90,34.16 45.26,34.34 45.59,34.53 45.91,34.71 46.26,34.94 46.63,35.19 46.98,35.43 47.34,35.66 47.69,35.99 47.98,36.39 48.29,36.68 48.67,36.92 49.09,37.16 49.49,37.39 49.85,37.61 50.19,37.83" fill="none" stroke="black" stroke-width="0.5"/><polyline points="24.19,33.93 24.43,34.52 24.85,34.75 24.79,34.71 24.24,35.07" fill="none" stroke="black" stroke-width="0.5"/><polyline points="25.56,34.82 26.07,35.07 26.48,35.31 26.78,35.61 27.03,36.02 27.23,36.48 27.38,36.95 27.48,37.38 27.43,37.76 27.22,38.14 26.94,38.50 26.66,38.87 26.42,39.23 26.19,39.59" fill="none" stroke="black" stroke-width="0.5"/><polyline points="39.09,34.99 38.70,35.17 38.43,35.32 38.12,35.49 37.77,35.71 37.36,36.01 36.97,36.30 36.71,36.52 36.42,36.77 36.10,37.09 35.75,37.46 35.42,37.85 35.15,38.21 34.88,38.58 34.62,38.97 34.43,39.26 34.24,39.57 34.04,39.91 33.86,40.23 33.69,40.54 33.52,40.88 33.31,41.29" fill="none" stroke="black" stroke-width="0.5"/><polyline points="67.75,35.48 67.99,35.87 68.22,36.25 68.47,36.62 68.72,36.99 68.98,37.35 69.24,37.70 69.51,38.04 69.79,38.38 70.08,38.71 70.37,39.04 70.67,39.37 70.98,39.69 71.30,40.00 71.62,40.30 71.94,40.59 72.27,40.88 72.61,41.17 72.96,41.44 73.31,41.72" fill="none" stroke="black" stroke-width="0.5"/><polyline points="66.36,35.81 66.58,36.21 66.76,36.52 66.96,36.84 67.21,37.19 67.48,37.58 67.77,37.96 68.07,38.33 68.36,38.67 68.65,39.01 68.93,39.32 69.20,39.64 69.49,39.97 69.81,40.32 69.88,40.77 70.03,41.15 70.41,41.42 70.72,41.70 71.00,41.96 71.28,42.23 71.55,42.54 71.29,42.88 70.81,43.20 70.38,43.33 69.93,43.28 69.70,43.25 69.36,43.13 68.94,42.91 68.59,42.63 68.29,42.31 68.02,41.97 67.76,41.61 67.50,41.25 67.26,40.90 67.03,40.55 66.82,40.20 66.58,39.86 66.53,39.37 66.81,38.96 67.11,39.13 67.40,39.45 67.67,39.77 67.96,40.07 68.28,40.35 68.62,40.64 68.95,40.90 69.28,41.16" fill="none" stroke="black" stroke-width="0.5"/><polyline points="87.46,35.95 87.55,36.31 87.65,36.74 87.75,37.20 87.84,37.66 87.90,38.05" fill="none" stroke="black" stroke-width="0.5"/><polyline points="65.31,36.49 65.61,36.99 65.89,37.45 66.19,37.90 66.52,38.36 66.90,38.86" fill="none" stroke="black" stroke-width="0.5"/><polyline points="35.55,36.51 35.16,36.85 34.82,37.17 34.54,37.48 34.29,37.79 34.07,38.11 33.85,38.44 33.62,38.78 33.40,39.14 33.17,39.51 32.95,39.88 32.72,40.25" fill="none" stroke="black" stroke-width="0.5"/><polyline points="23.68,36.66 23.83,37.04 23.95,37.43 24.07,37.82 24.24,38.22 24.48,38.63 24.77,39.07 25.00,39.52 24.97,40.00 24.50,40.53" fill="none" stroke="black" stroke-width="0.5"/><polyline points="34.02,36.87 33.63,37.23 33.27,37.65 32.93,38.08 32.63,38.49" fill="none" stroke="black" stroke-width="0.5"/><polyline points="64.68,37.19 64.76,37.49 64.85,37.86 64.94,38.18 65.02,38.52 65.09,38.86 65.17,39.17 65.21,39.49 65.29,39.88 65.34,40.20 65.42,40.57 65.48,40.89 65.55,41.27 65.62,41.66 65.68,42.00 65.68,42.36 65.49,42.83 65.55,43.19 65.55,43.39 65.57,43.74 65.60,44.09 65.60,44.30 65.61,44.53 65.63,44.99 65.64,45.50 65.66,45.92 65.65,46.25 65.67,46.49 65.71,46.92 65.92,47.35 66.10,47.82 66.25,47.90 66.52,47.58 66.78,47.27 67.03,46.97 67.22,46.61 67.40,46.30 67.66,45.97 67.91,45.67 68.22,45.38 68.72,45.31 68.96,45.01 69.24,44.63 69.66,44.43 70.10,44.63 69.87,44.95 69.68,45.22 69.50,45.50 69.29,45.82 69.13,46.07 68.90,46.43 68.75,46.68 68.47,47.09 68.27,47.40 68.12,47.63 67.95,47.88 67.78,48.12 67.62,48.39 67.40,48.70 67.21,48.99 67.03,49.23 66.83,49.47 66.62,49.74 66.40,49.96 66.13,50.21 65.85,50.46 65.60,50.69" fill="none" stroke="black" stroke-width="0.5"/><polyline points="62.39,37.48 62.48,37.84 62.54,38.17 62.62,38.58 62.67,38.92 62.74,39.39 62.81,39.88 62.87,40.37 62.89,40.86 62.90,41.34 62.91,41.84 62.91,42.36 62.90,42.87 62.90,43.38 62.87,43.88 62.81,44.36 62.65,44.79 62.39,45.24 62.14,45.10 61.91,44.65 61.80,44.19 61.79,43.77 61.77,43.36 61.76,42.92 61.76,42.37 61.73,42.01 61.70,41.69 61.70,41.32 61.69,41.03 61.67,40.74 61.65,40.47 61.64,40.21 61.58,39.80 61.54,39.47 61.50,39.17 61.45,38.84 61.38,38.49 61.30,38.15" fill="none" stroke="black" stroke-width="0.5"/><polyline points="42.51,37.69 42.80,37.81 43.15,37.96 43.54,38.15 43.93,38.36 44.30,38.58 44.59,38.76 44.94,39.00 45.36,39.30 45.76,39.59 46.09,39.86 46.39,40.14 46.75,40.42 46.98,40.75 46.68,41.13 46.52,41.44 46.92,41.60 47.28,41.83 47.36,42.21 47.09,42.52 46.66,42.78 46.31,43.06 46.03,43.25" fill="none" stroke="black" stroke-width="0.5"/><polyline points="38.30,37.83 38.62,38.03 39.10,37.97 39.55,38.09 39.95,38.36 40.44,38.32 40.93,38.20 41.27,38.36 41.69,38.50 42.11,38.67 42.47,38.89 42.84,39.13 43.22,39.37 43.62,39.64 44.00,39.94 44.37,40.23 44.74,40.45 45.13,40.66 45.53,40.92 45.87,41.11 46.19,41.29" fill="none" stroke="black" stroke-width="0.5"/><polyline points="36.10,38.26 35.88,38.64 35.67,39.03 35.47,39.44 35.28,39.85 35.09,40.25 34.91,40.63 34.74,40.98 34.57,41.30" fill="none" stroke="black" stroke-width="0.5"/><polyline points="90.35,38.48 90.41,38.88 90.36,39.30 90.22,39.72 90.00,40.15 89.74,40.58 89.46,41.01 89.17,41.44 88.92,41.85" fill="none" stroke="black" stroke-width="0.5"/><polyline points="85.68,38.81 85.38,39.12 85.09,39.41 84.79,39.71 84.50,40.06" fill="none" stroke="black" stroke-width="0.5"/><polyline points="38.34,38.89 38.10,39.30 37.88,39.69 37.76,39.99 37.65,40.30 37.58,40.63 37.99,40.80 38.38,40.90 38.83,40.97 39.28,40.98 39.66,41.13 40.05,41.37 40.47,41.45 40.99,41.42 41.27,41.37 41.19,41.76 40.84,41.89 40.47,41.93 40.08,41.93 39.67,41.91 39.43,41.89" fill="none" stroke="black" stroke-width="0.5"/><polyline points="50.77,39.10 50.21,39.47 50.34,39.93 50.80,40.15 51.22,39.85 51.58,39.44" fill="none" stroke="black" stroke-width="0.5"/><polyline points="41.38,39.42 41.30,39.96 41.11,40.37 40.78,40.72" fill="none" stroke="black" stroke-width="0.5"/><polyline points="36.32,39.44 36.17,39.88 36.03,40.28 35.89,40.65 35.75,41.03 35.62,41.43" fill="none" stroke="black" stroke-width="0.5"/><polyline points="52.60,39.75 52.33,40.06 52.07,40.38 51.81,40.69 51.54,40.97 51.27,41.22 50.98,41.50 50.86,41.85 51.24,42.14 51.56,42.20 51.95,42.23 52.36,42.27 52.78,42.47 53.19,42.46 53.56,42.25 53.83,41.92 54.12,41.57" fill="none" stroke="black" stroke-width="0.5"/><polyline points="49.17,40.10 48.80,40.28 48.78,40.72 49.10,41.14 49.29,41.34 49.09,41.82 49.33,41.95 49.74,41.95" fill="none" stroke="black" stroke-width="0.5"/><polyline points="44.37,40.61 43.91,40.95 43.37,41.14 42.79,41.26 42.21,41.36 41.69,41.52" fill="none" stroke="black" stroke-width="0.5"/><polyline points="26.43,40.62 26.32,41.08 26.19,41.52 26.03,41.95 25.85,42.38 25.65,42.79 25.43,43.21" fill="none" stroke="black" stroke-width="0.5"/><polyline points="53.23,40.81 52.89,41.22 52.55,41.63 52.16,42.07" fill="none" stroke="black" stroke-width="0.5"/><polyline points="37.63,41.75 37.89,42.19 38.22,42.57 38.58,42.90 38.96,43.18 39.34,43.40 39.70,43.57" fill="none" stroke="black" stroke-width="0.5"/><polyline points="45.17,41.90 44.87,42.26 44.49,42.63 44.04,42.96 43.55,43.22" fill="none" stroke="black" stroke-width="0.5"/><polyline points="65.93,42.29 66.22,42.73 66.37,43.16 66.46,43.58 66.54,43.97 66.60,44.33 66.64,44.65 66.66,44.97 66.71,45.33 66.84,45.78 67.15,46.35" fill="none" stroke="black" stroke-width="0.5"/><polyline points="63.77,42.57 63.78,42.88 63.78,43.16 63.77,43.45 63.76,43.75 63.76,43.99 63.76,44.36 63.76,44.65 63.76,44.94 63.75,45.30 63.72,45.73 63.71,45.97 63.67,46.28 63.65,46.54 63.60,46.86 63.55,47.30 63.49,47.62 63.46,47.84 63.40,48.17 63.32,48.55 63.26,48.83 63.17,49.15 63.07,49.47 62.94,49.84 62.83,50.11 62.69,50.41 62.49,50.77 62.79,51.04 63.27,50.95 63.58,50.61 63.92,50.28 64.38,50.09 64.71,49.83 64.91,49.50 65.09,49.20 65.32,48.96 65.59,48.65 65.88,48.32 66.10,48.07" fill="none" stroke="black" stroke-width="0.5"/><polyline points="48.36,42.69 48.81,42.84 49.26,43.00 49.70,43.16 50.14,43.32 50.55,43.50 50.93,43.69" fill="none" stroke="black" stroke-width="0.5"/><polyline points="67.49,43.15 67.61,43.66 67.90,44.30 68.15,44.60 68.58,44.07" fill="none" stroke="black" stroke-width="0.5"/><polyline points="47.53,43.65 48.03,43.81 48.46,43.97 49.01,44.25" fill="none" stroke="black" stroke-width="0.5"/><polyline points="77.30,43.93 77.28,43.99 76.78,44.12 76.30,44.31 76.37,44.74 76.77,44.94 77.07,44.96 77.55,45.07 78.04,45.23 78.41,45.44 78.78,45.71 79.13,46.04 79.39,46.39 79.60,46.76 79.74,47.10 79.86,47.46 79.97,47.86 80.04,48.21 80.09,48.51 80.13,48.86 80.15,49.18 80.17,49.45 80.18,49.85 80.17,50.37 80.14,50.68 80.08,51.06 80.04,51.32 79.98,51.61 79.76,51.99 79.47,52.20 79.29,51.74 79.19,51.40 79.14,51.02 79.15,50.77 79.12,50.43 79.12,50.06 79.12,49.80 79.16,49.43 79.21,49.11" fill="none" stroke="black" stroke-width="0.5"/><polyline points="24.91,44.10 24.66,44.48 24.41,44.88 24.15,45.29 23.88,45.75 23.57,46.26" fill="none" stroke="black" stroke-width="0.5"/><polyline points="75.85,44.78 75.43,44.97 75.11,45.21 74.82,45.46 74.56,45.76 74.37,46.13 74.15,46.46 73.92,46.75 73.68,47.05 73.69,47.50 73.47,47.83 73.21,48.18 73.18,48.63 73.00,48.97 72.78,49.31 72.76,49.76 72.52,50.14 72.35,50.48 72.33,50.84 72.32,51.10 72.32,51.33 72.35,51.62 72.37,52.00 72.47,52.33 72.58,52.74 72.47,53.10 72.53,53.49 72.53,53.92 72.26,54.20 72.10,54.52 71.98,54.97 71.61,55.35 71.41,55.82 71.24,56.26 71.01,56.61 70.74,56.95 70.44,57.34 70.13,57.72" fill="none" stroke="black" stroke-width="0.5"/><polyline points="62.32,45.43 62.30,45.82 62.27,46.19 62.25,46.53 62.23,46.88 62.20,47.24 62.16,47.61 62.12,47.99 62.08,48.37 62.03,48.74 61.98,49.12 61.93,49.48 61.87,49.85 61.80,50.21 61.73,50.56 61.64,50.91 61.56,51.25" fill="none" stroke="black" stroke-width="0.5"/><polyline points="76.13,45.96 76.38,46.00 76.68,46.03 77.18,46.16 77.70,46.36 78.20,46.70" fill="none" stroke="black" stroke-width="0.5"/><polyline points="75.79,46.00 75.38,46.28 75.50,46.80 75.95,47.07 76.47,47.06 76.88,47.14 77.34,47.33" fill="none" stroke="black" stroke-width="0.5"/><polyline points="85.33,46.31 85.29,46.68 85.23,47.04 85.17,47.39 85.10,47.72 85.01,48.12 84.93,48.53 84.84,48.92 84.74,49.29 84.64,49.69 84.53,50.08 84.42,50.43 84.32,50.76 84.20,51.13 84.08,51.51 83.95,51.86 83.83,52.19 83.70,52.55 83.56,52.91 83.42,53.25 83.29,53.57 83.13,53.93 82.97,54.28 82.85,54.57 82.70,54.90 82.54,55.24 82.33,55.66 82.15,56.04 82.01,56.31 81.85,56.61 81.70,56.88 81.56,57.13 81.37,57.46 81.15,57.82 80.96,58.12 80.75,58.45 80.52,58.79 80.28,59.13 80.02,59.50 79.79,59.84 79.57,60.16 79.34,60.49 79.11,60.84 78.88,61.18 78.62,61.55" fill="none" stroke="black" stroke-width="0.5"/><polyline points="22.42,48.19 22.21,48.53 21.94,48.97 21.70,49.37 21.53,49.62 21.31,49.98 21.14,50.27 21.00,50.51 20.86,50.74 20.71,50.98 20.51,51.30 20.33,51.60 20.09,52.01 19.90,52.36 19.76,52.68 19.68,52.94 19.64,53.25 19.63,53.50 19.66,53.79 19.73,54.11 19.86,54.46 20.06,54.80 20.31,55.14 20.55,55.42 20.88,55.68 21.23,55.95 21.56,56.14 21.85,56.27 22.21,56.40 22.42,56.52 23.06,56.61 23.32,56.68 23.67,56.91 24.05,57.07 24.36,57.18 24.72,57.31 25.12,57.54 25.49,57.78 25.49,58.20 25.42,58.45 25.34,58.79 25.28,59.10 25.21,59.46 25.14,59.76 25.09,59.98 25.04,60.27 24.94,60.72 24.85,61.11 24.76,61.54 24.69,61.91 24.65,62.17 24.57,62.60 24.55,62.86 24.60,63.22 24.82,63.62 25.06,63.97 25.42,64.28 25.80,64.53 25.95,64.87 25.72,65.29 25.55,65.60 25.45,65.89 25.35,66.23 25.31,66.48 25.27,66.72 25.27,66.93 25.27,67.14 25.27,67.35 25.34,67.75 25.40,68.02 25.52,68.42 25.67,68.80 25.85,69.18 26.03,69.51 25.91,70.00 26.17,70.33 26.52,70.60 26.86,70.86 27.24,71.12 27.61,71.27 27.98,71.40 28.34,71.70 28.68,71.90 29.00,72.12 29.32,72.39 29.58,72.73 29.84,73.10 30.00,73.44 30.10,73.79 30.11,74.07 30.12,74.33 30.03,74.63 29.91,74.98 29.74,75.30 29.52,75.60 29.30,75.89 29.08,76.15" fill="none" stroke="black" stroke-width="0.5"/><polyline points="72.99,49.63 73.29,49.92 73.66,50.19 74.03,50.47 74.33,50.79 74.46,51.17 74.67,51.49 74.94,51.88 74.99,52.27 75.24,52.61 75.47,52.99 75.62,53.39 75.86,53.74 76.10,54.13 76.41,54.36 76.81,54.42 77.00,54.28 76.71,53.82 76.24,53.81" fill="none" stroke="black" stroke-width="0.5"/><polyline points="29.82,50.51 29.21,50.61 28.62,50.74 28.73,50.73 28.20,50.91" fill="none" stroke="black" stroke-width="0.5"/><polyline points="29.87,50.50 30.34,50.58 30.72,50.62 31.12,50.67 31.68,50.78" fill="none" stroke="black" stroke-width="0.5"/><polyline points="75.03,50.65 75.40,50.80 75.86,50.89 76.31,51.06 76.43,51.40 76.01,51.70 75.41,51.75" fill="none" stroke="black" stroke-width="0.5"/><polyline points="33.88,51.12 34.18,51.46 34.49,51.81 34.79,52.16 35.07,52.51 35.34,52.86 35.58,53.19 35.82,53.51 36.04,53.83 36.26,54.16 36.47,54.48 36.69,54.82 36.90,55.17 37.12,55.53 37.33,55.91 37.55,56.29 37.76,56.68 37.99,57.06 38.22,57.40" fill="none" stroke="black" stroke-width="0.5"/><polyline points="58.33,52.19 58.01,52.42 57.65,52.71 57.31,53.01 57.00,53.31 56.74,53.58 56.51,53.85 56.28,54.15 56.02,54.50 55.77,54.86 55.54,55.19 55.32,55.51 55.12,55.81 54.92,56.11 54.72,56.43 54.50,56.77 54.28,57.13 54.05,57.50 53.81,57.87 53.58,58.24 53.37,58.60" fill="none" stroke="black" stroke-width="0.5"/><polyline points="79.49,52.28 79.41,52.62 79.34,52.97 79.27,53.33 79.18,53.69 79.09,54.02 78.98,54.35 78.86,54.70 78.71,55.06 78.55,55.39 78.37,55.72 78.14,56.07 77.89,56.39 77.65,56.66 77.39,56.90 77.13,57.13 76.85,57.33 76.56,57.51 76.21,57.71 75.93,57.89" fill="none" stroke="black" stroke-width="0.5"/><polyline points="74.22,52.61 74.00,53.10 73.64,53.42 73.42,53.74 73.62,54.25 73.73,54.58 73.99,54.45 74.41,54.16 74.68,53.82" fill="none" stroke="black" stroke-width="0.5"/><polyline points="33.05,53.26 33.24,53.69 33.41,54.09 33.55,54.46 33.65,54.82 33.71,55.16 33.74,55.51 33.73,55.86 33.68,56.22 33.59,56.57 33.44,56.92 33.24,57.25 32.98,57.56" fill="none" stroke="black" stroke-width="0.5"/><polyline points="28.56,54.64 28.47,54.67 28.01,54.70 27.47,54.76 26.93,54.82 26.41,54.90 25.91,54.97 25.42,55.03 24.92,55.09 24.42,55.13 23.90,55.16 23.37,55.18 22.86,55.16 22.38,55.12 21.99,55.07 21.68,55.01 21.21,54.80" fill="none" stroke="black" stroke-width="0.5"/><polyline points="75.03,54.99 74.65,55.31 74.23,55.59 73.85,55.92 73.44,56.21 72.99,56.25 73.42,56.22 73.98,56.37 74.40,56.43 74.80,56.28 75.19,56.02" fill="none" stroke="black" stroke-width="0.5"/><polyline points="27.39,55.85 28.05,55.85 28.02,55.86 27.45,55.86 26.91,55.89 26.38,55.92 25.86,55.94 25.34,55.95 24.81,55.97 24.29,56.02 23.78,56.11 23.28,56.26" fill="none" stroke="black" stroke-width="0.5"/><polyline points="28.38,55.86 28.74,55.90 29.13,55.98 29.54,56.11 29.97,56.28 30.41,56.48 30.85,56.70 31.28,56.94 31.69,57.19" fill="none" stroke="black" stroke-width="0.5"/><polyline points="26.16,57.64 26.58,57.81 27.08,57.79 27.55,57.83 27.87,58.24 27.75,58.70 27.25,58.77 26.72,59.15 26.79,58.89 26.52,58.48 26.54,58.71 26.67,59.30 26.80,59.71 27.16,59.90 27.08,60.02 26.81,60.44 27.03,60.86 27.31,61.03 27.48,60.95 27.87,60.88 28.07,60.55 27.88,59.98 27.98,59.57" fill="none" stroke="black" stroke-width="0.5"/><polyline points="65.42,58.01 65.18,58.37 64.80,58.66 64.37,58.90 63.97,59.12 63.64,59.34 63.37,59.51 63.41,59.82 63.64,60.26 63.48,60.57 63.09,60.81 62.72,61.05 62.39,61.30 62.06,61.56 61.70,61.82 61.35,62.08 61.03,62.36" fill="none" stroke="black" stroke-width="0.5"/><polyline points="66.62,58.54 66.56,58.87 66.52,59.10 66.44,59.46 66.38,59.86 66.34,60.11 66.28,60.39 66.22,60.76 66.16,61.11 66.13,61.33 66.07,61.59 66.03,61.91 65.98,62.17 65.93,62.48 65.86,62.89 65.79,63.25 65.73,63.60 65.68,63.86 65.61,64.18 65.56,64.56 65.51,64.86 65.50,65.16 65.14,65.11 64.56,65.01 64.29,65.30 64.03,65.58 63.74,65.83 63.51,66.00 63.17,66.28 62.89,66.53 62.61,66.77 62.34,67.00 62.08,67.22 61.76,67.49 61.40,67.80 61.10,68.05 60.75,68.37 60.50,68.59 60.20,68.84 59.83,69.17 59.59,69.38 59.29,69.65 59.00,69.89 58.68,70.18 58.34,70.47 58.09,70.69 57.88,70.87 57.48,71.20 57.12,71.51 56.78,71.80 56.41,72.11 56.09,72.38 55.75,72.67 55.46,72.91 55.22,73.12 54.96,73.33 54.71,73.54 54.45,73.75 54.17,73.98 53.89,74.20 53.71,74.36 53.43,74.60 52.99,74.92 52.70,75.14 52.33,75.41 51.98,75.66 51.64,75.91 51.30,76.15" fill="none" stroke="black" stroke-width="0.5"/><polyline points="72.08,58.74 71.60,59.15 71.00,59.41 70.46,59.43" fill="none" stroke="black" stroke-width="0.5"/><polyline points="65.26,59.18 64.96,59.58 64.95,59.99 65.06,60.47 64.89,60.88 64.59,61.15 64.27,61.34 63.98,61.52 63.65,61.73 63.25,62.00 62.89,62.24 62.62,62.43 62.36,62.62 62.10,62.81 61.74,63.08 61.33,63.40 61.00,63.65 60.71,63.88 60.36,64.16 59.99,64.46 59.68,64.72 59.35,65.01 59.06,65.30" fill="none" stroke="black" stroke-width="0.5"/><polyline points="68.06,59.22 67.96,59.53 67.88,59.87 67.81,60.22 67.74,60.52 67.69,60.87 67.64,61.25 67.61,61.62 67.62,61.99 67.66,62.40 67.85,62.85 68.20,63.18 68.52,63.47 68.86,63.72 69.21,63.92 69.46,64.02 69.72,64.10 70.06,64.18 70.56,64.21 70.37,64.24 70.86,64.24 71.19,64.21 71.03,64.19 71.65,64.14 72.07,64.03 72.50,63.86 72.98,63.79 73.42,63.77 73.77,63.58 74.13,63.31 74.49,63.04 74.75,62.82 75.04,62.58 75.35,62.30 75.66,62.02 75.97,61.74 76.20,61.51" fill="none" stroke="black" stroke-width="0.5"/><polyline points="43.15,59.87 43.46,60.22 43.77,60.55 44.07,60.88 44.35,61.23 44.61,61.58 44.84,61.93 45.05,62.28 45.25,62.65 45.45,63.06 45.64,63.52 45.81,64.02 45.94,64.49 46.04,64.88 46.09,65.19 46.13,65.49 46.18,65.90 46.20,66.41 46.17,66.89 46.14,67.29 46.10,67.63 46.03,68.00 45.94,68.38 45.82,68.76 45.69,69.11" fill="none" stroke="black" stroke-width="0.5"/><polyline points="48.80,59.96 48.93,60.31 49.09,60.72 49.23,61.09 49.33,61.40 49.42,61.73 49.51,62.14 49.59,62.48 49.66,62.79 49.73,63.19 49.81,63.64 49.88,64.09 49.93,64.43 49.96,64.75 49.97,65.09 49.98,65.42 49.98,65.73 49.97,66.03 49.95,66.34 49.93,66.74" fill="none" stroke="black" stroke-width="0.5"/><polyline points="65.00,62.02 64.66,62.31 64.35,62.56 63.95,62.85 63.71,63.03 63.44,63.25 63.05,63.54 62.73,63.79 62.39,64.05 62.20,64.21 61.94,64.41 61.59,64.69 61.25,64.94 61.04,65.12 60.79,65.31 60.51,65.54 60.13,65.84 59.81,66.10 59.48,66.36 59.22,66.58 59.01,66.74 58.67,67.02 58.32,67.30 57.92,67.62 57.56,67.93 57.27,68.16 56.99,68.39 56.70,68.63 56.40,68.89 56.06,69.17 55.69,69.49 55.34,69.78 54.97,70.09 54.64,70.38 54.40,70.58 54.06,70.86 53.79,71.10 53.63,71.25 53.28,71.53 53.05,71.74 52.76,71.98 52.48,72.23 52.17,72.48 51.75,72.82 51.45,73.08 51.07,73.38 50.75,73.65 50.44,73.89 50.15,74.13 49.80,74.41 49.42,74.71 49.13,74.95 48.90,75.13 48.59,75.37 48.25,75.63 47.96,75.86 47.62,76.11 47.25,76.39 47.01,76.58 46.59,76.89 46.29,77.13 45.86,77.44 45.52,77.70 45.20,77.92 44.85,78.18 44.50,78.43 44.16,78.66 43.79,78.93 43.47,79.15 43.32,79.29" fill="none" stroke="black" stroke-width="0.5"/><polyline points="79.01,62.67 78.90,62.98 78.85,63.44 78.95,63.89 78.82,64.26 78.66,64.72 78.74,65.25 78.71,65.67 78.68,66.10 78.79,66.52 78.68,66.78 78.69,67.21 78.67,67.68 78.59,68.09 78.70,68.50 78.65,68.86 78.56,69.25 78.61,69.71 78.52,70.10 78.73,70.50 78.97,70.91" fill="none" stroke="black" stroke-width="0.5"/><polyline points="67.55,62.80 67.35,63.13 67.11,63.52 66.98,63.84 66.86,64.28 66.77,64.69 66.68,65.08 66.63,65.31 66.55,65.71 66.46,66.08 66.36,66.46 66.28,66.74 66.19,67.16 66.11,67.41 66.05,67.68 65.93,68.04 65.86,68.34 65.76,68.61 65.61,69.01 65.52,69.25 65.39,69.60 65.29,69.87 65.16,70.18 65.01,70.49 64.89,70.78 64.73,71.09 64.55,71.44 64.37,71.77 64.18,72.09 63.96,72.42 63.77,72.71 63.50,73.08 63.30,73.38 63.04,73.72 62.81,74.03 62.54,74.35 62.28,74.68 62.02,75.03 61.64,75.41 61.35,75.72 61.07,75.98 60.78,76.25 60.52,76.62 60.27,76.93 60.01,77.16 59.71,77.42 59.46,77.66 59.44,78.19 59.40,78.66 59.11,78.92 58.77,79.24 58.47,79.51 58.22,79.75 57.98,79.97 57.76,80.20 57.43,80.52 57.21,80.73 56.98,80.97 56.74,81.19 56.40,81.52 56.16,81.75 55.79,82.12 55.47,82.42 55.11,82.77 54.87,83.00 54.66,83.21 54.45,83.42 54.10,83.74 53.89,83.95 53.68,84.16 53.39,84.43 53.18,84.64 52.97,84.85 52.75,85.06 52.47,85.36 52.11,85.73 51.74,86.09 51.47,86.38 51.12,86.74 50.91,86.97 50.66,87.23 50.42,87.49 50.12,87.82 49.85,88.09 49.61,88.37 49.33,88.68 49.07,88.98 48.82,89.27 48.58,89.52 48.31,89.82 48.07,90.10 47.78,90.43" fill="none" stroke="black" stroke-width="0.5"/><polyline points="76.34,63.30 75.99,63.66 75.69,63.96 75.41,64.23 75.14,64.48 74.85,64.72 74.53,64.98 74.16,65.25" fill="none" stroke="black" stroke-width="0.5"/><polyline points="64.74,63.42 64.46,63.75 64.21,64.00 63.94,64.25 63.67,64.47 63.41,64.67 63.11,64.91 62.78,65.18 62.50,65.41 62.25,65.62 62.06,65.78 61.76,66.03 61.46,66.29 61.15,66.54 60.82,66.82 60.43,67.14 60.06,67.46 59.77,67.70 59.50,67.93 59.22,68.16 58.95,68.40 58.68,68.63 58.40,68.87 58.13,69.10 57.80,69.39 57.43,69.69 57.07,70.00 56.72,70.30 56.36,70.60 56.00,70.89 55.66,71.18 55.33,71.46 55.00,71.74 54.70,72.00 54.47,72.19 54.16,72.45 53.86,72.71 53.50,73.00 53.21,73.25 52.98,73.44 52.68,73.68 52.45,73.89" fill="none" stroke="black" stroke-width="0.5"/><polyline points="26.39,64.47 26.75,64.71 27.06,64.91 27.42,65.03 27.86,65.14 28.12,65.03 28.28,65.30 28.72,65.50 29.08,65.47 29.57,65.45 30.05,65.42 30.37,65.19 30.43,64.63 30.75,64.70 31.15,64.95 31.55,65.08 31.93,65.16 32.25,65.22 32.69,65.31 33.15,65.41 33.51,65.50 33.90,65.58 34.31,65.68 34.78,65.79 35.12,65.86 35.41,65.94 35.80,66.01 36.22,66.09 36.67,66.19 37.09,66.25 37.37,66.25 37.54,66.30 38.02,66.31 38.33,66.32 38.79,66.33 39.29,66.26 39.72,66.18 40.07,66.34 40.44,66.59 40.74,66.88 41.04,67.18 41.38,67.51" fill="none" stroke="black" stroke-width="0.5"/><polyline points="73.30,64.56 72.95,64.85 72.53,65.10 72.09,65.31 71.64,65.47 71.23,65.58 70.86,65.63 70.49,65.62 70.12,65.55 69.74,65.43 69.34,65.27 68.92,65.05 68.49,64.80" fill="none" stroke="black" stroke-width="0.5"/><polyline points="76.58,64.59 76.33,64.79 76.11,65.03 75.88,65.28 75.63,65.53 75.34,65.78 75.07,66.03 74.84,66.30 74.70,66.65 74.52,67.04 74.27,67.34 74.03,67.57 73.77,67.82 73.47,68.09 73.15,68.36 72.80,68.60" fill="none" stroke="black" stroke-width="0.5"/><polyline points="76.76,65.89 76.53,66.11 76.30,66.33 76.08,66.56 75.86,66.80 75.62,67.04 75.37,67.31 75.09,67.59 74.81,67.89 74.55,68.16 74.32,68.40 74.12,68.60 73.91,68.81 73.69,69.03 73.43,69.28 73.12,69.58 72.74,69.90 72.33,70.24 71.92,70.53 71.54,70.78 71.18,71.03" fill="none" stroke="black" stroke-width="0.5"/><polyline points="72.75,66.12 72.47,66.27 71.99,66.47 71.39,66.72" fill="none" stroke="black" stroke-width="0.5"/><polyline points="64.38,66.58 64.12,66.93 63.84,67.20 63.59,67.42 63.35,67.65 63.05,67.92 62.78,68.15 62.56,68.36 62.24,68.63 61.94,68.91 61.70,69.10 61.44,69.33 61.21,69.53 60.91,69.78 60.67,70.00 60.37,70.25 60.11,70.47 59.83,70.71 59.48,71.01 59.12,71.32 58.78,71.60 58.55,71.80 58.30,72.02 58.01,72.26 57.74,72.49 57.40,72.77 57.05,73.06 56.78,73.28 56.52,73.48 56.24,73.71 55.95,73.94 56.11,74.46 56.54,74.67 56.95,74.39 57.37,74.12 57.75,73.87 58.13,73.61 58.41,73.40 58.72,73.17 59.03,72.95 59.36,72.71 59.67,72.45 60.05,72.16 60.31,71.94 60.67,71.66 60.95,71.43 61.21,71.21 61.44,71.00 61.70,70.79 62.00,70.52 62.27,70.28 62.50,70.07 62.73,69.83 63.03,69.51 63.28,69.26 63.52,68.98 63.78,68.67 64.00,68.36" fill="none" stroke="black" stroke-width="0.5"/><polyline points="73.86,66.71 73.49,66.94 73.08,67.18 72.65,67.42 72.21,67.67 71.79,67.92 71.41,68.16" fill="none" stroke="black" stroke-width="0.5"/><polyline points="76.97,67.07 76.60,67.43 76.27,67.77 75.96,68.08 75.65,68.40 75.32,68.74 74.98,69.10 74.62,69.46 74.25,69.84 73.87,70.22 73.50,70.58 73.16,70.92 72.85,71.21 72.58,71.47 72.25,71.75 71.87,72.06 71.55,72.38" fill="none" stroke="black" stroke-width="0.5"/><polyline points="77.19,68.00 76.91,68.32 76.61,68.64 76.34,68.93 76.06,69.22 75.75,69.54 75.40,69.90 75.04,70.29 74.66,70.68 74.29,71.05 73.93,71.40 73.63,71.70 73.36,71.96 73.06,72.26 72.70,72.63 72.33,73.01 71.98,73.34 71.66,73.63" fill="none" stroke="black" stroke-width="0.5"/><polyline points="26.70,68.60 27.13,68.87 27.55,69.11 27.96,69.30 28.27,69.33 28.66,69.35 29.07,69.36 29.45,69.36 29.85,69.39 30.07,69.43 30.64,69.44 30.95,69.46 31.34,69.48 31.77,69.50 32.17,69.54 32.53,69.58" fill="none" stroke="black" stroke-width="0.5"/><polyline points="77.37,69.23 77.11,69.45 76.86,69.68 76.66,69.89 76.44,70.10 76.23,70.31 76.02,70.52 75.81,70.74 75.61,70.94 75.37,71.21 75.07,71.52 74.76,71.85 74.45,72.20 74.11,72.57 73.77,72.95 73.44,73.31 73.13,73.65 72.84,73.98 72.55,74.30 72.29,74.59 72.06,74.83 72.46,75.04 72.77,75.30 72.55,75.55 72.30,75.86 72.02,76.21 71.79,76.52 71.59,76.84 71.44,77.23 71.67,77.72 71.98,77.59 72.18,77.32 72.42,77.01 72.66,76.70 72.86,76.46 73.10,76.17 73.35,75.88 73.68,75.51 74.01,75.15 74.26,74.88 74.55,74.58 74.91,74.22 75.16,73.96 75.39,73.73 75.73,73.40 76.11,73.02 76.41,72.71 76.63,72.50 76.83,72.25 77.18,71.90 77.42,71.64 77.73,71.35" fill="none" stroke="black" stroke-width="0.5"/><polyline points="77.58,70.08 77.22,70.46 76.96,70.73 76.74,70.95 76.48,71.21 76.16,71.55 75.84,71.89 75.58,72.16 75.34,72.41 75.07,72.70 74.74,73.05 74.40,73.42 74.08,73.78 73.80,74.09 73.58,74.34 73.38,74.56 73.15,74.84 72.84,75.21" fill="none" stroke="black" stroke-width="0.5"/><polyline points="23.45,70.56 23.20,70.70 22.88,70.90 22.37,71.17 21.97,71.40 21.62,71.59 21.69,71.57 21.10,71.84 20.66,72.03 20.23,72.18 19.81,72.40 19.44,72.62 19.16,72.85 18.92,73.14 18.69,73.47 18.51,73.83 18.38,74.13 18.28,74.46 18.18,74.84 18.11,75.20 18.03,75.61 17.98,75.89 17.93,76.14 17.86,76.59 17.78,76.99 17.68,77.38 17.62,77.66 17.52,78.06 17.44,78.45 17.34,78.88 17.24,79.27 17.17,79.53 17.08,79.87 16.94,80.31 16.83,80.66 16.73,80.92 16.57,81.34 16.46,81.72 16.47,82.24 16.30,82.57 16.00,82.81 15.71,83.06 15.41,83.30 15.11,83.57 14.78,83.82 14.47,84.06 14.08,84.30 13.70,84.53 13.37,84.70" fill="none" stroke="black" stroke-width="0.5"/><polyline points="29.37,70.58 29.60,70.61 30.04,70.62 30.29,70.66 30.69,70.74 31.15,70.87 31.59,71.05 31.93,71.20 32.26,71.35 32.70,71.59 33.07,71.84" fill="none" stroke="black" stroke-width="0.5"/><polyline points="63.10,71.10 62.81,71.43 62.51,71.74 62.20,72.04 61.88,72.33 61.55,72.60 61.20,72.87 60.84,73.13 60.46,73.38 60.07,73.62" fill="none" stroke="black" stroke-width="0.5"/><polyline points="80.03,71.25 80.37,71.34 80.76,71.55 81.16,71.80 81.52,72.08 81.81,72.41 82.05,72.77 82.30,73.16 82.42,73.47 82.59,73.82 82.84,74.22 83.07,74.64 83.37,75.01 83.78,74.99 84.17,74.78 84.62,74.66 84.94,74.89 85.21,75.23 85.49,75.57 85.58,76.06 85.43,76.50 85.44,76.57 85.92,76.54 86.19,76.89 86.48,77.22 86.77,77.57 86.83,78.02 87.05,78.41 87.35,78.76 87.50,79.18 87.84,79.45 88.11,79.78 88.38,80.10 88.65,80.42 88.77,80.83 89.02,81.14 89.30,81.45 89.45,81.88 89.69,82.23 89.97,82.55 90.17,82.94 90.45,83.29 90.74,83.62 90.61,83.87 90.09,84.03 89.81,84.35 89.57,84.65 89.33,84.98 89.04,85.36 88.75,85.75 88.49,86.09 88.25,86.40 88.01,86.70 87.82,86.96 87.57,87.27 87.31,87.60 87.07,87.90 86.77,88.27 86.50,88.60 86.28,88.87 86.04,89.17 85.78,89.48 85.55,89.76 85.31,90.05 85.04,90.37 84.80,90.67 84.55,90.97" fill="none" stroke="black" stroke-width="0.5"/><polyline points="26.24,71.86 25.88,72.21 25.61,72.54 25.42,72.87 25.33,73.20 25.33,73.55 25.44,73.93 25.65,74.29 25.99,74.58 26.43,74.72 27.01,74.66" fill="none" stroke="black" stroke-width="0.5"/><polyline points="78.89,72.06 78.90,72.47 79.09,72.96 79.30,73.48 79.55,73.86 79.94,73.89 80.34,73.66 80.64,73.31 80.93,72.91 81.27,72.52 81.51,72.15" fill="none" stroke="black" stroke-width="0.5"/><polyline points="78.03,72.47 77.79,72.70 77.57,72.93 77.35,73.14 77.14,73.36 76.87,73.62 76.54,73.95 76.26,74.24 76.03,74.49 75.80,74.73 75.56,74.98 75.29,75.26 75.04,75.52 74.80,75.77 74.57,76.01 74.36,76.22 74.14,76.43 73.90,76.68 73.64,76.97 73.34,77.29 73.04,77.62 72.73,77.94 72.48,78.21 72.22,78.50 71.96,78.82 71.69,79.15 71.43,79.47 71.19,79.75" fill="none" stroke="black" stroke-width="0.5"/><polyline points="78.11,73.86 77.81,74.18 77.44,74.56 77.20,74.80 77.00,75.00 76.73,75.28 76.40,75.61 76.03,75.98 75.66,76.36 75.29,76.73 74.93,77.09 74.57,77.45 74.20,77.81 73.87,78.14 73.67,78.33 73.43,78.58 73.18,78.83 72.94,79.06 72.71,79.29 72.48,79.52 72.23,79.77 71.97,80.04 71.71,80.30 71.44,80.56 71.17,80.85 71.35,81.15 71.79,81.40 71.70,81.68 71.38,81.95 71.09,82.20 70.85,82.43 70.60,82.68 70.27,82.98" fill="none" stroke="black" stroke-width="0.5"/><polyline points="79.53,74.57 79.33,74.87 78.87,75.00 78.39,75.13 78.11,75.43 77.79,75.77 77.57,76.02 77.34,76.26 77.02,76.58 76.67,76.93 76.38,77.22 76.13,77.47 75.88,77.71 75.65,77.93 75.45,78.13 75.22,78.37 74.92,78.65 74.57,78.99 74.23,79.32 73.91,79.63 73.57,79.94 73.24,80.25 72.91,80.56 72.60,80.85 72.29,81.13 71.97,81.41" fill="none" stroke="black" stroke-width="0.5"/><polyline points="51.54,74.61 51.24,74.85 50.95,75.07 50.66,75.30 50.37,75.53 50.07,75.76 49.76,75.99 49.43,76.24 49.09,76.49 48.74,76.74 48.36,77.01 47.96,77.30 47.53,77.59 47.08,77.90" fill="none" stroke="black" stroke-width="0.5"/><polyline points="23.75,75.07 24.02,75.46 24.33,75.82 24.46,76.28 24.55,76.75 24.88,77.02 25.27,77.29 25.45,77.73 25.46,78.15 25.45,78.50 25.54,78.87 25.65,79.27 25.70,79.66 25.45,79.96 24.98,80.17 24.50,80.31" fill="none" stroke="black" stroke-width="0.5"/><polyline points="22.56,75.32 22.89,75.72 23.20,76.08 23.56,76.41 23.99,76.73 24.37,77.09 24.44,77.50 24.17,77.92 23.84,78.23 23.59,78.48 23.39,78.80 23.27,79.15 23.28,79.50 23.38,79.87" fill="none" stroke="black" stroke-width="0.5"/><polyline points="79.05,75.95 78.80,76.29 78.62,76.53 78.39,76.80 78.12,77.12 77.85,77.44 77.59,77.74 77.32,78.07 77.10,78.29 76.81,78.63 76.58,78.87 76.27,79.20 76.06,79.41 75.85,79.62 75.64,79.86 75.42,80.08 75.21,80.29 74.92,80.55 74.71,80.76 74.50,80.97 74.28,81.19 73.99,81.45 73.69,81.72 73.33,82.07 73.01,82.35 72.68,82.67 72.31,83.00 71.94,83.33 71.60,83.65 71.21,83.98 70.90,84.25 70.53,84.57 70.18,84.87 69.87,85.14 69.54,85.42 69.13,85.76 68.79,86.05 68.45,86.33 68.10,86.62 67.79,86.88 67.45,87.16 67.12,87.42 66.86,87.64 66.62,87.83 66.30,88.08 65.97,88.35 65.69,88.56 65.47,88.75 65.10,89.03 64.85,89.23 64.58,89.44 64.28,89.67 64.03,89.87 63.78,90.06 63.57,90.24" fill="none" stroke="black" stroke-width="0.5"/><polyline points="83.25,76.01 83.05,76.37 82.86,76.61 82.64,76.87 82.38,77.14 82.16,77.41 81.88,77.72 81.54,78.08 81.36,78.29 81.10,78.60 80.83,78.88 80.57,79.18 80.34,79.41 79.98,79.76 79.71,80.04 79.44,80.34 79.14,80.65 78.87,80.94 78.66,81.15 78.44,81.36 78.17,81.66 77.85,82.00 77.59,82.27 77.32,82.55 77.10,82.78 76.85,83.04 76.60,83.31 76.35,83.59 76.07,83.88 75.86,84.10 75.58,84.41 75.37,84.62 75.16,84.83 74.98,85.06 74.77,85.27 74.51,85.54 74.31,85.76 74.05,86.04 73.83,86.28 73.61,86.53 73.38,86.78 73.17,87.00 72.92,87.27 72.71,87.49 72.49,87.76 72.28,87.97 72.05,88.22 71.80,88.48 71.55,88.77 71.25,89.08 71.01,89.36 70.80,89.57 70.56,89.84 70.34,90.09 70.06,90.40 69.75,90.74 69.50,91.02 69.24,91.28 68.99,91.55 68.77,91.80 68.58,92.03 68.30,92.35 68.06,92.61 67.80,92.90 67.53,93.21 67.27,93.50 67.03,93.77 66.76,94.06 66.53,94.32 66.26,94.64 66.00,94.94 65.72,95.27 65.46,95.54 65.20,95.86 64.96,96.12 64.72,96.40" fill="none" stroke="black" stroke-width="0.5"/><polyline points="21.01,76.67 21.38,76.99 21.82,77.26 22.29,77.47 22.71,77.61 23.02,77.65 23.34,77.65" fill="none" stroke="black" stroke-width="0.5"/><polyline points="84.57,76.66 84.29,76.96 84.04,77.23 83.81,77.49 83.59,77.75 83.29,78.07 82.99,78.38 82.73,78.68 82.50,78.92 82.25,79.19 82.02,79.44 81.81,79.65 81.61,79.90 81.41,80.11 81.12,80.41 80.91,80.64 80.67,80.90 80.46,81.11 80.21,81.41 80.00,81.62 79.71,81.93 79.50,82.14 79.29,82.39 79.02,82.67 78.80,82.91 78.55,83.19 78.34,83.40 78.11,83.65 77.91,83.87 77.65,84.13 77.38,84.44 77.17,84.66 76.92,84.93 76.59,85.28 76.38,85.50 76.17,85.72 75.98,85.95 75.77,86.16 75.45,86.49 75.18,86.80 74.97,87.01 74.72,87.30 74.43,87.60 74.19,87.86 73.91,88.16 73.70,88.38 73.49,88.62 73.18,88.94 72.92,89.25 72.57,89.61 72.22,89.97 71.98,90.27 71.67,90.59 71.41,90.88 71.17,91.13 70.91,91.44 70.65,91.74 70.44,91.95 70.18,92.22 69.95,92.49 69.73,92.74 69.47,93.03 69.19,93.35 68.96,93.59 68.71,93.88 68.50,94.13 68.23,94.42 67.93,94.75 67.75,94.97 67.47,95.30 67.20,95.60 66.97,95.88 66.71,96.20 66.51,96.44 66.27,96.70 66.06,96.97 65.81,97.26 65.61,97.50 65.35,97.80 65.10,98.08 64.79,98.40" fill="none" stroke="black" stroke-width="0.5"/><polyline points="19.81,76.70 20.14,77.04 20.50,77.37 20.87,77.69 21.27,77.98 21.68,78.22 22.10,78.41 22.54,78.52 22.98,78.54" fill="none" stroke="black" stroke-width="0.5"/><polyline points="55.82,76.94 55.39,77.09 54.94,77.25 54.52,77.52 54.17,77.95 53.82,78.47 53.37,78.98" fill="none" stroke="black" stroke-width="0.5"/><polyline points="63.26,77.30 62.79,77.73 62.37,78.10 61.91,78.45" fill="none" stroke="black" stroke-width="0.5"/><polyline points="85.27,77.44 84.99,77.77 84.78,78.02 84.51,78.31 84.25,78.63 84.00,78.92 83.73,79.24 83.52,79.45 83.31,79.71 83.08,79.97 82.83,80.27 82.53,80.61 82.23,80.95 81.98,81.24 81.69,81.56 81.38,81.91 81.08,82.24 80.77,82.57 80.43,82.92 80.23,83.15 80.02,83.36 79.75,83.65 79.54,83.89 79.24,84.21 78.90,84.57 78.68,84.80 78.42,85.09 78.08,85.44 77.86,85.70 77.65,85.91 77.44,86.13 77.13,86.47 76.86,86.77 76.58,87.08 76.30,87.37 76.05,87.64 75.73,87.98 75.52,88.22 75.31,88.43 74.98,88.79 74.67,89.12 74.40,89.43 74.13,89.72 73.80,90.08 73.55,90.35 73.28,90.64 73.00,90.95 72.70,91.28 72.46,91.56 72.15,91.89 71.95,92.12 71.74,92.36 71.50,92.62 71.26,92.89 70.97,93.20 70.76,93.44 70.53,93.70 70.29,93.98 70.02,94.28 69.72,94.62 69.48,94.88 69.16,95.27 68.85,95.60 68.65,95.84 68.42,96.10 68.19,96.39 67.94,96.67 67.69,96.98 67.44,97.28 67.19,97.57 66.96,97.85 66.72,98.13 66.45,98.42" fill="none" stroke="black" stroke-width="0.5"/><polyline points="58.43,77.68 58.16,77.90 57.87,78.12 57.54,78.36 57.22,78.59 56.88,78.87 56.64,79.31 56.43,79.71 56.19,79.94 55.98,80.16 55.75,80.38 55.42,80.70 55.05,81.08 54.71,81.40 54.51,81.60 54.29,81.82 54.07,82.04 53.86,82.25 53.64,82.47 53.43,82.68 53.19,82.91 52.84,83.26 52.47,83.63 52.20,83.88 51.99,84.09 51.78,84.31 51.50,84.60 51.28,84.83 51.07,85.04 50.85,85.26 50.63,85.49 50.28,85.84 49.98,86.16 49.67,86.49 49.45,86.72 49.21,86.97 48.96,87.24 48.69,87.54 48.43,87.82 48.21,88.07 47.97,88.34 47.72,88.63 47.47,88.91 47.23,89.19 47.00,89.45 46.73,89.77 46.44,90.12 46.16,90.45" fill="none" stroke="black" stroke-width="0.5"/><polyline points="52.11,77.83 51.49,78.04 50.95,78.36 50.40,78.74" fill="none" stroke="black" stroke-width="0.5"/><polyline points="86.21,78.11 85.96,78.40 85.70,78.69 85.44,78.99 85.19,79.28 84.94,79.58 84.71,79.84 84.46,80.13 84.16,80.47 83.95,80.71 83.71,80.99 83.43,81.31 83.18,81.59 82.85,81.98 82.52,82.34 82.24,82.65 82.02,82.89 81.73,83.20 81.49,83.46 81.22,83.76 80.90,84.11 80.55,84.47 80.29,84.76 80.07,85.00 79.83,85.27 79.49,85.62 79.25,85.88 79.04,86.10 78.75,86.43 78.53,86.67 78.29,86.92 78.05,87.19 77.81,87.45 77.53,87.75 77.26,88.05 76.95,88.39 76.73,88.63 76.48,88.92 76.26,89.15 76.06,89.37 75.84,89.63 75.64,89.84 75.35,90.16 75.01,90.53 74.77,90.80 74.51,91.09 74.26,91.37 74.03,91.64 73.81,91.86 73.59,92.13 73.35,92.40 73.06,92.72 72.81,93.01 72.51,93.35 72.29,93.61 72.08,93.85 71.86,94.10 71.60,94.40 71.36,94.67 71.15,94.91 70.90,95.20 70.65,95.48 70.41,95.78 70.15,96.07 69.92,96.35 69.66,96.64 69.40,96.96 69.16,97.24 68.94,97.50 68.67,97.80 68.40,98.13" fill="none" stroke="black" stroke-width="0.5"/><polyline points="29.18,78.17 29.50,78.48 29.84,78.79 30.19,79.09 30.52,79.36 30.86,79.62 31.19,79.87 31.55,80.12 31.92,80.39 32.27,80.63 32.59,80.85 32.88,81.05 33.25,81.29 33.63,81.57 34.00,81.85 34.11,82.30 34.30,82.62 34.73,82.76 35.14,82.85 35.52,82.96 35.86,83.05 36.28,82.91 36.64,82.76 36.96,82.83 37.33,82.94 37.60,82.97 37.92,83.09 38.40,83.16 38.84,83.01 39.20,82.73 39.59,82.53 40.07,82.35" fill="none" stroke="black" stroke-width="0.5"/><polyline points="26.83,78.59 27.05,79.00 27.25,79.35 27.32,79.81 27.52,80.20 27.86,80.48 28.20,80.78 28.52,81.09 28.85,81.40 29.18,81.70 29.51,81.99 29.84,82.31 30.19,82.69 30.53,82.71 30.93,82.38 31.39,82.22 31.82,82.24 32.16,82.38 32.49,82.53 32.85,82.62 33.21,82.75" fill="none" stroke="black" stroke-width="0.5"/><polyline points="28.14,78.62 28.48,79.10 28.83,79.53 29.19,79.90 29.54,80.23 29.90,80.53 30.25,80.81 30.60,81.08 30.95,81.36" fill="none" stroke="black" stroke-width="0.5"/><polyline points="63.04,78.85 62.68,79.18 62.35,79.48 62.05,79.73 61.77,79.98 61.52,80.19 61.29,80.39 60.91,80.69 60.56,80.98 60.21,81.27 59.84,81.57 59.48,81.86 59.24,82.07 58.99,82.27 58.68,82.53 58.40,82.77 58.09,83.04 57.80,83.30 57.52,83.55 57.27,83.78 56.99,84.03 56.77,84.24 56.52,84.48 56.17,84.82 55.88,85.10 55.55,85.42 55.17,85.80 54.86,86.12 54.64,86.35 54.33,86.66 53.98,87.01 53.69,87.32 53.47,87.54 53.26,87.74 53.04,87.98 52.81,88.22 52.54,88.51 52.24,88.83 51.98,89.13 51.72,89.43" fill="none" stroke="black" stroke-width="0.5"/><polyline points="86.84,79.08 86.60,79.38 86.33,79.69 86.08,79.98 85.78,80.33 85.54,80.61 85.36,80.84 85.08,81.17 84.86,81.41 84.57,81.76 84.35,82.01 84.08,82.31 83.85,82.58 83.61,82.86 83.32,83.18 83.06,83.47 82.84,83.70 82.58,83.99 82.36,84.24 82.03,84.58 81.80,84.84 81.59,85.05 81.35,85.31 81.07,85.62 80.82,85.90 80.56,86.19 80.22,86.57 80.01,86.81 79.76,87.08 79.55,87.34 79.23,87.68 79.00,87.94 78.70,88.28 78.45,88.57 78.16,88.89 77.88,89.20 77.62,89.49 77.32,89.83 77.09,90.10 76.86,90.35 76.61,90.62 76.34,90.94 76.12,91.18 75.92,91.40 75.74,91.62 75.49,91.91 75.16,92.27 74.88,92.59 74.67,92.82 74.43,93.11 74.20,93.38 73.98,93.64 73.67,93.98 73.38,94.32 73.15,94.59 72.87,94.92 72.63,95.19 72.39,95.49 72.15,95.77 71.91,96.06 71.64,96.37 71.45,96.61 71.22,96.89 70.95,97.20 70.70,97.52 70.46,97.80" fill="none" stroke="black" stroke-width="0.5"/><polyline points="60.86,79.28 60.52,79.55 60.22,79.78 59.95,80.00 59.69,80.24 59.41,80.49 59.12,80.74 58.83,80.99 58.55,81.25 58.24,81.53 57.94,81.81 57.73,82.00 57.43,82.29 57.15,82.56 56.94,82.76 56.69,83.00 56.49,83.17 56.27,83.38 56.06,83.59 55.85,83.80 55.56,84.09 55.20,84.45 54.84,84.79 54.50,85.11 54.18,85.44 53.84,85.78 53.47,86.15 53.10,86.52 52.73,86.89 52.40,87.20 52.09,87.47 51.71,87.86 51.44,88.15 51.07,88.52 50.83,88.78 50.60,89.02 50.34,89.30 50.08,89.59 49.83,89.88 49.58,90.17 49.31,90.48" fill="none" stroke="black" stroke-width="0.5"/><polyline points="33.22,79.70 33.62,79.96 34.02,80.22 34.40,80.47 34.77,80.73 35.14,80.99 35.51,81.27 35.87,81.56 36.24,81.87 36.62,82.20" fill="none" stroke="black" stroke-width="0.5"/><polyline points="54.55,79.76 54.13,79.90 53.65,80.00 53.19,80.14 52.75,80.35 52.37,80.63 52.00,80.93 51.60,81.15 51.17,81.23 50.77,81.14 50.48,80.87 50.21,80.60" fill="none" stroke="black" stroke-width="0.5"/><polyline points="87.62,79.87 87.38,80.14 87.14,80.41 86.88,80.73 86.64,81.02 86.40,81.30 86.16,81.60 85.88,81.94 85.57,82.31 85.32,82.61 85.08,82.90 84.88,83.14 84.65,83.42 84.35,83.77 84.05,84.13 83.79,84.43 83.57,84.69 83.25,85.04 82.93,85.40 82.62,85.74 82.35,86.04 82.13,86.29 81.87,86.58 81.63,86.84 81.37,87.13 81.07,87.47 80.78,87.79 80.46,88.15 80.14,88.50 79.86,88.82 79.65,89.06 79.46,89.27 79.19,89.56 78.95,89.85 78.62,90.22 78.33,90.55 78.04,90.86 77.82,91.12 77.62,91.34 77.37,91.64 77.10,91.95 76.87,92.22 76.60,92.54 76.35,92.84 76.11,93.12 75.85,93.42 75.60,93.72 75.36,94.00 75.10,94.31 74.81,94.63 74.59,94.91 74.33,95.21 74.04,95.55 73.79,95.84 73.55,96.15" fill="none" stroke="black" stroke-width="0.5"/><polyline points="62.42,80.77 62.07,81.04 61.80,81.28 61.53,81.52 61.24,81.76 60.92,82.01 60.59,82.29 60.28,82.54 60.05,82.72 59.73,82.98 59.42,83.24 59.22,83.40 59.02,83.57 58.71,83.83 58.35,84.13 58.01,84.43 57.69,84.72 57.37,85.02 57.02,85.34 56.66,85.69 56.28,86.04 55.92,86.41 55.65,86.68 55.42,86.91 55.11,87.22 54.81,87.55 54.52,87.85 54.24,88.12 53.97,88.39 53.71,88.65" fill="none" stroke="black" stroke-width="0.5"/><polyline points="88.34,80.86 88.09,81.15 87.84,81.43 87.58,81.73 87.29,82.05 87.11,82.28 86.90,82.52 86.66,82.81 86.46,83.06 86.21,83.36 85.99,83.62 85.70,83.97 85.36,84.38 85.03,84.77 84.72,85.15 84.48,85.43 84.25,85.71 83.92,86.08 83.68,86.34 83.48,86.57 83.25,86.84 83.00,87.12 82.73,87.43 82.49,87.71 82.24,87.99 82.02,88.23 81.84,88.46 81.60,88.72 81.36,89.00 81.17,89.22 80.97,89.46 80.77,89.68 80.56,89.94 80.30,90.23 80.02,90.56 79.73,90.89 79.41,91.26 79.14,91.58 78.90,91.87 78.58,92.24 78.30,92.56 78.03,92.88 77.82,93.11 77.61,93.37 77.36,93.67 77.11,93.94 76.81,94.29 76.55,94.59 76.30,94.87 76.06,95.15 75.80,95.44 75.55,95.73 75.28,96.04" fill="none" stroke="black" stroke-width="0.5"/><polyline points="49.36,81.10 48.93,81.40 48.51,81.68 48.10,81.96 47.69,82.23 47.29,82.50 46.89,82.77 46.50,83.03 46.10,83.30 45.71,83.58 45.31,83.86 44.91,84.15" fill="none" stroke="black" stroke-width="0.5"/><polyline points="88.95,81.97 88.69,82.28 88.43,82.58 88.17,82.89 87.90,83.21 87.64,83.52 87.41,83.80 87.16,84.10 86.90,84.40 86.68,84.67 86.45,84.94 86.20,85.24 85.92,85.57 85.66,85.89 85.47,86.12 85.26,86.36 84.99,86.69 84.71,87.03 84.45,87.35 84.22,87.64 83.97,87.93 83.70,88.25 83.46,88.54 83.18,88.88 82.91,89.21 82.69,89.48 82.45,89.79 82.20,90.11 81.96,90.40 81.72,90.69 81.48,90.99 81.21,91.31 80.98,91.60" fill="none" stroke="black" stroke-width="0.5"/><polyline points="89.63,82.90 89.35,83.23 89.10,83.52 88.86,83.82 88.60,84.15 88.33,84.49 88.10,84.79 87.90,85.04 87.70,85.28 87.48,85.56 87.25,85.85 87.01,86.15 86.77,86.46 86.52,86.76 86.29,87.05 86.05,87.35 85.81,87.64 85.57,87.93 85.31,88.25 85.07,88.55 84.84,88.84 84.56,89.19 84.27,89.55 84.01,89.88 83.77,90.18 83.55,90.46 83.31,90.77 83.07,91.10" fill="none" stroke="black" stroke-width="0.5"/><polyline points="25.10,83.53 24.80,83.89 24.56,84.28 24.23,84.65 23.85,84.98 23.61,85.32 23.62,85.69 23.75,86.09 23.90,86.50 24.05,86.90 24.19,87.25 24.31,87.53" fill="none" stroke="black" stroke-width="0.5"/><polyline points="50.91,83.55 50.61,83.82 50.38,84.05 50.16,84.27 49.93,84.50 49.65,84.78 49.31,85.13 48.93,85.51 48.54,85.90 48.18,86.27 47.84,86.62 47.51,86.96 47.21,87.28 46.92,87.59 46.64,87.90 46.37,88.21 46.10,88.53 45.84,88.86 45.58,89.20 45.31,89.55 45.03,89.90 44.75,90.26" fill="none" stroke="black" stroke-width="0.5"/><polyline points="30.11,83.70 30.11,84.02 30.17,84.36 30.29,84.77 30.38,85.03 30.47,85.28 30.60,85.63 30.69,85.89 30.82,86.25 30.97,86.68 31.12,87.07 31.23,87.38 31.33,87.66 31.41,87.90 31.50,88.16 31.61,88.49 31.71,88.78 31.84,89.14 31.95,89.51 32.03,89.75 32.13,90.07 32.21,90.40 32.33,90.85 32.41,91.32 32.46,91.63 32.58,92.03 32.58,92.40 32.44,92.83 32.39,93.14 32.36,93.41 32.32,93.70 32.30,93.95 32.12,94.34 32.17,94.74 32.18,95.04 32.19,95.40 32.15,95.73 32.16,95.94 32.17,96.33 32.18,96.58 32.18,96.94 32.21,97.24 32.21,97.50 32.26,97.83" fill="none" stroke="black" stroke-width="0.5"/><polyline points="38.40,84.14 38.26,84.44 38.05,84.83 37.86,85.17 37.66,85.49 37.50,85.76 37.28,86.11 37.03,86.51 36.90,86.74 36.77,86.97 36.64,87.21 36.49,87.53 36.36,87.82 36.24,88.10 36.06,88.55 35.97,88.80 35.87,89.09 35.79,89.35 35.69,89.67 35.57,90.06 35.50,90.36 35.43,90.62 35.33,91.03 35.26,91.41 35.20,91.68 35.15,91.90 35.10,92.18 35.06,92.42 35.01,92.71 34.96,93.01 34.97,93.31 34.82,93.70 34.76,93.97 34.71,94.25 34.66,94.54 34.62,94.86 34.59,95.15 34.55,95.52 34.51,95.79 34.48,96.10 34.44,96.46 34.39,96.88 34.35,97.17 34.30,97.51 34.22,97.86 34.00,98.22" fill="none" stroke="black" stroke-width="0.5"/><polyline points="28.44,84.12 27.79,84.30 27.29,84.48 26.89,84.67 26.56,84.89 26.25,85.16 25.92,85.48 25.52,85.88" fill="none" stroke="black" stroke-width="0.5"/><polyline points="59.43,84.66 59.12,84.97 58.83,85.27 58.55,85.55 58.28,85.81 58.02,86.06 57.77,86.30 57.51,86.54 57.24,86.78 56.96,87.03 56.67,87.28 56.36,87.55 56.05,87.82 55.73,88.09 55.41,88.37 55.09,88.66 54.76,88.94" fill="none" stroke="black" stroke-width="0.5"/><polyline points="90.87,84.77 91.09,85.23 91.34,85.74 91.61,86.27 91.88,86.73" fill="none" stroke="black" stroke-width="0.5"/><polyline points="12.05,85.26 11.98,85.35 11.58,85.53 11.30,85.71 10.98,85.94 10.66,86.20 10.44,86.41 10.21,86.71 9.99,87.01 9.80,87.34 9.68,87.63 9.55,87.98 9.44,88.34 9.36,88.63 9.28,88.96 9.19,89.31 9.11,89.60 9.05,89.84 8.99,90.09 8.91,90.36 8.84,90.63 8.76,90.93 8.69,91.19 8.64,91.44 8.57,91.71 8.50,91.98 8.43,92.23 8.37,92.48 8.30,92.77 8.19,93.26 8.09,93.66 8.02,94.01 7.96,94.34 7.81,94.72 7.44,95.02" fill="none" stroke="black" stroke-width="0.5"/><polyline points="22.61,86.10 22.79,86.48 22.93,86.87 22.88,87.36 22.98,87.79 23.35,88.14 23.73,88.52 24.11,88.80 24.36,89.06 24.56,89.42 24.77,89.78 24.98,90.12 25.19,90.47 25.43,90.85 25.68,91.22 25.90,91.56 26.11,91.87 26.35,92.22 26.60,92.59 26.84,92.95 27.05,93.29 27.26,93.62 27.47,93.98 27.67,94.38 27.81,94.79 27.87,95.17 27.89,95.55 27.86,95.97 27.91,96.39 28.01,96.83 27.81,97.26 27.66,97.70 27.65,98.00 27.62,98.28 27.60,98.63" fill="none" stroke="black" stroke-width="0.5"/><polyline points="58.65,87.07 58.28,87.39 57.88,87.76 57.44,88.15 56.97,88.53 56.50,88.89" fill="none" stroke="black" stroke-width="0.5"/><polyline points="16.90,87.29 16.95,87.32 16.40,87.32 15.81,87.33 15.24,87.34 14.69,87.36 14.15,87.38 13.60,87.40 13.05,87.41" fill="none" stroke="black" stroke-width="0.5"/><polyline points="17.40,87.29 17.90,87.30 17.51,87.32 17.71,87.32 18.49,87.32 18.92,87.33 19.34,87.32 19.91,87.32 20.44,87.32 20.56,87.34 20.48,87.35 21.12,87.35 21.07,87.38 21.52,87.40 21.82,87.45 22.07,87.53" fill="none" stroke="black" stroke-width="0.5"/><polyline points="43.62,88.76 43.52,89.07 43.30,89.39 43.07,89.81 42.90,90.17 42.69,90.40 42.46,90.60 42.24,90.83 42.04,91.05 41.70,91.20 41.30,91.35 41.02,91.61 40.72,91.87 40.41,92.13 40.07,92.38 39.62,92.42 39.41,92.75 39.36,93.28 39.25,93.75 39.05,94.08 38.95,94.35 38.81,94.70 38.66,95.07 38.53,95.42 38.40,95.77 38.29,96.08 38.20,96.35 38.08,96.70 37.92,97.16 37.79,97.55 37.65,97.92" fill="none" stroke="black" stroke-width="0.5"/><polyline points="22.23,89.99 21.70,90.18 21.18,90.42 20.70,90.70 20.27,91.03 19.90,91.40 19.61,91.81" fill="none" stroke="black" stroke-width="0.5"/><polyline points="43.39,90.38 43.65,90.76 43.92,91.05 44.18,91.30 44.43,91.56 44.67,91.87 44.93,92.22 45.17,92.60 45.32,92.98 45.28,93.43 45.41,93.83 45.67,94.18 45.93,94.54 46.20,94.89 46.44,95.25 46.49,95.68 46.78,96.02 47.04,96.33 47.09,96.78 47.35,97.13 47.65,97.44 47.73,97.84 47.95,98.23 48.30,98.51 48.60,98.82 48.78,99.24 49.18,99.50 49.58,99.65 49.95,99.54 50.27,99.43 50.76,99.41 51.17,99.35 51.49,99.10 51.75,98.91 52.05,98.71 52.33,98.52 52.67,98.28 53.07,98.00 53.32,97.83 53.65,97.60" fill="none" stroke="black" stroke-width="0.5"/><polyline points="57.47,90.86 56.98,91.22 56.53,91.59 56.10,91.93 55.69,92.24" fill="none" stroke="black" stroke-width="0.5"/><polyline points="23.23,91.29 22.64,91.51 22.21,91.74 22.01,91.87" fill="none" stroke="black" stroke-width="0.5"/><polyline points="62.15,91.31 61.81,91.59 61.54,91.79 61.35,91.94 61.15,92.09 60.93,92.25 60.61,92.50 60.21,92.80 59.80,93.11 59.43,93.39 59.13,93.61 58.79,93.87 58.48,94.10 58.10,94.38 57.78,94.61 57.57,94.77 57.34,94.94 57.09,95.12 56.84,95.30 56.60,95.48 56.30,95.70 56.03,95.90 55.83,96.04 55.59,96.21 55.30,96.42 55.01,96.63" fill="none" stroke="black" stroke-width="0.5"/><polyline points="41.90,91.80 42.11,92.23 42.26,92.66 42.26,92.93 42.22,93.22 42.17,93.61 42.13,93.95 42.08,94.36 42.02,94.76 41.96,95.10 41.94,95.46 41.88,95.75 41.86,96.03 42.01,96.40 42.16,96.80 42.14,97.11 42.10,97.47 42.08,97.72 42.06,97.97 42.03,98.34 42.02,98.57 42.04,98.91" fill="none" stroke="black" stroke-width="0.5"/><polyline points="50.02,92.36 49.50,92.69 48.97,93.00 48.43,93.29 47.90,93.58" fill="none" stroke="black" stroke-width="0.5"/><polyline points="11.21,92.40 11.56,92.55 12.00,92.70 12.46,92.85 12.83,92.98 13.29,93.12 13.67,93.24 14.03,93.34 14.32,93.43 14.70,93.53 15.12,93.64 15.33,93.74 15.92,93.85 16.29,93.94 16.60,94.00 16.87,94.07 17.22,94.14 17.56,94.20 17.97,94.26 18.33,94.34 18.76,94.24 19.12,94.42 19.44,94.75 19.72,95.04 19.96,95.28 20.25,95.57 20.61,95.94 20.93,96.25 21.21,96.53 21.46,96.78 21.72,97.03 21.98,97.30 22.26,97.59 22.55,97.90 22.84,98.21 23.12,98.53 23.45,98.85" fill="none" stroke="black" stroke-width="0.5"/><polyline points="56.85,92.61 56.30,92.92 55.90,93.27 55.98,93.67 56.19,94.08 55.96,94.44 55.46,94.76 54.99,95.06" fill="none" stroke="black" stroke-width="0.5"/><polyline points="37.97,93.19 37.52,93.45 37.19,93.77 36.96,94.12 36.82,94.49 36.73,94.86 36.68,95.25 36.62,95.64 36.57,96.03 36.50,96.42 36.45,96.83 36.41,97.24 36.36,97.65 36.30,98.05" fill="none" stroke="black" stroke-width="0.5"/><polyline points="50.73,93.53 50.30,93.81 49.89,94.03 49.48,94.23 49.06,94.42 48.61,94.64 48.11,94.90" fill="none" stroke="black" stroke-width="0.5"/><polyline points="40.19,93.73 39.96,94.18 39.82,94.53 39.72,94.85 39.62,95.17 39.51,95.52 39.40,95.88 39.30,96.22 39.20,96.54 39.10,96.85 39.01,97.15 38.93,97.43 38.85,97.75 38.74,98.15" fill="none" stroke="black" stroke-width="0.5"/><polyline points="40.77,94.03 40.65,94.54 40.54,95.02 40.45,95.44 40.37,95.78 40.30,96.09 40.22,96.42 40.13,96.79 40.04,97.17 39.96,97.53 39.88,97.86 39.80,98.19 39.70,98.59" fill="none" stroke="black" stroke-width="0.5"/><polyline points="31.39,94.36 30.95,94.48 30.57,94.63 30.26,94.79 29.91,95.02 29.60,95.30 29.31,95.64 29.03,96.00 28.78,96.39 28.60,96.83 28.59,97.32 28.65,97.71 28.71,98.03 28.79,98.39 28.97,98.83" fill="none" stroke="black" stroke-width="0.5"/><polyline points="50.87,94.96 50.33,95.23 49.82,95.47 49.34,95.70 48.87,95.93 48.39,96.20" fill="none" stroke="black" stroke-width="0.5"/><polyline points="25.92,95.45 25.53,95.76 25.17,96.01 24.81,96.31 24.44,96.75" fill="none" stroke="black" stroke-width="0.5"/><polyline points="41.60,96.09 41.34,96.51 41.19,96.88 41.11,97.22 41.06,97.55 41.01,97.90 40.94,98.27 40.81,98.70" fill="none" stroke="black" stroke-width="0.5"/><polyline points="51.09,96.27 50.54,96.52 49.89,96.82 49.27,97.14" fill="none" stroke="black" stroke-width="0.5"/><polyline points="51.55,97.38 51.12,97.61 50.69,97.83 50.27,98.04 49.84,98.24 49.39,98.43" fill="none" stroke="black" stroke-width="0.5"/></svg>